M48
;DRILL file {KiCad 4.0.6} date 03/30/17 05:01:25
;FORMAT={-:-/ absolute / metric / decimal}
FMAT,2
METRIC,TZ
T1C0.400
T2C0.500
T3C0.600
T4C0.762
T5C0.800
T6C0.950
T7C1.000
%
G90
G05
M71
T1
X145.4Y-88.6
X147.Y-91.5
X148.8Y-89.7
X151.Y-93.25
X152.Y-78.5
X152.Y-90.7
X155.5Y-91.
X156.6Y-82.
X157.4Y-72.9
X160.1Y-88.1
X160.75Y-64.5
X160.8Y-89.
X161.9Y-89.6
X162.75Y-74.25
X163.Y-93.1
X163.5Y-67.75
X163.8Y-94.4
X166.1Y-91.3
X166.7Y-92.
X174.75Y-61.25
X175.5Y-91.75
X175.75Y-61.25
X176.5Y-86.5
X177.Y-87.25
X177.Y-88.25
X177.1Y-81.6
X177.4Y-109.8
X179.4Y-77.6
X179.6Y-89.8
X183.5Y-82.25
X184.Y-87.25
X185.75Y-78.25
X186.75Y-78.25
X187.579Y-107.315
X188.214Y-107.95
X194.31Y-105.918
X194.945Y-106.553
X199.6Y-93.1
X203.5Y-89.7
X205.Y-65.4
X214.5Y-100.
X215.Y-79.
X219.Y-83.
X219.Y-97.
X219.25Y-93.25
X221.75Y-86.75
X222.Y-83.
X222.Y-97.
X225.Y-101.5
X225.5Y-101.
X225.75Y-79.25
X226.75Y-78.
T2
X143.5Y-75.25
X147.5Y-105.25
X151.5Y-98.25
X151.6Y-58.9
X152.5Y-123.25
X155.5Y-87.
X158.Y-67.4
X160.75Y-56.75
X164.9Y-96.3
X168.75Y-91.75
X173.5Y-95.
X173.7Y-98.
X179.5Y-112.
X181.Y-79.8
X181.1Y-88.7
X185.25Y-80.25
X193.3Y-69.6
X201.4Y-91.7
X220.5Y-81.4
X220.5Y-84.25
X220.5Y-96.
X220.5Y-98.7
X222.2Y-75.8
T3
X150.5Y-70.5
X162.75Y-84.75
X167.6Y-67.6
X167.9Y-78.1
X168.5Y-71.25
X168.75Y-81.75
X170.18Y-76.2
X171.Y-82.
X172.Y-63.8
X172.8Y-77.6
X173.4Y-75.4
X185.4Y-75.4
X187.Y-100.75
X187.75Y-80.
X188.9Y-83.5
X194.Y-74.5
X201.Y-63.75
X211.3Y-95.7
X211.3Y-104.9
X211.5Y-75.7
X211.5Y-83.
X212.75Y-64.75
X220.5Y-79.3
X220.5Y-100.7
X229.5Y-90.
T4
X168.09Y-106.15
X168.09Y-108.69
X168.09Y-111.23
X168.09Y-113.77
X168.09Y-116.31
X168.09Y-118.85
X175.71Y-106.15
X175.71Y-108.69
X175.71Y-111.23
X175.71Y-113.77
X175.71Y-116.31
X175.71Y-118.85
T5
X219.5Y-88.5
X219.5Y-91.5
X221.5Y-88.5
X221.5Y-91.5
X222.25Y-57.15
X224.79Y-57.15
X227.33Y-57.15
X227.972Y-62.047
X227.972Y-67.047
X229.972Y-62.047
X229.972Y-67.047
X231.972Y-62.047
X231.972Y-67.047
T6
X187.19Y-69.625
X187.19Y-110.375
X189.73Y-69.625
X189.73Y-110.375
X208.27Y-69.625
X208.27Y-110.375
X210.81Y-69.625
X210.81Y-110.375
T7
X144.25Y-82.25
X144.5Y-97.
X146.046Y-80.454
X146.25Y-84.25
X146.296Y-98.796
X146.454Y-94.954
X148.046Y-82.454
X148.25Y-96.75
X152.5Y-114.
X152.559Y-66.001
X152.941Y-116.501
X153.Y-63.5
X155.5Y-113.5
X155.559Y-66.501
X155.941Y-116.001
X156.Y-64.
X161.76Y-124.
X164.3Y-56.
X164.3Y-124.
X166.84Y-56.
X166.84Y-124.
X169.38Y-56.
X169.38Y-124.
X171.92Y-56.
X171.92Y-124.
X174.46Y-56.
X174.46Y-124.
X177.Y-56.
X177.Y-124.
T0
M30
