G04 #@! TF.FileFunction,Paste,Top*
%FSLAX46Y46*%
G04 Gerber Fmt 4.6, Leading zero omitted, Abs format (unit mm)*
G04 Created by KiCad (PCBNEW 4.0.6) date 03/30/17 05:01:34*
%MOMM*%
%LPD*%
G01*
G04 APERTURE LIST*
%ADD10C,0.100000*%
%ADD11R,1.300000X1.550000*%
%ADD12R,1.700000X0.900000*%
%ADD13R,1.600000X1.000000*%
%ADD14R,1.000000X1.600000*%
%ADD15R,0.500000X0.900000*%
%ADD16R,0.900000X0.500000*%
%ADD17R,0.797560X0.797560*%
%ADD18R,0.230000X0.600000*%
%ADD19R,0.600000X0.230000*%
%ADD20R,0.300000X1.200000*%
%ADD21R,1.200000X0.300000*%
%ADD22R,2.370000X2.430000*%
%ADD23R,0.800000X0.750000*%
%ADD24R,0.750000X0.800000*%
%ADD25R,1.473200X0.355600*%
%ADD26R,2.946400X3.581400*%
%ADD27R,1.250000X1.000000*%
%ADD28R,1.000000X2.500000*%
%ADD29R,2.500000X1.000000*%
%ADD30R,0.550000X1.000000*%
%ADD31R,1.500000X0.550000*%
%ADD32R,0.450000X0.700000*%
G04 APERTURE END LIST*
D10*
G36*
X221871600Y-81001800D02*
X221871600Y-79401600D01*
X220601600Y-79401600D01*
X220601600Y-81001800D01*
X221871600Y-81001800D01*
G37*
G36*
X221871600Y-79198400D02*
X221871600Y-77598200D01*
X220601600Y-77598200D01*
X220601600Y-79198400D01*
X221871600Y-79198400D01*
G37*
G36*
X220398400Y-81001800D02*
X220398400Y-79401600D01*
X219128400Y-79401600D01*
X219128400Y-81001800D01*
X220398400Y-81001800D01*
G37*
G36*
X220398400Y-79198400D02*
X220398400Y-77598200D01*
X219128400Y-77598200D01*
X219128400Y-79198400D01*
X220398400Y-79198400D01*
G37*
G36*
X219128400Y-98998200D02*
X219128400Y-100598400D01*
X220398400Y-100598400D01*
X220398400Y-98998200D01*
X219128400Y-98998200D01*
G37*
G36*
X219128400Y-100801600D02*
X219128400Y-102401800D01*
X220398400Y-102401800D01*
X220398400Y-100801600D01*
X219128400Y-100801600D01*
G37*
G36*
X220601600Y-98998200D02*
X220601600Y-100598400D01*
X221871600Y-100598400D01*
X221871600Y-98998200D01*
X220601600Y-98998200D01*
G37*
G36*
X220601600Y-100801600D02*
X220601600Y-102401800D01*
X221871600Y-102401800D01*
X221871600Y-100801600D01*
X220601600Y-100801600D01*
G37*
D11*
X225250000Y-123975000D03*
X220750000Y-123975000D03*
X220750000Y-116025000D03*
X225250000Y-116025000D03*
D12*
X220500000Y-85950000D03*
X220500000Y-83050000D03*
X220500000Y-94050000D03*
X220500000Y-96950000D03*
D13*
X187750000Y-82000000D03*
X187750000Y-85000000D03*
D14*
X188100000Y-98000000D03*
X185100000Y-98000000D03*
X165700000Y-113700000D03*
X162700000Y-113700000D03*
X170300000Y-65800000D03*
X173300000Y-65800000D03*
D15*
X183399000Y-101085000D03*
X181899000Y-101085000D03*
X183399000Y-102885000D03*
X181899000Y-102885000D03*
X183399000Y-104685000D03*
X181899000Y-104685000D03*
D16*
X176200000Y-77750000D03*
X176200000Y-76250000D03*
X178000000Y-76250000D03*
X178000000Y-77750000D03*
X177200000Y-66350000D03*
X177200000Y-64850000D03*
D15*
X230750000Y-114000000D03*
X232250000Y-114000000D03*
X223250000Y-114000000D03*
X224750000Y-114000000D03*
D16*
X204800000Y-90150000D03*
X204800000Y-88650000D03*
X197500000Y-93150000D03*
X197500000Y-91650000D03*
X152000000Y-87250000D03*
X152000000Y-88750000D03*
X153750000Y-88000000D03*
X153750000Y-89500000D03*
X178400000Y-81150000D03*
X178400000Y-82650000D03*
D15*
X183399000Y-106485000D03*
X181899000Y-106485000D03*
X154750000Y-56500000D03*
X153250000Y-56500000D03*
D17*
X180598300Y-106485000D03*
X179099700Y-106485000D03*
X180598300Y-102885000D03*
X179099700Y-102885000D03*
X180598300Y-104685000D03*
X179099700Y-104685000D03*
X175400000Y-64850700D03*
X175400000Y-66349300D03*
X180598300Y-101085000D03*
X179099700Y-101085000D03*
D18*
X150000000Y-88500000D03*
X149600000Y-88500000D03*
X149200000Y-88500000D03*
X148800000Y-88500000D03*
X148400000Y-88500000D03*
X148000000Y-88500000D03*
D19*
X147500000Y-89000000D03*
X147500000Y-89400000D03*
X147500000Y-89800000D03*
X147500000Y-90200000D03*
X147500000Y-90600000D03*
X147500000Y-91000000D03*
D18*
X148000000Y-91500000D03*
X148400000Y-91500000D03*
X148800000Y-91500000D03*
X149200000Y-91500000D03*
X149600000Y-91500000D03*
X150000000Y-91500000D03*
D19*
X150500000Y-91000000D03*
X150500000Y-90600000D03*
X150500000Y-90200000D03*
X150500000Y-89800000D03*
X150500000Y-89400000D03*
X150500000Y-89000000D03*
D20*
X178249937Y-84249937D03*
D21*
X174249937Y-89249937D03*
X174249937Y-92749938D03*
X174249937Y-93249938D03*
X174249937Y-93749938D03*
D20*
X176249937Y-95749938D03*
X177749937Y-95749938D03*
X178249937Y-95749938D03*
X178749937Y-95749938D03*
X179249937Y-95749938D03*
D21*
X185749938Y-89749937D03*
X185749938Y-89249937D03*
X185749938Y-88749937D03*
X185749938Y-88249937D03*
X185749938Y-87749937D03*
X185749938Y-87249937D03*
D20*
X183749938Y-84249937D03*
X183249938Y-84249937D03*
X180749938Y-95749938D03*
X181249938Y-95749938D03*
X181749938Y-95749938D03*
X180749938Y-84249937D03*
X180249938Y-84249937D03*
X179749937Y-84249937D03*
X179249937Y-84249937D03*
X178749937Y-84249937D03*
X177749937Y-84249937D03*
X177249937Y-84249937D03*
X182249938Y-95749938D03*
X182749938Y-95749938D03*
D21*
X185749938Y-93749938D03*
X185749938Y-93249938D03*
X185749938Y-92749938D03*
X185749938Y-92249938D03*
X174249937Y-89749937D03*
X174249937Y-90249938D03*
X174249937Y-90749938D03*
X174249937Y-91249938D03*
D20*
X179749937Y-95749938D03*
X180249938Y-95749938D03*
D21*
X185749938Y-91749938D03*
X185749938Y-91249938D03*
X185749938Y-90749938D03*
X185749938Y-90249938D03*
D20*
X182749938Y-84249937D03*
X182249938Y-84249937D03*
X181749938Y-84249937D03*
D21*
X174249937Y-86749937D03*
X174249937Y-87249937D03*
X174249937Y-87749937D03*
D20*
X181249938Y-84249937D03*
D21*
X174249937Y-88249937D03*
X174249937Y-88749937D03*
X174249937Y-86249937D03*
D20*
X183249938Y-95749938D03*
D21*
X185749938Y-86749937D03*
X174249937Y-92249938D03*
D20*
X177249937Y-95749938D03*
X183749938Y-95749938D03*
D21*
X185749938Y-86249937D03*
D20*
X176249937Y-84249937D03*
D21*
X174249937Y-91749938D03*
D20*
X176749937Y-95749938D03*
X176749937Y-84249937D03*
D11*
X164650000Y-73975000D03*
X160150000Y-73975000D03*
X160150000Y-66025000D03*
X164650000Y-66025000D03*
X232750000Y-123975000D03*
X228250000Y-123975000D03*
X228250000Y-116025000D03*
X232750000Y-116025000D03*
D22*
X226880000Y-90000000D03*
X233120000Y-90000000D03*
D23*
X172650000Y-68000000D03*
X174150000Y-68000000D03*
X171150000Y-68000000D03*
X169650000Y-68000000D03*
X177150000Y-68000000D03*
X175650000Y-68000000D03*
X165650000Y-111800000D03*
X164150000Y-111800000D03*
D24*
X146100000Y-90850000D03*
X146100000Y-89350000D03*
X142400000Y-90750000D03*
X142400000Y-89250000D03*
X226500000Y-100250000D03*
X226500000Y-101750000D03*
X227250000Y-80500000D03*
X227250000Y-79000000D03*
D23*
X162850000Y-75900000D03*
X164350000Y-75900000D03*
X171750000Y-92000000D03*
X170250000Y-92000000D03*
D24*
X174500000Y-82750000D03*
X174500000Y-84250000D03*
X172750000Y-84250000D03*
X172750000Y-82750000D03*
D23*
X175050000Y-97700000D03*
X176550000Y-97700000D03*
X186551000Y-96012000D03*
X185051000Y-96012000D03*
D24*
X185674000Y-84316000D03*
X185674000Y-82816000D03*
D23*
X178150000Y-74800000D03*
X176650000Y-74800000D03*
D25*
X223319400Y-81575840D03*
X223319400Y-80925600D03*
X223319400Y-80275359D03*
X223319400Y-79625119D03*
X223319400Y-78974881D03*
X223319400Y-78324641D03*
X223319400Y-77674400D03*
X223319400Y-77024160D03*
X217680600Y-77024160D03*
X217680600Y-77674400D03*
X217680600Y-78324641D03*
X217680600Y-78974881D03*
X217680600Y-79625119D03*
X217680600Y-80275359D03*
X217680600Y-80925600D03*
X217680600Y-81575840D03*
D26*
X220500000Y-79300000D03*
D25*
X217680600Y-98424160D03*
X217680600Y-99074400D03*
X217680600Y-99724641D03*
X217680600Y-100374881D03*
X217680600Y-101025119D03*
X217680600Y-101675359D03*
X217680600Y-102325600D03*
X217680600Y-102975840D03*
X223319400Y-102975840D03*
X223319400Y-102325600D03*
X223319400Y-101675359D03*
X223319400Y-101025119D03*
X223319400Y-100374881D03*
X223319400Y-99724641D03*
X223319400Y-99074400D03*
X223319400Y-98424160D03*
D26*
X220500000Y-100700000D03*
D27*
X144300000Y-91000000D03*
X144300000Y-89000000D03*
D28*
X179700000Y-75600000D03*
X182700000Y-75600000D03*
D29*
X174800000Y-69900000D03*
X174800000Y-72900000D03*
D30*
X172349938Y-72550063D03*
X171399937Y-72550063D03*
X170449937Y-72550063D03*
X172349938Y-69850062D03*
X170449937Y-69850062D03*
D31*
X182900063Y-71835063D03*
X177500062Y-71835063D03*
X182900063Y-73105063D03*
X182900063Y-70565062D03*
X182900063Y-69295062D03*
X177500062Y-70565062D03*
X177500062Y-69295062D03*
X177500062Y-73105063D03*
D32*
X161150000Y-119250000D03*
X159850000Y-119250000D03*
X160500000Y-121250000D03*
X156150000Y-99000000D03*
X154850000Y-99000000D03*
X155500000Y-101000000D03*
X152600000Y-82250000D03*
X153900000Y-82250000D03*
X153250000Y-80250000D03*
X158150000Y-60100000D03*
X159450000Y-60100000D03*
X158800000Y-58100000D03*
D16*
X153000000Y-59650000D03*
X153000000Y-58150000D03*
X145750000Y-75250000D03*
X145750000Y-73750000D03*
D15*
X146250000Y-103250000D03*
X147750000Y-103250000D03*
D16*
X152500000Y-120250000D03*
X152500000Y-121750000D03*
X159200000Y-63050000D03*
X159200000Y-61550000D03*
X161100000Y-59850000D03*
X161100000Y-58350000D03*
X151750000Y-85250000D03*
X151750000Y-83750000D03*
X155500000Y-82250000D03*
X155500000Y-80750000D03*
D15*
X153250000Y-96000000D03*
X154750000Y-96000000D03*
D16*
X153250000Y-99250000D03*
X153250000Y-100750000D03*
D15*
X159750000Y-117500000D03*
X161250000Y-117500000D03*
D16*
X158250000Y-119250000D03*
X158250000Y-120750000D03*
D23*
X229250000Y-114000000D03*
X227750000Y-114000000D03*
X221750000Y-114000000D03*
X220250000Y-114000000D03*
X155750000Y-70900000D03*
X157250000Y-70900000D03*
X155750000Y-69250000D03*
X157250000Y-69250000D03*
D24*
X151000000Y-81250000D03*
X151000000Y-79750000D03*
X149250000Y-78750000D03*
X149250000Y-77250000D03*
X151500000Y-99500000D03*
X151500000Y-101000000D03*
X149750000Y-99500000D03*
X149750000Y-101000000D03*
X156600000Y-119400000D03*
X156600000Y-120900000D03*
X155000000Y-120000000D03*
X155000000Y-121500000D03*
D17*
X180581300Y-108204000D03*
X179082700Y-108204000D03*
X180581300Y-109982000D03*
X179082700Y-109982000D03*
D15*
X183376000Y-108204000D03*
X181876000Y-108204000D03*
X183376000Y-109982000D03*
X181876000Y-109982000D03*
M02*
