M48
;DRILL file {KiCad 4.0.2-stable} date 4/6/2016 7:40:06 AM
;FORMAT={-:-/ absolute / metric / decimal}
FMAT,2
METRIC,TZ
T1C0.400
T2C0.500
T3C0.600
T4C0.762
T5C0.800
T6C0.950
T7C1.016
T8C2.286
%
G90
G05
M71
T1
X146.08Y-95.25
X146.82Y-85.49
X148.175Y-83.7
X148.9Y-83.
X149.4Y-80.275
X151.17Y-85.49
X151.525Y-79.325
X151.71Y-95.25
X152.02Y-94.34
X153.325Y-109.175
X153.75Y-85.
X153.75Y-90.
X153.75Y-91.75
X156.25Y-86.
X157.Y-90.
X157.75Y-85.
X158.Y-61.
X161.5Y-85.25
X163.25Y-108.5
X165.25Y-111.
X166.Y-91.12
X166.Y-109.
X166.38Y-118.29
X167.43Y-109.83
X168.25Y-60.
X169.26Y-110.45
X170.03Y-104.53
X171.03Y-97.52
X171.25Y-86.5
X171.5Y-91.5
X171.84Y-96.59
X172.25Y-117.75
X172.75Y-60.75
X172.75Y-98.75
X175.98Y-93.85
X176.Y-91.5
X177.1Y-93.97
X178.03Y-90.72
X178.75Y-78.
X180.25Y-90.05
X180.5Y-99.75
X180.5Y-100.75
X180.8Y-80.8
X180.8Y-93.6
X181.33Y-90.13
X181.6Y-94.
X183.01Y-89.01
X183.18Y-86.78
X187.2Y-73.63
X188.Y-87.
X188.09Y-73.8
X193.4Y-104.4
X194.Y-103.6
X194.6Y-102.8
X195.2Y-102.
X202.29Y-104.09
X202.39Y-103.16
X203.Y-74.15
X204.Y-86.
X204.15Y-74.1
X205.Y-65.4
X208.Y-97.
X211.97Y-90.46
X212.Y-100.
X212.2Y-79.8
X212.31Y-89.1
X213.25Y-90.69
X213.27Y-80.14
X214.66Y-89.53
X218.5Y-103.75
X218.8Y-102.4
X218.885Y-100.135
X218.9Y-101.2
X219.24Y-85.75
X219.45Y-66.8
X220.86Y-86.65
X223.85Y-98.4
X224.01Y-95.01
X224.075Y-96.025
X224.125Y-97.075
X224.9Y-69.6
X228.Y-91.
X228.35Y-91.75
X228.8Y-92.4
X229.1Y-72.5
X229.15Y-93.1
X229.9Y-78.85
X231.2Y-74.4
X234.8Y-71.4
T2
X177.Y-80.6
X209.63Y-84.28
X209.64Y-95.81
X215.34Y-93.6
X215.47Y-86.24
X216.06Y-96.45
X216.28Y-91.25
X227.66Y-78.91
T3
X144.Y-94.6
X145.Y-89.5
X162.25Y-81.75
X163.86Y-94.8
X164.25Y-103.02
X165.27Y-120.08
X167.6Y-67.6
X168.25Y-81.75
X168.5Y-75.5
X171.Y-82.
X172.Y-63.8
X172.8Y-77.6
X173.4Y-75.4
X173.75Y-95.25
X174.6Y-109.8
X179.8Y-67.2
X185.4Y-75.4
X185.75Y-80.
X186.25Y-107.25
X186.5Y-99.75
X188.75Y-107.5
X194.Y-74.5
X206.165Y-81.085
X213.343Y-84.015
X213.343Y-95.985
X215.225Y-66.275
X215.375Y-63.575
X218.Y-69.5
X221.5Y-90.
X229.5Y-69.5
X233.5Y-68.5
T4
X161.59Y-89.45
X161.59Y-91.99
X161.59Y-94.53
X161.59Y-97.07
X161.59Y-99.61
X161.59Y-102.15
X169.21Y-89.45
X169.21Y-91.99
X169.21Y-94.53
X169.21Y-97.07
X169.21Y-99.61
X169.21Y-102.15
T5
X222.46Y-122.
X225.Y-122.
X227.028Y-110.953
X227.028Y-116.953
X227.54Y-122.
X229.028Y-110.953
X229.028Y-116.953
X231.028Y-110.953
X231.028Y-116.953
T6
X187.19Y-69.625
X187.19Y-110.375
X189.73Y-69.625
X189.73Y-110.375
X197.73Y-88.
X197.73Y-92.
X200.27Y-88.
X200.27Y-92.
X208.27Y-69.625
X208.27Y-110.375
X210.81Y-69.625
X210.81Y-110.375
T7
X138.612Y-86.388
X138.612Y-93.612
X140.408Y-84.592
X140.408Y-95.408
X142.204Y-82.796
X142.204Y-97.204
X144.Y-81.
X144.Y-99.
X145.796Y-79.204
X145.796Y-100.796
X147.592Y-77.408
X147.592Y-102.592
X149.388Y-75.612
X149.388Y-104.388
X157.677Y-103.496
X158.118Y-105.997
X158.559Y-108.499
X158.677Y-76.504
X159.Y-111.
X159.118Y-74.003
X159.441Y-113.501
X159.559Y-71.501
X159.882Y-116.003
X160.Y-69.
X160.323Y-118.504
X160.441Y-66.499
X160.882Y-63.997
X161.323Y-61.496
X166.84Y-56.
X166.84Y-124.
X169.38Y-56.
X169.38Y-124.
X171.92Y-56.
X171.92Y-124.
X174.46Y-56.
X174.46Y-124.
X177.Y-56.
X177.Y-124.
T8
X190.Y-75.15
X190.Y-104.85
X208.Y-75.15
X208.Y-104.85
T0
M30
