%FSLAX45Y45*%
G04 Gerber Fmt 4.5, Leading zero omitted, Abs format (unit mm)*
G04 Created by KiCad (PCBNEW 4.0.2-stable) date 4/4/2016 10:35:26 AM*
%MOMM*%
G01*
G04 APERTURE LIST*
%ADD10C,0.127000*%
%ADD11C,0.150000*%
%ADD12C,0.200000*%
%ADD13C,0.300000*%
G04 APERTURE END LIST*
D10*
D11*
X21800000Y-5300000D02*
X23250000Y-5300000D01*
X21800000Y-12700000D02*
X23350000Y-12700000D01*
X23900000Y-12150000D02*
X23350000Y-12700000D01*
X23900000Y-5950000D02*
X23900000Y-12150000D01*
X23900000Y-5950000D02*
X23250000Y-5300000D01*
X17100000Y-12700000D02*
X17300000Y-12700000D01*
X13400000Y-9000000D02*
G75*
G03X17100000Y-12700000I3700000J0D01*
G01*
X17200000Y-5300000D02*
X17100000Y-5300000D01*
X17100000Y-5300000D02*
G75*
G03X13400000Y-9000000I0J-3700000D01*
G01*
X18000000Y-12700000D02*
X17300000Y-12700000D01*
X18000000Y-11800000D02*
X18000000Y-12700000D01*
X21800000Y-11800000D02*
X18000000Y-11800000D01*
X21800000Y-12700000D02*
X21800000Y-11800000D01*
X21800000Y-6200000D02*
X21800000Y-5300000D01*
X18300000Y-6200000D02*
X21800000Y-6200000D01*
X18000000Y-5300000D02*
X17200000Y-5300000D01*
X18000000Y-6200000D02*
X18000000Y-5300000D01*
X18300000Y-6200000D02*
X18000000Y-6200000D01*
D12*
X18885700Y-7400700D02*
X19114300Y-7629300D01*
X19114300Y-7400700D02*
X18885700Y-7629300D01*
X18885700Y-10370700D02*
X19114300Y-10599300D01*
X19114300Y-10370700D02*
X18885700Y-10599300D01*
X20685700Y-7400700D02*
X20914300Y-7629300D01*
X20914300Y-7400700D02*
X20685700Y-7629300D01*
X20685700Y-10370700D02*
X20914300Y-10599300D01*
X20914300Y-10370700D02*
X20685700Y-10599300D01*
D13*
X13663928Y-13173214D02*
X13663928Y-12873214D01*
X13735357Y-12873214D01*
X13778214Y-12887500D01*
X13806786Y-12916071D01*
X13821071Y-12944643D01*
X13835357Y-13001786D01*
X13835357Y-13044643D01*
X13821071Y-13101786D01*
X13806786Y-13130357D01*
X13778214Y-13158929D01*
X13735357Y-13173214D01*
X13663928Y-13173214D01*
X13963928Y-13173214D02*
X13963928Y-12973214D01*
X13963928Y-13030357D02*
X13978214Y-13001786D01*
X13992500Y-12987500D01*
X14021071Y-12973214D01*
X14049643Y-12973214D01*
X14149643Y-13173214D02*
X14149643Y-12973214D01*
X14149643Y-12873214D02*
X14135357Y-12887500D01*
X14149643Y-12901786D01*
X14163928Y-12887500D01*
X14149643Y-12873214D01*
X14149643Y-12901786D01*
X14335357Y-13173214D02*
X14306786Y-13158929D01*
X14292500Y-13130357D01*
X14292500Y-12873214D01*
X14492500Y-13173214D02*
X14463928Y-13158929D01*
X14449643Y-13130357D01*
X14449643Y-12873214D01*
X14835357Y-13173214D02*
X14835357Y-12873214D01*
X14935357Y-13087500D01*
X15035357Y-12873214D01*
X15035357Y-13173214D01*
X15306786Y-13173214D02*
X15306786Y-13016071D01*
X15292500Y-12987500D01*
X15263928Y-12973214D01*
X15206786Y-12973214D01*
X15178214Y-12987500D01*
X15306786Y-13158929D02*
X15278214Y-13173214D01*
X15206786Y-13173214D01*
X15178214Y-13158929D01*
X15163928Y-13130357D01*
X15163928Y-13101786D01*
X15178214Y-13073214D01*
X15206786Y-13058929D01*
X15278214Y-13058929D01*
X15306786Y-13044643D01*
X15449643Y-12973214D02*
X15449643Y-13273214D01*
X15449643Y-12987500D02*
X15478214Y-12973214D01*
X15535357Y-12973214D01*
X15563928Y-12987500D01*
X15578214Y-13001786D01*
X15592500Y-13030357D01*
X15592500Y-13116071D01*
X15578214Y-13144643D01*
X15563928Y-13158929D01*
X15535357Y-13173214D01*
X15478214Y-13173214D01*
X15449643Y-13158929D01*
X15721071Y-13144643D02*
X15735357Y-13158929D01*
X15721071Y-13173214D01*
X15706786Y-13158929D01*
X15721071Y-13144643D01*
X15721071Y-13173214D01*
X15721071Y-12987500D02*
X15735357Y-13001786D01*
X15721071Y-13016071D01*
X15706786Y-13001786D01*
X15721071Y-12987500D01*
X15721071Y-13016071D01*
X13163900Y-13553200D02*
X13392500Y-13781800D01*
X13392500Y-13553200D02*
X13163900Y-13781800D01*
X13649643Y-13531786D02*
X13663928Y-13517500D01*
X13692500Y-13503214D01*
X13763928Y-13503214D01*
X13792500Y-13517500D01*
X13806786Y-13531786D01*
X13821071Y-13560357D01*
X13821071Y-13588929D01*
X13806786Y-13631786D01*
X13635357Y-13803214D01*
X13821071Y-13803214D01*
X13949643Y-13774643D02*
X13963928Y-13788929D01*
X13949643Y-13803214D01*
X13935357Y-13788929D01*
X13949643Y-13774643D01*
X13949643Y-13803214D01*
X14078214Y-13531786D02*
X14092500Y-13517500D01*
X14121071Y-13503214D01*
X14192500Y-13503214D01*
X14221071Y-13517500D01*
X14235357Y-13531786D01*
X14249643Y-13560357D01*
X14249643Y-13588929D01*
X14235357Y-13631786D01*
X14063928Y-13803214D01*
X14249643Y-13803214D01*
X14392500Y-13803214D02*
X14449643Y-13803214D01*
X14478214Y-13788929D01*
X14492500Y-13774643D01*
X14521071Y-13731786D01*
X14535357Y-13674643D01*
X14535357Y-13560357D01*
X14521071Y-13531786D01*
X14506786Y-13517500D01*
X14478214Y-13503214D01*
X14421071Y-13503214D01*
X14392500Y-13517500D01*
X14378214Y-13531786D01*
X14363928Y-13560357D01*
X14363928Y-13631786D01*
X14378214Y-13660357D01*
X14392500Y-13674643D01*
X14421071Y-13688929D01*
X14478214Y-13688929D01*
X14506786Y-13674643D01*
X14521071Y-13660357D01*
X14535357Y-13631786D01*
X14663928Y-13803214D02*
X14663928Y-13603214D01*
X14663928Y-13631786D02*
X14678214Y-13617500D01*
X14706786Y-13603214D01*
X14749643Y-13603214D01*
X14778214Y-13617500D01*
X14792500Y-13646071D01*
X14792500Y-13803214D01*
X14792500Y-13646071D02*
X14806786Y-13617500D01*
X14835357Y-13603214D01*
X14878214Y-13603214D01*
X14906786Y-13617500D01*
X14921071Y-13646071D01*
X14921071Y-13803214D01*
X15063928Y-13803214D02*
X15063928Y-13603214D01*
X15063928Y-13631786D02*
X15078214Y-13617500D01*
X15106786Y-13603214D01*
X15149643Y-13603214D01*
X15178214Y-13617500D01*
X15192500Y-13646071D01*
X15192500Y-13803214D01*
X15192500Y-13646071D02*
X15206786Y-13617500D01*
X15235357Y-13603214D01*
X15278214Y-13603214D01*
X15306786Y-13617500D01*
X15321071Y-13646071D01*
X15321071Y-13803214D01*
X15906786Y-13488929D02*
X15649643Y-13874643D01*
X16292500Y-13503214D02*
X16321071Y-13503214D01*
X16349643Y-13517500D01*
X16363928Y-13531786D01*
X16378214Y-13560357D01*
X16392500Y-13617500D01*
X16392500Y-13688929D01*
X16378214Y-13746071D01*
X16363928Y-13774643D01*
X16349643Y-13788929D01*
X16321071Y-13803214D01*
X16292500Y-13803214D01*
X16263928Y-13788929D01*
X16249643Y-13774643D01*
X16235357Y-13746071D01*
X16221071Y-13688929D01*
X16221071Y-13617500D01*
X16235357Y-13560357D01*
X16249643Y-13531786D01*
X16263928Y-13517500D01*
X16292500Y-13503214D01*
X16521071Y-13774643D02*
X16535357Y-13788929D01*
X16521071Y-13803214D01*
X16506786Y-13788929D01*
X16521071Y-13774643D01*
X16521071Y-13803214D01*
X16721071Y-13503214D02*
X16749643Y-13503214D01*
X16778214Y-13517500D01*
X16792500Y-13531786D01*
X16806786Y-13560357D01*
X16821071Y-13617500D01*
X16821071Y-13688929D01*
X16806786Y-13746071D01*
X16792500Y-13774643D01*
X16778214Y-13788929D01*
X16749643Y-13803214D01*
X16721071Y-13803214D01*
X16692500Y-13788929D01*
X16678214Y-13774643D01*
X16663928Y-13746071D01*
X16649643Y-13688929D01*
X16649643Y-13617500D01*
X16663928Y-13560357D01*
X16678214Y-13531786D01*
X16692500Y-13517500D01*
X16721071Y-13503214D01*
X16963928Y-13803214D02*
X17021071Y-13803214D01*
X17049643Y-13788929D01*
X17063928Y-13774643D01*
X17092500Y-13731786D01*
X17106786Y-13674643D01*
X17106786Y-13560357D01*
X17092500Y-13531786D01*
X17078214Y-13517500D01*
X17049643Y-13503214D01*
X16992500Y-13503214D01*
X16963928Y-13517500D01*
X16949643Y-13531786D01*
X16935357Y-13560357D01*
X16935357Y-13631786D01*
X16949643Y-13660357D01*
X16963928Y-13674643D01*
X16992500Y-13688929D01*
X17049643Y-13688929D01*
X17078214Y-13674643D01*
X17092500Y-13660357D01*
X17106786Y-13631786D01*
X17292500Y-13503214D02*
X17321071Y-13503214D01*
X17349643Y-13517500D01*
X17363928Y-13531786D01*
X17378214Y-13560357D01*
X17392500Y-13617500D01*
X17392500Y-13688929D01*
X17378214Y-13746071D01*
X17363928Y-13774643D01*
X17349643Y-13788929D01*
X17321071Y-13803214D01*
X17292500Y-13803214D01*
X17263928Y-13788929D01*
X17249643Y-13774643D01*
X17235357Y-13746071D01*
X17221071Y-13688929D01*
X17221071Y-13617500D01*
X17235357Y-13560357D01*
X17249643Y-13531786D01*
X17263928Y-13517500D01*
X17292500Y-13503214D01*
X17506786Y-13503214D02*
X17506786Y-13560357D01*
X17621071Y-13503214D02*
X17621071Y-13560357D01*
X18063928Y-13917500D02*
X18049643Y-13903214D01*
X18021071Y-13860357D01*
X18006786Y-13831786D01*
X17992500Y-13788929D01*
X17978214Y-13717500D01*
X17978214Y-13660357D01*
X17992500Y-13588929D01*
X18006786Y-13546071D01*
X18021071Y-13517500D01*
X18049643Y-13474643D01*
X18063928Y-13460357D01*
X18306786Y-13603214D02*
X18306786Y-13803214D01*
X18235357Y-13488929D02*
X18163928Y-13703214D01*
X18349643Y-13703214D01*
X18692500Y-13803214D02*
X18692500Y-13503214D01*
X18821071Y-13803214D02*
X18821071Y-13646071D01*
X18806786Y-13617500D01*
X18778214Y-13603214D01*
X18735357Y-13603214D01*
X18706786Y-13617500D01*
X18692500Y-13631786D01*
X19006786Y-13803214D02*
X18978214Y-13788929D01*
X18963928Y-13774643D01*
X18949643Y-13746071D01*
X18949643Y-13660357D01*
X18963928Y-13631786D01*
X18978214Y-13617500D01*
X19006786Y-13603214D01*
X19049643Y-13603214D01*
X19078214Y-13617500D01*
X19092500Y-13631786D01*
X19106786Y-13660357D01*
X19106786Y-13746071D01*
X19092500Y-13774643D01*
X19078214Y-13788929D01*
X19049643Y-13803214D01*
X19006786Y-13803214D01*
X19278214Y-13803214D02*
X19249643Y-13788929D01*
X19235357Y-13760357D01*
X19235357Y-13503214D01*
X19506786Y-13788929D02*
X19478214Y-13803214D01*
X19421071Y-13803214D01*
X19392500Y-13788929D01*
X19378214Y-13760357D01*
X19378214Y-13646071D01*
X19392500Y-13617500D01*
X19421071Y-13603214D01*
X19478214Y-13603214D01*
X19506786Y-13617500D01*
X19521071Y-13646071D01*
X19521071Y-13674643D01*
X19378214Y-13703214D01*
X19635357Y-13788929D02*
X19663929Y-13803214D01*
X19721071Y-13803214D01*
X19749643Y-13788929D01*
X19763929Y-13760357D01*
X19763929Y-13746071D01*
X19749643Y-13717500D01*
X19721071Y-13703214D01*
X19678214Y-13703214D01*
X19649643Y-13688929D01*
X19635357Y-13660357D01*
X19635357Y-13646071D01*
X19649643Y-13617500D01*
X19678214Y-13603214D01*
X19721071Y-13603214D01*
X19749643Y-13617500D01*
X19863928Y-13917500D02*
X19878214Y-13903214D01*
X19906786Y-13860357D01*
X19921071Y-13831786D01*
X19935357Y-13788929D01*
X19949643Y-13717500D01*
X19949643Y-13660357D01*
X19935357Y-13588929D01*
X19921071Y-13546071D01*
X19906786Y-13517500D01*
X19878214Y-13474643D01*
X19863928Y-13460357D01*
X20406786Y-13917500D02*
X20392500Y-13903214D01*
X20363928Y-13860357D01*
X20349643Y-13831786D01*
X20335357Y-13788929D01*
X20321071Y-13717500D01*
X20321071Y-13660357D01*
X20335357Y-13588929D01*
X20349643Y-13546071D01*
X20363928Y-13517500D01*
X20392500Y-13474643D01*
X20406786Y-13460357D01*
X20521071Y-13603214D02*
X20521071Y-13803214D01*
X20521071Y-13631786D02*
X20535357Y-13617500D01*
X20563928Y-13603214D01*
X20606786Y-13603214D01*
X20635357Y-13617500D01*
X20649643Y-13646071D01*
X20649643Y-13803214D01*
X20835357Y-13803214D02*
X20806786Y-13788929D01*
X20792500Y-13774643D01*
X20778214Y-13746071D01*
X20778214Y-13660357D01*
X20792500Y-13631786D01*
X20806786Y-13617500D01*
X20835357Y-13603214D01*
X20878214Y-13603214D01*
X20906786Y-13617500D01*
X20921071Y-13631786D01*
X20935357Y-13660357D01*
X20935357Y-13746071D01*
X20921071Y-13774643D01*
X20906786Y-13788929D01*
X20878214Y-13803214D01*
X20835357Y-13803214D01*
X21021071Y-13603214D02*
X21135357Y-13603214D01*
X21063929Y-13503214D02*
X21063929Y-13760357D01*
X21078214Y-13788929D01*
X21106786Y-13803214D01*
X21135357Y-13803214D01*
X21463929Y-13603214D02*
X21463929Y-13903214D01*
X21463929Y-13617500D02*
X21492500Y-13603214D01*
X21549643Y-13603214D01*
X21578214Y-13617500D01*
X21592500Y-13631786D01*
X21606786Y-13660357D01*
X21606786Y-13746071D01*
X21592500Y-13774643D01*
X21578214Y-13788929D01*
X21549643Y-13803214D01*
X21492500Y-13803214D01*
X21463929Y-13788929D01*
X21778214Y-13803214D02*
X21749643Y-13788929D01*
X21735357Y-13760357D01*
X21735357Y-13503214D01*
X22021071Y-13803214D02*
X22021071Y-13646071D01*
X22006786Y-13617500D01*
X21978214Y-13603214D01*
X21921071Y-13603214D01*
X21892500Y-13617500D01*
X22021071Y-13788929D02*
X21992500Y-13803214D01*
X21921071Y-13803214D01*
X21892500Y-13788929D01*
X21878214Y-13760357D01*
X21878214Y-13731786D01*
X21892500Y-13703214D01*
X21921071Y-13688929D01*
X21992500Y-13688929D01*
X22021071Y-13674643D01*
X22121071Y-13603214D02*
X22235357Y-13603214D01*
X22163929Y-13503214D02*
X22163929Y-13760357D01*
X22178214Y-13788929D01*
X22206786Y-13803214D01*
X22235357Y-13803214D01*
X22449643Y-13788929D02*
X22421071Y-13803214D01*
X22363929Y-13803214D01*
X22335357Y-13788929D01*
X22321072Y-13760357D01*
X22321072Y-13646071D01*
X22335357Y-13617500D01*
X22363929Y-13603214D01*
X22421071Y-13603214D01*
X22449643Y-13617500D01*
X22463929Y-13646071D01*
X22463929Y-13674643D01*
X22321072Y-13703214D01*
X22721071Y-13803214D02*
X22721071Y-13503214D01*
X22721071Y-13788929D02*
X22692500Y-13803214D01*
X22635357Y-13803214D01*
X22606786Y-13788929D01*
X22592500Y-13774643D01*
X22578214Y-13746071D01*
X22578214Y-13660357D01*
X22592500Y-13631786D01*
X22606786Y-13617500D01*
X22635357Y-13603214D01*
X22692500Y-13603214D01*
X22721071Y-13617500D01*
X22835357Y-13917500D02*
X22849643Y-13903214D01*
X22878214Y-13860357D01*
X22892500Y-13831786D01*
X22906786Y-13788929D01*
X22921071Y-13717500D01*
X22921071Y-13660357D01*
X22906786Y-13588929D01*
X22892500Y-13546071D01*
X22878214Y-13517500D01*
X22849643Y-13474643D01*
X22835357Y-13460357D01*
M02*
