G04 #@! TF.FileFunction,Soldermask,Bot*
%FSLAX46Y46*%
G04 Gerber Fmt 4.6, Leading zero omitted, Abs format (unit mm)*
G04 Created by KiCad (PCBNEW 4.0.7) date 03/07/18 23:31:53*
%MOMM*%
%LPD*%
G01*
G04 APERTURE LIST*
%ADD10C,0.100000*%
%ADD11C,1.708000*%
%ADD12O,1.708000X3.016000*%
%ADD13C,1.822400*%
%ADD14C,2.100000*%
%ADD15R,2.100000X2.100000*%
%ADD16O,2.100000X2.100000*%
%ADD17R,1.750000X1.750000*%
%ADD18O,1.750000X1.750000*%
%ADD19C,2.400000*%
G04 APERTURE END LIST*
D10*
D11*
X231267000Y-56896000D03*
X228727000Y-56896000D03*
X226187000Y-56896000D03*
D12*
X231969500Y-67992500D03*
X229969500Y-67992500D03*
X227969500Y-67992500D03*
X231972500Y-62047500D03*
X229972500Y-62047500D03*
X227972500Y-62047500D03*
D13*
X168090000Y-108690000D03*
X168090000Y-106150000D03*
X175710000Y-106150000D03*
X175710000Y-111230000D03*
X175710000Y-118850000D03*
X168090000Y-111230000D03*
X175710000Y-116310000D03*
X168090000Y-118850000D03*
X175710000Y-108690000D03*
X168090000Y-113770000D03*
X175710000Y-113770000D03*
X168090000Y-116310000D03*
D10*
G36*
X154648282Y-114716379D02*
X154283621Y-112648282D01*
X156351718Y-112283621D01*
X156716379Y-114351718D01*
X154648282Y-114716379D01*
X154648282Y-114716379D01*
G37*
D14*
X155941066Y-116001412D02*
X155941066Y-116001412D01*
D10*
G36*
X148250000Y-95265076D02*
X149734924Y-96750000D01*
X148250000Y-98234924D01*
X146765076Y-96750000D01*
X148250000Y-95265076D01*
X148250000Y-95265076D01*
G37*
D14*
X146453949Y-94953949D02*
X146453949Y-94953949D01*
D10*
G36*
X147734924Y-84250000D02*
X146250000Y-85734924D01*
X144765076Y-84250000D01*
X146250000Y-82765076D01*
X147734924Y-84250000D01*
X147734924Y-84250000D01*
G37*
D14*
X148046051Y-82453949D02*
X148046051Y-82453949D01*
D10*
G36*
X154783621Y-64851718D02*
X155148282Y-62783621D01*
X157216379Y-63148282D01*
X156851718Y-65216379D01*
X154783621Y-64851718D01*
X154783621Y-64851718D01*
G37*
D14*
X155558934Y-66501412D02*
X155558934Y-66501412D01*
D10*
G36*
X151648282Y-115216379D02*
X151283621Y-113148282D01*
X153351718Y-112783621D01*
X153716379Y-114851718D01*
X151648282Y-115216379D01*
X151648282Y-115216379D01*
G37*
D14*
X152941066Y-116501412D02*
X152941066Y-116501412D01*
D10*
G36*
X144500000Y-98484924D02*
X143015076Y-97000000D01*
X144500000Y-95515076D01*
X145984924Y-97000000D01*
X144500000Y-98484924D01*
X144500000Y-98484924D01*
G37*
D14*
X146296051Y-98796051D02*
X146296051Y-98796051D01*
D10*
G36*
X145734924Y-82250000D02*
X144250000Y-83734924D01*
X142765076Y-82250000D01*
X144250000Y-80765076D01*
X145734924Y-82250000D01*
X145734924Y-82250000D01*
G37*
D14*
X146046051Y-80453949D02*
X146046051Y-80453949D01*
D10*
G36*
X151783621Y-64351718D02*
X152148282Y-62283621D01*
X154216379Y-62648282D01*
X153851718Y-64716379D01*
X151783621Y-64351718D01*
X151783621Y-64351718D01*
G37*
D14*
X152558934Y-66001412D02*
X152558934Y-66001412D01*
D15*
X177000000Y-56000000D03*
D16*
X174460000Y-56000000D03*
X171920000Y-56000000D03*
X169380000Y-56000000D03*
X166840000Y-56000000D03*
X164300000Y-56000000D03*
D17*
X219500000Y-91500000D03*
D18*
X221500000Y-91500000D03*
D17*
X221500000Y-88500000D03*
D18*
X219500000Y-88500000D03*
D19*
X208270000Y-110375000D03*
X210810000Y-110375000D03*
X189730000Y-110375000D03*
X187190000Y-110375000D03*
X189730000Y-69625000D03*
X187190000Y-69625000D03*
X208270000Y-69625000D03*
X210810000Y-69625000D03*
D15*
X177000000Y-124000000D03*
D16*
X174460000Y-124000000D03*
X171920000Y-124000000D03*
X169380000Y-124000000D03*
X166840000Y-124000000D03*
X164300000Y-124000000D03*
M02*
