G04 #@! TF.FileFunction,Soldermask,Top*
%FSLAX46Y46*%
G04 Gerber Fmt 4.6, Leading zero omitted, Abs format (unit mm)*
G04 Created by KiCad (PCBNEW 4.0.7) date 03/07/18 23:31:53*
%MOMM*%
%LPD*%
G01*
G04 APERTURE LIST*
%ADD10C,0.100000*%
%ADD11R,1.700000X1.950000*%
%ADD12R,2.100000X1.300000*%
%ADD13R,1.400000X2.000000*%
%ADD14R,0.900000X1.300000*%
%ADD15R,1.300000X0.900000*%
%ADD16R,1.197560X1.197560*%
%ADD17R,0.630000X1.000000*%
%ADD18R,1.000000X0.630000*%
%ADD19R,0.700000X1.600000*%
%ADD20R,1.600000X0.700000*%
%ADD21C,1.708000*%
%ADD22O,1.708000X3.016000*%
%ADD23R,2.770000X2.830000*%
%ADD24R,1.200000X1.150000*%
%ADD25R,1.150000X1.200000*%
%ADD26R,1.873200X0.755600*%
%ADD27R,3.346400X3.981400*%
%ADD28C,1.822400*%
%ADD29R,1.650000X1.400000*%
%ADD30R,2.900000X1.400000*%
%ADD31R,0.950000X1.400000*%
%ADD32R,0.950000X1.900000*%
%ADD33C,2.100000*%
%ADD34R,1.100000X0.850000*%
%ADD35R,0.850000X1.100000*%
%ADD36R,2.100000X2.100000*%
%ADD37O,2.100000X2.100000*%
%ADD38R,1.750000X1.750000*%
%ADD39O,1.750000X1.750000*%
%ADD40C,2.400000*%
G04 APERTURE END LIST*
D10*
D11*
X225250000Y-123975000D03*
X220750000Y-123975000D03*
X220750000Y-116025000D03*
X225250000Y-116025000D03*
D12*
X220500000Y-85950000D03*
X220500000Y-83050000D03*
X220500000Y-94050000D03*
X220500000Y-96950000D03*
D13*
X187984000Y-85852000D03*
X190984000Y-85852000D03*
X188100000Y-98000000D03*
X185100000Y-98000000D03*
X165700000Y-113700000D03*
X162700000Y-113700000D03*
X170712000Y-65913000D03*
X173712000Y-65913000D03*
D14*
X183399000Y-101085000D03*
X181899000Y-101085000D03*
X183399000Y-102885000D03*
X181899000Y-102885000D03*
X183399000Y-104685000D03*
X181899000Y-104685000D03*
D15*
X215900000Y-62877000D03*
X215900000Y-64377000D03*
X217678000Y-64377000D03*
X217678000Y-62877000D03*
X177200000Y-66350000D03*
X177200000Y-64850000D03*
D14*
X230750000Y-114000000D03*
X232250000Y-114000000D03*
X223250000Y-114000000D03*
X224750000Y-114000000D03*
D15*
X204800000Y-90150000D03*
X204800000Y-88650000D03*
X197500000Y-93150000D03*
X197500000Y-91650000D03*
X152000000Y-87250000D03*
X152000000Y-88750000D03*
X153750000Y-88000000D03*
X153750000Y-89500000D03*
X178400000Y-81150000D03*
X178400000Y-82650000D03*
D14*
X183399000Y-106485000D03*
X181899000Y-106485000D03*
X154750000Y-56500000D03*
X153250000Y-56500000D03*
D16*
X180598300Y-106485000D03*
X179099700Y-106485000D03*
X180598300Y-102885000D03*
X179099700Y-102885000D03*
X180598300Y-104685000D03*
X179099700Y-104685000D03*
X175400000Y-64850700D03*
X175400000Y-66349300D03*
X180598300Y-101085000D03*
X179099700Y-101085000D03*
D17*
X150000000Y-88500000D03*
X149600000Y-88500000D03*
X149200000Y-88500000D03*
X148800000Y-88500000D03*
X148400000Y-88500000D03*
X148000000Y-88500000D03*
D18*
X147500000Y-89000000D03*
X147500000Y-89400000D03*
X147500000Y-89800000D03*
X147500000Y-90200000D03*
X147500000Y-90600000D03*
X147500000Y-91000000D03*
D17*
X148000000Y-91500000D03*
X148400000Y-91500000D03*
X148800000Y-91500000D03*
X149200000Y-91500000D03*
X149600000Y-91500000D03*
X150000000Y-91500000D03*
D18*
X150500000Y-91000000D03*
X150500000Y-90600000D03*
X150500000Y-90200000D03*
X150500000Y-89800000D03*
X150500000Y-89400000D03*
X150500000Y-89000000D03*
D19*
X178249937Y-84249937D03*
D20*
X174249937Y-89249937D03*
X174249937Y-92749938D03*
X174249937Y-93249938D03*
X174249937Y-93749938D03*
D19*
X176249937Y-95749938D03*
X177749937Y-95749938D03*
X178249937Y-95749938D03*
X178749937Y-95749938D03*
X179249937Y-95749938D03*
D20*
X185749938Y-89749937D03*
X185749938Y-89249937D03*
X185749938Y-88749937D03*
X185749938Y-88249937D03*
X185749938Y-87749937D03*
X185749938Y-87249937D03*
D19*
X183749938Y-84249937D03*
X183249938Y-84249937D03*
X180749938Y-95749938D03*
X181249938Y-95749938D03*
X181749938Y-95749938D03*
X180749938Y-84249937D03*
X180249938Y-84249937D03*
X179749937Y-84249937D03*
X179249937Y-84249937D03*
X178749937Y-84249937D03*
X177749937Y-84249937D03*
X177249937Y-84249937D03*
X182249938Y-95749938D03*
X182749938Y-95749938D03*
D20*
X185749938Y-93749938D03*
X185749938Y-93249938D03*
X185749938Y-92749938D03*
X185749938Y-92249938D03*
X174249937Y-89749937D03*
X174249937Y-90249938D03*
X174249937Y-90749938D03*
X174249937Y-91249938D03*
D19*
X179749937Y-95749938D03*
X180249938Y-95749938D03*
D20*
X185749938Y-91749938D03*
X185749938Y-91249938D03*
X185749938Y-90749938D03*
X185749938Y-90249938D03*
D19*
X182749938Y-84249937D03*
X182249938Y-84249937D03*
X181749938Y-84249937D03*
D20*
X174249937Y-86749937D03*
X174249937Y-87249937D03*
X174249937Y-87749937D03*
D19*
X181249938Y-84249937D03*
D20*
X174249937Y-88249937D03*
X174249937Y-88749937D03*
X174249937Y-86249937D03*
D19*
X183249938Y-95749938D03*
D20*
X185749938Y-86749937D03*
X174249937Y-92249938D03*
D19*
X177249937Y-95749938D03*
X183749938Y-95749938D03*
D20*
X185749938Y-86249937D03*
D19*
X176249937Y-84249937D03*
D20*
X174249937Y-91749938D03*
D19*
X176749937Y-95749938D03*
X176749937Y-84249937D03*
D21*
X231267000Y-56896000D03*
X228727000Y-56896000D03*
X226187000Y-56896000D03*
D22*
X231969500Y-67992500D03*
X229969500Y-67992500D03*
X227969500Y-67992500D03*
X231972500Y-62047500D03*
X229972500Y-62047500D03*
X227972500Y-62047500D03*
D11*
X164650000Y-73975000D03*
X160150000Y-73975000D03*
X160150000Y-66025000D03*
X164650000Y-66025000D03*
X232750000Y-123975000D03*
X228250000Y-123975000D03*
X228250000Y-116025000D03*
X232750000Y-116025000D03*
D23*
X226880000Y-90000000D03*
X233120000Y-90000000D03*
D24*
X172351000Y-68072000D03*
X173851000Y-68072000D03*
X170549000Y-68072000D03*
X169049000Y-68072000D03*
D25*
X217932000Y-67703000D03*
X217932000Y-69203000D03*
D24*
X165650000Y-111800000D03*
X164150000Y-111800000D03*
D25*
X146100000Y-90850000D03*
X146100000Y-89350000D03*
X142400000Y-90750000D03*
X142400000Y-89250000D03*
X226500000Y-100250000D03*
X226500000Y-101750000D03*
X227250000Y-80500000D03*
X227250000Y-79000000D03*
D24*
X162850000Y-75900000D03*
X164350000Y-75900000D03*
X171750000Y-92000000D03*
X170250000Y-92000000D03*
D25*
X174500000Y-82750000D03*
X174500000Y-84250000D03*
X172750000Y-84250000D03*
X172750000Y-82750000D03*
D24*
X175050000Y-97700000D03*
X176550000Y-97700000D03*
X186551000Y-96012000D03*
X185051000Y-96012000D03*
X188226000Y-83820000D03*
X189726000Y-83820000D03*
X221373000Y-59055000D03*
X222873000Y-59055000D03*
D26*
X223319400Y-81575840D03*
X223319400Y-80925600D03*
X223319400Y-80275359D03*
X223319400Y-79625119D03*
X223319400Y-78974881D03*
X223319400Y-78324641D03*
X223319400Y-77674400D03*
X223319400Y-77024160D03*
X217680600Y-77024160D03*
X217680600Y-77674400D03*
X217680600Y-78324641D03*
X217680600Y-78974881D03*
X217680600Y-79625119D03*
X217680600Y-80275359D03*
X217680600Y-80925600D03*
X217680600Y-81575840D03*
D27*
X220500000Y-79300000D03*
D26*
X217680600Y-98424160D03*
X217680600Y-99074400D03*
X217680600Y-99724641D03*
X217680600Y-100374881D03*
X217680600Y-101025119D03*
X217680600Y-101675359D03*
X217680600Y-102325600D03*
X217680600Y-102975840D03*
X223319400Y-102975840D03*
X223319400Y-102325600D03*
X223319400Y-101675359D03*
X223319400Y-101025119D03*
X223319400Y-100374881D03*
X223319400Y-99724641D03*
X223319400Y-99074400D03*
X223319400Y-98424160D03*
D27*
X220500000Y-100700000D03*
D28*
X168090000Y-108690000D03*
X168090000Y-106150000D03*
X175710000Y-106150000D03*
X175710000Y-111230000D03*
X175710000Y-118850000D03*
X168090000Y-111230000D03*
X175710000Y-116310000D03*
X168090000Y-118850000D03*
X175710000Y-108690000D03*
X168090000Y-113770000D03*
X175710000Y-113770000D03*
X168090000Y-116310000D03*
D29*
X144300000Y-91000000D03*
X144300000Y-89000000D03*
D30*
X222123000Y-54126000D03*
X222123000Y-57126000D03*
X215265000Y-66318000D03*
X215265000Y-69318000D03*
D31*
X172349938Y-72550063D03*
X171399937Y-72550063D03*
X170449937Y-72550063D03*
X172349938Y-69850062D03*
X170449937Y-69850062D03*
D32*
X222631063Y-61815937D03*
X222631063Y-67215938D03*
X223901063Y-61815937D03*
X221361062Y-61815937D03*
X220091062Y-61815937D03*
X221361062Y-67215938D03*
X220091062Y-67215938D03*
X223901063Y-67215938D03*
D10*
G36*
X154648282Y-114716379D02*
X154283621Y-112648282D01*
X156351718Y-112283621D01*
X156716379Y-114351718D01*
X154648282Y-114716379D01*
X154648282Y-114716379D01*
G37*
D33*
X155941066Y-116001412D02*
X155941066Y-116001412D01*
D10*
G36*
X148250000Y-95265076D02*
X149734924Y-96750000D01*
X148250000Y-98234924D01*
X146765076Y-96750000D01*
X148250000Y-95265076D01*
X148250000Y-95265076D01*
G37*
D33*
X146453949Y-94953949D02*
X146453949Y-94953949D01*
D10*
G36*
X147734924Y-84250000D02*
X146250000Y-85734924D01*
X144765076Y-84250000D01*
X146250000Y-82765076D01*
X147734924Y-84250000D01*
X147734924Y-84250000D01*
G37*
D33*
X148046051Y-82453949D02*
X148046051Y-82453949D01*
D10*
G36*
X154783621Y-64851718D02*
X155148282Y-62783621D01*
X157216379Y-63148282D01*
X156851718Y-65216379D01*
X154783621Y-64851718D01*
X154783621Y-64851718D01*
G37*
D33*
X155558934Y-66501412D02*
X155558934Y-66501412D01*
D34*
X160036000Y-119238000D03*
X160036000Y-120538000D03*
X162036000Y-119888000D03*
D35*
X155052000Y-99806000D03*
X156352000Y-99806000D03*
X155702000Y-97806000D03*
D34*
X154670000Y-82311000D03*
X154670000Y-81011000D03*
X152670000Y-81661000D03*
X159242000Y-60086000D03*
X159242000Y-58786000D03*
X157242000Y-59436000D03*
D10*
G36*
X151648282Y-115216379D02*
X151283621Y-113148282D01*
X153351718Y-112783621D01*
X153716379Y-114851718D01*
X151648282Y-115216379D01*
X151648282Y-115216379D01*
G37*
D33*
X152941066Y-116501412D02*
X152941066Y-116501412D01*
D10*
G36*
X144500000Y-98484924D02*
X143015076Y-97000000D01*
X144500000Y-95515076D01*
X145984924Y-97000000D01*
X144500000Y-98484924D01*
X144500000Y-98484924D01*
G37*
D33*
X146296051Y-98796051D02*
X146296051Y-98796051D01*
D10*
G36*
X145734924Y-82250000D02*
X144250000Y-83734924D01*
X142765076Y-82250000D01*
X144250000Y-80765076D01*
X145734924Y-82250000D01*
X145734924Y-82250000D01*
G37*
D33*
X146046051Y-80453949D02*
X146046051Y-80453949D01*
D10*
G36*
X151783621Y-64351718D02*
X152148282Y-62283621D01*
X154216379Y-62648282D01*
X153851718Y-64716379D01*
X151783621Y-64351718D01*
X151783621Y-64351718D01*
G37*
D33*
X152558934Y-66001412D02*
X152558934Y-66001412D01*
D36*
X177000000Y-56000000D03*
D37*
X174460000Y-56000000D03*
X171920000Y-56000000D03*
X169380000Y-56000000D03*
X166840000Y-56000000D03*
X164300000Y-56000000D03*
D38*
X219500000Y-91500000D03*
D39*
X221500000Y-91500000D03*
D38*
X221500000Y-88500000D03*
D39*
X219500000Y-88500000D03*
D40*
X208270000Y-110375000D03*
X210810000Y-110375000D03*
X189730000Y-110375000D03*
X187190000Y-110375000D03*
X189730000Y-69625000D03*
X187190000Y-69625000D03*
X208270000Y-69625000D03*
X210810000Y-69625000D03*
D15*
X153000000Y-59650000D03*
X153000000Y-58150000D03*
X145750000Y-75250000D03*
X145750000Y-73750000D03*
D14*
X146250000Y-103250000D03*
X147750000Y-103250000D03*
D15*
X152500000Y-120250000D03*
X152500000Y-121750000D03*
X159200000Y-63050000D03*
X159200000Y-61550000D03*
X161100000Y-59850000D03*
X161100000Y-58350000D03*
X151750000Y-85250000D03*
X151750000Y-83750000D03*
X156337000Y-83046000D03*
X156337000Y-81546000D03*
D14*
X153250000Y-96000000D03*
X154750000Y-96000000D03*
D15*
X153250000Y-99250000D03*
X153250000Y-100750000D03*
D14*
X159750000Y-117500000D03*
X161250000Y-117500000D03*
D15*
X158250000Y-119250000D03*
X158250000Y-120750000D03*
D24*
X229250000Y-114000000D03*
X227750000Y-114000000D03*
X221750000Y-114000000D03*
X220250000Y-114000000D03*
X155750000Y-70900000D03*
X157250000Y-70900000D03*
X155750000Y-69250000D03*
X157250000Y-69250000D03*
D25*
X151000000Y-81250000D03*
X151000000Y-79750000D03*
X149250000Y-78750000D03*
X149250000Y-77250000D03*
X151500000Y-99500000D03*
X151500000Y-101000000D03*
X149750000Y-99500000D03*
X149750000Y-101000000D03*
X156600000Y-119400000D03*
X156600000Y-120900000D03*
X155000000Y-120000000D03*
X155000000Y-121500000D03*
D16*
X180581300Y-108204000D03*
X179082700Y-108204000D03*
X180581300Y-109982000D03*
X179082700Y-109982000D03*
D14*
X183376000Y-108204000D03*
X181876000Y-108204000D03*
X183376000Y-109982000D03*
X181876000Y-109982000D03*
D36*
X177000000Y-124000000D03*
D37*
X174460000Y-124000000D03*
X171920000Y-124000000D03*
X169380000Y-124000000D03*
X166840000Y-124000000D03*
X164300000Y-124000000D03*
D15*
X196723000Y-87237000D03*
X196723000Y-85737000D03*
X195199000Y-87237000D03*
X195199000Y-85737000D03*
M02*
