M48
;DRILL file {KiCad 4.0.7} date 03/07/18 23:33:53
;FORMAT={-:-/ absolute / metric / decimal}
FMAT,2
METRIC,TZ
T1C0.300
T2C0.400
T3C0.500
T4C0.600
T5C0.762
T6C0.800
T7C0.950
T8C1.000
T9C2.286
%
G90
G05
M71
T1
X154.94Y-57.785
X154.94Y-59.055
X162.56Y-62.23
X163.83Y-62.23
X163.83Y-63.5
X165.1Y-62.23
X165.1Y-63.5
X166.37Y-63.5
X166.37Y-64.77
X167.005Y-74.295
X167.005Y-75.565
X167.64Y-63.5
X167.64Y-64.77
X167.64Y-81.28
X168.275Y-75.565
X169.545Y-98.425
X170.18Y-81.28
X170.815Y-74.295
X171.45Y-100.33
X171.45Y-101.6
X172.085Y-74.295
X172.085Y-75.565
X172.72Y-81.28
X172.72Y-85.725
X173.355Y-74.295
X173.355Y-75.565
X173.99Y-81.28
X174.625Y-75.565
X175.895Y-75.565
X176.53Y-82.55
X177.165Y-75.565
X177.8Y-89.535
X177.8Y-90.805
X177.8Y-92.075
X178.435Y-75.565
X179.07Y-88.265
X179.07Y-89.535
X179.07Y-90.805
X179.705Y-71.755
X179.705Y-75.565
X179.705Y-85.725
X180.34Y-89.535
X180.34Y-90.805
X182.88Y-88.265
X182.88Y-89.535
X182.88Y-90.805
X182.88Y-92.075
X184.15Y-88.265
X184.15Y-89.535
X184.15Y-90.805
X184.15Y-92.075
X184.785Y-81.28
X184.785Y-82.55
X186.055Y-81.28
X186.055Y-100.33
X186.055Y-101.6
X187.325Y-81.28
X187.325Y-100.33
X187.325Y-101.6
X189.23Y-95.885
X193.04Y-74.295
X193.04Y-75.565
X193.04Y-76.835
X194.31Y-74.295
X194.31Y-75.565
X194.31Y-76.835
X195.58Y-69.215
X195.58Y-70.485
X195.58Y-74.295
X195.58Y-75.565
X195.58Y-76.835
X197.485Y-69.215
X197.485Y-70.485
X199.39Y-69.215
X199.39Y-70.485
X201.295Y-69.215
X201.295Y-70.485
X213.995Y-70.485
X215.9Y-70.485
X217.805Y-70.485
X219.71Y-69.215
X219.71Y-70.485
X220.345Y-64.77
X221.615Y-64.77
X221.615Y-69.215
X221.615Y-70.485
X222.885Y-60.325
X222.885Y-64.77
X224.155Y-59.055
X224.155Y-60.325
X224.155Y-64.77
X225.425Y-59.055
X225.425Y-60.325
X225.425Y-61.595
X225.425Y-62.865
X225.425Y-64.135
X225.425Y-65.405
X225.425Y-66.675
X225.425Y-67.945
X225.425Y-69.215
X225.425Y-70.485
X226.695Y-64.77
X227.965Y-64.77
X229.235Y-64.77
X231.14Y-70.485
X233.045Y-70.485
T2
X145.4Y-88.6
X147.Y-91.5
X148.8Y-89.7
X151.Y-93.25
X152.Y-78.5
X152.Y-90.7
X155.5Y-91.
X157.4Y-72.9
X157.734Y-82.296
X160.1Y-88.1
X160.75Y-64.5
X160.8Y-89.
X161.671Y-86.614
X161.9Y-89.6
X163.Y-93.1
X163.8Y-94.4
X166.1Y-91.3
X166.7Y-92.
X170.117Y-86.804
X175.5Y-91.75
X176.5Y-86.5
X177.Y-87.25
X177.Y-88.25
X177.4Y-109.8
X181.102Y-70.231
X181.102Y-88.265
X183.5Y-82.25
X184.Y-87.25
X184.404Y-73.914
X185.547Y-73.914
X200.025Y-94.615
X202.184Y-86.614
X203.327Y-89.535
X204.343Y-90.932
X206.121Y-68.072
X206.756Y-62.738
X214.5Y-100.
X215.Y-79.
X219.Y-83.
X219.Y-97.
X219.25Y-93.25
X221.75Y-86.75
X222.Y-83.
X222.Y-97.
X225.Y-101.5
X225.5Y-101.
X225.75Y-79.25
X226.75Y-78.
T3
X143.5Y-75.25
X147.5Y-105.25
X151.5Y-98.25
X151.6Y-58.9
X152.5Y-123.25
X155.5Y-87.
X158.Y-67.4
X160.75Y-56.75
X168.656Y-66.04
X168.75Y-91.75
X172.2Y-96.3
X173.7Y-98.
X173.736Y-63.627
X179.07Y-92.964
X179.5Y-112.
X183.769Y-93.98
X185.547Y-83.82
X186.944Y-82.804
X196.215Y-99.695
X201.4Y-91.7
X220.5Y-81.4
X220.5Y-84.25
X220.5Y-96.
X220.5Y-98.7
X223.139Y-75.819
T4
X152.273Y-71.183
X162.56Y-74.168
X163.068Y-84.963
X164.592Y-68.58
X168.783Y-72.009
X169.164Y-81.788
X169.926Y-101.473
X174.752Y-73.66
X176.276Y-81.28
X176.784Y-73.66
X179.07Y-73.66
X188.976Y-100.584
X203.454Y-63.881
X211.3Y-95.7
X211.3Y-104.9
X211.5Y-75.7
X211.5Y-83.
X213.995Y-68.58
X220.5Y-79.3
X220.5Y-100.7
X223.52Y-69.469
X229.5Y-90.
T5
X168.09Y-106.15
X168.09Y-108.69
X168.09Y-111.23
X168.09Y-113.77
X168.09Y-116.31
X168.09Y-118.85
X175.71Y-106.15
X175.71Y-108.69
X175.71Y-111.23
X175.71Y-113.77
X175.71Y-116.31
X175.71Y-118.85
T6
X219.5Y-88.5
X219.5Y-91.5
X221.5Y-88.5
X221.5Y-91.5
X226.187Y-56.896
X227.969Y-67.992
X227.972Y-62.047
X228.727Y-56.896
X229.969Y-67.992
X229.972Y-62.047
X231.267Y-56.896
X231.969Y-67.992
X231.972Y-62.047
T7
X187.19Y-69.625
X187.19Y-110.375
X189.73Y-69.625
X189.73Y-110.375
X208.27Y-69.625
X208.27Y-110.375
X210.81Y-69.625
X210.81Y-110.375
T8
X144.25Y-82.25
X144.5Y-97.
X146.046Y-80.454
X146.25Y-84.25
X146.296Y-98.796
X146.454Y-94.954
X148.046Y-82.454
X148.25Y-96.75
X152.5Y-114.
X152.559Y-66.001
X152.941Y-116.501
X153.Y-63.5
X155.5Y-113.5
X155.559Y-66.501
X155.941Y-116.001
X156.Y-64.
X164.3Y-56.
X164.3Y-124.
X166.84Y-56.
X166.84Y-124.
X169.38Y-56.
X169.38Y-124.
X171.92Y-56.
X171.92Y-124.
X174.46Y-56.
X174.46Y-124.
X177.Y-56.
X177.Y-124.
T9
X190.Y-75.15
X190.Y-104.85
X208.Y-75.15
X208.Y-104.85
T0
M30
