G04 #@! TF.FileFunction,Copper,L1,Top,Signal*
%FSLAX46Y46*%
G04 Gerber Fmt 4.6, Leading zero omitted, Abs format (unit mm)*
G04 Created by KiCad (PCBNEW 4.0.2-stable) date 3/31/2016 10:50:00 PM*
%MOMM*%
G01*
G04 APERTURE LIST*
%ADD10C,0.100000*%
%ADD11C,2.000000*%
%ADD12C,1.727200*%
%ADD13R,0.550000X1.000000*%
%ADD14R,0.550000X1.500000*%
%ADD15R,0.600000X0.230000*%
%ADD16R,0.230000X0.600000*%
%ADD17C,1.422400*%
%ADD18R,0.450000X1.050000*%
%ADD19R,0.895000X1.470000*%
%ADD20R,0.300000X1.200000*%
%ADD21R,1.200000X0.300000*%
%ADD22C,1.397000*%
%ADD23R,0.797560X0.797560*%
%ADD24R,1.500000X0.800000*%
%ADD25R,2.050000X1.500000*%
%ADD26R,1.727200X2.032000*%
%ADD27O,1.727200X2.032000*%
%ADD28R,0.450000X1.450000*%
%ADD29C,1.308000*%
%ADD30R,1.300000X1.550000*%
%ADD31R,1.000000X1.600000*%
%ADD32R,1.600000X1.000000*%
%ADD33R,0.900000X0.500000*%
%ADD34R,0.500000X0.900000*%
%ADD35R,0.800000X0.750000*%
%ADD36R,0.750000X0.800000*%
%ADD37R,2.370000X2.430000*%
%ADD38R,1.700000X0.900000*%
%ADD39R,2.500000X1.000000*%
%ADD40R,1.000000X2.500000*%
%ADD41R,1.250000X1.000000*%
%ADD42C,1.800000*%
%ADD43C,1.500000*%
%ADD44C,0.800000*%
%ADD45C,0.400000*%
%ADD46C,0.025400*%
G04 APERTURE END LIST*
D10*
D11*
X208270000Y-110375000D03*
X210810000Y-110375000D03*
X189730000Y-110375000D03*
X197730000Y-92000000D03*
X200270000Y-92000000D03*
X187190000Y-110375000D03*
X189730000Y-69625000D03*
X187190000Y-69625000D03*
X208270000Y-69625000D03*
X200270000Y-88000000D03*
X197730000Y-88000000D03*
X210810000Y-69625000D03*
D10*
G36*
X160172672Y-62169818D02*
X160472597Y-60468858D01*
X162473726Y-60821712D01*
X162173801Y-62522672D01*
X160172672Y-62169818D01*
X160172672Y-62169818D01*
G37*
D12*
X160732048Y-63970713D02*
X161032218Y-64023641D01*
X160290981Y-66472124D02*
X160591151Y-66525052D01*
X159849915Y-68973536D02*
X160150085Y-69026464D01*
X159408849Y-71474948D02*
X159709019Y-71527876D01*
X158967782Y-73976359D02*
X159267952Y-74029287D01*
X158526716Y-76477771D02*
X158826886Y-76530699D01*
D10*
G36*
X138504083Y-94940924D02*
X137282768Y-93719609D01*
X138719609Y-92282768D01*
X139940924Y-93504083D01*
X138504083Y-94940924D01*
X138504083Y-94940924D01*
G37*
D12*
X140300135Y-95515661D02*
X140515661Y-95300135D01*
X142096186Y-97311712D02*
X142311712Y-97096186D01*
X143892237Y-99107763D02*
X144107763Y-98892237D01*
X145688288Y-100903814D02*
X145903814Y-100688288D01*
X147484339Y-102699865D02*
X147699865Y-102484339D01*
X149280391Y-104495917D02*
X149495917Y-104280391D01*
D10*
G36*
X148059076Y-75504083D02*
X149280391Y-74282768D01*
X150717232Y-75719609D01*
X149495917Y-76940924D01*
X148059076Y-75504083D01*
X148059076Y-75504083D01*
G37*
D12*
X147484339Y-77300135D02*
X147699865Y-77515661D01*
X145688288Y-79096186D02*
X145903814Y-79311712D01*
X143892237Y-80892237D02*
X144107763Y-81107763D01*
X142096186Y-82688288D02*
X142311712Y-82903814D01*
X140300135Y-84484339D02*
X140515661Y-84699865D01*
X138504083Y-86280391D02*
X138719609Y-86495917D01*
D10*
G36*
X156826199Y-104522672D02*
X156526274Y-102821712D01*
X158527403Y-102468858D01*
X158827328Y-104169818D01*
X156826199Y-104522672D01*
X156826199Y-104522672D01*
G37*
D12*
X157967782Y-106023641D02*
X158267952Y-105970713D01*
X158408849Y-108525052D02*
X158709019Y-108472124D01*
X158849915Y-111026464D02*
X159150085Y-110973536D01*
X159290981Y-113527876D02*
X159591151Y-113474948D01*
X159732048Y-116029287D02*
X160032218Y-115976359D01*
X160173114Y-118530699D02*
X160473284Y-118477771D01*
D13*
X190949938Y-31850063D03*
X189999937Y-31850063D03*
X189049937Y-31850063D03*
X190949938Y-29150062D03*
X189049937Y-29150062D03*
D14*
X189994937Y-42820063D03*
X189994937Y-37420062D03*
X188724937Y-42820063D03*
X191264938Y-42820063D03*
X192534938Y-42820063D03*
X191264938Y-37420062D03*
X192534938Y-37420062D03*
X188724937Y-37420062D03*
D15*
X149530000Y-42420000D03*
X149530000Y-42820000D03*
X149530000Y-43220000D03*
X149530000Y-43620000D03*
X149530000Y-44020000D03*
X149530000Y-44420000D03*
D16*
X150030000Y-44920000D03*
X150430000Y-44920000D03*
X150830000Y-44920000D03*
X151230000Y-44920000D03*
X151630000Y-44920000D03*
X152030000Y-44920000D03*
D15*
X152530000Y-44420000D03*
X152530000Y-44020000D03*
X152530000Y-43620000D03*
X152530000Y-43220000D03*
X152530000Y-42820000D03*
X152530000Y-42420000D03*
D16*
X152030000Y-41920000D03*
X151630000Y-41920000D03*
X151230000Y-41920000D03*
X150830000Y-41920000D03*
X150430000Y-41920000D03*
X150030000Y-41920000D03*
D17*
X171810000Y-111810000D03*
X171810000Y-114350000D03*
X164190000Y-114350000D03*
X164190000Y-109270000D03*
X164190000Y-101650000D03*
X171810000Y-109270000D03*
X164190000Y-104190000D03*
X171810000Y-101650000D03*
X164190000Y-111810000D03*
X171810000Y-106730000D03*
X164190000Y-106730000D03*
X171810000Y-104190000D03*
D18*
X209725000Y-87525000D03*
X210375000Y-87525000D03*
X211025000Y-87525000D03*
X211675000Y-87525000D03*
X212325000Y-87525000D03*
X212975000Y-87525000D03*
X213625000Y-87525000D03*
X214275000Y-87525000D03*
X214275000Y-81975000D03*
X213625000Y-81975000D03*
X212975000Y-81975000D03*
X212325000Y-81975000D03*
X211675000Y-81975000D03*
X211025000Y-81975000D03*
X210375000Y-81975000D03*
X209725000Y-81975000D03*
D19*
X213342500Y-84015000D03*
X212447500Y-84015000D03*
X211552500Y-84015000D03*
X210657500Y-84015000D03*
X213342500Y-85485000D03*
X212447500Y-85485000D03*
X211552500Y-85485000D03*
X210657500Y-85485000D03*
D18*
X209725000Y-98025000D03*
X210375000Y-98025000D03*
X211025000Y-98025000D03*
X211675000Y-98025000D03*
X212325000Y-98025000D03*
X212975000Y-98025000D03*
X213625000Y-98025000D03*
X214275000Y-98025000D03*
X214275000Y-92475000D03*
X213625000Y-92475000D03*
X212975000Y-92475000D03*
X212325000Y-92475000D03*
X211675000Y-92475000D03*
X211025000Y-92475000D03*
X210375000Y-92475000D03*
X209725000Y-92475000D03*
D19*
X213342500Y-94515000D03*
X212447500Y-94515000D03*
X211552500Y-94515000D03*
X210657500Y-94515000D03*
X213342500Y-95985000D03*
X212447500Y-95985000D03*
X211552500Y-95985000D03*
X210657500Y-95985000D03*
D20*
X175249937Y-84249937D03*
D21*
X171249937Y-89249937D03*
X171249937Y-92749938D03*
X171249937Y-93249938D03*
X171249937Y-93749938D03*
D20*
X173249937Y-95749938D03*
X174749937Y-95749938D03*
X175249937Y-95749938D03*
X175749937Y-95749938D03*
X176249937Y-95749938D03*
D21*
X182749938Y-89749937D03*
X182749938Y-89249937D03*
X182749938Y-88749937D03*
X182749938Y-88249937D03*
X182749938Y-87749937D03*
X182749938Y-87249937D03*
D20*
X180749938Y-84249937D03*
X180249938Y-84249937D03*
X177749938Y-95749938D03*
X178249938Y-95749938D03*
X178749938Y-95749938D03*
X177749938Y-84249937D03*
X177249938Y-84249937D03*
X176749937Y-84249937D03*
X176249937Y-84249937D03*
X175749937Y-84249937D03*
X174749937Y-84249937D03*
X174249937Y-84249937D03*
X179249938Y-95749938D03*
X179749938Y-95749938D03*
D21*
X182749938Y-93749938D03*
X182749938Y-93249938D03*
X182749938Y-92749938D03*
X182749938Y-92249938D03*
X171249937Y-89749937D03*
X171249937Y-90249938D03*
X171249937Y-90749938D03*
X171249937Y-91249938D03*
D20*
X176749937Y-95749938D03*
X177249938Y-95749938D03*
D21*
X182749938Y-91749938D03*
X182749938Y-91249938D03*
X182749938Y-90749938D03*
X182749938Y-90249938D03*
D20*
X179749938Y-84249937D03*
X179249938Y-84249937D03*
X178749938Y-84249937D03*
D21*
X171249937Y-86749937D03*
X171249937Y-87249937D03*
X171249937Y-87749937D03*
D20*
X178249938Y-84249937D03*
D21*
X171249937Y-88249937D03*
X171249937Y-88749937D03*
X171249937Y-86249937D03*
D20*
X180249938Y-95749938D03*
D21*
X182749938Y-86749937D03*
X171249937Y-92249938D03*
D20*
X174249937Y-95749938D03*
X180749938Y-95749938D03*
D21*
X182749938Y-86249937D03*
D20*
X173249937Y-84249937D03*
D21*
X171249937Y-91749938D03*
D20*
X173749937Y-95749938D03*
X173749937Y-84249937D03*
D22*
X226000000Y-117000000D03*
X228000000Y-117000000D03*
D23*
X169250700Y-136000000D03*
X170749300Y-136000000D03*
X169250700Y-137750000D03*
X170749300Y-137750000D03*
D24*
X237100000Y-71300000D03*
X237100000Y-72400000D03*
X237100000Y-73500000D03*
X237100000Y-74600000D03*
X237100000Y-75700000D03*
X237100000Y-76800000D03*
X237100000Y-77900000D03*
X237100000Y-79000000D03*
D25*
X239700000Y-67625000D03*
X231400000Y-67625000D03*
X231400000Y-81375000D03*
X239700000Y-81375000D03*
D23*
X190249300Y-35000000D03*
X188750700Y-35000000D03*
X220249300Y-68500000D03*
X218750700Y-68500000D03*
D26*
X177000000Y-56000000D03*
D27*
X174460000Y-56000000D03*
X171920000Y-56000000D03*
X169380000Y-56000000D03*
X166840000Y-56000000D03*
D26*
X177000000Y-124000000D03*
D27*
X174460000Y-124000000D03*
X171920000Y-124000000D03*
X169380000Y-124000000D03*
X166840000Y-124000000D03*
D28*
X145075000Y-92950000D03*
X145725000Y-92950000D03*
X146375000Y-92950000D03*
X147025000Y-92950000D03*
X147675000Y-92950000D03*
X148325000Y-92950000D03*
X148975000Y-92950000D03*
X149625000Y-92950000D03*
X150275000Y-92950000D03*
X150925000Y-92950000D03*
X150925000Y-87050000D03*
X150275000Y-87050000D03*
X149625000Y-87050000D03*
X148975000Y-87050000D03*
X148325000Y-87050000D03*
X147675000Y-87050000D03*
X147025000Y-87050000D03*
X146375000Y-87050000D03*
X145725000Y-87050000D03*
X145075000Y-87050000D03*
D29*
X227540000Y-123000000D03*
X225000000Y-123000000D03*
X222460000Y-123000000D03*
D30*
X224250000Y-62975000D03*
X219750000Y-62975000D03*
X219750000Y-55025000D03*
X224250000Y-55025000D03*
X232250000Y-62975000D03*
X227750000Y-62975000D03*
X227750000Y-55025000D03*
X232250000Y-55025000D03*
X240250000Y-62975000D03*
X235750000Y-62975000D03*
X235750000Y-55025000D03*
X240250000Y-55025000D03*
D31*
X190000000Y-22500000D03*
X193000000Y-22500000D03*
X168500000Y-119000000D03*
X165500000Y-119000000D03*
D32*
X224500000Y-71500000D03*
X224500000Y-68500000D03*
D31*
X186500000Y-96250000D03*
X183500000Y-96250000D03*
D32*
X184750000Y-80500000D03*
X184750000Y-83500000D03*
D33*
X157000000Y-85250000D03*
X157000000Y-86750000D03*
D34*
X163250000Y-134750000D03*
X164750000Y-134750000D03*
X163250000Y-133000000D03*
X164750000Y-133000000D03*
D33*
X165000000Y-83540000D03*
X165000000Y-85040000D03*
D34*
X146850000Y-39000000D03*
X148350000Y-39000000D03*
X146850000Y-40750000D03*
X148350000Y-40750000D03*
D33*
X218000000Y-93500000D03*
X218000000Y-95000000D03*
X218250000Y-86500000D03*
X218250000Y-85000000D03*
D34*
X219750000Y-65500000D03*
X221250000Y-65500000D03*
X225750000Y-65500000D03*
X224250000Y-65500000D03*
X194250000Y-35000000D03*
X192750000Y-35000000D03*
D33*
X153000000Y-90750000D03*
X153000000Y-89250000D03*
X153000000Y-94750000D03*
X153000000Y-93250000D03*
X153000000Y-86750000D03*
X153000000Y-85250000D03*
X141770000Y-103520000D03*
X141770000Y-105020000D03*
X156000000Y-111250000D03*
X156000000Y-112750000D03*
X155070000Y-65660000D03*
X155070000Y-67160000D03*
X143830000Y-74880000D03*
X143830000Y-76380000D03*
D34*
X220250000Y-70500000D03*
X218750000Y-70500000D03*
X231610000Y-110240000D03*
X230110000Y-110240000D03*
X227000000Y-110250000D03*
X225500000Y-110250000D03*
D35*
X221000000Y-110250000D03*
X222500000Y-110250000D03*
D36*
X182750000Y-82750000D03*
X182750000Y-84250000D03*
D35*
X184250000Y-98500000D03*
X182750000Y-98500000D03*
D36*
X171500000Y-96000000D03*
X171500000Y-97500000D03*
X161000000Y-86750000D03*
X161000000Y-85250000D03*
X163000000Y-85250000D03*
X163000000Y-86750000D03*
X159000000Y-86750000D03*
X159000000Y-85250000D03*
D35*
X235250000Y-65500000D03*
X233750000Y-65500000D03*
D36*
X143000000Y-90750000D03*
X143000000Y-89250000D03*
X216500000Y-86500000D03*
X216500000Y-85000000D03*
X216250000Y-93500000D03*
X216250000Y-95000000D03*
X156200000Y-44350000D03*
X156200000Y-42850000D03*
X148600000Y-46250000D03*
X148600000Y-47750000D03*
D35*
X172250000Y-119000000D03*
X173750000Y-119000000D03*
D36*
X187410000Y-31820000D03*
X187410000Y-33320000D03*
D35*
X190750000Y-25000000D03*
X189250000Y-25000000D03*
X190750000Y-27000000D03*
X189250000Y-27000000D03*
D37*
X223120000Y-90000000D03*
X216880000Y-90000000D03*
D38*
X207000000Y-96700000D03*
X207000000Y-93800000D03*
X207000000Y-83300000D03*
X207000000Y-86200000D03*
D39*
X195600000Y-38900000D03*
X195600000Y-41900000D03*
D40*
X191500000Y-48000000D03*
X188500000Y-48000000D03*
D41*
X154200000Y-44600000D03*
X154200000Y-42600000D03*
D42*
X221500000Y-90000000D03*
X208500000Y-86250000D03*
X208250000Y-93750000D03*
X213342500Y-84015000D03*
X213342500Y-95985000D03*
X210500000Y-80500000D03*
D43*
X223120000Y-90000000D02*
X221500000Y-90000000D01*
D44*
X213342500Y-94515000D02*
X213827500Y-95000000D01*
X213827500Y-95000000D02*
X216250000Y-95000000D01*
X213342500Y-85485000D02*
X213827500Y-85000000D01*
X213827500Y-85000000D02*
X216500000Y-85000000D01*
D43*
X207000000Y-86200000D02*
X207050000Y-86250000D01*
X207050000Y-86250000D02*
X208500000Y-86250000D01*
X207000000Y-93800000D02*
X207050000Y-93750000D01*
X207050000Y-93750000D02*
X208250000Y-93750000D01*
X207000000Y-93800000D02*
X209185000Y-95985000D01*
X209185000Y-95985000D02*
X210657500Y-95985000D01*
X207000000Y-93800000D02*
X207715000Y-94515000D01*
X207715000Y-94515000D02*
X210657500Y-94515000D01*
X207000000Y-86200000D02*
X207715000Y-85485000D01*
X207715000Y-85485000D02*
X210657500Y-85485000D01*
X207000000Y-86200000D02*
X209185000Y-84015000D01*
X209185000Y-84015000D02*
X210657500Y-84015000D01*
D44*
X205250000Y-92500000D02*
X205500000Y-92250000D01*
X205250000Y-94950000D02*
X205250000Y-92500000D01*
X207000000Y-96700000D02*
X205250000Y-94950000D01*
X205500000Y-92250000D02*
X209250000Y-92250000D01*
X207000000Y-96700000D02*
X208300000Y-98000000D01*
X208300000Y-98000000D02*
X209250000Y-98000000D01*
X209250000Y-87750000D02*
X205250000Y-87750000D01*
X205250000Y-87750000D02*
X205250000Y-85250000D01*
X205250000Y-85050000D02*
X205250000Y-85250000D01*
X205250000Y-85250000D02*
X205250000Y-85050000D01*
X207000000Y-83300000D02*
X205250000Y-85050000D01*
X207000000Y-83300000D02*
X208300000Y-82000000D01*
X208300000Y-82000000D02*
X209250000Y-82000000D01*
X210750000Y-98000000D02*
X210750000Y-98500000D01*
X206750000Y-98000000D02*
X208250000Y-99500000D01*
X205250000Y-98000000D02*
X205250000Y-97250000D01*
X205250000Y-96750000D02*
X205250000Y-97250000D01*
X204000000Y-95500000D02*
X204000000Y-93750000D01*
X199480000Y-93750000D02*
X204000000Y-93750000D01*
X199480000Y-93750000D02*
X197730000Y-92000000D01*
X204000000Y-95500000D02*
X205250000Y-96750000D01*
X206750000Y-98000000D02*
X205250000Y-98000000D01*
X208250000Y-99500000D02*
X210750000Y-99500000D01*
X210750000Y-98500000D02*
X210750000Y-99500000D01*
X210500000Y-90750000D02*
X210750000Y-91000000D01*
X201520000Y-90750000D02*
X210500000Y-90750000D01*
X200270000Y-92000000D02*
X201520000Y-90750000D01*
X210750000Y-91000000D02*
X210750000Y-92500000D01*
D45*
X211025000Y-92475000D02*
X211000000Y-92500000D01*
X211000000Y-92500000D02*
X210750000Y-92500000D01*
X210375000Y-92475000D02*
X210400000Y-92500000D01*
X210400000Y-92500000D02*
X210750000Y-92500000D01*
D44*
X200270000Y-92000000D02*
X200520000Y-91750000D01*
X210500000Y-89250000D02*
X210750000Y-89000000D01*
X197730000Y-88000000D02*
X199480000Y-86250000D01*
X201250000Y-86250000D02*
X204250000Y-89250000D01*
X199480000Y-86250000D02*
X201250000Y-86250000D01*
X210500000Y-89250000D02*
X204250000Y-89250000D01*
X210750000Y-89000000D02*
X210750000Y-87750000D01*
X210500000Y-80500000D02*
X210750000Y-80750000D01*
X210750000Y-80750000D02*
X210750000Y-82000000D01*
D46*
G36*
X206684072Y-75410561D02*
X206883954Y-75894310D01*
X207253743Y-76264746D01*
X207737143Y-76465471D01*
X208260561Y-76465928D01*
X208744310Y-76266046D01*
X209114746Y-75896257D01*
X209315471Y-75412857D01*
X209315820Y-75012700D01*
X227987300Y-75012700D01*
X227987300Y-103987300D01*
X208997863Y-103987300D01*
X208746257Y-103735254D01*
X208262857Y-103534529D01*
X207739439Y-103534072D01*
X207255690Y-103733954D01*
X207001901Y-103987300D01*
X194012700Y-103987300D01*
X194012700Y-92232241D01*
X196557096Y-92232241D01*
X196735253Y-92663414D01*
X197064851Y-92993587D01*
X197495712Y-93172496D01*
X197962241Y-93172904D01*
X198054757Y-93134677D01*
X199075040Y-94154960D01*
X199260837Y-94279106D01*
X199480000Y-94322700D01*
X203427300Y-94322700D01*
X203427300Y-95500000D01*
X203470894Y-95719163D01*
X203595040Y-95904960D01*
X204677300Y-96987220D01*
X204677300Y-98000000D01*
X204720894Y-98219163D01*
X204845040Y-98404960D01*
X205030837Y-98529106D01*
X205250000Y-98572700D01*
X206512780Y-98572700D01*
X207845040Y-99904960D01*
X208030837Y-100029106D01*
X208250000Y-100072700D01*
X210750000Y-100072700D01*
X210969163Y-100029106D01*
X211154960Y-99904960D01*
X211279106Y-99719163D01*
X211322700Y-99500000D01*
X211322700Y-98708442D01*
X211372778Y-98676218D01*
X211412210Y-98618506D01*
X211426083Y-98550000D01*
X211426083Y-97500000D01*
X211923917Y-97500000D01*
X211923917Y-98550000D01*
X211935959Y-98613999D01*
X211973782Y-98672778D01*
X212031494Y-98712210D01*
X212100000Y-98726083D01*
X212550000Y-98726083D01*
X212613999Y-98714041D01*
X212650138Y-98690786D01*
X212681494Y-98712210D01*
X212750000Y-98726083D01*
X213200000Y-98726083D01*
X213263999Y-98714041D01*
X213300138Y-98690786D01*
X213331494Y-98712210D01*
X213400000Y-98726083D01*
X213850000Y-98726083D01*
X213913999Y-98714041D01*
X213950138Y-98690786D01*
X213981494Y-98712210D01*
X214050000Y-98726083D01*
X214500000Y-98726083D01*
X214563999Y-98714041D01*
X214622778Y-98676218D01*
X214662210Y-98618506D01*
X214676083Y-98550000D01*
X214676083Y-97500000D01*
X214664041Y-97436001D01*
X214626218Y-97377222D01*
X214568506Y-97337790D01*
X214500000Y-97323917D01*
X214050000Y-97323917D01*
X213986001Y-97335959D01*
X213949862Y-97359214D01*
X213918506Y-97337790D01*
X213850000Y-97323917D01*
X213400000Y-97323917D01*
X213336001Y-97335959D01*
X213299862Y-97359214D01*
X213268506Y-97337790D01*
X213200000Y-97323917D01*
X212750000Y-97323917D01*
X212686001Y-97335959D01*
X212649862Y-97359214D01*
X212618506Y-97337790D01*
X212550000Y-97323917D01*
X212100000Y-97323917D01*
X212036001Y-97335959D01*
X211977222Y-97373782D01*
X211937790Y-97431494D01*
X211923917Y-97500000D01*
X211426083Y-97500000D01*
X211414041Y-97436001D01*
X211376218Y-97377222D01*
X211318506Y-97337790D01*
X211250000Y-97323917D01*
X210800000Y-97323917D01*
X210736001Y-97335959D01*
X210699862Y-97359214D01*
X210668506Y-97337790D01*
X210600000Y-97323917D01*
X210150000Y-97323917D01*
X210086001Y-97335959D01*
X210049862Y-97359214D01*
X210018506Y-97337790D01*
X209950000Y-97323917D01*
X209500000Y-97323917D01*
X209436001Y-97335959D01*
X209377222Y-97373782D01*
X209337790Y-97431494D01*
X209335207Y-97444249D01*
X209250000Y-97427300D01*
X208537220Y-97427300D01*
X208026083Y-96916163D01*
X208026083Y-96250000D01*
X208014041Y-96186001D01*
X207976218Y-96127222D01*
X207918506Y-96087790D01*
X207850000Y-96073917D01*
X207183837Y-96073917D01*
X205822700Y-94712780D01*
X205822700Y-92822700D01*
X207685219Y-92822700D01*
X207674086Y-92827300D01*
X207050000Y-92827300D01*
X206696898Y-92897536D01*
X206397553Y-93097552D01*
X206347553Y-93147553D01*
X206329937Y-93173917D01*
X206150000Y-93173917D01*
X206086001Y-93185959D01*
X206027222Y-93223782D01*
X205987790Y-93281494D01*
X205973917Y-93350000D01*
X205973917Y-94250000D01*
X205985959Y-94313999D01*
X206023782Y-94372778D01*
X206081494Y-94412210D01*
X206150000Y-94426083D01*
X206329937Y-94426083D01*
X206347553Y-94452447D01*
X207062553Y-95167448D01*
X207062555Y-95167449D01*
X208532553Y-96637448D01*
X208831898Y-96837464D01*
X209185000Y-96907700D01*
X210657500Y-96907700D01*
X210715903Y-96896083D01*
X212739425Y-96896083D01*
X213128191Y-97057513D01*
X213554937Y-97057885D01*
X213949342Y-96894921D01*
X214251360Y-96593429D01*
X214415013Y-96199309D01*
X214415385Y-95772563D01*
X214332804Y-95572700D01*
X215858294Y-95572700D01*
X215875000Y-95576083D01*
X216625000Y-95576083D01*
X216688999Y-95564041D01*
X216747778Y-95526218D01*
X216787210Y-95468506D01*
X216801083Y-95400000D01*
X216801083Y-95108677D01*
X216822700Y-95000000D01*
X216801083Y-94891323D01*
X216801083Y-94750000D01*
X217373917Y-94750000D01*
X217373917Y-95250000D01*
X217385959Y-95313999D01*
X217423782Y-95372778D01*
X217481494Y-95412210D01*
X217550000Y-95426083D01*
X218450000Y-95426083D01*
X218513999Y-95414041D01*
X218572778Y-95376218D01*
X218612210Y-95318506D01*
X218626083Y-95250000D01*
X218626083Y-94750000D01*
X218614041Y-94686001D01*
X218576218Y-94627222D01*
X218518506Y-94587790D01*
X218450000Y-94573917D01*
X217550000Y-94573917D01*
X217486001Y-94585959D01*
X217427222Y-94623782D01*
X217387790Y-94681494D01*
X217373917Y-94750000D01*
X216801083Y-94750000D01*
X216801083Y-94600000D01*
X216789041Y-94536001D01*
X216751218Y-94477222D01*
X216693506Y-94437790D01*
X216625000Y-94423917D01*
X215875000Y-94423917D01*
X215857021Y-94427300D01*
X214064720Y-94427300D01*
X213966083Y-94328663D01*
X213966083Y-93780000D01*
X213954041Y-93716001D01*
X213916218Y-93657222D01*
X213858506Y-93617790D01*
X213790000Y-93603917D01*
X210715903Y-93603917D01*
X210657500Y-93592300D01*
X209322837Y-93592300D01*
X209322885Y-93537563D01*
X209159921Y-93143158D01*
X208858429Y-92841140D01*
X208814021Y-92822700D01*
X209250000Y-92822700D01*
X209323917Y-92807997D01*
X209323917Y-93000000D01*
X209335959Y-93063999D01*
X209373782Y-93122778D01*
X209431494Y-93162210D01*
X209500000Y-93176083D01*
X209950000Y-93176083D01*
X210013999Y-93164041D01*
X210050138Y-93140786D01*
X210081494Y-93162210D01*
X210150000Y-93176083D01*
X210600000Y-93176083D01*
X210663999Y-93164041D01*
X210700138Y-93140786D01*
X210731494Y-93162210D01*
X210800000Y-93176083D01*
X211250000Y-93176083D01*
X211313999Y-93164041D01*
X211372778Y-93126218D01*
X211412210Y-93068506D01*
X211426083Y-93000000D01*
X211426083Y-91950000D01*
X211923917Y-91950000D01*
X211923917Y-93000000D01*
X211935959Y-93063999D01*
X211973782Y-93122778D01*
X212031494Y-93162210D01*
X212100000Y-93176083D01*
X212550000Y-93176083D01*
X212613999Y-93164041D01*
X212650138Y-93140786D01*
X212681494Y-93162210D01*
X212750000Y-93176083D01*
X213200000Y-93176083D01*
X213263999Y-93164041D01*
X213300138Y-93140786D01*
X213331494Y-93162210D01*
X213400000Y-93176083D01*
X213850000Y-93176083D01*
X213913999Y-93164041D01*
X213950138Y-93140786D01*
X213981494Y-93162210D01*
X214050000Y-93176083D01*
X214500000Y-93176083D01*
X214563999Y-93164041D01*
X214622778Y-93126218D01*
X214662210Y-93068506D01*
X214676083Y-93000000D01*
X214676083Y-91950000D01*
X214664041Y-91886001D01*
X214626218Y-91827222D01*
X214568506Y-91787790D01*
X214500000Y-91773917D01*
X214050000Y-91773917D01*
X213986001Y-91785959D01*
X213949862Y-91809214D01*
X213918506Y-91787790D01*
X213850000Y-91773917D01*
X213400000Y-91773917D01*
X213336001Y-91785959D01*
X213299862Y-91809214D01*
X213268506Y-91787790D01*
X213200000Y-91773917D01*
X212750000Y-91773917D01*
X212686001Y-91785959D01*
X212649862Y-91809214D01*
X212618506Y-91787790D01*
X212550000Y-91773917D01*
X212100000Y-91773917D01*
X212036001Y-91785959D01*
X211977222Y-91823782D01*
X211937790Y-91881494D01*
X211923917Y-91950000D01*
X211426083Y-91950000D01*
X211414041Y-91886001D01*
X211376218Y-91827222D01*
X211322700Y-91790656D01*
X211322700Y-91000000D01*
X211279106Y-90780837D01*
X211154960Y-90595040D01*
X210904960Y-90345040D01*
X210719163Y-90220894D01*
X210500000Y-90177300D01*
X201520000Y-90177300D01*
X201300837Y-90220894D01*
X201115040Y-90345040D01*
X200594936Y-90865144D01*
X200504288Y-90827504D01*
X200037759Y-90827096D01*
X199606586Y-91005253D01*
X199276413Y-91334851D01*
X199097504Y-91765712D01*
X199097096Y-92232241D01*
X199275253Y-92663414D01*
X199604851Y-92993587D01*
X200035712Y-93172496D01*
X200502241Y-93172904D01*
X200933414Y-92994747D01*
X201263587Y-92665149D01*
X201442496Y-92234288D01*
X201442904Y-91767759D01*
X201404677Y-91675243D01*
X201757220Y-91322700D01*
X210177300Y-91322700D01*
X210177300Y-91773917D01*
X210150000Y-91773917D01*
X210086001Y-91785959D01*
X210049862Y-91809214D01*
X210018506Y-91787790D01*
X209950000Y-91773917D01*
X209548517Y-91773917D01*
X209469163Y-91720894D01*
X209250000Y-91677300D01*
X205500000Y-91677300D01*
X205280837Y-91720894D01*
X205095040Y-91845040D01*
X204845040Y-92095040D01*
X204720894Y-92280837D01*
X204677300Y-92500000D01*
X204677300Y-94950000D01*
X204720894Y-95169163D01*
X204845040Y-95354960D01*
X205973917Y-96483837D01*
X205973917Y-97150000D01*
X205985959Y-97213999D01*
X206023782Y-97272778D01*
X206081494Y-97312210D01*
X206150000Y-97326083D01*
X206816163Y-97326083D01*
X206958941Y-97468861D01*
X206750000Y-97427300D01*
X205822700Y-97427300D01*
X205822700Y-96750000D01*
X205779106Y-96530837D01*
X205654960Y-96345040D01*
X204572700Y-95262780D01*
X204572700Y-93750000D01*
X204529106Y-93530837D01*
X204404960Y-93345040D01*
X204219163Y-93220894D01*
X204000000Y-93177300D01*
X199717220Y-93177300D01*
X198864856Y-92324936D01*
X198902496Y-92234288D01*
X198902904Y-91767759D01*
X198724747Y-91336586D01*
X198395149Y-91006413D01*
X197964288Y-90827504D01*
X197497759Y-90827096D01*
X197066586Y-91005253D01*
X196736413Y-91334851D01*
X196557504Y-91765712D01*
X196557096Y-92232241D01*
X194012700Y-92232241D01*
X194012700Y-88232241D01*
X196557096Y-88232241D01*
X196735253Y-88663414D01*
X197064851Y-88993587D01*
X197495712Y-89172496D01*
X197962241Y-89172904D01*
X198393414Y-88994747D01*
X198723587Y-88665149D01*
X198902496Y-88234288D01*
X198902497Y-88232241D01*
X199097096Y-88232241D01*
X199275253Y-88663414D01*
X199604851Y-88993587D01*
X200035712Y-89172496D01*
X200502241Y-89172904D01*
X200933414Y-88994747D01*
X201263587Y-88665149D01*
X201442496Y-88234288D01*
X201442904Y-87767759D01*
X201264747Y-87336586D01*
X200935149Y-87006413D01*
X200504288Y-86827504D01*
X200037759Y-86827096D01*
X199606586Y-87005253D01*
X199276413Y-87334851D01*
X199097504Y-87765712D01*
X199097096Y-88232241D01*
X198902497Y-88232241D01*
X198902904Y-87767759D01*
X198864677Y-87675243D01*
X199717220Y-86822700D01*
X201012780Y-86822700D01*
X203845040Y-89654960D01*
X204030837Y-89779106D01*
X204250000Y-89822700D01*
X210500000Y-89822700D01*
X210719163Y-89779106D01*
X210904960Y-89654960D01*
X211154960Y-89404960D01*
X211279106Y-89219163D01*
X211322700Y-89000000D01*
X211322700Y-88785000D01*
X221758917Y-88785000D01*
X221758917Y-91215000D01*
X221770959Y-91278999D01*
X221808782Y-91337778D01*
X221866494Y-91377210D01*
X221935000Y-91391083D01*
X224305000Y-91391083D01*
X224368999Y-91379041D01*
X224427778Y-91341218D01*
X224467210Y-91283506D01*
X224481083Y-91215000D01*
X224481083Y-88785000D01*
X224469041Y-88721001D01*
X224431218Y-88662222D01*
X224373506Y-88622790D01*
X224305000Y-88608917D01*
X221935000Y-88608917D01*
X221871001Y-88620959D01*
X221812222Y-88658782D01*
X221772790Y-88716494D01*
X221758917Y-88785000D01*
X211322700Y-88785000D01*
X211322700Y-88208442D01*
X211372778Y-88176218D01*
X211412210Y-88118506D01*
X211426083Y-88050000D01*
X211426083Y-87000000D01*
X211923917Y-87000000D01*
X211923917Y-88050000D01*
X211935959Y-88113999D01*
X211973782Y-88172778D01*
X212031494Y-88212210D01*
X212100000Y-88226083D01*
X212550000Y-88226083D01*
X212613999Y-88214041D01*
X212650138Y-88190786D01*
X212681494Y-88212210D01*
X212750000Y-88226083D01*
X213200000Y-88226083D01*
X213263999Y-88214041D01*
X213300138Y-88190786D01*
X213331494Y-88212210D01*
X213400000Y-88226083D01*
X213850000Y-88226083D01*
X213913999Y-88214041D01*
X213950138Y-88190786D01*
X213981494Y-88212210D01*
X214050000Y-88226083D01*
X214500000Y-88226083D01*
X214563999Y-88214041D01*
X214622778Y-88176218D01*
X214662210Y-88118506D01*
X214676083Y-88050000D01*
X214676083Y-87000000D01*
X214664041Y-86936001D01*
X214626218Y-86877222D01*
X214568506Y-86837790D01*
X214500000Y-86823917D01*
X214050000Y-86823917D01*
X213986001Y-86835959D01*
X213949862Y-86859214D01*
X213918506Y-86837790D01*
X213850000Y-86823917D01*
X213400000Y-86823917D01*
X213336001Y-86835959D01*
X213299862Y-86859214D01*
X213268506Y-86837790D01*
X213200000Y-86823917D01*
X212750000Y-86823917D01*
X212686001Y-86835959D01*
X212649862Y-86859214D01*
X212618506Y-86837790D01*
X212550000Y-86823917D01*
X212100000Y-86823917D01*
X212036001Y-86835959D01*
X211977222Y-86873782D01*
X211937790Y-86931494D01*
X211923917Y-87000000D01*
X211426083Y-87000000D01*
X211414041Y-86936001D01*
X211376218Y-86877222D01*
X211318506Y-86837790D01*
X211250000Y-86823917D01*
X210800000Y-86823917D01*
X210736001Y-86835959D01*
X210699862Y-86859214D01*
X210668506Y-86837790D01*
X210600000Y-86823917D01*
X210150000Y-86823917D01*
X210086001Y-86835959D01*
X210049862Y-86859214D01*
X210018506Y-86837790D01*
X209950000Y-86823917D01*
X209500000Y-86823917D01*
X209436001Y-86835959D01*
X209411696Y-86851599D01*
X209572513Y-86464309D01*
X209572562Y-86407700D01*
X210657500Y-86407700D01*
X210715903Y-86396083D01*
X213790000Y-86396083D01*
X213853999Y-86384041D01*
X213912778Y-86346218D01*
X213952210Y-86288506D01*
X213966083Y-86220000D01*
X213966083Y-85671337D01*
X214064720Y-85572700D01*
X216108294Y-85572700D01*
X216125000Y-85576083D01*
X216875000Y-85576083D01*
X216938999Y-85564041D01*
X216997778Y-85526218D01*
X217037210Y-85468506D01*
X217051083Y-85400000D01*
X217051083Y-85108677D01*
X217072700Y-85000000D01*
X217051083Y-84891323D01*
X217051083Y-84750000D01*
X217623917Y-84750000D01*
X217623917Y-85250000D01*
X217635959Y-85313999D01*
X217673782Y-85372778D01*
X217731494Y-85412210D01*
X217800000Y-85426083D01*
X218700000Y-85426083D01*
X218763999Y-85414041D01*
X218822778Y-85376218D01*
X218862210Y-85318506D01*
X218876083Y-85250000D01*
X218876083Y-84750000D01*
X218864041Y-84686001D01*
X218826218Y-84627222D01*
X218768506Y-84587790D01*
X218700000Y-84573917D01*
X217800000Y-84573917D01*
X217736001Y-84585959D01*
X217677222Y-84623782D01*
X217637790Y-84681494D01*
X217623917Y-84750000D01*
X217051083Y-84750000D01*
X217051083Y-84600000D01*
X217039041Y-84536001D01*
X217001218Y-84477222D01*
X216943506Y-84437790D01*
X216875000Y-84423917D01*
X216125000Y-84423917D01*
X216107021Y-84427300D01*
X214332800Y-84427300D01*
X214415013Y-84229309D01*
X214415385Y-83802563D01*
X214252421Y-83408158D01*
X213950929Y-83106140D01*
X213556809Y-82942487D01*
X213130063Y-82942115D01*
X212738470Y-83103917D01*
X210715903Y-83103917D01*
X210657500Y-83092300D01*
X209185000Y-83092300D01*
X208831898Y-83162536D01*
X208532553Y-83362552D01*
X207062555Y-84832551D01*
X207062553Y-84832552D01*
X206347553Y-85547553D01*
X206329937Y-85573917D01*
X206150000Y-85573917D01*
X206086001Y-85585959D01*
X206027222Y-85623782D01*
X205987790Y-85681494D01*
X205973917Y-85750000D01*
X205973917Y-86650000D01*
X205985959Y-86713999D01*
X206023782Y-86772778D01*
X206081494Y-86812210D01*
X206150000Y-86826083D01*
X206329937Y-86826083D01*
X206347553Y-86852447D01*
X206397553Y-86902448D01*
X206696898Y-87102464D01*
X207050000Y-87172700D01*
X207924901Y-87172700D01*
X207935979Y-87177300D01*
X205822700Y-87177300D01*
X205822700Y-85287220D01*
X207183837Y-83926083D01*
X207850000Y-83926083D01*
X207913999Y-83914041D01*
X207972778Y-83876218D01*
X208012210Y-83818506D01*
X208026083Y-83750000D01*
X208026083Y-83083837D01*
X208537220Y-82572700D01*
X209250000Y-82572700D01*
X209334436Y-82555905D01*
X209335959Y-82563999D01*
X209373782Y-82622778D01*
X209431494Y-82662210D01*
X209500000Y-82676083D01*
X209950000Y-82676083D01*
X210013999Y-82664041D01*
X210050138Y-82640786D01*
X210081494Y-82662210D01*
X210150000Y-82676083D01*
X210600000Y-82676083D01*
X210663999Y-82664041D01*
X210700138Y-82640786D01*
X210731494Y-82662210D01*
X210800000Y-82676083D01*
X211250000Y-82676083D01*
X211313999Y-82664041D01*
X211372778Y-82626218D01*
X211412210Y-82568506D01*
X211426083Y-82500000D01*
X211426083Y-81450000D01*
X211923917Y-81450000D01*
X211923917Y-82500000D01*
X211935959Y-82563999D01*
X211973782Y-82622778D01*
X212031494Y-82662210D01*
X212100000Y-82676083D01*
X212550000Y-82676083D01*
X212613999Y-82664041D01*
X212650138Y-82640786D01*
X212681494Y-82662210D01*
X212750000Y-82676083D01*
X213200000Y-82676083D01*
X213263999Y-82664041D01*
X213300138Y-82640786D01*
X213331494Y-82662210D01*
X213400000Y-82676083D01*
X213850000Y-82676083D01*
X213913999Y-82664041D01*
X213950138Y-82640786D01*
X213981494Y-82662210D01*
X214050000Y-82676083D01*
X214500000Y-82676083D01*
X214563999Y-82664041D01*
X214622778Y-82626218D01*
X214662210Y-82568506D01*
X214676083Y-82500000D01*
X214676083Y-81450000D01*
X214664041Y-81386001D01*
X214626218Y-81327222D01*
X214568506Y-81287790D01*
X214500000Y-81273917D01*
X214050000Y-81273917D01*
X213986001Y-81285959D01*
X213949862Y-81309214D01*
X213918506Y-81287790D01*
X213850000Y-81273917D01*
X213400000Y-81273917D01*
X213336001Y-81285959D01*
X213299862Y-81309214D01*
X213268506Y-81287790D01*
X213200000Y-81273917D01*
X212750000Y-81273917D01*
X212686001Y-81285959D01*
X212649862Y-81309214D01*
X212618506Y-81287790D01*
X212550000Y-81273917D01*
X212100000Y-81273917D01*
X212036001Y-81285959D01*
X211977222Y-81323782D01*
X211937790Y-81381494D01*
X211923917Y-81450000D01*
X211426083Y-81450000D01*
X211414041Y-81386001D01*
X211376218Y-81327222D01*
X211322700Y-81290656D01*
X211322700Y-81194439D01*
X211408860Y-81108429D01*
X211572513Y-80714309D01*
X211572885Y-80287563D01*
X211409921Y-79893158D01*
X211108429Y-79591140D01*
X210714309Y-79427487D01*
X210287563Y-79427115D01*
X209893158Y-79590079D01*
X209591140Y-79891571D01*
X209427487Y-80285691D01*
X209427115Y-80712437D01*
X209590079Y-81106842D01*
X209756863Y-81273917D01*
X209500000Y-81273917D01*
X209436001Y-81285959D01*
X209377222Y-81323782D01*
X209337790Y-81381494D01*
X209325474Y-81442313D01*
X209250000Y-81427300D01*
X208300000Y-81427300D01*
X208080837Y-81470894D01*
X207895040Y-81595040D01*
X206816163Y-82673917D01*
X206150000Y-82673917D01*
X206086001Y-82685959D01*
X206027222Y-82723782D01*
X205987790Y-82781494D01*
X205973917Y-82850000D01*
X205973917Y-83516163D01*
X204845040Y-84645040D01*
X204720894Y-84830837D01*
X204677300Y-85050000D01*
X204677300Y-87750000D01*
X204720894Y-87969163D01*
X204845040Y-88154960D01*
X205030837Y-88279106D01*
X205250000Y-88322700D01*
X209250000Y-88322700D01*
X209469163Y-88279106D01*
X209548517Y-88226083D01*
X209950000Y-88226083D01*
X210013999Y-88214041D01*
X210050138Y-88190786D01*
X210081494Y-88212210D01*
X210150000Y-88226083D01*
X210177300Y-88226083D01*
X210177300Y-88677300D01*
X204487220Y-88677300D01*
X201654960Y-85845040D01*
X201469163Y-85720894D01*
X201250000Y-85677300D01*
X199480000Y-85677300D01*
X199260837Y-85720894D01*
X199075040Y-85845040D01*
X198054936Y-86865144D01*
X197964288Y-86827504D01*
X197497759Y-86827096D01*
X197066586Y-87005253D01*
X196736413Y-87334851D01*
X196557504Y-87765712D01*
X196557096Y-88232241D01*
X194012700Y-88232241D01*
X194012700Y-75012700D01*
X206684419Y-75012700D01*
X206684072Y-75410561D01*
X206684072Y-75410561D01*
G37*
X206684072Y-75410561D02*
X206883954Y-75894310D01*
X207253743Y-76264746D01*
X207737143Y-76465471D01*
X208260561Y-76465928D01*
X208744310Y-76266046D01*
X209114746Y-75896257D01*
X209315471Y-75412857D01*
X209315820Y-75012700D01*
X227987300Y-75012700D01*
X227987300Y-103987300D01*
X208997863Y-103987300D01*
X208746257Y-103735254D01*
X208262857Y-103534529D01*
X207739439Y-103534072D01*
X207255690Y-103733954D01*
X207001901Y-103987300D01*
X194012700Y-103987300D01*
X194012700Y-92232241D01*
X196557096Y-92232241D01*
X196735253Y-92663414D01*
X197064851Y-92993587D01*
X197495712Y-93172496D01*
X197962241Y-93172904D01*
X198054757Y-93134677D01*
X199075040Y-94154960D01*
X199260837Y-94279106D01*
X199480000Y-94322700D01*
X203427300Y-94322700D01*
X203427300Y-95500000D01*
X203470894Y-95719163D01*
X203595040Y-95904960D01*
X204677300Y-96987220D01*
X204677300Y-98000000D01*
X204720894Y-98219163D01*
X204845040Y-98404960D01*
X205030837Y-98529106D01*
X205250000Y-98572700D01*
X206512780Y-98572700D01*
X207845040Y-99904960D01*
X208030837Y-100029106D01*
X208250000Y-100072700D01*
X210750000Y-100072700D01*
X210969163Y-100029106D01*
X211154960Y-99904960D01*
X211279106Y-99719163D01*
X211322700Y-99500000D01*
X211322700Y-98708442D01*
X211372778Y-98676218D01*
X211412210Y-98618506D01*
X211426083Y-98550000D01*
X211426083Y-97500000D01*
X211923917Y-97500000D01*
X211923917Y-98550000D01*
X211935959Y-98613999D01*
X211973782Y-98672778D01*
X212031494Y-98712210D01*
X212100000Y-98726083D01*
X212550000Y-98726083D01*
X212613999Y-98714041D01*
X212650138Y-98690786D01*
X212681494Y-98712210D01*
X212750000Y-98726083D01*
X213200000Y-98726083D01*
X213263999Y-98714041D01*
X213300138Y-98690786D01*
X213331494Y-98712210D01*
X213400000Y-98726083D01*
X213850000Y-98726083D01*
X213913999Y-98714041D01*
X213950138Y-98690786D01*
X213981494Y-98712210D01*
X214050000Y-98726083D01*
X214500000Y-98726083D01*
X214563999Y-98714041D01*
X214622778Y-98676218D01*
X214662210Y-98618506D01*
X214676083Y-98550000D01*
X214676083Y-97500000D01*
X214664041Y-97436001D01*
X214626218Y-97377222D01*
X214568506Y-97337790D01*
X214500000Y-97323917D01*
X214050000Y-97323917D01*
X213986001Y-97335959D01*
X213949862Y-97359214D01*
X213918506Y-97337790D01*
X213850000Y-97323917D01*
X213400000Y-97323917D01*
X213336001Y-97335959D01*
X213299862Y-97359214D01*
X213268506Y-97337790D01*
X213200000Y-97323917D01*
X212750000Y-97323917D01*
X212686001Y-97335959D01*
X212649862Y-97359214D01*
X212618506Y-97337790D01*
X212550000Y-97323917D01*
X212100000Y-97323917D01*
X212036001Y-97335959D01*
X211977222Y-97373782D01*
X211937790Y-97431494D01*
X211923917Y-97500000D01*
X211426083Y-97500000D01*
X211414041Y-97436001D01*
X211376218Y-97377222D01*
X211318506Y-97337790D01*
X211250000Y-97323917D01*
X210800000Y-97323917D01*
X210736001Y-97335959D01*
X210699862Y-97359214D01*
X210668506Y-97337790D01*
X210600000Y-97323917D01*
X210150000Y-97323917D01*
X210086001Y-97335959D01*
X210049862Y-97359214D01*
X210018506Y-97337790D01*
X209950000Y-97323917D01*
X209500000Y-97323917D01*
X209436001Y-97335959D01*
X209377222Y-97373782D01*
X209337790Y-97431494D01*
X209335207Y-97444249D01*
X209250000Y-97427300D01*
X208537220Y-97427300D01*
X208026083Y-96916163D01*
X208026083Y-96250000D01*
X208014041Y-96186001D01*
X207976218Y-96127222D01*
X207918506Y-96087790D01*
X207850000Y-96073917D01*
X207183837Y-96073917D01*
X205822700Y-94712780D01*
X205822700Y-92822700D01*
X207685219Y-92822700D01*
X207674086Y-92827300D01*
X207050000Y-92827300D01*
X206696898Y-92897536D01*
X206397553Y-93097552D01*
X206347553Y-93147553D01*
X206329937Y-93173917D01*
X206150000Y-93173917D01*
X206086001Y-93185959D01*
X206027222Y-93223782D01*
X205987790Y-93281494D01*
X205973917Y-93350000D01*
X205973917Y-94250000D01*
X205985959Y-94313999D01*
X206023782Y-94372778D01*
X206081494Y-94412210D01*
X206150000Y-94426083D01*
X206329937Y-94426083D01*
X206347553Y-94452447D01*
X207062553Y-95167448D01*
X207062555Y-95167449D01*
X208532553Y-96637448D01*
X208831898Y-96837464D01*
X209185000Y-96907700D01*
X210657500Y-96907700D01*
X210715903Y-96896083D01*
X212739425Y-96896083D01*
X213128191Y-97057513D01*
X213554937Y-97057885D01*
X213949342Y-96894921D01*
X214251360Y-96593429D01*
X214415013Y-96199309D01*
X214415385Y-95772563D01*
X214332804Y-95572700D01*
X215858294Y-95572700D01*
X215875000Y-95576083D01*
X216625000Y-95576083D01*
X216688999Y-95564041D01*
X216747778Y-95526218D01*
X216787210Y-95468506D01*
X216801083Y-95400000D01*
X216801083Y-95108677D01*
X216822700Y-95000000D01*
X216801083Y-94891323D01*
X216801083Y-94750000D01*
X217373917Y-94750000D01*
X217373917Y-95250000D01*
X217385959Y-95313999D01*
X217423782Y-95372778D01*
X217481494Y-95412210D01*
X217550000Y-95426083D01*
X218450000Y-95426083D01*
X218513999Y-95414041D01*
X218572778Y-95376218D01*
X218612210Y-95318506D01*
X218626083Y-95250000D01*
X218626083Y-94750000D01*
X218614041Y-94686001D01*
X218576218Y-94627222D01*
X218518506Y-94587790D01*
X218450000Y-94573917D01*
X217550000Y-94573917D01*
X217486001Y-94585959D01*
X217427222Y-94623782D01*
X217387790Y-94681494D01*
X217373917Y-94750000D01*
X216801083Y-94750000D01*
X216801083Y-94600000D01*
X216789041Y-94536001D01*
X216751218Y-94477222D01*
X216693506Y-94437790D01*
X216625000Y-94423917D01*
X215875000Y-94423917D01*
X215857021Y-94427300D01*
X214064720Y-94427300D01*
X213966083Y-94328663D01*
X213966083Y-93780000D01*
X213954041Y-93716001D01*
X213916218Y-93657222D01*
X213858506Y-93617790D01*
X213790000Y-93603917D01*
X210715903Y-93603917D01*
X210657500Y-93592300D01*
X209322837Y-93592300D01*
X209322885Y-93537563D01*
X209159921Y-93143158D01*
X208858429Y-92841140D01*
X208814021Y-92822700D01*
X209250000Y-92822700D01*
X209323917Y-92807997D01*
X209323917Y-93000000D01*
X209335959Y-93063999D01*
X209373782Y-93122778D01*
X209431494Y-93162210D01*
X209500000Y-93176083D01*
X209950000Y-93176083D01*
X210013999Y-93164041D01*
X210050138Y-93140786D01*
X210081494Y-93162210D01*
X210150000Y-93176083D01*
X210600000Y-93176083D01*
X210663999Y-93164041D01*
X210700138Y-93140786D01*
X210731494Y-93162210D01*
X210800000Y-93176083D01*
X211250000Y-93176083D01*
X211313999Y-93164041D01*
X211372778Y-93126218D01*
X211412210Y-93068506D01*
X211426083Y-93000000D01*
X211426083Y-91950000D01*
X211923917Y-91950000D01*
X211923917Y-93000000D01*
X211935959Y-93063999D01*
X211973782Y-93122778D01*
X212031494Y-93162210D01*
X212100000Y-93176083D01*
X212550000Y-93176083D01*
X212613999Y-93164041D01*
X212650138Y-93140786D01*
X212681494Y-93162210D01*
X212750000Y-93176083D01*
X213200000Y-93176083D01*
X213263999Y-93164041D01*
X213300138Y-93140786D01*
X213331494Y-93162210D01*
X213400000Y-93176083D01*
X213850000Y-93176083D01*
X213913999Y-93164041D01*
X213950138Y-93140786D01*
X213981494Y-93162210D01*
X214050000Y-93176083D01*
X214500000Y-93176083D01*
X214563999Y-93164041D01*
X214622778Y-93126218D01*
X214662210Y-93068506D01*
X214676083Y-93000000D01*
X214676083Y-91950000D01*
X214664041Y-91886001D01*
X214626218Y-91827222D01*
X214568506Y-91787790D01*
X214500000Y-91773917D01*
X214050000Y-91773917D01*
X213986001Y-91785959D01*
X213949862Y-91809214D01*
X213918506Y-91787790D01*
X213850000Y-91773917D01*
X213400000Y-91773917D01*
X213336001Y-91785959D01*
X213299862Y-91809214D01*
X213268506Y-91787790D01*
X213200000Y-91773917D01*
X212750000Y-91773917D01*
X212686001Y-91785959D01*
X212649862Y-91809214D01*
X212618506Y-91787790D01*
X212550000Y-91773917D01*
X212100000Y-91773917D01*
X212036001Y-91785959D01*
X211977222Y-91823782D01*
X211937790Y-91881494D01*
X211923917Y-91950000D01*
X211426083Y-91950000D01*
X211414041Y-91886001D01*
X211376218Y-91827222D01*
X211322700Y-91790656D01*
X211322700Y-91000000D01*
X211279106Y-90780837D01*
X211154960Y-90595040D01*
X210904960Y-90345040D01*
X210719163Y-90220894D01*
X210500000Y-90177300D01*
X201520000Y-90177300D01*
X201300837Y-90220894D01*
X201115040Y-90345040D01*
X200594936Y-90865144D01*
X200504288Y-90827504D01*
X200037759Y-90827096D01*
X199606586Y-91005253D01*
X199276413Y-91334851D01*
X199097504Y-91765712D01*
X199097096Y-92232241D01*
X199275253Y-92663414D01*
X199604851Y-92993587D01*
X200035712Y-93172496D01*
X200502241Y-93172904D01*
X200933414Y-92994747D01*
X201263587Y-92665149D01*
X201442496Y-92234288D01*
X201442904Y-91767759D01*
X201404677Y-91675243D01*
X201757220Y-91322700D01*
X210177300Y-91322700D01*
X210177300Y-91773917D01*
X210150000Y-91773917D01*
X210086001Y-91785959D01*
X210049862Y-91809214D01*
X210018506Y-91787790D01*
X209950000Y-91773917D01*
X209548517Y-91773917D01*
X209469163Y-91720894D01*
X209250000Y-91677300D01*
X205500000Y-91677300D01*
X205280837Y-91720894D01*
X205095040Y-91845040D01*
X204845040Y-92095040D01*
X204720894Y-92280837D01*
X204677300Y-92500000D01*
X204677300Y-94950000D01*
X204720894Y-95169163D01*
X204845040Y-95354960D01*
X205973917Y-96483837D01*
X205973917Y-97150000D01*
X205985959Y-97213999D01*
X206023782Y-97272778D01*
X206081494Y-97312210D01*
X206150000Y-97326083D01*
X206816163Y-97326083D01*
X206958941Y-97468861D01*
X206750000Y-97427300D01*
X205822700Y-97427300D01*
X205822700Y-96750000D01*
X205779106Y-96530837D01*
X205654960Y-96345040D01*
X204572700Y-95262780D01*
X204572700Y-93750000D01*
X204529106Y-93530837D01*
X204404960Y-93345040D01*
X204219163Y-93220894D01*
X204000000Y-93177300D01*
X199717220Y-93177300D01*
X198864856Y-92324936D01*
X198902496Y-92234288D01*
X198902904Y-91767759D01*
X198724747Y-91336586D01*
X198395149Y-91006413D01*
X197964288Y-90827504D01*
X197497759Y-90827096D01*
X197066586Y-91005253D01*
X196736413Y-91334851D01*
X196557504Y-91765712D01*
X196557096Y-92232241D01*
X194012700Y-92232241D01*
X194012700Y-88232241D01*
X196557096Y-88232241D01*
X196735253Y-88663414D01*
X197064851Y-88993587D01*
X197495712Y-89172496D01*
X197962241Y-89172904D01*
X198393414Y-88994747D01*
X198723587Y-88665149D01*
X198902496Y-88234288D01*
X198902497Y-88232241D01*
X199097096Y-88232241D01*
X199275253Y-88663414D01*
X199604851Y-88993587D01*
X200035712Y-89172496D01*
X200502241Y-89172904D01*
X200933414Y-88994747D01*
X201263587Y-88665149D01*
X201442496Y-88234288D01*
X201442904Y-87767759D01*
X201264747Y-87336586D01*
X200935149Y-87006413D01*
X200504288Y-86827504D01*
X200037759Y-86827096D01*
X199606586Y-87005253D01*
X199276413Y-87334851D01*
X199097504Y-87765712D01*
X199097096Y-88232241D01*
X198902497Y-88232241D01*
X198902904Y-87767759D01*
X198864677Y-87675243D01*
X199717220Y-86822700D01*
X201012780Y-86822700D01*
X203845040Y-89654960D01*
X204030837Y-89779106D01*
X204250000Y-89822700D01*
X210500000Y-89822700D01*
X210719163Y-89779106D01*
X210904960Y-89654960D01*
X211154960Y-89404960D01*
X211279106Y-89219163D01*
X211322700Y-89000000D01*
X211322700Y-88785000D01*
X221758917Y-88785000D01*
X221758917Y-91215000D01*
X221770959Y-91278999D01*
X221808782Y-91337778D01*
X221866494Y-91377210D01*
X221935000Y-91391083D01*
X224305000Y-91391083D01*
X224368999Y-91379041D01*
X224427778Y-91341218D01*
X224467210Y-91283506D01*
X224481083Y-91215000D01*
X224481083Y-88785000D01*
X224469041Y-88721001D01*
X224431218Y-88662222D01*
X224373506Y-88622790D01*
X224305000Y-88608917D01*
X221935000Y-88608917D01*
X221871001Y-88620959D01*
X221812222Y-88658782D01*
X221772790Y-88716494D01*
X221758917Y-88785000D01*
X211322700Y-88785000D01*
X211322700Y-88208442D01*
X211372778Y-88176218D01*
X211412210Y-88118506D01*
X211426083Y-88050000D01*
X211426083Y-87000000D01*
X211923917Y-87000000D01*
X211923917Y-88050000D01*
X211935959Y-88113999D01*
X211973782Y-88172778D01*
X212031494Y-88212210D01*
X212100000Y-88226083D01*
X212550000Y-88226083D01*
X212613999Y-88214041D01*
X212650138Y-88190786D01*
X212681494Y-88212210D01*
X212750000Y-88226083D01*
X213200000Y-88226083D01*
X213263999Y-88214041D01*
X213300138Y-88190786D01*
X213331494Y-88212210D01*
X213400000Y-88226083D01*
X213850000Y-88226083D01*
X213913999Y-88214041D01*
X213950138Y-88190786D01*
X213981494Y-88212210D01*
X214050000Y-88226083D01*
X214500000Y-88226083D01*
X214563999Y-88214041D01*
X214622778Y-88176218D01*
X214662210Y-88118506D01*
X214676083Y-88050000D01*
X214676083Y-87000000D01*
X214664041Y-86936001D01*
X214626218Y-86877222D01*
X214568506Y-86837790D01*
X214500000Y-86823917D01*
X214050000Y-86823917D01*
X213986001Y-86835959D01*
X213949862Y-86859214D01*
X213918506Y-86837790D01*
X213850000Y-86823917D01*
X213400000Y-86823917D01*
X213336001Y-86835959D01*
X213299862Y-86859214D01*
X213268506Y-86837790D01*
X213200000Y-86823917D01*
X212750000Y-86823917D01*
X212686001Y-86835959D01*
X212649862Y-86859214D01*
X212618506Y-86837790D01*
X212550000Y-86823917D01*
X212100000Y-86823917D01*
X212036001Y-86835959D01*
X211977222Y-86873782D01*
X211937790Y-86931494D01*
X211923917Y-87000000D01*
X211426083Y-87000000D01*
X211414041Y-86936001D01*
X211376218Y-86877222D01*
X211318506Y-86837790D01*
X211250000Y-86823917D01*
X210800000Y-86823917D01*
X210736001Y-86835959D01*
X210699862Y-86859214D01*
X210668506Y-86837790D01*
X210600000Y-86823917D01*
X210150000Y-86823917D01*
X210086001Y-86835959D01*
X210049862Y-86859214D01*
X210018506Y-86837790D01*
X209950000Y-86823917D01*
X209500000Y-86823917D01*
X209436001Y-86835959D01*
X209411696Y-86851599D01*
X209572513Y-86464309D01*
X209572562Y-86407700D01*
X210657500Y-86407700D01*
X210715903Y-86396083D01*
X213790000Y-86396083D01*
X213853999Y-86384041D01*
X213912778Y-86346218D01*
X213952210Y-86288506D01*
X213966083Y-86220000D01*
X213966083Y-85671337D01*
X214064720Y-85572700D01*
X216108294Y-85572700D01*
X216125000Y-85576083D01*
X216875000Y-85576083D01*
X216938999Y-85564041D01*
X216997778Y-85526218D01*
X217037210Y-85468506D01*
X217051083Y-85400000D01*
X217051083Y-85108677D01*
X217072700Y-85000000D01*
X217051083Y-84891323D01*
X217051083Y-84750000D01*
X217623917Y-84750000D01*
X217623917Y-85250000D01*
X217635959Y-85313999D01*
X217673782Y-85372778D01*
X217731494Y-85412210D01*
X217800000Y-85426083D01*
X218700000Y-85426083D01*
X218763999Y-85414041D01*
X218822778Y-85376218D01*
X218862210Y-85318506D01*
X218876083Y-85250000D01*
X218876083Y-84750000D01*
X218864041Y-84686001D01*
X218826218Y-84627222D01*
X218768506Y-84587790D01*
X218700000Y-84573917D01*
X217800000Y-84573917D01*
X217736001Y-84585959D01*
X217677222Y-84623782D01*
X217637790Y-84681494D01*
X217623917Y-84750000D01*
X217051083Y-84750000D01*
X217051083Y-84600000D01*
X217039041Y-84536001D01*
X217001218Y-84477222D01*
X216943506Y-84437790D01*
X216875000Y-84423917D01*
X216125000Y-84423917D01*
X216107021Y-84427300D01*
X214332800Y-84427300D01*
X214415013Y-84229309D01*
X214415385Y-83802563D01*
X214252421Y-83408158D01*
X213950929Y-83106140D01*
X213556809Y-82942487D01*
X213130063Y-82942115D01*
X212738470Y-83103917D01*
X210715903Y-83103917D01*
X210657500Y-83092300D01*
X209185000Y-83092300D01*
X208831898Y-83162536D01*
X208532553Y-83362552D01*
X207062555Y-84832551D01*
X207062553Y-84832552D01*
X206347553Y-85547553D01*
X206329937Y-85573917D01*
X206150000Y-85573917D01*
X206086001Y-85585959D01*
X206027222Y-85623782D01*
X205987790Y-85681494D01*
X205973917Y-85750000D01*
X205973917Y-86650000D01*
X205985959Y-86713999D01*
X206023782Y-86772778D01*
X206081494Y-86812210D01*
X206150000Y-86826083D01*
X206329937Y-86826083D01*
X206347553Y-86852447D01*
X206397553Y-86902448D01*
X206696898Y-87102464D01*
X207050000Y-87172700D01*
X207924901Y-87172700D01*
X207935979Y-87177300D01*
X205822700Y-87177300D01*
X205822700Y-85287220D01*
X207183837Y-83926083D01*
X207850000Y-83926083D01*
X207913999Y-83914041D01*
X207972778Y-83876218D01*
X208012210Y-83818506D01*
X208026083Y-83750000D01*
X208026083Y-83083837D01*
X208537220Y-82572700D01*
X209250000Y-82572700D01*
X209334436Y-82555905D01*
X209335959Y-82563999D01*
X209373782Y-82622778D01*
X209431494Y-82662210D01*
X209500000Y-82676083D01*
X209950000Y-82676083D01*
X210013999Y-82664041D01*
X210050138Y-82640786D01*
X210081494Y-82662210D01*
X210150000Y-82676083D01*
X210600000Y-82676083D01*
X210663999Y-82664041D01*
X210700138Y-82640786D01*
X210731494Y-82662210D01*
X210800000Y-82676083D01*
X211250000Y-82676083D01*
X211313999Y-82664041D01*
X211372778Y-82626218D01*
X211412210Y-82568506D01*
X211426083Y-82500000D01*
X211426083Y-81450000D01*
X211923917Y-81450000D01*
X211923917Y-82500000D01*
X211935959Y-82563999D01*
X211973782Y-82622778D01*
X212031494Y-82662210D01*
X212100000Y-82676083D01*
X212550000Y-82676083D01*
X212613999Y-82664041D01*
X212650138Y-82640786D01*
X212681494Y-82662210D01*
X212750000Y-82676083D01*
X213200000Y-82676083D01*
X213263999Y-82664041D01*
X213300138Y-82640786D01*
X213331494Y-82662210D01*
X213400000Y-82676083D01*
X213850000Y-82676083D01*
X213913999Y-82664041D01*
X213950138Y-82640786D01*
X213981494Y-82662210D01*
X214050000Y-82676083D01*
X214500000Y-82676083D01*
X214563999Y-82664041D01*
X214622778Y-82626218D01*
X214662210Y-82568506D01*
X214676083Y-82500000D01*
X214676083Y-81450000D01*
X214664041Y-81386001D01*
X214626218Y-81327222D01*
X214568506Y-81287790D01*
X214500000Y-81273917D01*
X214050000Y-81273917D01*
X213986001Y-81285959D01*
X213949862Y-81309214D01*
X213918506Y-81287790D01*
X213850000Y-81273917D01*
X213400000Y-81273917D01*
X213336001Y-81285959D01*
X213299862Y-81309214D01*
X213268506Y-81287790D01*
X213200000Y-81273917D01*
X212750000Y-81273917D01*
X212686001Y-81285959D01*
X212649862Y-81309214D01*
X212618506Y-81287790D01*
X212550000Y-81273917D01*
X212100000Y-81273917D01*
X212036001Y-81285959D01*
X211977222Y-81323782D01*
X211937790Y-81381494D01*
X211923917Y-81450000D01*
X211426083Y-81450000D01*
X211414041Y-81386001D01*
X211376218Y-81327222D01*
X211322700Y-81290656D01*
X211322700Y-81194439D01*
X211408860Y-81108429D01*
X211572513Y-80714309D01*
X211572885Y-80287563D01*
X211409921Y-79893158D01*
X211108429Y-79591140D01*
X210714309Y-79427487D01*
X210287563Y-79427115D01*
X209893158Y-79590079D01*
X209591140Y-79891571D01*
X209427487Y-80285691D01*
X209427115Y-80712437D01*
X209590079Y-81106842D01*
X209756863Y-81273917D01*
X209500000Y-81273917D01*
X209436001Y-81285959D01*
X209377222Y-81323782D01*
X209337790Y-81381494D01*
X209325474Y-81442313D01*
X209250000Y-81427300D01*
X208300000Y-81427300D01*
X208080837Y-81470894D01*
X207895040Y-81595040D01*
X206816163Y-82673917D01*
X206150000Y-82673917D01*
X206086001Y-82685959D01*
X206027222Y-82723782D01*
X205987790Y-82781494D01*
X205973917Y-82850000D01*
X205973917Y-83516163D01*
X204845040Y-84645040D01*
X204720894Y-84830837D01*
X204677300Y-85050000D01*
X204677300Y-87750000D01*
X204720894Y-87969163D01*
X204845040Y-88154960D01*
X205030837Y-88279106D01*
X205250000Y-88322700D01*
X209250000Y-88322700D01*
X209469163Y-88279106D01*
X209548517Y-88226083D01*
X209950000Y-88226083D01*
X210013999Y-88214041D01*
X210050138Y-88190786D01*
X210081494Y-88212210D01*
X210150000Y-88226083D01*
X210177300Y-88226083D01*
X210177300Y-88677300D01*
X204487220Y-88677300D01*
X201654960Y-85845040D01*
X201469163Y-85720894D01*
X201250000Y-85677300D01*
X199480000Y-85677300D01*
X199260837Y-85720894D01*
X199075040Y-85845040D01*
X198054936Y-86865144D01*
X197964288Y-86827504D01*
X197497759Y-86827096D01*
X197066586Y-87005253D01*
X196736413Y-87334851D01*
X196557504Y-87765712D01*
X196557096Y-88232241D01*
X194012700Y-88232241D01*
X194012700Y-75012700D01*
X206684419Y-75012700D01*
X206684072Y-75410561D01*
M02*
