G04 #@! TF.FileFunction,Soldermask,Top*
%FSLAX46Y46*%
G04 Gerber Fmt 4.6, Leading zero omitted, Abs format (unit mm)*
G04 Created by KiCad (PCBNEW 4.0.2-stable) date 3/31/2016 10:50:00 PM*
%MOMM*%
G01*
G04 APERTURE LIST*
%ADD10C,0.100000*%
%ADD11C,2.400000*%
%ADD12C,2.127200*%
%ADD13R,0.950000X1.400000*%
%ADD14R,0.950000X1.900000*%
%ADD15R,1.000000X0.630000*%
%ADD16R,0.630000X1.000000*%
%ADD17C,1.822400*%
%ADD18R,0.850000X1.450000*%
%ADD19R,1.295000X1.870000*%
%ADD20R,0.700000X1.600000*%
%ADD21R,1.600000X0.700000*%
%ADD22C,1.797000*%
%ADD23R,1.197560X1.197560*%
%ADD24R,1.900000X1.200000*%
%ADD25R,2.450000X1.900000*%
%ADD26R,2.127200X2.432000*%
%ADD27O,2.127200X2.432000*%
%ADD28R,0.850000X1.850000*%
%ADD29C,1.708000*%
%ADD30R,1.700000X1.950000*%
%ADD31R,1.400000X2.000000*%
%ADD32R,2.000000X1.400000*%
%ADD33R,1.300000X0.900000*%
%ADD34R,0.900000X1.300000*%
%ADD35R,1.200000X1.150000*%
%ADD36R,1.150000X1.200000*%
%ADD37R,2.770000X2.830000*%
%ADD38R,2.100000X1.300000*%
%ADD39R,2.900000X1.400000*%
%ADD40R,1.400000X2.900000*%
%ADD41R,1.650000X1.400000*%
G04 APERTURE END LIST*
D10*
D11*
X208270000Y-110375000D03*
X210810000Y-110375000D03*
X189730000Y-110375000D03*
X197730000Y-92000000D03*
X200270000Y-92000000D03*
X187190000Y-110375000D03*
X189730000Y-69625000D03*
X187190000Y-69625000D03*
X208270000Y-69625000D03*
X200270000Y-88000000D03*
X197730000Y-88000000D03*
X210810000Y-69625000D03*
D10*
G36*
X159940981Y-62332050D02*
X160310365Y-60237167D01*
X162705417Y-60659480D01*
X162336033Y-62754363D01*
X159940981Y-62332050D01*
X159940981Y-62332050D01*
G37*
D12*
X160732048Y-63970713D02*
X161032218Y-64023641D01*
X160290981Y-66472124D02*
X160591151Y-66525052D01*
X159849915Y-68973536D02*
X160150085Y-69026464D01*
X159408849Y-71474948D02*
X159709019Y-71527876D01*
X158967782Y-73976359D02*
X159267952Y-74029287D01*
X158526716Y-76477771D02*
X158826886Y-76530699D01*
D10*
G36*
X138504083Y-95223767D02*
X136999925Y-93719609D01*
X138719609Y-91999925D01*
X140223767Y-93504083D01*
X138504083Y-95223767D01*
X138504083Y-95223767D01*
G37*
D12*
X140300135Y-95515661D02*
X140515661Y-95300135D01*
X142096186Y-97311712D02*
X142311712Y-97096186D01*
X143892237Y-99107763D02*
X144107763Y-98892237D01*
X145688288Y-100903814D02*
X145903814Y-100688288D01*
X147484339Y-102699865D02*
X147699865Y-102484339D01*
X149280391Y-104495917D02*
X149495917Y-104280391D01*
D10*
G36*
X147776233Y-75504083D02*
X149280391Y-73999925D01*
X151000075Y-75719609D01*
X149495917Y-77223767D01*
X147776233Y-75504083D01*
X147776233Y-75504083D01*
G37*
D12*
X147484339Y-77300135D02*
X147699865Y-77515661D01*
X145688288Y-79096186D02*
X145903814Y-79311712D01*
X143892237Y-80892237D02*
X144107763Y-81107763D01*
X142096186Y-82688288D02*
X142311712Y-82903814D01*
X140300135Y-84484339D02*
X140515661Y-84699865D01*
X138504083Y-86280391D02*
X138719609Y-86495917D01*
D10*
G36*
X156663967Y-104754363D02*
X156294583Y-102659480D01*
X158689635Y-102237167D01*
X159059019Y-104332050D01*
X156663967Y-104754363D01*
X156663967Y-104754363D01*
G37*
D12*
X157967782Y-106023641D02*
X158267952Y-105970713D01*
X158408849Y-108525052D02*
X158709019Y-108472124D01*
X158849915Y-111026464D02*
X159150085Y-110973536D01*
X159290981Y-113527876D02*
X159591151Y-113474948D01*
X159732048Y-116029287D02*
X160032218Y-115976359D01*
X160173114Y-118530699D02*
X160473284Y-118477771D01*
D13*
X190949938Y-31850063D03*
X189999937Y-31850063D03*
X189049937Y-31850063D03*
X190949938Y-29150062D03*
X189049937Y-29150062D03*
D14*
X189994937Y-42820063D03*
X189994937Y-37420062D03*
X188724937Y-42820063D03*
X191264938Y-42820063D03*
X192534938Y-42820063D03*
X191264938Y-37420062D03*
X192534938Y-37420062D03*
X188724937Y-37420062D03*
D15*
X149530000Y-42420000D03*
X149530000Y-42820000D03*
X149530000Y-43220000D03*
X149530000Y-43620000D03*
X149530000Y-44020000D03*
X149530000Y-44420000D03*
D16*
X150030000Y-44920000D03*
X150430000Y-44920000D03*
X150830000Y-44920000D03*
X151230000Y-44920000D03*
X151630000Y-44920000D03*
X152030000Y-44920000D03*
D15*
X152530000Y-44420000D03*
X152530000Y-44020000D03*
X152530000Y-43620000D03*
X152530000Y-43220000D03*
X152530000Y-42820000D03*
X152530000Y-42420000D03*
D16*
X152030000Y-41920000D03*
X151630000Y-41920000D03*
X151230000Y-41920000D03*
X150830000Y-41920000D03*
X150430000Y-41920000D03*
X150030000Y-41920000D03*
D17*
X171810000Y-111810000D03*
X171810000Y-114350000D03*
X164190000Y-114350000D03*
X164190000Y-109270000D03*
X164190000Y-101650000D03*
X171810000Y-109270000D03*
X164190000Y-104190000D03*
X171810000Y-101650000D03*
X164190000Y-111810000D03*
X171810000Y-106730000D03*
X164190000Y-106730000D03*
X171810000Y-104190000D03*
D18*
X209725000Y-87525000D03*
X210375000Y-87525000D03*
X211025000Y-87525000D03*
X211675000Y-87525000D03*
X212325000Y-87525000D03*
X212975000Y-87525000D03*
X213625000Y-87525000D03*
X214275000Y-87525000D03*
X214275000Y-81975000D03*
X213625000Y-81975000D03*
X212975000Y-81975000D03*
X212325000Y-81975000D03*
X211675000Y-81975000D03*
X211025000Y-81975000D03*
X210375000Y-81975000D03*
X209725000Y-81975000D03*
D19*
X213342500Y-84015000D03*
X212447500Y-84015000D03*
X211552500Y-84015000D03*
X210657500Y-84015000D03*
X213342500Y-85485000D03*
X212447500Y-85485000D03*
X211552500Y-85485000D03*
X210657500Y-85485000D03*
D18*
X209725000Y-98025000D03*
X210375000Y-98025000D03*
X211025000Y-98025000D03*
X211675000Y-98025000D03*
X212325000Y-98025000D03*
X212975000Y-98025000D03*
X213625000Y-98025000D03*
X214275000Y-98025000D03*
X214275000Y-92475000D03*
X213625000Y-92475000D03*
X212975000Y-92475000D03*
X212325000Y-92475000D03*
X211675000Y-92475000D03*
X211025000Y-92475000D03*
X210375000Y-92475000D03*
X209725000Y-92475000D03*
D19*
X213342500Y-94515000D03*
X212447500Y-94515000D03*
X211552500Y-94515000D03*
X210657500Y-94515000D03*
X213342500Y-95985000D03*
X212447500Y-95985000D03*
X211552500Y-95985000D03*
X210657500Y-95985000D03*
D20*
X175249937Y-84249937D03*
D21*
X171249937Y-89249937D03*
X171249937Y-92749938D03*
X171249937Y-93249938D03*
X171249937Y-93749938D03*
D20*
X173249937Y-95749938D03*
X174749937Y-95749938D03*
X175249937Y-95749938D03*
X175749937Y-95749938D03*
X176249937Y-95749938D03*
D21*
X182749938Y-89749937D03*
X182749938Y-89249937D03*
X182749938Y-88749937D03*
X182749938Y-88249937D03*
X182749938Y-87749937D03*
X182749938Y-87249937D03*
D20*
X180749938Y-84249937D03*
X180249938Y-84249937D03*
X177749938Y-95749938D03*
X178249938Y-95749938D03*
X178749938Y-95749938D03*
X177749938Y-84249937D03*
X177249938Y-84249937D03*
X176749937Y-84249937D03*
X176249937Y-84249937D03*
X175749937Y-84249937D03*
X174749937Y-84249937D03*
X174249937Y-84249937D03*
X179249938Y-95749938D03*
X179749938Y-95749938D03*
D21*
X182749938Y-93749938D03*
X182749938Y-93249938D03*
X182749938Y-92749938D03*
X182749938Y-92249938D03*
X171249937Y-89749937D03*
X171249937Y-90249938D03*
X171249937Y-90749938D03*
X171249937Y-91249938D03*
D20*
X176749937Y-95749938D03*
X177249938Y-95749938D03*
D21*
X182749938Y-91749938D03*
X182749938Y-91249938D03*
X182749938Y-90749938D03*
X182749938Y-90249938D03*
D20*
X179749938Y-84249937D03*
X179249938Y-84249937D03*
X178749938Y-84249937D03*
D21*
X171249937Y-86749937D03*
X171249937Y-87249937D03*
X171249937Y-87749937D03*
D20*
X178249938Y-84249937D03*
D21*
X171249937Y-88249937D03*
X171249937Y-88749937D03*
X171249937Y-86249937D03*
D20*
X180249938Y-95749938D03*
D21*
X182749938Y-86749937D03*
X171249937Y-92249938D03*
D20*
X174249937Y-95749938D03*
X180749938Y-95749938D03*
D21*
X182749938Y-86249937D03*
D20*
X173249937Y-84249937D03*
D21*
X171249937Y-91749938D03*
D20*
X173749937Y-95749938D03*
X173749937Y-84249937D03*
D22*
X226000000Y-117000000D03*
X228000000Y-117000000D03*
D23*
X169250700Y-136000000D03*
X170749300Y-136000000D03*
X169250700Y-137750000D03*
X170749300Y-137750000D03*
D24*
X237100000Y-71300000D03*
X237100000Y-72400000D03*
X237100000Y-73500000D03*
X237100000Y-74600000D03*
X237100000Y-75700000D03*
X237100000Y-76800000D03*
X237100000Y-77900000D03*
X237100000Y-79000000D03*
D25*
X239700000Y-67625000D03*
X231400000Y-67625000D03*
X231400000Y-81375000D03*
X239700000Y-81375000D03*
D23*
X190249300Y-35000000D03*
X188750700Y-35000000D03*
X220249300Y-68500000D03*
X218750700Y-68500000D03*
D26*
X177000000Y-56000000D03*
D27*
X174460000Y-56000000D03*
X171920000Y-56000000D03*
X169380000Y-56000000D03*
X166840000Y-56000000D03*
D26*
X177000000Y-124000000D03*
D27*
X174460000Y-124000000D03*
X171920000Y-124000000D03*
X169380000Y-124000000D03*
X166840000Y-124000000D03*
D28*
X145075000Y-92950000D03*
X145725000Y-92950000D03*
X146375000Y-92950000D03*
X147025000Y-92950000D03*
X147675000Y-92950000D03*
X148325000Y-92950000D03*
X148975000Y-92950000D03*
X149625000Y-92950000D03*
X150275000Y-92950000D03*
X150925000Y-92950000D03*
X150925000Y-87050000D03*
X150275000Y-87050000D03*
X149625000Y-87050000D03*
X148975000Y-87050000D03*
X148325000Y-87050000D03*
X147675000Y-87050000D03*
X147025000Y-87050000D03*
X146375000Y-87050000D03*
X145725000Y-87050000D03*
X145075000Y-87050000D03*
D29*
X227540000Y-123000000D03*
X225000000Y-123000000D03*
X222460000Y-123000000D03*
D30*
X224250000Y-62975000D03*
X219750000Y-62975000D03*
X219750000Y-55025000D03*
X224250000Y-55025000D03*
X232250000Y-62975000D03*
X227750000Y-62975000D03*
X227750000Y-55025000D03*
X232250000Y-55025000D03*
X240250000Y-62975000D03*
X235750000Y-62975000D03*
X235750000Y-55025000D03*
X240250000Y-55025000D03*
D31*
X190000000Y-22500000D03*
X193000000Y-22500000D03*
X168500000Y-119000000D03*
X165500000Y-119000000D03*
D32*
X224500000Y-71500000D03*
X224500000Y-68500000D03*
D31*
X186500000Y-96250000D03*
X183500000Y-96250000D03*
D32*
X184750000Y-80500000D03*
X184750000Y-83500000D03*
D33*
X157000000Y-85250000D03*
X157000000Y-86750000D03*
D34*
X163250000Y-134750000D03*
X164750000Y-134750000D03*
X163250000Y-133000000D03*
X164750000Y-133000000D03*
D33*
X165000000Y-83540000D03*
X165000000Y-85040000D03*
D34*
X146850000Y-39000000D03*
X148350000Y-39000000D03*
X146850000Y-40750000D03*
X148350000Y-40750000D03*
D33*
X218000000Y-93500000D03*
X218000000Y-95000000D03*
X218250000Y-86500000D03*
X218250000Y-85000000D03*
D34*
X219750000Y-65500000D03*
X221250000Y-65500000D03*
X225750000Y-65500000D03*
X224250000Y-65500000D03*
X194250000Y-35000000D03*
X192750000Y-35000000D03*
D33*
X153000000Y-90750000D03*
X153000000Y-89250000D03*
X153000000Y-94750000D03*
X153000000Y-93250000D03*
X153000000Y-86750000D03*
X153000000Y-85250000D03*
X141770000Y-103520000D03*
X141770000Y-105020000D03*
X156000000Y-111250000D03*
X156000000Y-112750000D03*
X155070000Y-65660000D03*
X155070000Y-67160000D03*
X143830000Y-74880000D03*
X143830000Y-76380000D03*
D34*
X220250000Y-70500000D03*
X218750000Y-70500000D03*
X231610000Y-110240000D03*
X230110000Y-110240000D03*
X227000000Y-110250000D03*
X225500000Y-110250000D03*
D35*
X221000000Y-110250000D03*
X222500000Y-110250000D03*
D36*
X182750000Y-82750000D03*
X182750000Y-84250000D03*
D35*
X184250000Y-98500000D03*
X182750000Y-98500000D03*
D36*
X171500000Y-96000000D03*
X171500000Y-97500000D03*
X161000000Y-86750000D03*
X161000000Y-85250000D03*
X163000000Y-85250000D03*
X163000000Y-86750000D03*
X159000000Y-86750000D03*
X159000000Y-85250000D03*
D35*
X235250000Y-65500000D03*
X233750000Y-65500000D03*
D36*
X143000000Y-90750000D03*
X143000000Y-89250000D03*
X216500000Y-86500000D03*
X216500000Y-85000000D03*
X216250000Y-93500000D03*
X216250000Y-95000000D03*
X156200000Y-44350000D03*
X156200000Y-42850000D03*
X148600000Y-46250000D03*
X148600000Y-47750000D03*
D35*
X172250000Y-119000000D03*
X173750000Y-119000000D03*
D36*
X187410000Y-31820000D03*
X187410000Y-33320000D03*
D35*
X190750000Y-25000000D03*
X189250000Y-25000000D03*
X190750000Y-27000000D03*
X189250000Y-27000000D03*
D37*
X223120000Y-90000000D03*
X216880000Y-90000000D03*
D38*
X207000000Y-96700000D03*
X207000000Y-93800000D03*
X207000000Y-83300000D03*
X207000000Y-86200000D03*
D39*
X195600000Y-38900000D03*
X195600000Y-41900000D03*
D40*
X191500000Y-48000000D03*
X188500000Y-48000000D03*
D41*
X154200000Y-44600000D03*
X154200000Y-42600000D03*
M02*
