M48
;DRILL file {KiCad 4.0.2-stable} date 4/4/2016 10:35:25 AM
;FORMAT={-:-/ absolute / inch / decimal}
FMAT,2
INCH,TZ
T1C0.016
T2C0.020
T3C0.024
T4C0.030
T5C0.031
T6C0.037
T7C0.040
%
G90
G05
M72
T1
X5.7512Y-3.75
X5.7803Y-3.3657
X5.8337Y-3.2953
X5.8622Y-3.2677
X5.8819Y-3.1604
X5.9516Y-3.3657
X5.9656Y-3.123
X5.9728Y-3.75
X5.985Y-3.7142
X6.0364Y-4.2982
X6.0531Y-3.3465
X6.0531Y-3.5433
X6.0531Y-3.6122
X6.1516Y-3.3858
X6.1811Y-3.5433
X6.2106Y-3.3465
X6.2205Y-2.4016
X6.3583Y-3.3563
X6.4272Y-4.2717
X6.5059Y-4.3701
X6.5354Y-3.5874
X6.5354Y-4.2913
X6.5504Y-4.6571
X6.5917Y-4.324
X6.624Y-2.3622
X6.6638Y-4.3484
X6.6941Y-4.1154
X6.7335Y-3.8394
X6.7421Y-3.4055
X6.752Y-3.6024
X6.7654Y-3.8028
X6.7815Y-4.6358
X6.8012Y-2.3917
X6.8012Y-3.8878
X6.9283Y-3.6949
X6.9291Y-3.6024
X6.9724Y-3.6996
X7.0091Y-3.5717
X7.0374Y-3.0709
X7.0965Y-3.5453
X7.1063Y-3.9272
X7.1063Y-3.9665
X7.1181Y-3.1811
X7.1181Y-3.685
X7.139Y-3.5484
X7.1496Y-3.7008
X7.2051Y-3.5043
X7.2118Y-3.4165
X7.3701Y-2.8988
X7.4016Y-3.4252
X7.4051Y-2.9055
X7.6142Y-4.1102
X7.6378Y-4.0787
X7.6614Y-4.0472
X7.685Y-4.0157
X7.9642Y-4.098
X7.9681Y-4.0614
X7.9921Y-2.9193
X8.0315Y-3.3858
X8.0374Y-2.9173
X8.0709Y-2.5748
X8.189Y-3.8189
X8.3453Y-3.5614
X8.3465Y-3.937
X8.3543Y-3.1417
X8.3587Y-3.5079
X8.3957Y-3.5705
X8.3965Y-3.1551
X8.4512Y-3.5248
X8.6024Y-4.0846
X8.6142Y-4.0315
X8.6175Y-3.9423
X8.6181Y-3.9843
X8.6315Y-3.376
X8.6398Y-2.6299
X8.6953Y-3.4114
X8.813Y-3.874
X8.8193Y-3.7406
X8.8219Y-3.7805
X8.8238Y-3.8219
X8.8543Y-2.7402
X8.9764Y-3.5827
X8.9902Y-3.6122
X9.0079Y-3.6378
X9.0197Y-2.8543
X9.0217Y-3.6654
X9.0512Y-3.1043
X9.1024Y-2.9291
X9.2441Y-2.811
T2
X6.9685Y-3.1732
X8.2531Y-3.3181
X8.2535Y-3.772
X8.478Y-3.685
X8.4831Y-3.3953
X8.5063Y-3.7972
X8.515Y-3.5925
X8.963Y-3.1067
T3
X5.6693Y-3.7244
X5.7087Y-3.5236
X6.3878Y-3.2185
X6.4512Y-3.7323
X6.4665Y-4.0559
X6.5067Y-4.7276
X6.5984Y-2.6614
X6.624Y-3.2185
X6.6339Y-2.9724
X6.7323Y-3.2283
X6.7717Y-2.5118
X6.8031Y-3.0551
X6.8268Y-2.9685
X6.8406Y-3.75
X6.874Y-4.3228
X7.0787Y-2.6457
X7.2992Y-2.9685
X7.313Y-3.1496
X7.3327Y-4.2224
X7.3425Y-3.9272
X7.4311Y-4.2323
X7.6378Y-2.9331
X8.1167Y-3.1923
X8.3993Y-3.3077
X8.3993Y-3.7789
X8.4734Y-2.6093
X8.4793Y-2.503
X8.5827Y-2.7362
X8.7205Y-3.5433
X9.0354Y-2.7362
X9.1929Y-2.6969
T4
X6.3618Y-3.5217
X6.3618Y-3.6217
X6.3618Y-3.7217
X6.3618Y-3.8217
X6.3618Y-3.9217
X6.3618Y-4.0217
X6.6618Y-3.5217
X6.6618Y-3.6217
X6.6618Y-3.7217
X6.6618Y-3.8217
X6.6618Y-3.9217
X6.6618Y-4.0217
T5
X8.7583Y-4.8031
X8.8583Y-4.8031
X8.9381Y-4.3682
X8.9381Y-4.6044
X8.9583Y-4.8031
X9.0168Y-4.3682
X9.0168Y-4.6044
X9.0956Y-4.3682
X9.0956Y-4.6044
T6
X7.3697Y-2.7411
X7.3697Y-4.3455
X7.4697Y-2.7411
X7.4697Y-4.3455
X7.7846Y-3.4646
X7.7846Y-3.622
X7.8846Y-3.4646
X7.8846Y-3.622
X8.1996Y-2.7411
X8.1996Y-4.3455
X8.2996Y-2.7411
X8.2996Y-4.3455
T7
X5.4572Y-3.4011
X5.4572Y-3.6855
X5.5279Y-3.3304
X5.5279Y-3.7562
X5.5986Y-3.2597
X5.5986Y-3.8269
X5.6693Y-3.189
X5.6693Y-3.8976
X5.74Y-3.1183
X5.74Y-3.9683
X5.8107Y-3.0476
X5.8107Y-4.0391
X5.8814Y-2.9768
X5.8814Y-4.1098
X6.2077Y-4.0746
X6.2251Y-4.1731
X6.2425Y-4.2716
X6.2471Y-3.012
X6.2598Y-4.3701
X6.2645Y-2.9135
X6.2772Y-4.4686
X6.2818Y-2.815
X6.2946Y-4.567
X6.2992Y-2.7165
X6.3119Y-4.6655
X6.3166Y-2.6181
X6.3339Y-2.5196
X6.3513Y-2.4211
X6.5685Y-2.2047
X6.5685Y-4.8819
X6.6685Y-2.2047
X6.6685Y-4.8819
X6.7685Y-2.2047
X6.7685Y-4.8819
X6.8685Y-2.2047
X6.8685Y-4.8819
X6.9685Y-2.2047
X6.9685Y-4.8819
T0
M30
