G04 #@! TF.FileFunction,Copper,L2,Bot,Signal*
%FSLAX46Y46*%
G04 Gerber Fmt 4.6, Leading zero omitted, Abs format (unit mm)*
G04 Created by KiCad (PCBNEW 4.0.2-stable) date 4/4/2016 10:35:23 AM*
%MOMM*%
G01*
G04 APERTURE LIST*
%ADD10C,0.100000*%
%ADD11C,0.600000*%
%ADD12C,2.000000*%
%ADD13C,1.727200*%
%ADD14C,1.308000*%
%ADD15O,1.308000X2.616000*%
%ADD16C,1.422400*%
%ADD17R,1.727200X2.032000*%
%ADD18O,1.727200X2.032000*%
%ADD19C,1.200000*%
%ADD20C,0.600000*%
%ADD21C,1.800000*%
%ADD22C,1.800000*%
%ADD23C,0.800000*%
%ADD24C,1.500000*%
%ADD25C,0.280000*%
%ADD26C,0.400000*%
%ADD27C,0.350000*%
%ADD28C,0.250000*%
%ADD29C,0.025400*%
G04 APERTURE END LIST*
D10*
D11*
X191400000Y-104850000D02*
G75*
G03X191400000Y-104850000I-1400000J0D01*
G01*
X209400000Y-104850000D02*
G75*
G03X209400000Y-104850000I-1400000J0D01*
G01*
X209400000Y-75150000D02*
G75*
G03X209400000Y-75150000I-1400000J0D01*
G01*
X191400000Y-75150000D02*
G75*
G03X191400000Y-75150000I-1400000J0D01*
G01*
D12*
X208270000Y-110375000D03*
X210810000Y-110375000D03*
X189730000Y-110375000D03*
X197730000Y-92000000D03*
X200270000Y-92000000D03*
X187190000Y-110375000D03*
X189730000Y-69625000D03*
X187190000Y-69625000D03*
X208270000Y-69625000D03*
X200270000Y-88000000D03*
X197730000Y-88000000D03*
X210810000Y-69625000D03*
D10*
G36*
X160172672Y-62169818D02*
X160472597Y-60468858D01*
X162473726Y-60821712D01*
X162173801Y-62522672D01*
X160172672Y-62169818D01*
X160172672Y-62169818D01*
G37*
D13*
X160732048Y-63970713D02*
X161032218Y-64023641D01*
X160290981Y-66472124D02*
X160591151Y-66525052D01*
X159849915Y-68973536D02*
X160150085Y-69026464D01*
X159408849Y-71474948D02*
X159709019Y-71527876D01*
X158967782Y-73976359D02*
X159267952Y-74029287D01*
X158526716Y-76477771D02*
X158826886Y-76530699D01*
D10*
G36*
X138504083Y-94940924D02*
X137282768Y-93719609D01*
X138719609Y-92282768D01*
X139940924Y-93504083D01*
X138504083Y-94940924D01*
X138504083Y-94940924D01*
G37*
D13*
X140300135Y-95515661D02*
X140515661Y-95300135D01*
X142096186Y-97311712D02*
X142311712Y-97096186D01*
X143892237Y-99107763D02*
X144107763Y-98892237D01*
X145688288Y-100903814D02*
X145903814Y-100688288D01*
X147484339Y-102699865D02*
X147699865Y-102484339D01*
X149280391Y-104495917D02*
X149495917Y-104280391D01*
D10*
G36*
X148059076Y-75504083D02*
X149280391Y-74282768D01*
X150717232Y-75719609D01*
X149495917Y-76940924D01*
X148059076Y-75504083D01*
X148059076Y-75504083D01*
G37*
D13*
X147484339Y-77300135D02*
X147699865Y-77515661D01*
X145688288Y-79096186D02*
X145903814Y-79311712D01*
X143892237Y-80892237D02*
X144107763Y-81107763D01*
X142096186Y-82688288D02*
X142311712Y-82903814D01*
X140300135Y-84484339D02*
X140515661Y-84699865D01*
X138504083Y-86280391D02*
X138719609Y-86495917D01*
D10*
G36*
X156826199Y-104522672D02*
X156526274Y-102821712D01*
X158527403Y-102468858D01*
X158827328Y-104169818D01*
X156826199Y-104522672D01*
X156826199Y-104522672D01*
G37*
D13*
X157967782Y-106023641D02*
X158267952Y-105970713D01*
X158408849Y-108525052D02*
X158709019Y-108472124D01*
X158849915Y-111026464D02*
X159150085Y-110973536D01*
X159290981Y-113527876D02*
X159591151Y-113474948D01*
X159732048Y-116029287D02*
X160032218Y-115976359D01*
X160173114Y-118530699D02*
X160473284Y-118477771D01*
D14*
X227540000Y-122000000D03*
X225000000Y-122000000D03*
X222460000Y-122000000D03*
D15*
X227027500Y-110952500D03*
X229027500Y-110952500D03*
X231027500Y-110952500D03*
X227027500Y-116952500D03*
X229027500Y-116952500D03*
X231027500Y-116952500D03*
D16*
X161590000Y-91990000D03*
X161590000Y-89450000D03*
X169210000Y-89450000D03*
X169210000Y-94530000D03*
X169210000Y-102150000D03*
X161590000Y-94530000D03*
X169210000Y-99610000D03*
X161590000Y-102150000D03*
X169210000Y-91990000D03*
X161590000Y-97070000D03*
X169210000Y-97070000D03*
X161590000Y-99610000D03*
D17*
X177000000Y-124000000D03*
D18*
X174460000Y-124000000D03*
X171920000Y-124000000D03*
X169380000Y-124000000D03*
X166840000Y-124000000D03*
D17*
X177000000Y-56000000D03*
D18*
X174460000Y-56000000D03*
X171920000Y-56000000D03*
X169380000Y-56000000D03*
X166840000Y-56000000D03*
D19*
X209640000Y-95810000D03*
X209630000Y-84280000D03*
D20*
X213270000Y-80140000D03*
X212200000Y-79800000D03*
D21*
X221500000Y-90000000D03*
X174600000Y-109800000D03*
D19*
X177000000Y-80600000D03*
D21*
X167600000Y-67600000D03*
X172000000Y-63800000D03*
D20*
X188000000Y-87000000D03*
X176000000Y-91500000D03*
D21*
X186250000Y-107250000D03*
X186500000Y-99750000D03*
X188750000Y-107500000D03*
X173750000Y-95250000D03*
X168250000Y-81750000D03*
X162250000Y-81750000D03*
X185750000Y-80000000D03*
X194000000Y-74500000D03*
D20*
X213250000Y-90690000D03*
X211970000Y-90460000D03*
D21*
X218000000Y-69500000D03*
X215225000Y-66275000D03*
D20*
X152020000Y-94340000D03*
D21*
X165270000Y-120080000D03*
D20*
X166380000Y-118290000D03*
X169260000Y-110450000D03*
X167430000Y-109830000D03*
D21*
X145000000Y-89500000D03*
X233500000Y-68500000D03*
X229500000Y-69500000D03*
X144000000Y-94600000D03*
X172800000Y-77600000D03*
X185400000Y-75400000D03*
X173400000Y-75400000D03*
X213342500Y-84015000D03*
X213342500Y-95985000D03*
D20*
X177100000Y-93970000D03*
X175980000Y-93850000D03*
D19*
X216060000Y-96450000D03*
D20*
X219240000Y-85750000D03*
D19*
X227660000Y-78910000D03*
D20*
X163250000Y-108500000D03*
X172750000Y-98750000D03*
D21*
X171000000Y-82000000D03*
X168500000Y-75500000D03*
X215375000Y-63575000D03*
D20*
X183180000Y-86780000D03*
X172750000Y-60750000D03*
X183010000Y-89010000D03*
X168250000Y-60000000D03*
X158000000Y-61000000D03*
X161500000Y-85250000D03*
X170030000Y-104530000D03*
X171840000Y-96590000D03*
D21*
X163860000Y-94800000D03*
X164250000Y-103020000D03*
X179800000Y-67200000D03*
D20*
X205000000Y-65400000D03*
D19*
X215470000Y-86240000D03*
X215340000Y-93600000D03*
X216280000Y-91250000D03*
D20*
X171500000Y-91500000D03*
X171250000Y-86500000D03*
X224125000Y-97075000D03*
X228800000Y-92400000D03*
X218800000Y-102400000D03*
X231200000Y-74400000D03*
X223850000Y-98400000D03*
X229150000Y-93100000D03*
X218500000Y-103750000D03*
X234800000Y-71400000D03*
X224010000Y-95010000D03*
X228000000Y-91000000D03*
X229100000Y-72500000D03*
X218885000Y-100135000D03*
X224075000Y-96025000D03*
X228350000Y-91750000D03*
X229900000Y-78850000D03*
X218900000Y-101200000D03*
X202390000Y-103160000D03*
X187200000Y-73630000D03*
X180250000Y-90050000D03*
X194600000Y-102800000D03*
X181330000Y-90130000D03*
X195200000Y-102000000D03*
X208000000Y-97000000D03*
X212000000Y-100000000D03*
X212310000Y-89100000D03*
X204000000Y-86000000D03*
X180500000Y-100750000D03*
X166000000Y-109000000D03*
X178030000Y-90720000D03*
X165250000Y-111000000D03*
X224900000Y-69600000D03*
X204150000Y-74100000D03*
X219450000Y-66800000D03*
X203000000Y-74150000D03*
X153750000Y-91750000D03*
X157000000Y-90000000D03*
X153750000Y-90000000D03*
X156250000Y-86000000D03*
X153750000Y-85000000D03*
X157750000Y-85000000D03*
X151170000Y-85490000D03*
X146820000Y-85490000D03*
X146080000Y-95250000D03*
X151710000Y-95250000D03*
X180800000Y-80800000D03*
X178750000Y-78000000D03*
X188090000Y-73800000D03*
X214660000Y-89530000D03*
X220860000Y-86650000D03*
X202290000Y-104090000D03*
X180500000Y-99750000D03*
X172250000Y-117750000D03*
X171030000Y-97520000D03*
X166000000Y-91120000D03*
X153325000Y-109175000D03*
X149400000Y-80275000D03*
X151525000Y-79325000D03*
X148900000Y-83000000D03*
X148175000Y-83700000D03*
D21*
X206165000Y-81085000D03*
D20*
X193400000Y-104400000D03*
X181600000Y-94000000D03*
X194000000Y-103600000D03*
X180800000Y-93600000D03*
D22*
X231027500Y-110952500D02*
X231027500Y-116952500D01*
X231027500Y-110952500D02*
X231027500Y-102277500D01*
X223050000Y-90000000D02*
X221500000Y-90000000D01*
X226350000Y-93300000D02*
X223050000Y-90000000D01*
X226350000Y-97600000D02*
X226350000Y-93300000D01*
X231027500Y-102277500D02*
X226350000Y-97600000D01*
D23*
X172000000Y-63800000D02*
X171400000Y-63800000D01*
X171400000Y-63800000D02*
X167600000Y-67600000D01*
X218000000Y-69500000D02*
X213500000Y-69500000D01*
X213500000Y-66500000D02*
X213500000Y-69500000D01*
X211000000Y-64000000D02*
X203000000Y-64000000D01*
X205645000Y-67000000D02*
X208270000Y-69625000D01*
X205645000Y-67000000D02*
X203000000Y-67000000D01*
X203000000Y-64000000D02*
X203000000Y-67000000D01*
X211000000Y-64000000D02*
X213500000Y-66500000D01*
X142203949Y-97203949D02*
X144000000Y-95407898D01*
X144000000Y-95407898D02*
X144000000Y-94600000D01*
D24*
X213265000Y-84015000D02*
X213342500Y-84015000D01*
X213000000Y-83750000D02*
X213265000Y-84015000D01*
X213265000Y-95985000D02*
X213342500Y-95985000D01*
X213000000Y-96250000D02*
X213265000Y-95985000D01*
D25*
X183530000Y-109850000D02*
X169380000Y-124000000D01*
X183530000Y-100400000D02*
X183530000Y-109850000D01*
X177100000Y-93970000D02*
X183530000Y-100400000D01*
X182840000Y-108000000D02*
X166840000Y-124000000D01*
X182840000Y-100710000D02*
X182840000Y-108000000D01*
X175980000Y-93850000D02*
X182840000Y-100710000D01*
D26*
X219750000Y-92760000D02*
X219750000Y-89500000D01*
X216060000Y-96450000D02*
X219750000Y-92760000D01*
X222250000Y-87000000D02*
X222250000Y-85750000D01*
X219750000Y-89500000D02*
X222250000Y-87000000D01*
X222240000Y-85750000D02*
X222250000Y-85750000D01*
D25*
X219240000Y-85750000D02*
X222240000Y-85750000D01*
D26*
X222250000Y-85750000D02*
X225300000Y-85750000D01*
X225300000Y-85750000D02*
X227660000Y-83390000D01*
X227660000Y-83390000D02*
X227660000Y-78910000D01*
D23*
X163250000Y-108250000D02*
X163250000Y-108500000D01*
X165750000Y-105750000D02*
X163250000Y-108250000D01*
X171250000Y-105750000D02*
X165750000Y-105750000D01*
X172750000Y-104250000D02*
X171250000Y-105750000D01*
X172750000Y-98750000D02*
X172750000Y-104250000D01*
X171000000Y-82000000D02*
X171000000Y-78000000D01*
X171000000Y-78000000D02*
X168500000Y-75500000D01*
D25*
X181070000Y-85220000D02*
X181070000Y-85250000D01*
X181100000Y-85250000D02*
X181070000Y-85220000D01*
X181650000Y-85250000D02*
X181100000Y-85250000D01*
X183180000Y-86780000D02*
X181650000Y-85250000D01*
X166250000Y-60750000D02*
X172750000Y-60750000D01*
X164500000Y-62500000D02*
X166250000Y-60750000D01*
X164500000Y-83000000D02*
X164500000Y-62500000D01*
X166750000Y-85250000D02*
X164500000Y-83000000D01*
X181070000Y-85250000D02*
X166750000Y-85250000D01*
X179370000Y-85750000D02*
X179750000Y-85750000D01*
X179750000Y-85750000D02*
X183010000Y-89010000D01*
X179370000Y-85750000D02*
X166500000Y-85750000D01*
X166250000Y-60000000D02*
X168250000Y-60000000D01*
X164000000Y-62250000D02*
X166250000Y-60000000D01*
X164000000Y-83250000D02*
X164000000Y-62250000D01*
X166500000Y-85750000D02*
X164000000Y-83250000D01*
X156250000Y-62750000D02*
X158000000Y-61000000D01*
X156250000Y-80000000D02*
X156250000Y-62750000D01*
X161500000Y-85250000D02*
X156250000Y-80000000D01*
X171850000Y-102000000D02*
X171850000Y-102870000D01*
X170190000Y-104530000D02*
X170030000Y-104530000D01*
X171850000Y-102870000D02*
X170190000Y-104530000D01*
X171850000Y-96600000D02*
X171850000Y-102000000D01*
X171840000Y-96590000D02*
X171850000Y-96600000D01*
D23*
X169210000Y-97070000D02*
X166130000Y-97070000D01*
X166130000Y-97070000D02*
X163860000Y-94800000D01*
X163910000Y-94750000D02*
X163910000Y-87510000D01*
X163860000Y-94800000D02*
X163910000Y-94750000D01*
X163000000Y-86600000D02*
X163910000Y-87510000D01*
X161000000Y-86600000D02*
X163000000Y-86600000D01*
X152200000Y-71000000D02*
X154600000Y-73400000D01*
X152200000Y-64600000D02*
X152200000Y-71000000D01*
X176000000Y-60000000D02*
X174800000Y-58800000D01*
X179800000Y-67200000D02*
X179800000Y-63800000D01*
X179800000Y-63800000D02*
X176000000Y-60000000D01*
X174800000Y-58800000D02*
X158000000Y-58800000D01*
X158000000Y-58800000D02*
X152200000Y-64600000D01*
X154600000Y-73400000D02*
X154600000Y-80200000D01*
X154600000Y-80200000D02*
X161000000Y-86600000D01*
X206585000Y-65400000D02*
X210810000Y-69625000D01*
X205000000Y-65400000D02*
X206585000Y-65400000D01*
D26*
X216280000Y-91250000D02*
X215020000Y-91250000D01*
X213520000Y-88190000D02*
X215470000Y-86240000D01*
X213520000Y-89750000D02*
X213520000Y-88190000D01*
X215020000Y-91250000D02*
X213520000Y-89750000D01*
D11*
X215340000Y-92190000D02*
X215340000Y-93600000D01*
X216280000Y-91250000D02*
X215340000Y-92190000D01*
D25*
X171250000Y-86500000D02*
X171250000Y-91250000D01*
X171250000Y-91250000D02*
X171500000Y-91500000D01*
X230300000Y-85200000D02*
X230300000Y-79600000D01*
X218800000Y-102400000D02*
X224125000Y-97075000D01*
X228800000Y-92400000D02*
X230300000Y-90900000D01*
X230300000Y-90900000D02*
X230300000Y-85200000D01*
X231200000Y-78700000D02*
X231200000Y-74400000D01*
X230300000Y-79600000D02*
X231200000Y-78700000D01*
X218500000Y-103750000D02*
X223850000Y-98400000D01*
X229150000Y-93100000D02*
X234800000Y-87450000D01*
X234800000Y-87450000D02*
X234800000Y-71400000D01*
X228000000Y-91000000D02*
X228010000Y-91010000D01*
X228010000Y-91010000D02*
X228000000Y-91000000D01*
X228000000Y-91000000D02*
X228000000Y-91020000D01*
X229100000Y-72950000D02*
X229100000Y-72500000D01*
X229100000Y-89920000D02*
X228000000Y-91020000D01*
X229100000Y-89920000D02*
X229100000Y-72950000D01*
X224010000Y-95010000D02*
X218885000Y-100135000D01*
X229700000Y-79050000D02*
X229900000Y-78850000D01*
X229700000Y-79050000D02*
X229700000Y-83800000D01*
X229700000Y-90400000D02*
X229700000Y-83800000D01*
X218900000Y-101200000D02*
X224075000Y-96025000D01*
X228350000Y-91750000D02*
X229700000Y-90400000D01*
X229700000Y-83800000D02*
X229700000Y-83700000D01*
X207655000Y-107220000D02*
X210810000Y-110375000D01*
X206450000Y-107220000D02*
X207655000Y-107220000D01*
X202390000Y-103160000D02*
X206450000Y-107220000D01*
X187190000Y-69625000D02*
X187190000Y-73620000D01*
X187190000Y-73620000D02*
X187200000Y-73630000D01*
X181600000Y-91400000D02*
X180250000Y-90050000D01*
X193000000Y-102800000D02*
X194600000Y-102800000D01*
X181600000Y-91400000D02*
X193000000Y-102800000D01*
X182400000Y-91200000D02*
X181330000Y-90130000D01*
X193200000Y-102000000D02*
X195200000Y-102000000D01*
X182400000Y-91200000D02*
X193200000Y-102000000D01*
D27*
X208000000Y-100000000D02*
X208000000Y-97000000D01*
X212000000Y-100000000D02*
X208000000Y-100000000D01*
D26*
X211440000Y-89000000D02*
X212210000Y-89000000D01*
X212210000Y-89000000D02*
X212310000Y-89100000D01*
X211440000Y-89000000D02*
X209000000Y-89000000D01*
D27*
X206000000Y-88000000D02*
X204000000Y-86000000D01*
X208000000Y-88000000D02*
X206000000Y-88000000D01*
X209000000Y-89000000D02*
X208000000Y-88000000D01*
D28*
X180500000Y-102250000D02*
X180500000Y-100750000D01*
X175250000Y-107500000D02*
X180500000Y-102250000D01*
X167500000Y-107500000D02*
X175250000Y-107500000D01*
X166000000Y-109000000D02*
X167500000Y-107500000D01*
D25*
X175250000Y-93500000D02*
X178030000Y-90720000D01*
D28*
X175250000Y-105250000D02*
X175250000Y-93500000D01*
X173750000Y-106750000D02*
X175250000Y-105250000D01*
X167000000Y-106750000D02*
X173750000Y-106750000D01*
X164750000Y-109000000D02*
X167000000Y-106750000D01*
X164750000Y-110500000D02*
X164750000Y-109000000D01*
X165250000Y-111000000D02*
X164750000Y-110500000D01*
D25*
X222850000Y-71650000D02*
X224900000Y-69600000D01*
X220000000Y-71650000D02*
X222850000Y-71650000D01*
X218800000Y-72850000D02*
X220000000Y-71650000D01*
X205400000Y-72850000D02*
X218800000Y-72850000D01*
X204150000Y-74100000D02*
X205400000Y-72850000D01*
X219450000Y-70100000D02*
X219450000Y-66800000D01*
X217600000Y-71950000D02*
X219450000Y-70100000D01*
X205200000Y-71950000D02*
X217600000Y-71950000D01*
X203000000Y-74150000D02*
X205200000Y-71950000D01*
X155250000Y-91750000D02*
X153750000Y-91750000D01*
X157000000Y-90000000D02*
X155250000Y-91750000D01*
X153750000Y-90000000D02*
X155500000Y-90000000D01*
X155500000Y-90000000D02*
X156250000Y-89250000D01*
X156250000Y-89250000D02*
X156250000Y-86000000D01*
X157750000Y-85000000D02*
X153750000Y-85000000D01*
D26*
X151170000Y-85490000D02*
X146820000Y-85490000D01*
X146080000Y-95250000D02*
X151710000Y-95250000D01*
D25*
X178750000Y-78750000D02*
X178750000Y-78000000D01*
X180800000Y-80800000D02*
X178750000Y-78750000D01*
X189730000Y-72160000D02*
X189730000Y-69625000D01*
X188090000Y-73800000D02*
X189730000Y-72160000D01*
D26*
X219400000Y-88430000D02*
X220860000Y-86970000D01*
X216210000Y-88430000D02*
X219400000Y-88430000D01*
X215110000Y-89530000D02*
X216000000Y-88640000D01*
X214910000Y-89530000D02*
X215110000Y-89530000D01*
X214660000Y-89530000D02*
X214910000Y-89530000D01*
X216000000Y-88640000D02*
X216210000Y-88430000D01*
X220860000Y-86970000D02*
X220860000Y-86650000D01*
D25*
X202290000Y-104090000D02*
X208270000Y-110070000D01*
X208270000Y-110070000D02*
X208270000Y-110375000D01*
D28*
X180500000Y-99750000D02*
X181250000Y-100500000D01*
X181250000Y-100500000D02*
X181250000Y-108750000D01*
X181250000Y-108750000D02*
X172250000Y-117750000D01*
D25*
X170890000Y-97380000D02*
X170890000Y-96560000D01*
X171030000Y-97520000D02*
X170890000Y-97380000D01*
X170890000Y-96560000D02*
X170160000Y-95830000D01*
X170160000Y-95830000D02*
X168240000Y-95830000D01*
X168240000Y-95830000D02*
X166000000Y-93590000D01*
X166000000Y-93590000D02*
X166000000Y-91120000D01*
D27*
X159000000Y-111000000D02*
X155850000Y-111000000D01*
X153325000Y-109175000D02*
X154025000Y-109175000D01*
X154025000Y-109175000D02*
X155850000Y-111000000D01*
X150350000Y-79325000D02*
X149400000Y-80275000D01*
X151525000Y-79325000D02*
X150350000Y-79325000D01*
X146000000Y-83000000D02*
X144000000Y-81000000D01*
X148900000Y-83000000D02*
X146000000Y-83000000D01*
X148175000Y-83700000D02*
X142682898Y-83700000D01*
X142203949Y-82796051D02*
X142682898Y-83700000D01*
D23*
X206165000Y-81085000D02*
X205250000Y-82000000D01*
X203375000Y-84895000D02*
X203375000Y-83875000D01*
X200270000Y-88000000D02*
X203375000Y-84895000D01*
X203375000Y-83875000D02*
X205250000Y-82000000D01*
D25*
X181600000Y-94000000D02*
X182600000Y-94000000D01*
X193000000Y-104400000D02*
X193400000Y-104400000D01*
X182600000Y-94000000D02*
X193000000Y-104400000D01*
X181400000Y-93000000D02*
X182400000Y-93000000D01*
X193000000Y-103600000D02*
X194000000Y-103600000D01*
X182400000Y-93000000D02*
X193000000Y-103600000D01*
X180800000Y-93600000D02*
X181400000Y-93000000D01*
D29*
G36*
X222963795Y-85387300D02*
X222240000Y-85387300D01*
X222101201Y-85414909D01*
X222052724Y-85447300D01*
X219591614Y-85447300D01*
X219502441Y-85357971D01*
X219332441Y-85287380D01*
X219148367Y-85287220D01*
X218978244Y-85357513D01*
X218847971Y-85487559D01*
X218777380Y-85657559D01*
X218777220Y-85841633D01*
X218847513Y-86011756D01*
X218977559Y-86142029D01*
X219147559Y-86212620D01*
X219331633Y-86212780D01*
X219501756Y-86142487D01*
X219591700Y-86052700D01*
X221887300Y-86052700D01*
X221887300Y-86849764D01*
X219493532Y-89243532D01*
X219414909Y-89361201D01*
X219387299Y-89500000D01*
X219387300Y-89500005D01*
X219387300Y-92609764D01*
X216281096Y-95715968D01*
X216212376Y-95687433D01*
X215908955Y-95687168D01*
X215628530Y-95803038D01*
X215413792Y-96017401D01*
X215297433Y-96297624D01*
X215297168Y-96601045D01*
X215413038Y-96881470D01*
X215627401Y-97096208D01*
X215907624Y-97212567D01*
X216211045Y-97212832D01*
X216491470Y-97096962D01*
X216706208Y-96882599D01*
X216822567Y-96602376D01*
X216822832Y-96298955D01*
X216793930Y-96229006D01*
X220006468Y-93016468D01*
X220085091Y-92898799D01*
X220112700Y-92760000D01*
X220112700Y-89650236D01*
X222506468Y-87256468D01*
X222585091Y-87138799D01*
X222612701Y-87000000D01*
X222612700Y-86999995D01*
X222612700Y-86112700D01*
X223870545Y-86112700D01*
X224987300Y-87006104D01*
X224987300Y-92993896D01*
X214995545Y-100987300D01*
X202005260Y-100987300D01*
X198109593Y-97091633D01*
X207537220Y-97091633D01*
X207607513Y-97261756D01*
X207662300Y-97316639D01*
X207662300Y-100000000D01*
X207688006Y-100129232D01*
X207761210Y-100238790D01*
X207870768Y-100311994D01*
X208000000Y-100337700D01*
X211683325Y-100337700D01*
X211737559Y-100392029D01*
X211907559Y-100462620D01*
X212091633Y-100462780D01*
X212261756Y-100392487D01*
X212392029Y-100262441D01*
X212462620Y-100092441D01*
X212462780Y-99908367D01*
X212392487Y-99738244D01*
X212262441Y-99607971D01*
X212092441Y-99537380D01*
X211908367Y-99537220D01*
X211738244Y-99607513D01*
X211683361Y-99662300D01*
X208337700Y-99662300D01*
X208337700Y-97316675D01*
X208392029Y-97262441D01*
X208462620Y-97092441D01*
X208462780Y-96908367D01*
X208392487Y-96738244D01*
X208262441Y-96607971D01*
X208092441Y-96537380D01*
X207908367Y-96537220D01*
X207738244Y-96607513D01*
X207607971Y-96737559D01*
X207537380Y-96907559D01*
X207537220Y-97091633D01*
X198109593Y-97091633D01*
X195512700Y-94494740D01*
X195512700Y-92230261D01*
X196567098Y-92230261D01*
X196743736Y-92657756D01*
X197070523Y-92985115D01*
X197497710Y-93162498D01*
X197960261Y-93162902D01*
X198387756Y-92986264D01*
X198715115Y-92659477D01*
X198892498Y-92232290D01*
X198892499Y-92230261D01*
X199107098Y-92230261D01*
X199283736Y-92657756D01*
X199610523Y-92985115D01*
X200037710Y-93162498D01*
X200500261Y-93162902D01*
X200927756Y-92986264D01*
X201255115Y-92659477D01*
X201432498Y-92232290D01*
X201432902Y-91769739D01*
X201256264Y-91342244D01*
X200929477Y-91014885D01*
X200502290Y-90837502D01*
X200039739Y-90837098D01*
X199612244Y-91013736D01*
X199284885Y-91340523D01*
X199107502Y-91767710D01*
X199107098Y-92230261D01*
X198892499Y-92230261D01*
X198892902Y-91769739D01*
X198716264Y-91342244D01*
X198389477Y-91014885D01*
X197962290Y-90837502D01*
X197499739Y-90837098D01*
X197072244Y-91013736D01*
X196744885Y-91340523D01*
X196567502Y-91767710D01*
X196567098Y-92230261D01*
X195512700Y-92230261D01*
X195512700Y-88230261D01*
X196567098Y-88230261D01*
X196743736Y-88657756D01*
X197070523Y-88985115D01*
X197497710Y-89162498D01*
X197960261Y-89162902D01*
X198387756Y-88986264D01*
X198715115Y-88659477D01*
X198892498Y-88232290D01*
X198892499Y-88230261D01*
X199107098Y-88230261D01*
X199283736Y-88657756D01*
X199610523Y-88985115D01*
X200037710Y-89162498D01*
X200500261Y-89162902D01*
X200927756Y-88986264D01*
X201255115Y-88659477D01*
X201432498Y-88232290D01*
X201432902Y-87769739D01*
X201392886Y-87672892D01*
X202974145Y-86091633D01*
X203537220Y-86091633D01*
X203607513Y-86261756D01*
X203737559Y-86392029D01*
X203907559Y-86462620D01*
X203985107Y-86462687D01*
X205761210Y-88238790D01*
X205870768Y-88311994D01*
X206000000Y-88337700D01*
X207860120Y-88337700D01*
X208672339Y-89149919D01*
X208743532Y-89256468D01*
X208861201Y-89335091D01*
X209000000Y-89362700D01*
X211918455Y-89362700D01*
X212047559Y-89492029D01*
X212217559Y-89562620D01*
X212401633Y-89562780D01*
X212571756Y-89492487D01*
X212702029Y-89362441D01*
X212772620Y-89192441D01*
X212772780Y-89008367D01*
X212702487Y-88838244D01*
X212572441Y-88707971D01*
X212402441Y-88637380D01*
X212218367Y-88637220D01*
X212215519Y-88638397D01*
X212210000Y-88637299D01*
X212209995Y-88637300D01*
X209114880Y-88637300D01*
X208667580Y-88190000D01*
X213157299Y-88190000D01*
X213157300Y-88190005D01*
X213157300Y-89749995D01*
X213157299Y-89750000D01*
X213184909Y-89888799D01*
X213263532Y-90006468D01*
X214763530Y-91506465D01*
X214763532Y-91506468D01*
X214834069Y-91553599D01*
X214881200Y-91585091D01*
X215020000Y-91612700D01*
X215262944Y-91612700D01*
X215012822Y-91862822D01*
X214912521Y-92012932D01*
X214877300Y-92190000D01*
X214877300Y-92984213D01*
X214693792Y-93167401D01*
X214577433Y-93447624D01*
X214577168Y-93751045D01*
X214693038Y-94031470D01*
X214907401Y-94246208D01*
X215187624Y-94362567D01*
X215491045Y-94362832D01*
X215771470Y-94246962D01*
X215986208Y-94032599D01*
X216102567Y-93752376D01*
X216102832Y-93448955D01*
X215986962Y-93168530D01*
X215802700Y-92983946D01*
X215802700Y-92381656D01*
X216171750Y-92012606D01*
X216431045Y-92012832D01*
X216711470Y-91896962D01*
X216926208Y-91682599D01*
X217042567Y-91402376D01*
X217042832Y-91098955D01*
X216926962Y-90818530D01*
X216712599Y-90603792D01*
X216432376Y-90487433D01*
X216128955Y-90487168D01*
X215848530Y-90603038D01*
X215633792Y-90817401D01*
X215604767Y-90887300D01*
X215170235Y-90887300D01*
X213904569Y-89621633D01*
X214197220Y-89621633D01*
X214267513Y-89791756D01*
X214397559Y-89922029D01*
X214567559Y-89992620D01*
X214751633Y-89992780D01*
X214921756Y-89922487D01*
X214951595Y-89892700D01*
X215109995Y-89892700D01*
X215110000Y-89892701D01*
X215248799Y-89865091D01*
X215366468Y-89786468D01*
X216360236Y-88792700D01*
X219399995Y-88792700D01*
X219400000Y-88792701D01*
X219538799Y-88765091D01*
X219656468Y-88686468D01*
X221116465Y-87226470D01*
X221116468Y-87226468D01*
X221195091Y-87108799D01*
X221222701Y-86970000D01*
X221222700Y-86969995D01*
X221222700Y-86941719D01*
X221252029Y-86912441D01*
X221322620Y-86742441D01*
X221322780Y-86558367D01*
X221252487Y-86388244D01*
X221122441Y-86257971D01*
X220952441Y-86187380D01*
X220768367Y-86187220D01*
X220598244Y-86257513D01*
X220467971Y-86387559D01*
X220397380Y-86557559D01*
X220397220Y-86741633D01*
X220449326Y-86867739D01*
X219249764Y-88067300D01*
X216210005Y-88067300D01*
X216210000Y-88067299D01*
X216071201Y-88094909D01*
X215953532Y-88173532D01*
X214959764Y-89167300D01*
X214951719Y-89167300D01*
X214922441Y-89137971D01*
X214752441Y-89067380D01*
X214568367Y-89067220D01*
X214398244Y-89137513D01*
X214267971Y-89267559D01*
X214197380Y-89437559D01*
X214197220Y-89621633D01*
X213904569Y-89621633D01*
X213882700Y-89599764D01*
X213882700Y-88340236D01*
X215248904Y-86974032D01*
X215317624Y-87002567D01*
X215621045Y-87002832D01*
X215901470Y-86886962D01*
X216116208Y-86672599D01*
X216232567Y-86392376D01*
X216232832Y-86088955D01*
X216116962Y-85808530D01*
X215902599Y-85593792D01*
X215622376Y-85477433D01*
X215318955Y-85477168D01*
X215038530Y-85593038D01*
X214823792Y-85807401D01*
X214707433Y-86087624D01*
X214707168Y-86391045D01*
X214736071Y-86460994D01*
X213263532Y-87933532D01*
X213184909Y-88051201D01*
X213157299Y-88190000D01*
X208667580Y-88190000D01*
X208238790Y-87761210D01*
X208129232Y-87688006D01*
X208000000Y-87662300D01*
X206139880Y-87662300D01*
X204462713Y-85985133D01*
X204462780Y-85908367D01*
X204392487Y-85738244D01*
X204262441Y-85607971D01*
X204092441Y-85537380D01*
X203908367Y-85537220D01*
X203738244Y-85607513D01*
X203607971Y-85737559D01*
X203537380Y-85907559D01*
X203537220Y-86091633D01*
X202974145Y-86091633D01*
X203772889Y-85292889D01*
X203894867Y-85110336D01*
X203937700Y-84895000D01*
X203937700Y-84108078D01*
X205914231Y-82131547D01*
X205952688Y-82147516D01*
X206375457Y-82147885D01*
X206766185Y-81986439D01*
X207065388Y-81687757D01*
X207227516Y-81297312D01*
X207227885Y-80874543D01*
X207066439Y-80483815D01*
X206767757Y-80184612D01*
X206377312Y-80022484D01*
X205954543Y-80022115D01*
X205563815Y-80183561D01*
X205264612Y-80482243D01*
X205102484Y-80872688D01*
X205102115Y-81295457D01*
X205118678Y-81335544D01*
X202977111Y-83477111D01*
X202855133Y-83659664D01*
X202812300Y-83875000D01*
X202812300Y-84661922D01*
X200597278Y-86876944D01*
X200502290Y-86837502D01*
X200039739Y-86837098D01*
X199612244Y-87013736D01*
X199284885Y-87340523D01*
X199107502Y-87767710D01*
X199107098Y-88230261D01*
X198892499Y-88230261D01*
X198892902Y-87769739D01*
X198716264Y-87342244D01*
X198389477Y-87014885D01*
X197962290Y-86837502D01*
X197499739Y-86837098D01*
X197072244Y-87013736D01*
X196744885Y-87340523D01*
X196567502Y-87767710D01*
X196567098Y-88230261D01*
X195512700Y-88230261D01*
X195512700Y-85505260D01*
X202005260Y-79012700D01*
X214995545Y-79012700D01*
X222963795Y-85387300D01*
X222963795Y-85387300D01*
G37*
X222963795Y-85387300D02*
X222240000Y-85387300D01*
X222101201Y-85414909D01*
X222052724Y-85447300D01*
X219591614Y-85447300D01*
X219502441Y-85357971D01*
X219332441Y-85287380D01*
X219148367Y-85287220D01*
X218978244Y-85357513D01*
X218847971Y-85487559D01*
X218777380Y-85657559D01*
X218777220Y-85841633D01*
X218847513Y-86011756D01*
X218977559Y-86142029D01*
X219147559Y-86212620D01*
X219331633Y-86212780D01*
X219501756Y-86142487D01*
X219591700Y-86052700D01*
X221887300Y-86052700D01*
X221887300Y-86849764D01*
X219493532Y-89243532D01*
X219414909Y-89361201D01*
X219387299Y-89500000D01*
X219387300Y-89500005D01*
X219387300Y-92609764D01*
X216281096Y-95715968D01*
X216212376Y-95687433D01*
X215908955Y-95687168D01*
X215628530Y-95803038D01*
X215413792Y-96017401D01*
X215297433Y-96297624D01*
X215297168Y-96601045D01*
X215413038Y-96881470D01*
X215627401Y-97096208D01*
X215907624Y-97212567D01*
X216211045Y-97212832D01*
X216491470Y-97096962D01*
X216706208Y-96882599D01*
X216822567Y-96602376D01*
X216822832Y-96298955D01*
X216793930Y-96229006D01*
X220006468Y-93016468D01*
X220085091Y-92898799D01*
X220112700Y-92760000D01*
X220112700Y-89650236D01*
X222506468Y-87256468D01*
X222585091Y-87138799D01*
X222612701Y-87000000D01*
X222612700Y-86999995D01*
X222612700Y-86112700D01*
X223870545Y-86112700D01*
X224987300Y-87006104D01*
X224987300Y-92993896D01*
X214995545Y-100987300D01*
X202005260Y-100987300D01*
X198109593Y-97091633D01*
X207537220Y-97091633D01*
X207607513Y-97261756D01*
X207662300Y-97316639D01*
X207662300Y-100000000D01*
X207688006Y-100129232D01*
X207761210Y-100238790D01*
X207870768Y-100311994D01*
X208000000Y-100337700D01*
X211683325Y-100337700D01*
X211737559Y-100392029D01*
X211907559Y-100462620D01*
X212091633Y-100462780D01*
X212261756Y-100392487D01*
X212392029Y-100262441D01*
X212462620Y-100092441D01*
X212462780Y-99908367D01*
X212392487Y-99738244D01*
X212262441Y-99607971D01*
X212092441Y-99537380D01*
X211908367Y-99537220D01*
X211738244Y-99607513D01*
X211683361Y-99662300D01*
X208337700Y-99662300D01*
X208337700Y-97316675D01*
X208392029Y-97262441D01*
X208462620Y-97092441D01*
X208462780Y-96908367D01*
X208392487Y-96738244D01*
X208262441Y-96607971D01*
X208092441Y-96537380D01*
X207908367Y-96537220D01*
X207738244Y-96607513D01*
X207607971Y-96737559D01*
X207537380Y-96907559D01*
X207537220Y-97091633D01*
X198109593Y-97091633D01*
X195512700Y-94494740D01*
X195512700Y-92230261D01*
X196567098Y-92230261D01*
X196743736Y-92657756D01*
X197070523Y-92985115D01*
X197497710Y-93162498D01*
X197960261Y-93162902D01*
X198387756Y-92986264D01*
X198715115Y-92659477D01*
X198892498Y-92232290D01*
X198892499Y-92230261D01*
X199107098Y-92230261D01*
X199283736Y-92657756D01*
X199610523Y-92985115D01*
X200037710Y-93162498D01*
X200500261Y-93162902D01*
X200927756Y-92986264D01*
X201255115Y-92659477D01*
X201432498Y-92232290D01*
X201432902Y-91769739D01*
X201256264Y-91342244D01*
X200929477Y-91014885D01*
X200502290Y-90837502D01*
X200039739Y-90837098D01*
X199612244Y-91013736D01*
X199284885Y-91340523D01*
X199107502Y-91767710D01*
X199107098Y-92230261D01*
X198892499Y-92230261D01*
X198892902Y-91769739D01*
X198716264Y-91342244D01*
X198389477Y-91014885D01*
X197962290Y-90837502D01*
X197499739Y-90837098D01*
X197072244Y-91013736D01*
X196744885Y-91340523D01*
X196567502Y-91767710D01*
X196567098Y-92230261D01*
X195512700Y-92230261D01*
X195512700Y-88230261D01*
X196567098Y-88230261D01*
X196743736Y-88657756D01*
X197070523Y-88985115D01*
X197497710Y-89162498D01*
X197960261Y-89162902D01*
X198387756Y-88986264D01*
X198715115Y-88659477D01*
X198892498Y-88232290D01*
X198892499Y-88230261D01*
X199107098Y-88230261D01*
X199283736Y-88657756D01*
X199610523Y-88985115D01*
X200037710Y-89162498D01*
X200500261Y-89162902D01*
X200927756Y-88986264D01*
X201255115Y-88659477D01*
X201432498Y-88232290D01*
X201432902Y-87769739D01*
X201392886Y-87672892D01*
X202974145Y-86091633D01*
X203537220Y-86091633D01*
X203607513Y-86261756D01*
X203737559Y-86392029D01*
X203907559Y-86462620D01*
X203985107Y-86462687D01*
X205761210Y-88238790D01*
X205870768Y-88311994D01*
X206000000Y-88337700D01*
X207860120Y-88337700D01*
X208672339Y-89149919D01*
X208743532Y-89256468D01*
X208861201Y-89335091D01*
X209000000Y-89362700D01*
X211918455Y-89362700D01*
X212047559Y-89492029D01*
X212217559Y-89562620D01*
X212401633Y-89562780D01*
X212571756Y-89492487D01*
X212702029Y-89362441D01*
X212772620Y-89192441D01*
X212772780Y-89008367D01*
X212702487Y-88838244D01*
X212572441Y-88707971D01*
X212402441Y-88637380D01*
X212218367Y-88637220D01*
X212215519Y-88638397D01*
X212210000Y-88637299D01*
X212209995Y-88637300D01*
X209114880Y-88637300D01*
X208667580Y-88190000D01*
X213157299Y-88190000D01*
X213157300Y-88190005D01*
X213157300Y-89749995D01*
X213157299Y-89750000D01*
X213184909Y-89888799D01*
X213263532Y-90006468D01*
X214763530Y-91506465D01*
X214763532Y-91506468D01*
X214834069Y-91553599D01*
X214881200Y-91585091D01*
X215020000Y-91612700D01*
X215262944Y-91612700D01*
X215012822Y-91862822D01*
X214912521Y-92012932D01*
X214877300Y-92190000D01*
X214877300Y-92984213D01*
X214693792Y-93167401D01*
X214577433Y-93447624D01*
X214577168Y-93751045D01*
X214693038Y-94031470D01*
X214907401Y-94246208D01*
X215187624Y-94362567D01*
X215491045Y-94362832D01*
X215771470Y-94246962D01*
X215986208Y-94032599D01*
X216102567Y-93752376D01*
X216102832Y-93448955D01*
X215986962Y-93168530D01*
X215802700Y-92983946D01*
X215802700Y-92381656D01*
X216171750Y-92012606D01*
X216431045Y-92012832D01*
X216711470Y-91896962D01*
X216926208Y-91682599D01*
X217042567Y-91402376D01*
X217042832Y-91098955D01*
X216926962Y-90818530D01*
X216712599Y-90603792D01*
X216432376Y-90487433D01*
X216128955Y-90487168D01*
X215848530Y-90603038D01*
X215633792Y-90817401D01*
X215604767Y-90887300D01*
X215170235Y-90887300D01*
X213904569Y-89621633D01*
X214197220Y-89621633D01*
X214267513Y-89791756D01*
X214397559Y-89922029D01*
X214567559Y-89992620D01*
X214751633Y-89992780D01*
X214921756Y-89922487D01*
X214951595Y-89892700D01*
X215109995Y-89892700D01*
X215110000Y-89892701D01*
X215248799Y-89865091D01*
X215366468Y-89786468D01*
X216360236Y-88792700D01*
X219399995Y-88792700D01*
X219400000Y-88792701D01*
X219538799Y-88765091D01*
X219656468Y-88686468D01*
X221116465Y-87226470D01*
X221116468Y-87226468D01*
X221195091Y-87108799D01*
X221222701Y-86970000D01*
X221222700Y-86969995D01*
X221222700Y-86941719D01*
X221252029Y-86912441D01*
X221322620Y-86742441D01*
X221322780Y-86558367D01*
X221252487Y-86388244D01*
X221122441Y-86257971D01*
X220952441Y-86187380D01*
X220768367Y-86187220D01*
X220598244Y-86257513D01*
X220467971Y-86387559D01*
X220397380Y-86557559D01*
X220397220Y-86741633D01*
X220449326Y-86867739D01*
X219249764Y-88067300D01*
X216210005Y-88067300D01*
X216210000Y-88067299D01*
X216071201Y-88094909D01*
X215953532Y-88173532D01*
X214959764Y-89167300D01*
X214951719Y-89167300D01*
X214922441Y-89137971D01*
X214752441Y-89067380D01*
X214568367Y-89067220D01*
X214398244Y-89137513D01*
X214267971Y-89267559D01*
X214197380Y-89437559D01*
X214197220Y-89621633D01*
X213904569Y-89621633D01*
X213882700Y-89599764D01*
X213882700Y-88340236D01*
X215248904Y-86974032D01*
X215317624Y-87002567D01*
X215621045Y-87002832D01*
X215901470Y-86886962D01*
X216116208Y-86672599D01*
X216232567Y-86392376D01*
X216232832Y-86088955D01*
X216116962Y-85808530D01*
X215902599Y-85593792D01*
X215622376Y-85477433D01*
X215318955Y-85477168D01*
X215038530Y-85593038D01*
X214823792Y-85807401D01*
X214707433Y-86087624D01*
X214707168Y-86391045D01*
X214736071Y-86460994D01*
X213263532Y-87933532D01*
X213184909Y-88051201D01*
X213157299Y-88190000D01*
X208667580Y-88190000D01*
X208238790Y-87761210D01*
X208129232Y-87688006D01*
X208000000Y-87662300D01*
X206139880Y-87662300D01*
X204462713Y-85985133D01*
X204462780Y-85908367D01*
X204392487Y-85738244D01*
X204262441Y-85607971D01*
X204092441Y-85537380D01*
X203908367Y-85537220D01*
X203738244Y-85607513D01*
X203607971Y-85737559D01*
X203537380Y-85907559D01*
X203537220Y-86091633D01*
X202974145Y-86091633D01*
X203772889Y-85292889D01*
X203894867Y-85110336D01*
X203937700Y-84895000D01*
X203937700Y-84108078D01*
X205914231Y-82131547D01*
X205952688Y-82147516D01*
X206375457Y-82147885D01*
X206766185Y-81986439D01*
X207065388Y-81687757D01*
X207227516Y-81297312D01*
X207227885Y-80874543D01*
X207066439Y-80483815D01*
X206767757Y-80184612D01*
X206377312Y-80022484D01*
X205954543Y-80022115D01*
X205563815Y-80183561D01*
X205264612Y-80482243D01*
X205102484Y-80872688D01*
X205102115Y-81295457D01*
X205118678Y-81335544D01*
X202977111Y-83477111D01*
X202855133Y-83659664D01*
X202812300Y-83875000D01*
X202812300Y-84661922D01*
X200597278Y-86876944D01*
X200502290Y-86837502D01*
X200039739Y-86837098D01*
X199612244Y-87013736D01*
X199284885Y-87340523D01*
X199107502Y-87767710D01*
X199107098Y-88230261D01*
X198892499Y-88230261D01*
X198892902Y-87769739D01*
X198716264Y-87342244D01*
X198389477Y-87014885D01*
X197962290Y-86837502D01*
X197499739Y-86837098D01*
X197072244Y-87013736D01*
X196744885Y-87340523D01*
X196567502Y-87767710D01*
X196567098Y-88230261D01*
X195512700Y-88230261D01*
X195512700Y-85505260D01*
X202005260Y-79012700D01*
X214995545Y-79012700D01*
X222963795Y-85387300D01*
G36*
X238812300Y-59577748D02*
X238812300Y-87987300D01*
X234690782Y-87987300D01*
X235014041Y-87664041D01*
X235079658Y-87565838D01*
X235102700Y-87450000D01*
X235102700Y-71751614D01*
X235192029Y-71662441D01*
X235262620Y-71492441D01*
X235262780Y-71308367D01*
X235192487Y-71138244D01*
X235062441Y-71007971D01*
X234892441Y-70937380D01*
X234708367Y-70937220D01*
X234538244Y-71007513D01*
X234407971Y-71137559D01*
X234337380Y-71307559D01*
X234337220Y-71491633D01*
X234407513Y-71661756D01*
X234497300Y-71751700D01*
X234497300Y-87324618D01*
X233834618Y-87987300D01*
X230602700Y-87987300D01*
X230602700Y-79725382D01*
X231414041Y-78914041D01*
X231479658Y-78815838D01*
X231502700Y-78700000D01*
X231502700Y-74751614D01*
X231592029Y-74662441D01*
X231662620Y-74492441D01*
X231662780Y-74308367D01*
X231592487Y-74138244D01*
X231462441Y-74007971D01*
X231292441Y-73937380D01*
X231108367Y-73937220D01*
X230938244Y-74007513D01*
X230807971Y-74137559D01*
X230737380Y-74307559D01*
X230737220Y-74491633D01*
X230807513Y-74661756D01*
X230897300Y-74751700D01*
X230897300Y-78574618D01*
X230085959Y-79385959D01*
X230020342Y-79484162D01*
X230002700Y-79572853D01*
X230002700Y-79308207D01*
X230161756Y-79242487D01*
X230292029Y-79112441D01*
X230362620Y-78942441D01*
X230362780Y-78758367D01*
X230292487Y-78588244D01*
X230162441Y-78457971D01*
X229992441Y-78387380D01*
X229808367Y-78387220D01*
X229638244Y-78457513D01*
X229507971Y-78587559D01*
X229437380Y-78757559D01*
X229437248Y-78908860D01*
X229420342Y-78934162D01*
X229402700Y-79022853D01*
X229402700Y-72851614D01*
X229492029Y-72762441D01*
X229562620Y-72592441D01*
X229562780Y-72408367D01*
X229492487Y-72238244D01*
X229362441Y-72107971D01*
X229192441Y-72037380D01*
X229008367Y-72037220D01*
X228838244Y-72107513D01*
X228707971Y-72237559D01*
X228637380Y-72407559D01*
X228637220Y-72591633D01*
X228707513Y-72761756D01*
X228797300Y-72851700D01*
X228797300Y-86779340D01*
X226790448Y-84772488D01*
X227916468Y-83646468D01*
X227995091Y-83528799D01*
X228022701Y-83390000D01*
X228022700Y-83389995D01*
X228022700Y-79585377D01*
X228091470Y-79556962D01*
X228306208Y-79342599D01*
X228422567Y-79062376D01*
X228422832Y-78758955D01*
X228306962Y-78478530D01*
X228092599Y-78263792D01*
X227812376Y-78147433D01*
X227508955Y-78147168D01*
X227228530Y-78263038D01*
X227013792Y-78477401D01*
X226897433Y-78757624D01*
X226897168Y-79061045D01*
X227013038Y-79341470D01*
X227227401Y-79556208D01*
X227297300Y-79585233D01*
X227297300Y-83239764D01*
X226277512Y-84259552D01*
X217012700Y-74994740D01*
X217012700Y-73152700D01*
X218800000Y-73152700D01*
X218915838Y-73129658D01*
X219014041Y-73064041D01*
X220125382Y-71952700D01*
X222850000Y-71952700D01*
X222965838Y-71929658D01*
X223064041Y-71864041D01*
X224865412Y-70062670D01*
X224991633Y-70062780D01*
X225161756Y-69992487D01*
X225292029Y-69862441D01*
X225362620Y-69692441D01*
X225362780Y-69508367D01*
X225292487Y-69338244D01*
X225162441Y-69207971D01*
X224992441Y-69137380D01*
X224808367Y-69137220D01*
X224638244Y-69207513D01*
X224507971Y-69337559D01*
X224437380Y-69507559D01*
X224437270Y-69634648D01*
X222724618Y-71347300D01*
X220000000Y-71347300D01*
X219884162Y-71370342D01*
X219785959Y-71435959D01*
X218674618Y-72547300D01*
X217012700Y-72547300D01*
X217012700Y-72252700D01*
X217600000Y-72252700D01*
X217715838Y-72229658D01*
X217814041Y-72164041D01*
X219664041Y-70314041D01*
X219729658Y-70215838D01*
X219752700Y-70100000D01*
X219752700Y-67151614D01*
X219842029Y-67062441D01*
X219912620Y-66892441D01*
X219912780Y-66708367D01*
X219842487Y-66538244D01*
X219712441Y-66407971D01*
X219542441Y-66337380D01*
X219358367Y-66337220D01*
X219188244Y-66407513D01*
X219057971Y-66537559D01*
X218987380Y-66707559D01*
X218987220Y-66891633D01*
X219057513Y-67061756D01*
X219147300Y-67151700D01*
X219147300Y-69974618D01*
X217474618Y-71647300D01*
X217012700Y-71647300D01*
X217012700Y-70000000D01*
X217011699Y-69995059D01*
X217008980Y-69991020D01*
X212012700Y-64994740D01*
X212012700Y-63785457D01*
X214312115Y-63785457D01*
X214473561Y-64176185D01*
X214772243Y-64475388D01*
X215162688Y-64637516D01*
X215585457Y-64637885D01*
X215976185Y-64476439D01*
X216275388Y-64177757D01*
X216437516Y-63787312D01*
X216437885Y-63364543D01*
X216276439Y-62973815D01*
X215977757Y-62674612D01*
X215587312Y-62512484D01*
X215164543Y-62512115D01*
X214773815Y-62673561D01*
X214474612Y-62972243D01*
X214312484Y-63362688D01*
X214312115Y-63785457D01*
X212012700Y-63785457D01*
X212012700Y-62187700D01*
X218000000Y-62187700D01*
X218071830Y-62173412D01*
X218132724Y-62132724D01*
X218173412Y-62071830D01*
X218187700Y-62000000D01*
X218187700Y-53187700D01*
X232422252Y-53187700D01*
X238812300Y-59577748D01*
X238812300Y-59577748D01*
G37*
X238812300Y-59577748D02*
X238812300Y-87987300D01*
X234690782Y-87987300D01*
X235014041Y-87664041D01*
X235079658Y-87565838D01*
X235102700Y-87450000D01*
X235102700Y-71751614D01*
X235192029Y-71662441D01*
X235262620Y-71492441D01*
X235262780Y-71308367D01*
X235192487Y-71138244D01*
X235062441Y-71007971D01*
X234892441Y-70937380D01*
X234708367Y-70937220D01*
X234538244Y-71007513D01*
X234407971Y-71137559D01*
X234337380Y-71307559D01*
X234337220Y-71491633D01*
X234407513Y-71661756D01*
X234497300Y-71751700D01*
X234497300Y-87324618D01*
X233834618Y-87987300D01*
X230602700Y-87987300D01*
X230602700Y-79725382D01*
X231414041Y-78914041D01*
X231479658Y-78815838D01*
X231502700Y-78700000D01*
X231502700Y-74751614D01*
X231592029Y-74662441D01*
X231662620Y-74492441D01*
X231662780Y-74308367D01*
X231592487Y-74138244D01*
X231462441Y-74007971D01*
X231292441Y-73937380D01*
X231108367Y-73937220D01*
X230938244Y-74007513D01*
X230807971Y-74137559D01*
X230737380Y-74307559D01*
X230737220Y-74491633D01*
X230807513Y-74661756D01*
X230897300Y-74751700D01*
X230897300Y-78574618D01*
X230085959Y-79385959D01*
X230020342Y-79484162D01*
X230002700Y-79572853D01*
X230002700Y-79308207D01*
X230161756Y-79242487D01*
X230292029Y-79112441D01*
X230362620Y-78942441D01*
X230362780Y-78758367D01*
X230292487Y-78588244D01*
X230162441Y-78457971D01*
X229992441Y-78387380D01*
X229808367Y-78387220D01*
X229638244Y-78457513D01*
X229507971Y-78587559D01*
X229437380Y-78757559D01*
X229437248Y-78908860D01*
X229420342Y-78934162D01*
X229402700Y-79022853D01*
X229402700Y-72851614D01*
X229492029Y-72762441D01*
X229562620Y-72592441D01*
X229562780Y-72408367D01*
X229492487Y-72238244D01*
X229362441Y-72107971D01*
X229192441Y-72037380D01*
X229008367Y-72037220D01*
X228838244Y-72107513D01*
X228707971Y-72237559D01*
X228637380Y-72407559D01*
X228637220Y-72591633D01*
X228707513Y-72761756D01*
X228797300Y-72851700D01*
X228797300Y-86779340D01*
X226790448Y-84772488D01*
X227916468Y-83646468D01*
X227995091Y-83528799D01*
X228022701Y-83390000D01*
X228022700Y-83389995D01*
X228022700Y-79585377D01*
X228091470Y-79556962D01*
X228306208Y-79342599D01*
X228422567Y-79062376D01*
X228422832Y-78758955D01*
X228306962Y-78478530D01*
X228092599Y-78263792D01*
X227812376Y-78147433D01*
X227508955Y-78147168D01*
X227228530Y-78263038D01*
X227013792Y-78477401D01*
X226897433Y-78757624D01*
X226897168Y-79061045D01*
X227013038Y-79341470D01*
X227227401Y-79556208D01*
X227297300Y-79585233D01*
X227297300Y-83239764D01*
X226277512Y-84259552D01*
X217012700Y-74994740D01*
X217012700Y-73152700D01*
X218800000Y-73152700D01*
X218915838Y-73129658D01*
X219014041Y-73064041D01*
X220125382Y-71952700D01*
X222850000Y-71952700D01*
X222965838Y-71929658D01*
X223064041Y-71864041D01*
X224865412Y-70062670D01*
X224991633Y-70062780D01*
X225161756Y-69992487D01*
X225292029Y-69862441D01*
X225362620Y-69692441D01*
X225362780Y-69508367D01*
X225292487Y-69338244D01*
X225162441Y-69207971D01*
X224992441Y-69137380D01*
X224808367Y-69137220D01*
X224638244Y-69207513D01*
X224507971Y-69337559D01*
X224437380Y-69507559D01*
X224437270Y-69634648D01*
X222724618Y-71347300D01*
X220000000Y-71347300D01*
X219884162Y-71370342D01*
X219785959Y-71435959D01*
X218674618Y-72547300D01*
X217012700Y-72547300D01*
X217012700Y-72252700D01*
X217600000Y-72252700D01*
X217715838Y-72229658D01*
X217814041Y-72164041D01*
X219664041Y-70314041D01*
X219729658Y-70215838D01*
X219752700Y-70100000D01*
X219752700Y-67151614D01*
X219842029Y-67062441D01*
X219912620Y-66892441D01*
X219912780Y-66708367D01*
X219842487Y-66538244D01*
X219712441Y-66407971D01*
X219542441Y-66337380D01*
X219358367Y-66337220D01*
X219188244Y-66407513D01*
X219057971Y-66537559D01*
X218987380Y-66707559D01*
X218987220Y-66891633D01*
X219057513Y-67061756D01*
X219147300Y-67151700D01*
X219147300Y-69974618D01*
X217474618Y-71647300D01*
X217012700Y-71647300D01*
X217012700Y-70000000D01*
X217011699Y-69995059D01*
X217008980Y-69991020D01*
X212012700Y-64994740D01*
X212012700Y-63785457D01*
X214312115Y-63785457D01*
X214473561Y-64176185D01*
X214772243Y-64475388D01*
X215162688Y-64637516D01*
X215585457Y-64637885D01*
X215976185Y-64476439D01*
X216275388Y-64177757D01*
X216437516Y-63787312D01*
X216437885Y-63364543D01*
X216276439Y-62973815D01*
X215977757Y-62674612D01*
X215587312Y-62512484D01*
X215164543Y-62512115D01*
X214773815Y-62673561D01*
X214474612Y-62972243D01*
X214312484Y-63362688D01*
X214312115Y-63785457D01*
X212012700Y-63785457D01*
X212012700Y-62187700D01*
X218000000Y-62187700D01*
X218071830Y-62173412D01*
X218132724Y-62132724D01*
X218173412Y-62071830D01*
X218187700Y-62000000D01*
X218187700Y-53187700D01*
X232422252Y-53187700D01*
X238812300Y-59577748D01*
G36*
X179812300Y-62000000D02*
X179826588Y-62071830D01*
X179867276Y-62132724D01*
X179928170Y-62173412D01*
X180000000Y-62187700D01*
X196987300Y-62187700D01*
X196987300Y-77987300D01*
X189000000Y-77987300D01*
X188995059Y-77988301D01*
X188990897Y-77991145D01*
X188988169Y-77995384D01*
X188987300Y-78000000D01*
X188987300Y-81237300D01*
X185000000Y-81237300D01*
X184994320Y-81238641D01*
X182997002Y-82237300D01*
X176005260Y-82237300D01*
X172508980Y-78741020D01*
X172504779Y-78738233D01*
X172500000Y-78737300D01*
X171562700Y-78737300D01*
X171562700Y-78091633D01*
X178287220Y-78091633D01*
X178357513Y-78261756D01*
X178447300Y-78351700D01*
X178447300Y-78750000D01*
X178470342Y-78865838D01*
X178535959Y-78964041D01*
X180337330Y-80765412D01*
X180337220Y-80891633D01*
X180407513Y-81061756D01*
X180537559Y-81192029D01*
X180707559Y-81262620D01*
X180891633Y-81262780D01*
X181061756Y-81192487D01*
X181192029Y-81062441D01*
X181262620Y-80892441D01*
X181262780Y-80708367D01*
X181192487Y-80538244D01*
X181062441Y-80407971D01*
X180892441Y-80337380D01*
X180765352Y-80337270D01*
X179052700Y-78624618D01*
X179052700Y-78351614D01*
X179142029Y-78262441D01*
X179212620Y-78092441D01*
X179212780Y-77908367D01*
X179142487Y-77738244D01*
X179012441Y-77607971D01*
X178842441Y-77537380D01*
X178658367Y-77537220D01*
X178488244Y-77607513D01*
X178357971Y-77737559D01*
X178287380Y-77907559D01*
X178287220Y-78091633D01*
X171562700Y-78091633D01*
X171562700Y-78000000D01*
X171519867Y-77784664D01*
X171397889Y-77602111D01*
X169546547Y-75750769D01*
X169562516Y-75712312D01*
X169562885Y-75289543D01*
X169505227Y-75150000D01*
X188187300Y-75150000D01*
X188325284Y-75843690D01*
X188718228Y-76431772D01*
X189306310Y-76824716D01*
X190000000Y-76962700D01*
X190693690Y-76824716D01*
X191281772Y-76431772D01*
X191674716Y-75843690D01*
X191812700Y-75150000D01*
X191674716Y-74456310D01*
X191281772Y-73868228D01*
X190693690Y-73475284D01*
X190000000Y-73337300D01*
X189306310Y-73475284D01*
X188718228Y-73868228D01*
X188325284Y-74456310D01*
X188187300Y-75150000D01*
X169505227Y-75150000D01*
X169401439Y-74898815D01*
X169102757Y-74599612D01*
X168712312Y-74437484D01*
X168289543Y-74437115D01*
X167898815Y-74598561D01*
X167599612Y-74897243D01*
X167437484Y-75287688D01*
X167437115Y-75710457D01*
X167598561Y-76101185D01*
X167897243Y-76400388D01*
X168287688Y-76562516D01*
X168710457Y-76562885D01*
X168750544Y-76546322D01*
X170437300Y-78233078D01*
X170437300Y-78737300D01*
X165750000Y-78737300D01*
X165745059Y-78738301D01*
X165740897Y-78741145D01*
X165738169Y-78745384D01*
X165737300Y-78750000D01*
X165737300Y-83809218D01*
X164802700Y-82874618D01*
X164802700Y-69855261D01*
X186027098Y-69855261D01*
X186203736Y-70282756D01*
X186530523Y-70610115D01*
X186887300Y-70758261D01*
X186887300Y-73288368D01*
X186807971Y-73367559D01*
X186737380Y-73537559D01*
X186737220Y-73721633D01*
X186807513Y-73891756D01*
X186937559Y-74022029D01*
X187107559Y-74092620D01*
X187291633Y-74092780D01*
X187461756Y-74022487D01*
X187592029Y-73892441D01*
X187627293Y-73807517D01*
X187627220Y-73891633D01*
X187697513Y-74061756D01*
X187827559Y-74192029D01*
X187997559Y-74262620D01*
X188181633Y-74262780D01*
X188351756Y-74192487D01*
X188482029Y-74062441D01*
X188552620Y-73892441D01*
X188552730Y-73765352D01*
X189944041Y-72374041D01*
X190009658Y-72275838D01*
X190032700Y-72160000D01*
X190032700Y-70757971D01*
X190387756Y-70611264D01*
X190715115Y-70284477D01*
X190892498Y-69857290D01*
X190892902Y-69394739D01*
X190716264Y-68967244D01*
X190389477Y-68639885D01*
X189962290Y-68462502D01*
X189499739Y-68462098D01*
X189072244Y-68638736D01*
X188744885Y-68965523D01*
X188567502Y-69392710D01*
X188567098Y-69855261D01*
X188743736Y-70282756D01*
X189070523Y-70610115D01*
X189427300Y-70758261D01*
X189427300Y-72034618D01*
X188124588Y-73337330D01*
X187998367Y-73337220D01*
X187828244Y-73407513D01*
X187697971Y-73537559D01*
X187662707Y-73622483D01*
X187662780Y-73538367D01*
X187592487Y-73368244D01*
X187492700Y-73268283D01*
X187492700Y-70757971D01*
X187847756Y-70611264D01*
X188175115Y-70284477D01*
X188352498Y-69857290D01*
X188352902Y-69394739D01*
X188176264Y-68967244D01*
X187849477Y-68639885D01*
X187422290Y-68462502D01*
X186959739Y-68462098D01*
X186532244Y-68638736D01*
X186204885Y-68965523D01*
X186027502Y-69392710D01*
X186027098Y-69855261D01*
X164802700Y-69855261D01*
X164802700Y-62625382D01*
X166375382Y-61052700D01*
X172398386Y-61052700D01*
X172487559Y-61142029D01*
X172657559Y-61212620D01*
X172841633Y-61212780D01*
X173011756Y-61142487D01*
X173142029Y-61012441D01*
X173212620Y-60842441D01*
X173212780Y-60658367D01*
X173142487Y-60488244D01*
X173012441Y-60357971D01*
X172842441Y-60287380D01*
X172658367Y-60287220D01*
X172488244Y-60357513D01*
X172398300Y-60447300D01*
X168379098Y-60447300D01*
X168511756Y-60392487D01*
X168642029Y-60262441D01*
X168712620Y-60092441D01*
X168712780Y-59908367D01*
X168642487Y-59738244D01*
X168512441Y-59607971D01*
X168342441Y-59537380D01*
X168158367Y-59537220D01*
X167988244Y-59607513D01*
X167898300Y-59697300D01*
X166250000Y-59697300D01*
X166134162Y-59720342D01*
X166035959Y-59785958D01*
X163785959Y-62035959D01*
X163720342Y-62134162D01*
X163697300Y-62250000D01*
X163697300Y-83250000D01*
X163720342Y-83365838D01*
X163785959Y-83464041D01*
X165737300Y-85415382D01*
X165737300Y-90728455D01*
X165607971Y-90857559D01*
X165537380Y-91027559D01*
X165537220Y-91211633D01*
X165607513Y-91381756D01*
X165697300Y-91471700D01*
X165697300Y-93590000D01*
X165720342Y-93705838D01*
X165737300Y-93731217D01*
X165737300Y-95881522D01*
X164906547Y-95050769D01*
X164922516Y-95012312D01*
X164922885Y-94589543D01*
X164761439Y-94198815D01*
X164472700Y-93909572D01*
X164472700Y-87510000D01*
X164429867Y-87294664D01*
X164307889Y-87112111D01*
X163397889Y-86202111D01*
X163215336Y-86080133D01*
X163000000Y-86037300D01*
X161233078Y-86037300D01*
X155162700Y-79966922D01*
X155162700Y-73400000D01*
X155119867Y-73184664D01*
X154997889Y-73002111D01*
X152762700Y-70766922D01*
X152762700Y-64833078D01*
X154845778Y-62750000D01*
X155947300Y-62750000D01*
X155947300Y-80000000D01*
X155970342Y-80115838D01*
X156035959Y-80214041D01*
X161037330Y-85215412D01*
X161037220Y-85341633D01*
X161107513Y-85511756D01*
X161237559Y-85642029D01*
X161407559Y-85712620D01*
X161591633Y-85712780D01*
X161761756Y-85642487D01*
X161892029Y-85512441D01*
X161962620Y-85342441D01*
X161962780Y-85158367D01*
X161892487Y-84988244D01*
X161762441Y-84857971D01*
X161592441Y-84787380D01*
X161465352Y-84787270D01*
X156552700Y-79874618D01*
X156552700Y-76295545D01*
X157493267Y-76295545D01*
X157502002Y-76695892D01*
X157663279Y-77062422D01*
X157952544Y-77339334D01*
X158325759Y-77484469D01*
X158671411Y-77545417D01*
X159071758Y-77536682D01*
X159438288Y-77375405D01*
X159715199Y-77086140D01*
X159860335Y-76712925D01*
X159851600Y-76312578D01*
X159690323Y-75946048D01*
X159401058Y-75669136D01*
X159027842Y-75524001D01*
X158682191Y-75463053D01*
X158281844Y-75471788D01*
X157915314Y-75633065D01*
X157638402Y-75922330D01*
X157493267Y-76295545D01*
X156552700Y-76295545D01*
X156552700Y-73794133D01*
X157934333Y-73794133D01*
X157943068Y-74194480D01*
X158104345Y-74561010D01*
X158393610Y-74837922D01*
X158766825Y-74983057D01*
X159112477Y-75044005D01*
X159512824Y-75035270D01*
X159879354Y-74873993D01*
X160156265Y-74584728D01*
X160301401Y-74211513D01*
X160292666Y-73811166D01*
X160131389Y-73444636D01*
X159842124Y-73167724D01*
X159468908Y-73022589D01*
X159123257Y-72961641D01*
X158722910Y-72970376D01*
X158356380Y-73131653D01*
X158079468Y-73420918D01*
X157934333Y-73794133D01*
X156552700Y-73794133D01*
X156552700Y-71292722D01*
X158375400Y-71292722D01*
X158384135Y-71693069D01*
X158545412Y-72059599D01*
X158834677Y-72336511D01*
X159207892Y-72481646D01*
X159553544Y-72542594D01*
X159953891Y-72533859D01*
X160320421Y-72372582D01*
X160597332Y-72083317D01*
X160742468Y-71710102D01*
X160733733Y-71309755D01*
X160572456Y-70943225D01*
X160283191Y-70666313D01*
X159909975Y-70521178D01*
X159564324Y-70460230D01*
X159163977Y-70468965D01*
X158797447Y-70630242D01*
X158520535Y-70919507D01*
X158375400Y-71292722D01*
X156552700Y-71292722D01*
X156552700Y-68791310D01*
X158816466Y-68791310D01*
X158825201Y-69191657D01*
X158986478Y-69558187D01*
X159275743Y-69835099D01*
X159648958Y-69980234D01*
X159994610Y-70041182D01*
X160394957Y-70032447D01*
X160761487Y-69871170D01*
X161038398Y-69581905D01*
X161183534Y-69208690D01*
X161174799Y-68808343D01*
X161013522Y-68441813D01*
X160724257Y-68164901D01*
X160351041Y-68019766D01*
X160005390Y-67958818D01*
X159605043Y-67967553D01*
X159238513Y-68128830D01*
X158961601Y-68418095D01*
X158816466Y-68791310D01*
X156552700Y-68791310D01*
X156552700Y-67767916D01*
X160462272Y-67767916D01*
X160656013Y-67902931D01*
X161178367Y-67773225D01*
X161611323Y-67453495D01*
X161801434Y-67196990D01*
X161761244Y-66976394D01*
X160636799Y-66778123D01*
X160462272Y-67767916D01*
X156552700Y-67767916D01*
X156552700Y-66689598D01*
X158923871Y-66689598D01*
X159014787Y-66995656D01*
X159312278Y-67444183D01*
X159758768Y-67744723D01*
X159987003Y-67684114D01*
X160161531Y-66694321D01*
X159037085Y-66496051D01*
X158923871Y-66689598D01*
X156552700Y-66689598D01*
X156552700Y-66302855D01*
X160720601Y-66302855D01*
X161845047Y-66501125D01*
X161958261Y-66307578D01*
X161867345Y-66001520D01*
X161569854Y-65552993D01*
X161123364Y-65252453D01*
X160895129Y-65313062D01*
X160720601Y-66302855D01*
X156552700Y-66302855D01*
X156552700Y-65800186D01*
X159080698Y-65800186D01*
X159120888Y-66020782D01*
X160245333Y-66219053D01*
X160419860Y-65229260D01*
X160226119Y-65094245D01*
X159703765Y-65223951D01*
X159270809Y-65543681D01*
X159080698Y-65800186D01*
X156552700Y-65800186D01*
X156552700Y-63788487D01*
X159698599Y-63788487D01*
X159707334Y-64188834D01*
X159868611Y-64555364D01*
X160157876Y-64832276D01*
X160531091Y-64977411D01*
X160876743Y-65038359D01*
X161277090Y-65029624D01*
X161643620Y-64868347D01*
X161920531Y-64579082D01*
X162065667Y-64205867D01*
X162056932Y-63805520D01*
X161895655Y-63438990D01*
X161606390Y-63162078D01*
X161233174Y-63016943D01*
X160887523Y-62955995D01*
X160487176Y-62964730D01*
X160120646Y-63126007D01*
X159843734Y-63415272D01*
X159698599Y-63788487D01*
X156552700Y-63788487D01*
X156552700Y-62875382D01*
X157287070Y-62141012D01*
X160009305Y-62141012D01*
X160010008Y-62202359D01*
X160035484Y-62263080D01*
X160082577Y-62309107D01*
X160143866Y-62333185D01*
X162144995Y-62686039D01*
X162206342Y-62685336D01*
X162267064Y-62659860D01*
X162313090Y-62612767D01*
X162337168Y-62551478D01*
X162637093Y-60850518D01*
X162636390Y-60789171D01*
X162610914Y-60728450D01*
X162563821Y-60682423D01*
X162502532Y-60658345D01*
X160501403Y-60305491D01*
X160440056Y-60306194D01*
X160379334Y-60331670D01*
X160333308Y-60378763D01*
X160309230Y-60440052D01*
X160009305Y-62141012D01*
X157287070Y-62141012D01*
X157965412Y-61462670D01*
X158091633Y-61462780D01*
X158261756Y-61392487D01*
X158392029Y-61262441D01*
X158462620Y-61092441D01*
X158462780Y-60908367D01*
X158392487Y-60738244D01*
X158262441Y-60607971D01*
X158092441Y-60537380D01*
X157908367Y-60537220D01*
X157738244Y-60607513D01*
X157607971Y-60737559D01*
X157537380Y-60907559D01*
X157537270Y-61034648D01*
X156035959Y-62535959D01*
X155970342Y-62634162D01*
X155947300Y-62750000D01*
X154845778Y-62750000D01*
X158233078Y-59362700D01*
X174566922Y-59362700D01*
X179237300Y-64033078D01*
X179237300Y-66282659D01*
X179198815Y-66298561D01*
X178899612Y-66597243D01*
X178737484Y-66987688D01*
X178737115Y-67410457D01*
X178898561Y-67801185D01*
X179197243Y-68100388D01*
X179587688Y-68262516D01*
X180010457Y-68262885D01*
X180401185Y-68101439D01*
X180700388Y-67802757D01*
X180862516Y-67412312D01*
X180862885Y-66989543D01*
X180701439Y-66598815D01*
X180402757Y-66299612D01*
X180362700Y-66282979D01*
X180362700Y-63800000D01*
X180319867Y-63584664D01*
X180197889Y-63402111D01*
X175197889Y-58402111D01*
X175015336Y-58280133D01*
X174800000Y-58237300D01*
X158000000Y-58237300D01*
X157784664Y-58280133D01*
X157602111Y-58402111D01*
X151802111Y-64202111D01*
X151680133Y-64384664D01*
X151637300Y-64600000D01*
X151637300Y-71000000D01*
X151680133Y-71215336D01*
X151802111Y-71397889D01*
X154037300Y-73633078D01*
X154037300Y-80200000D01*
X154080133Y-80415336D01*
X154202111Y-80597889D01*
X160602111Y-86997889D01*
X160784664Y-87119867D01*
X161000000Y-87162700D01*
X162766922Y-87162700D01*
X163347300Y-87743078D01*
X163347300Y-93862000D01*
X163258815Y-93898561D01*
X162959612Y-94197243D01*
X162832519Y-94503315D01*
X162769715Y-94098844D01*
X162729058Y-94000689D01*
X162538228Y-93923022D01*
X161931250Y-94530000D01*
X162538228Y-95136978D01*
X162729058Y-95059311D01*
X162797317Y-94778745D01*
X162797115Y-95010457D01*
X162958561Y-95401185D01*
X163257243Y-95700388D01*
X163647688Y-95862516D01*
X164070457Y-95862885D01*
X164110544Y-95846322D01*
X165732111Y-97467889D01*
X165737300Y-97471356D01*
X165737300Y-103250000D01*
X165738301Y-103254941D01*
X165741020Y-103258980D01*
X167491020Y-105008980D01*
X167495221Y-105011767D01*
X167499828Y-105012699D01*
X171142300Y-105061922D01*
X171016922Y-105187300D01*
X165750000Y-105187300D01*
X165534664Y-105230133D01*
X165352111Y-105352111D01*
X162852111Y-107852111D01*
X162730133Y-108034664D01*
X162687300Y-108250000D01*
X162687300Y-108500000D01*
X162730133Y-108715336D01*
X162852111Y-108897889D01*
X163034664Y-109019867D01*
X163250000Y-109062700D01*
X163465336Y-109019867D01*
X163647889Y-108897889D01*
X163769867Y-108715336D01*
X163812700Y-108500000D01*
X163812700Y-108483078D01*
X165983078Y-106312700D01*
X171250000Y-106312700D01*
X171465336Y-106269867D01*
X171647889Y-106147889D01*
X172712636Y-105083142D01*
X174962300Y-105113543D01*
X174962300Y-105130831D01*
X173630830Y-106462300D01*
X167000005Y-106462300D01*
X167000000Y-106462299D01*
X166889902Y-106484200D01*
X166796565Y-106546565D01*
X166796563Y-106546568D01*
X164546565Y-108796565D01*
X164484200Y-108889902D01*
X164462299Y-109000000D01*
X164462300Y-109000005D01*
X164462300Y-110499995D01*
X164462299Y-110500000D01*
X164484200Y-110610098D01*
X164546565Y-110703435D01*
X164787348Y-110944218D01*
X164787220Y-111091633D01*
X164857513Y-111261756D01*
X164987559Y-111392029D01*
X165157559Y-111462620D01*
X165341633Y-111462780D01*
X165511756Y-111392487D01*
X165642029Y-111262441D01*
X165712620Y-111092441D01*
X165712780Y-110908367D01*
X165642487Y-110738244D01*
X165512441Y-110607971D01*
X165342441Y-110537380D01*
X165194121Y-110537251D01*
X165037700Y-110380830D01*
X165037700Y-109119170D01*
X167119169Y-107037700D01*
X173749995Y-107037700D01*
X173750000Y-107037701D01*
X173860098Y-107015800D01*
X173953435Y-106953435D01*
X175453432Y-105453437D01*
X175453435Y-105453435D01*
X175515800Y-105360098D01*
X175537700Y-105250000D01*
X175537700Y-105121319D01*
X177199357Y-105143774D01*
X175130830Y-107212300D01*
X167500000Y-107212300D01*
X167389902Y-107234200D01*
X167296565Y-107296565D01*
X167296563Y-107296568D01*
X166055782Y-108537348D01*
X165908367Y-108537220D01*
X165738244Y-108607513D01*
X165607971Y-108737559D01*
X165537380Y-108907559D01*
X165537220Y-109091633D01*
X165607513Y-109261756D01*
X165737559Y-109392029D01*
X165907559Y-109462620D01*
X166091633Y-109462780D01*
X166261756Y-109392487D01*
X166392029Y-109262441D01*
X166462620Y-109092441D01*
X166462749Y-108944121D01*
X167619169Y-107787700D01*
X175249995Y-107787700D01*
X175250000Y-107787701D01*
X175360098Y-107765800D01*
X175453435Y-107703435D01*
X178002246Y-105154624D01*
X180962300Y-105194624D01*
X180962300Y-108630830D01*
X172305782Y-117287348D01*
X172158367Y-117287220D01*
X171988244Y-117357513D01*
X171857971Y-117487559D01*
X171787380Y-117657559D01*
X171787220Y-117841633D01*
X171857513Y-118011756D01*
X171987559Y-118142029D01*
X172157559Y-118212620D01*
X172199262Y-118212656D01*
X167414287Y-122997631D01*
X167232748Y-122876330D01*
X166840000Y-122798208D01*
X166447252Y-122876330D01*
X166114296Y-123098804D01*
X165891822Y-123431760D01*
X165813700Y-123824508D01*
X165813700Y-124175492D01*
X165891822Y-124568240D01*
X166114296Y-124901196D01*
X166447252Y-125123670D01*
X166840000Y-125201792D01*
X167232748Y-125123670D01*
X167565704Y-124901196D01*
X167788178Y-124568240D01*
X167866300Y-124175492D01*
X167866300Y-123824508D01*
X167796166Y-123471916D01*
X183054041Y-108214041D01*
X183119658Y-108115838D01*
X183142700Y-108000000D01*
X183142700Y-105224089D01*
X183227300Y-105225232D01*
X183227300Y-109724618D01*
X169954287Y-122997631D01*
X169772748Y-122876330D01*
X169380000Y-122798208D01*
X168987252Y-122876330D01*
X168654296Y-123098804D01*
X168431822Y-123431760D01*
X168353700Y-123824508D01*
X168353700Y-124175492D01*
X168431822Y-124568240D01*
X168654296Y-124901196D01*
X168987252Y-125123670D01*
X169380000Y-125201792D01*
X169772748Y-125123670D01*
X170105704Y-124901196D01*
X170328178Y-124568240D01*
X170406300Y-124175492D01*
X170406300Y-123824508D01*
X170893700Y-123824508D01*
X170893700Y-124175492D01*
X170971822Y-124568240D01*
X171194296Y-124901196D01*
X171527252Y-125123670D01*
X171920000Y-125201792D01*
X172312748Y-125123670D01*
X172645704Y-124901196D01*
X172868178Y-124568240D01*
X172946300Y-124175492D01*
X172946300Y-123824508D01*
X173433700Y-123824508D01*
X173433700Y-124175492D01*
X173511822Y-124568240D01*
X173734296Y-124901196D01*
X174067252Y-125123670D01*
X174460000Y-125201792D01*
X174852748Y-125123670D01*
X175185704Y-124901196D01*
X175408178Y-124568240D01*
X175447316Y-124371475D01*
X175615700Y-124371475D01*
X175615700Y-125119574D01*
X175694972Y-125310953D01*
X175841447Y-125457428D01*
X176032827Y-125536700D01*
X176628525Y-125536700D01*
X176758700Y-125406525D01*
X176758700Y-124241300D01*
X177241300Y-124241300D01*
X177241300Y-125406525D01*
X177371475Y-125536700D01*
X177967173Y-125536700D01*
X178158553Y-125457428D01*
X178305028Y-125310953D01*
X178384300Y-125119574D01*
X178384300Y-124371475D01*
X178254125Y-124241300D01*
X177241300Y-124241300D01*
X176758700Y-124241300D01*
X175745875Y-124241300D01*
X175615700Y-124371475D01*
X175447316Y-124371475D01*
X175486300Y-124175492D01*
X175486300Y-123824508D01*
X175408178Y-123431760D01*
X175185704Y-123098804D01*
X174858879Y-122880426D01*
X175615700Y-122880426D01*
X175615700Y-123628525D01*
X175745875Y-123758700D01*
X176758700Y-123758700D01*
X176758700Y-122593475D01*
X177241300Y-122593475D01*
X177241300Y-123758700D01*
X178254125Y-123758700D01*
X178384300Y-123628525D01*
X178384300Y-122880426D01*
X178305028Y-122689047D01*
X178158553Y-122542572D01*
X177967173Y-122463300D01*
X177371475Y-122463300D01*
X177241300Y-122593475D01*
X176758700Y-122593475D01*
X176628525Y-122463300D01*
X176032827Y-122463300D01*
X175841447Y-122542572D01*
X175694972Y-122689047D01*
X175615700Y-122880426D01*
X174858879Y-122880426D01*
X174852748Y-122876330D01*
X174460000Y-122798208D01*
X174067252Y-122876330D01*
X173734296Y-123098804D01*
X173511822Y-123431760D01*
X173433700Y-123824508D01*
X172946300Y-123824508D01*
X172868178Y-123431760D01*
X172645704Y-123098804D01*
X172312748Y-122876330D01*
X171920000Y-122798208D01*
X171527252Y-122876330D01*
X171194296Y-123098804D01*
X170971822Y-123431760D01*
X170893700Y-123824508D01*
X170406300Y-123824508D01*
X170336166Y-123471916D01*
X183202821Y-110605261D01*
X186027098Y-110605261D01*
X186203736Y-111032756D01*
X186530523Y-111360115D01*
X186957710Y-111537498D01*
X187420261Y-111537902D01*
X187426461Y-111535340D01*
X188910909Y-111535340D01*
X189024964Y-111755923D01*
X189607088Y-111920612D01*
X190207924Y-111849996D01*
X190435036Y-111755923D01*
X190549091Y-111535340D01*
X189730000Y-110716250D01*
X188910909Y-111535340D01*
X187426461Y-111535340D01*
X187847756Y-111361264D01*
X188175115Y-111034477D01*
X188254011Y-110844474D01*
X188255004Y-110852924D01*
X188349077Y-111080036D01*
X188569660Y-111194091D01*
X189388750Y-110375000D01*
X190071250Y-110375000D01*
X190890340Y-111194091D01*
X191110923Y-111080036D01*
X191275612Y-110497912D01*
X191204996Y-109897076D01*
X191110923Y-109669964D01*
X190890340Y-109555909D01*
X190071250Y-110375000D01*
X189388750Y-110375000D01*
X188569660Y-109555909D01*
X188349077Y-109669964D01*
X188270903Y-109946286D01*
X188176264Y-109717244D01*
X187849477Y-109389885D01*
X187427488Y-109214660D01*
X188910909Y-109214660D01*
X189730000Y-110033750D01*
X190549091Y-109214660D01*
X190435036Y-108994077D01*
X189852912Y-108829388D01*
X189252076Y-108900004D01*
X189024964Y-108994077D01*
X188910909Y-109214660D01*
X187427488Y-109214660D01*
X187422290Y-109212502D01*
X186959739Y-109212098D01*
X186532244Y-109388736D01*
X186204885Y-109715523D01*
X186027502Y-110142710D01*
X186027098Y-110605261D01*
X183202821Y-110605261D01*
X183744041Y-110064041D01*
X183809658Y-109965838D01*
X183832700Y-109850000D01*
X183832700Y-105233413D01*
X185999828Y-105262699D01*
X186004782Y-105261765D01*
X186008582Y-105259362D01*
X186455158Y-104850000D01*
X188187300Y-104850000D01*
X188325284Y-105543690D01*
X188718228Y-106131772D01*
X189306310Y-106524716D01*
X190000000Y-106662700D01*
X190693690Y-106524716D01*
X191281772Y-106131772D01*
X191674716Y-105543690D01*
X191812700Y-104850000D01*
X191674716Y-104156310D01*
X191281772Y-103568228D01*
X190693690Y-103175284D01*
X190000000Y-103037300D01*
X189306310Y-103175284D01*
X188718228Y-103568228D01*
X188325284Y-104156310D01*
X188187300Y-104850000D01*
X186455158Y-104850000D01*
X189003452Y-102514064D01*
X191297811Y-103125893D01*
X192785959Y-104614041D01*
X192884162Y-104679658D01*
X193000000Y-104702700D01*
X193048386Y-104702700D01*
X193137559Y-104792029D01*
X193307559Y-104862620D01*
X193491633Y-104862780D01*
X193661756Y-104792487D01*
X193792029Y-104662441D01*
X193862620Y-104492441D01*
X193862780Y-104308367D01*
X193792487Y-104138244D01*
X193662441Y-104007971D01*
X193492441Y-103937380D01*
X193308367Y-103937220D01*
X193138244Y-104007513D01*
X193086875Y-104058793D01*
X192913595Y-103885513D01*
X193000000Y-103902700D01*
X193648386Y-103902700D01*
X193737559Y-103992029D01*
X193907559Y-104062620D01*
X194091633Y-104062780D01*
X194261756Y-103992487D01*
X194322003Y-103932345D01*
X196487300Y-104509757D01*
X196487300Y-117812300D01*
X180000000Y-117812300D01*
X179928170Y-117826588D01*
X179867276Y-117867276D01*
X179826588Y-117928170D01*
X179812300Y-118000000D01*
X179812300Y-126812300D01*
X171018485Y-126812300D01*
X156913952Y-124006734D01*
X148991207Y-118712925D01*
X159139665Y-118712925D01*
X159284800Y-119086140D01*
X159561712Y-119375405D01*
X159928242Y-119536682D01*
X160328589Y-119545417D01*
X160674240Y-119484469D01*
X161047456Y-119339334D01*
X161336721Y-119062422D01*
X161497998Y-118695892D01*
X161506733Y-118295545D01*
X161361597Y-117922330D01*
X161084686Y-117633065D01*
X160718156Y-117471788D01*
X160317809Y-117463053D01*
X159972157Y-117524001D01*
X159598942Y-117669136D01*
X159309677Y-117946048D01*
X159148400Y-118312578D01*
X159139665Y-118712925D01*
X148991207Y-118712925D01*
X145247578Y-116211513D01*
X158698599Y-116211513D01*
X158843734Y-116584728D01*
X159120646Y-116873993D01*
X159487176Y-117035270D01*
X159887523Y-117044005D01*
X160233174Y-116983057D01*
X160606390Y-116837922D01*
X160895655Y-116561010D01*
X161056932Y-116194480D01*
X161065667Y-115794133D01*
X160920531Y-115420918D01*
X160643620Y-115131653D01*
X160277090Y-114970376D01*
X159876743Y-114961641D01*
X159531091Y-115022589D01*
X159157876Y-115167724D01*
X158868611Y-115444636D01*
X158707334Y-115811166D01*
X158698599Y-116211513D01*
X145247578Y-116211513D01*
X144972373Y-116027627D01*
X143423853Y-113710102D01*
X158257532Y-113710102D01*
X158402667Y-114083317D01*
X158679579Y-114372582D01*
X159046109Y-114533859D01*
X159446456Y-114542594D01*
X159792107Y-114481646D01*
X160165323Y-114336511D01*
X160454588Y-114059599D01*
X160615865Y-113693069D01*
X160624600Y-113292722D01*
X160479464Y-112919507D01*
X160202553Y-112630242D01*
X159836023Y-112468965D01*
X159435676Y-112460230D01*
X159090024Y-112521178D01*
X158716809Y-112666313D01*
X158427544Y-112943225D01*
X158266267Y-113309755D01*
X158257532Y-113710102D01*
X143423853Y-113710102D01*
X140454823Y-109266633D01*
X152862220Y-109266633D01*
X152932513Y-109436756D01*
X153062559Y-109567029D01*
X153232559Y-109637620D01*
X153416633Y-109637780D01*
X153586756Y-109567487D01*
X153641639Y-109512700D01*
X153885120Y-109512700D01*
X155611210Y-111238790D01*
X155720768Y-111311994D01*
X155850000Y-111337700D01*
X157866635Y-111337700D01*
X157961601Y-111581905D01*
X158238513Y-111871170D01*
X158605043Y-112032447D01*
X159005390Y-112041182D01*
X159351041Y-111980234D01*
X159724257Y-111835099D01*
X159813152Y-111750000D01*
X164737300Y-111750000D01*
X164737300Y-117750000D01*
X164738301Y-117754941D01*
X164741145Y-117759103D01*
X164745384Y-117761831D01*
X164750000Y-117762700D01*
X171500000Y-117762700D01*
X171504941Y-117761699D01*
X171509103Y-117758855D01*
X171511831Y-117754616D01*
X171512700Y-117750000D01*
X171512700Y-111750000D01*
X171511699Y-111745059D01*
X171508855Y-111740897D01*
X171504616Y-111738169D01*
X171500000Y-111737300D01*
X164750000Y-111737300D01*
X164745059Y-111738301D01*
X164740897Y-111741145D01*
X164738169Y-111745384D01*
X164737300Y-111750000D01*
X159813152Y-111750000D01*
X160013522Y-111558187D01*
X160174799Y-111191657D01*
X160183534Y-110791310D01*
X160038398Y-110418095D01*
X159761487Y-110128830D01*
X159394957Y-109967553D01*
X158994610Y-109958818D01*
X158648958Y-110019766D01*
X158275743Y-110164901D01*
X157986478Y-110441813D01*
X157889461Y-110662300D01*
X155989880Y-110662300D01*
X154524570Y-109196990D01*
X157198566Y-109196990D01*
X157388677Y-109453495D01*
X157821633Y-109773225D01*
X158343987Y-109902931D01*
X158537728Y-109767916D01*
X158363201Y-108778123D01*
X157238756Y-108976394D01*
X157198566Y-109196990D01*
X154524570Y-109196990D01*
X154263790Y-108936210D01*
X154154232Y-108863006D01*
X154025000Y-108837300D01*
X153641675Y-108837300D01*
X153587441Y-108782971D01*
X153417441Y-108712380D01*
X153233367Y-108712220D01*
X153063244Y-108782513D01*
X152932971Y-108912559D01*
X152862380Y-109082559D01*
X152862220Y-109266633D01*
X140454823Y-109266633D01*
X140072417Y-108694321D01*
X158838469Y-108694321D01*
X159012997Y-109684114D01*
X159241232Y-109744723D01*
X159687722Y-109444183D01*
X159985213Y-108995656D01*
X160076129Y-108689598D01*
X159962915Y-108496051D01*
X158838469Y-108694321D01*
X140072417Y-108694321D01*
X139814004Y-108307578D01*
X157041739Y-108307578D01*
X157154953Y-108501125D01*
X158279399Y-108302855D01*
X158104871Y-107313062D01*
X157876636Y-107252453D01*
X157430146Y-107552993D01*
X157132655Y-108001520D01*
X157041739Y-108307578D01*
X139814004Y-108307578D01*
X139093495Y-107229260D01*
X158580140Y-107229260D01*
X158754667Y-108219053D01*
X159879112Y-108020782D01*
X159919302Y-107800186D01*
X159729191Y-107543681D01*
X159296235Y-107223951D01*
X158773881Y-107094245D01*
X158580140Y-107229260D01*
X139093495Y-107229260D01*
X138409685Y-106205867D01*
X156934333Y-106205867D01*
X157079468Y-106579082D01*
X157356380Y-106868347D01*
X157722910Y-107029624D01*
X158123257Y-107038359D01*
X158468908Y-106977411D01*
X158842124Y-106832276D01*
X159131389Y-106555364D01*
X159292666Y-106188834D01*
X159301401Y-105788487D01*
X159156265Y-105415272D01*
X158879354Y-105126007D01*
X158512824Y-104964730D01*
X158112477Y-104955995D01*
X157766825Y-105016943D01*
X157393610Y-105162078D01*
X157104345Y-105438990D01*
X156943068Y-105805520D01*
X156934333Y-106205867D01*
X138409685Y-106205867D01*
X137278043Y-104512246D01*
X148237762Y-104512246D01*
X148315884Y-104904994D01*
X148538358Y-105237950D01*
X148871314Y-105460424D01*
X149264062Y-105538546D01*
X149656810Y-105460424D01*
X149989766Y-105237950D01*
X150237950Y-104989766D01*
X150460424Y-104656810D01*
X150538546Y-104264062D01*
X150460424Y-103871314D01*
X150237950Y-103538358D01*
X149904994Y-103315884D01*
X149512246Y-103237762D01*
X149119498Y-103315884D01*
X148786542Y-103538358D01*
X148538358Y-103786542D01*
X148315884Y-104119498D01*
X148237762Y-104512246D01*
X137278043Y-104512246D01*
X136993266Y-104086048D01*
X136720786Y-102716194D01*
X146441710Y-102716194D01*
X146519832Y-103108942D01*
X146742306Y-103441898D01*
X147075262Y-103664372D01*
X147468010Y-103742494D01*
X147860758Y-103664372D01*
X148193714Y-103441898D01*
X148441898Y-103193714D01*
X148664372Y-102860758D01*
X148666408Y-102850518D01*
X156362907Y-102850518D01*
X156662832Y-104551478D01*
X156684474Y-104608885D01*
X156729182Y-104657231D01*
X156789177Y-104684375D01*
X156855005Y-104686039D01*
X158856134Y-104333185D01*
X158913541Y-104311543D01*
X158961887Y-104266835D01*
X158989031Y-104206840D01*
X158990695Y-104141012D01*
X158830140Y-103230457D01*
X163187115Y-103230457D01*
X163348561Y-103621185D01*
X163647243Y-103920388D01*
X164037688Y-104082516D01*
X164460457Y-104082885D01*
X164851185Y-103921439D01*
X165150388Y-103622757D01*
X165312516Y-103232312D01*
X165312885Y-102809543D01*
X165151439Y-102418815D01*
X164852757Y-102119612D01*
X164462312Y-101957484D01*
X164039543Y-101957115D01*
X163648815Y-102118561D01*
X163349612Y-102417243D01*
X163187484Y-102807688D01*
X163187115Y-103230457D01*
X158830140Y-103230457D01*
X158690770Y-102440052D01*
X158669128Y-102382645D01*
X158624420Y-102334299D01*
X158599595Y-102323067D01*
X160715948Y-102323067D01*
X160848711Y-102644378D01*
X161094329Y-102890425D01*
X161415408Y-103023748D01*
X161763067Y-103024052D01*
X162084378Y-102891289D01*
X162330425Y-102645671D01*
X162463748Y-102324592D01*
X162464052Y-101976933D01*
X162331289Y-101655622D01*
X162085671Y-101409575D01*
X161764592Y-101276252D01*
X161416933Y-101275948D01*
X161095622Y-101408711D01*
X160849575Y-101654329D01*
X160716252Y-101975408D01*
X160715948Y-102323067D01*
X158599595Y-102323067D01*
X158564425Y-102307155D01*
X158498597Y-102305491D01*
X156497468Y-102658345D01*
X156440061Y-102679987D01*
X156391715Y-102724695D01*
X156364571Y-102784690D01*
X156362907Y-102850518D01*
X148666408Y-102850518D01*
X148742494Y-102468010D01*
X148664372Y-102075262D01*
X148441898Y-101742306D01*
X148108942Y-101519832D01*
X147716194Y-101441710D01*
X147323446Y-101519832D01*
X146990490Y-101742306D01*
X146742306Y-101990490D01*
X146519832Y-102323446D01*
X146441710Y-102716194D01*
X136720786Y-102716194D01*
X136363530Y-100920143D01*
X144645659Y-100920143D01*
X144723781Y-101312891D01*
X144946255Y-101645847D01*
X145279211Y-101868321D01*
X145671959Y-101946443D01*
X146064707Y-101868321D01*
X146397663Y-101645847D01*
X146645847Y-101397663D01*
X146868321Y-101064707D01*
X146946443Y-100671959D01*
X146868321Y-100279211D01*
X146645847Y-99946255D01*
X146401619Y-99783067D01*
X160715948Y-99783067D01*
X160848711Y-100104378D01*
X161094329Y-100350425D01*
X161415408Y-100483748D01*
X161763067Y-100484052D01*
X162084378Y-100351289D01*
X162330425Y-100105671D01*
X162463748Y-99784592D01*
X162464052Y-99436933D01*
X162331289Y-99115622D01*
X162085671Y-98869575D01*
X161764592Y-98736252D01*
X161416933Y-98735948D01*
X161095622Y-98868711D01*
X160849575Y-99114329D01*
X160716252Y-99435408D01*
X160715948Y-99783067D01*
X146401619Y-99783067D01*
X146312891Y-99723781D01*
X145920143Y-99645659D01*
X145527395Y-99723781D01*
X145194439Y-99946255D01*
X144946255Y-100194439D01*
X144723781Y-100527395D01*
X144645659Y-100920143D01*
X136363530Y-100920143D01*
X136006274Y-99124092D01*
X142849608Y-99124092D01*
X142927730Y-99516840D01*
X143150204Y-99849796D01*
X143483160Y-100072270D01*
X143875908Y-100150392D01*
X144268656Y-100072270D01*
X144601612Y-99849796D01*
X144849796Y-99601612D01*
X145072270Y-99268656D01*
X145150392Y-98875908D01*
X145072270Y-98483160D01*
X144849796Y-98150204D01*
X144516840Y-97927730D01*
X144124092Y-97849608D01*
X143731344Y-97927730D01*
X143398388Y-98150204D01*
X143150204Y-98398388D01*
X142927730Y-98731344D01*
X142849608Y-99124092D01*
X136006274Y-99124092D01*
X135852808Y-98352568D01*
X141396580Y-98352568D01*
X141490188Y-98556321D01*
X141793043Y-98657395D01*
X142331089Y-98670969D01*
X142833373Y-98477608D01*
X142914635Y-98255885D01*
X142203949Y-97545199D01*
X141396580Y-98352568D01*
X135852808Y-98352568D01*
X135599043Y-97076809D01*
X140736929Y-97076809D01*
X140750503Y-97614855D01*
X140851577Y-97917710D01*
X141055330Y-98011318D01*
X141862699Y-97203949D01*
X142545199Y-97203949D01*
X143255885Y-97914635D01*
X143477608Y-97833373D01*
X143670969Y-97331089D01*
X143668749Y-97243067D01*
X160715948Y-97243067D01*
X160848711Y-97564378D01*
X161094329Y-97810425D01*
X161415408Y-97943748D01*
X161763067Y-97944052D01*
X162084378Y-97811289D01*
X162330425Y-97565671D01*
X162463748Y-97244592D01*
X162464052Y-96896933D01*
X162331289Y-96575622D01*
X162085671Y-96329575D01*
X161764592Y-96196252D01*
X161416933Y-96195948D01*
X161095622Y-96328711D01*
X160849575Y-96574329D01*
X160716252Y-96895408D01*
X160715948Y-97243067D01*
X143668749Y-97243067D01*
X143657395Y-96793043D01*
X143556321Y-96490188D01*
X143352568Y-96396580D01*
X142545199Y-97203949D01*
X141862699Y-97203949D01*
X141152013Y-96493263D01*
X140930290Y-96574525D01*
X140736929Y-97076809D01*
X135599043Y-97076809D01*
X135291759Y-95531990D01*
X139257506Y-95531990D01*
X139335628Y-95924738D01*
X139558102Y-96257694D01*
X139891058Y-96480168D01*
X140283806Y-96558290D01*
X140676554Y-96480168D01*
X141009510Y-96257694D01*
X141115191Y-96152013D01*
X141493263Y-96152013D01*
X142203949Y-96862699D01*
X143011318Y-96055330D01*
X142917710Y-95851577D01*
X142614855Y-95750503D01*
X142076809Y-95736929D01*
X141574525Y-95930290D01*
X141493263Y-96152013D01*
X141115191Y-96152013D01*
X141257694Y-96009510D01*
X141480168Y-95676554D01*
X141546787Y-95341633D01*
X145617220Y-95341633D01*
X145687513Y-95511756D01*
X145817559Y-95642029D01*
X145987559Y-95712620D01*
X146171633Y-95712780D01*
X146341756Y-95642487D01*
X146371595Y-95612700D01*
X151418281Y-95612700D01*
X151447559Y-95642029D01*
X151617559Y-95712620D01*
X151801633Y-95712780D01*
X151971756Y-95642487D01*
X152102029Y-95512441D01*
X152116235Y-95478228D01*
X160983022Y-95478228D01*
X161060689Y-95669058D01*
X161536879Y-95784911D01*
X162021156Y-95709715D01*
X162119311Y-95669058D01*
X162196978Y-95478228D01*
X161590000Y-94871250D01*
X160983022Y-95478228D01*
X152116235Y-95478228D01*
X152172620Y-95342441D01*
X152172780Y-95158367D01*
X152102487Y-94988244D01*
X151972441Y-94857971D01*
X151802441Y-94787380D01*
X151618367Y-94787220D01*
X151448244Y-94857513D01*
X151418405Y-94887300D01*
X146371719Y-94887300D01*
X146342441Y-94857971D01*
X146172441Y-94787380D01*
X145988367Y-94787220D01*
X145818244Y-94857513D01*
X145687971Y-94987559D01*
X145617380Y-95157559D01*
X145617220Y-95341633D01*
X141546787Y-95341633D01*
X141558290Y-95283806D01*
X141480168Y-94891058D01*
X141257694Y-94558102D01*
X141136136Y-94476879D01*
X160335089Y-94476879D01*
X160410285Y-94961156D01*
X160450942Y-95059311D01*
X160641772Y-95136978D01*
X161248750Y-94530000D01*
X160641772Y-93923022D01*
X160450942Y-94000689D01*
X160335089Y-94476879D01*
X141136136Y-94476879D01*
X140924738Y-94335628D01*
X140531990Y-94257506D01*
X140139242Y-94335628D01*
X139806286Y-94558102D01*
X139558102Y-94806286D01*
X139335628Y-95139242D01*
X139257506Y-95531990D01*
X135291759Y-95531990D01*
X134930798Y-93717317D01*
X137116897Y-93717317D01*
X137129074Y-93782031D01*
X137165468Y-93836909D01*
X138386783Y-95058224D01*
X138437439Y-95092835D01*
X138501791Y-95106795D01*
X138566505Y-95094618D01*
X138621383Y-95058224D01*
X140058224Y-93621383D01*
X140085288Y-93581772D01*
X160983022Y-93581772D01*
X161590000Y-94188750D01*
X162196978Y-93581772D01*
X162119311Y-93390942D01*
X161643121Y-93275089D01*
X161158844Y-93350285D01*
X161060689Y-93390942D01*
X160983022Y-93581772D01*
X140085288Y-93581772D01*
X140092835Y-93570727D01*
X140106795Y-93506375D01*
X140094618Y-93441661D01*
X140058224Y-93386783D01*
X139609669Y-92938228D01*
X160983022Y-92938228D01*
X161060689Y-93129058D01*
X161536879Y-93244911D01*
X162021156Y-93169715D01*
X162119311Y-93129058D01*
X162196978Y-92938228D01*
X161590000Y-92331250D01*
X160983022Y-92938228D01*
X139609669Y-92938228D01*
X138836909Y-92165468D01*
X138786253Y-92130857D01*
X138721901Y-92116897D01*
X138657187Y-92129074D01*
X138602309Y-92165468D01*
X137165468Y-93602309D01*
X137130857Y-93652965D01*
X137116897Y-93717317D01*
X134930798Y-93717317D01*
X134557701Y-91841633D01*
X153287220Y-91841633D01*
X153357513Y-92011756D01*
X153487559Y-92142029D01*
X153657559Y-92212620D01*
X153841633Y-92212780D01*
X154011756Y-92142487D01*
X154101700Y-92052700D01*
X155250000Y-92052700D01*
X155365838Y-92029658D01*
X155464041Y-91964041D01*
X155491203Y-91936879D01*
X160335089Y-91936879D01*
X160410285Y-92421156D01*
X160450942Y-92519311D01*
X160641772Y-92596978D01*
X161248750Y-91990000D01*
X161931250Y-91990000D01*
X162538228Y-92596978D01*
X162729058Y-92519311D01*
X162844911Y-92043121D01*
X162769715Y-91558844D01*
X162729058Y-91460689D01*
X162538228Y-91383022D01*
X161931250Y-91990000D01*
X161248750Y-91990000D01*
X160641772Y-91383022D01*
X160450942Y-91460689D01*
X160335089Y-91936879D01*
X155491203Y-91936879D01*
X156386310Y-91041772D01*
X160983022Y-91041772D01*
X161590000Y-91648750D01*
X162196978Y-91041772D01*
X162119311Y-90850942D01*
X161643121Y-90735089D01*
X161158844Y-90810285D01*
X161060689Y-90850942D01*
X160983022Y-91041772D01*
X156386310Y-91041772D01*
X156965412Y-90462670D01*
X157091633Y-90462780D01*
X157261756Y-90392487D01*
X157392029Y-90262441D01*
X157462620Y-90092441D01*
X157462780Y-89908367D01*
X157392487Y-89738244D01*
X157277511Y-89623067D01*
X160715948Y-89623067D01*
X160848711Y-89944378D01*
X161094329Y-90190425D01*
X161415408Y-90323748D01*
X161763067Y-90324052D01*
X162084378Y-90191289D01*
X162330425Y-89945671D01*
X162463748Y-89624592D01*
X162464052Y-89276933D01*
X162331289Y-88955622D01*
X162085671Y-88709575D01*
X161764592Y-88576252D01*
X161416933Y-88575948D01*
X161095622Y-88708711D01*
X160849575Y-88954329D01*
X160716252Y-89275408D01*
X160715948Y-89623067D01*
X157277511Y-89623067D01*
X157262441Y-89607971D01*
X157092441Y-89537380D01*
X156908367Y-89537220D01*
X156738244Y-89607513D01*
X156607971Y-89737559D01*
X156537380Y-89907559D01*
X156537270Y-90034648D01*
X155124618Y-91447300D01*
X154101614Y-91447300D01*
X154012441Y-91357971D01*
X153842441Y-91287380D01*
X153658367Y-91287220D01*
X153488244Y-91357513D01*
X153357971Y-91487559D01*
X153287380Y-91657559D01*
X153287220Y-91841633D01*
X134557701Y-91841633D01*
X134209604Y-90091633D01*
X153287220Y-90091633D01*
X153357513Y-90261756D01*
X153487559Y-90392029D01*
X153657559Y-90462620D01*
X153841633Y-90462780D01*
X154011756Y-90392487D01*
X154101700Y-90302700D01*
X155500000Y-90302700D01*
X155615838Y-90279658D01*
X155714041Y-90214041D01*
X156464041Y-89464041D01*
X156529658Y-89365838D01*
X156552700Y-89250000D01*
X156552700Y-86351614D01*
X156642029Y-86262441D01*
X156712620Y-86092441D01*
X156712780Y-85908367D01*
X156642487Y-85738244D01*
X156512441Y-85607971D01*
X156342441Y-85537380D01*
X156158367Y-85537220D01*
X155988244Y-85607513D01*
X155857971Y-85737559D01*
X155787380Y-85907559D01*
X155787220Y-86091633D01*
X155857513Y-86261756D01*
X155947300Y-86351700D01*
X155947300Y-89124618D01*
X155374618Y-89697300D01*
X154101614Y-89697300D01*
X154012441Y-89607971D01*
X153842441Y-89537380D01*
X153658367Y-89537220D01*
X153488244Y-89607513D01*
X153357971Y-89737559D01*
X153287380Y-89907559D01*
X153287220Y-90091633D01*
X134209604Y-90091633D01*
X134191377Y-90000000D01*
X134934501Y-86264062D01*
X137461454Y-86264062D01*
X137539576Y-86656810D01*
X137762050Y-86989766D01*
X138010234Y-87237950D01*
X138343190Y-87460424D01*
X138735938Y-87538546D01*
X139128686Y-87460424D01*
X139461642Y-87237950D01*
X139684116Y-86904994D01*
X139762238Y-86512246D01*
X139684116Y-86119498D01*
X139461642Y-85786542D01*
X139213458Y-85538358D01*
X138880502Y-85315884D01*
X138487754Y-85237762D01*
X138095006Y-85315884D01*
X137762050Y-85538358D01*
X137539576Y-85871314D01*
X137461454Y-86264062D01*
X134934501Y-86264062D01*
X135291757Y-84468010D01*
X139257506Y-84468010D01*
X139335628Y-84860758D01*
X139558102Y-85193714D01*
X139806286Y-85441898D01*
X140139242Y-85664372D01*
X140531990Y-85742494D01*
X140924738Y-85664372D01*
X141048565Y-85581633D01*
X146357220Y-85581633D01*
X146427513Y-85751756D01*
X146557559Y-85882029D01*
X146727559Y-85952620D01*
X146911633Y-85952780D01*
X147081756Y-85882487D01*
X147111595Y-85852700D01*
X150878281Y-85852700D01*
X150907559Y-85882029D01*
X151077559Y-85952620D01*
X151261633Y-85952780D01*
X151431756Y-85882487D01*
X151562029Y-85752441D01*
X151632620Y-85582441D01*
X151632780Y-85398367D01*
X151562487Y-85228244D01*
X151432441Y-85097971D01*
X151417178Y-85091633D01*
X153287220Y-85091633D01*
X153357513Y-85261756D01*
X153487559Y-85392029D01*
X153657559Y-85462620D01*
X153841633Y-85462780D01*
X154011756Y-85392487D01*
X154101700Y-85302700D01*
X157398386Y-85302700D01*
X157487559Y-85392029D01*
X157657559Y-85462620D01*
X157841633Y-85462780D01*
X158011756Y-85392487D01*
X158142029Y-85262441D01*
X158212620Y-85092441D01*
X158212780Y-84908367D01*
X158142487Y-84738244D01*
X158012441Y-84607971D01*
X157842441Y-84537380D01*
X157658367Y-84537220D01*
X157488244Y-84607513D01*
X157398300Y-84697300D01*
X154101614Y-84697300D01*
X154012441Y-84607971D01*
X153842441Y-84537380D01*
X153658367Y-84537220D01*
X153488244Y-84607513D01*
X153357971Y-84737559D01*
X153287380Y-84907559D01*
X153287220Y-85091633D01*
X151417178Y-85091633D01*
X151262441Y-85027380D01*
X151078367Y-85027220D01*
X150908244Y-85097513D01*
X150878405Y-85127300D01*
X147111719Y-85127300D01*
X147082441Y-85097971D01*
X146912441Y-85027380D01*
X146728367Y-85027220D01*
X146558244Y-85097513D01*
X146427971Y-85227559D01*
X146357380Y-85397559D01*
X146357220Y-85581633D01*
X141048565Y-85581633D01*
X141257694Y-85441898D01*
X141480168Y-85108942D01*
X141558290Y-84716194D01*
X141480168Y-84323446D01*
X141257694Y-83990490D01*
X141009510Y-83742306D01*
X140676554Y-83519832D01*
X140283806Y-83441710D01*
X139891058Y-83519832D01*
X139558102Y-83742306D01*
X139335628Y-84075262D01*
X139257506Y-84468010D01*
X135291757Y-84468010D01*
X135649013Y-82671959D01*
X141053557Y-82671959D01*
X141131679Y-83064707D01*
X141354153Y-83397663D01*
X141602337Y-83645847D01*
X141935293Y-83868321D01*
X142328041Y-83946443D01*
X142435005Y-83925167D01*
X142444108Y-83938790D01*
X142457525Y-83947755D01*
X142467715Y-83960264D01*
X142511913Y-83984095D01*
X142553666Y-84011994D01*
X142569491Y-84015142D01*
X142583694Y-84022800D01*
X142633649Y-84027904D01*
X142682898Y-84037700D01*
X147858325Y-84037700D01*
X147912559Y-84092029D01*
X148082559Y-84162620D01*
X148266633Y-84162780D01*
X148436756Y-84092487D01*
X148567029Y-83962441D01*
X148637620Y-83792441D01*
X148637780Y-83608367D01*
X148567487Y-83438244D01*
X148467118Y-83337700D01*
X148583325Y-83337700D01*
X148637559Y-83392029D01*
X148807559Y-83462620D01*
X148991633Y-83462780D01*
X149161756Y-83392487D01*
X149292029Y-83262441D01*
X149362620Y-83092441D01*
X149362780Y-82908367D01*
X149292487Y-82738244D01*
X149162441Y-82607971D01*
X148992441Y-82537380D01*
X148808367Y-82537220D01*
X148638244Y-82607513D01*
X148583361Y-82662300D01*
X146139880Y-82662300D01*
X145041088Y-81563508D01*
X145072270Y-81516840D01*
X145150392Y-81124092D01*
X145072270Y-80731344D01*
X144849796Y-80398388D01*
X144707293Y-80255885D01*
X145085365Y-80255885D01*
X145166627Y-80477608D01*
X145668911Y-80670969D01*
X146206957Y-80657395D01*
X146509812Y-80556321D01*
X146596958Y-80366633D01*
X148937220Y-80366633D01*
X149007513Y-80536756D01*
X149137559Y-80667029D01*
X149307559Y-80737620D01*
X149491633Y-80737780D01*
X149661756Y-80667487D01*
X149792029Y-80537441D01*
X149862620Y-80367441D01*
X149862687Y-80289893D01*
X150489880Y-79662700D01*
X151208325Y-79662700D01*
X151262559Y-79717029D01*
X151432559Y-79787620D01*
X151616633Y-79787780D01*
X151786756Y-79717487D01*
X151917029Y-79587441D01*
X151987620Y-79417441D01*
X151987780Y-79233367D01*
X151917487Y-79063244D01*
X151787441Y-78932971D01*
X151617441Y-78862380D01*
X151433367Y-78862220D01*
X151263244Y-78932513D01*
X151208361Y-78987300D01*
X150350000Y-78987300D01*
X150220768Y-79013006D01*
X150111210Y-79086210D01*
X149385133Y-79812287D01*
X149308367Y-79812220D01*
X149138244Y-79882513D01*
X149007971Y-80012559D01*
X148937380Y-80182559D01*
X148937220Y-80366633D01*
X146596958Y-80366633D01*
X146603420Y-80352568D01*
X145796051Y-79545199D01*
X145085365Y-80255885D01*
X144707293Y-80255885D01*
X144601612Y-80150204D01*
X144268656Y-79927730D01*
X143875908Y-79849608D01*
X143483160Y-79927730D01*
X143150204Y-80150204D01*
X142927730Y-80483160D01*
X142849608Y-80875908D01*
X142927730Y-81268656D01*
X143150204Y-81601612D01*
X143398388Y-81849796D01*
X143731344Y-82072270D01*
X144124092Y-82150392D01*
X144516840Y-82072270D01*
X144563508Y-82041088D01*
X145761210Y-83238790D01*
X145870768Y-83311994D01*
X146000000Y-83337700D01*
X147883004Y-83337700D01*
X147858361Y-83362300D01*
X143243205Y-83362300D01*
X143276219Y-83312891D01*
X143354341Y-82920143D01*
X143276219Y-82527395D01*
X143053745Y-82194439D01*
X142805561Y-81946255D01*
X142472605Y-81723781D01*
X142079857Y-81645659D01*
X141687109Y-81723781D01*
X141354153Y-81946255D01*
X141131679Y-82279211D01*
X141053557Y-82671959D01*
X135649013Y-82671959D01*
X136313554Y-79331089D01*
X144329031Y-79331089D01*
X144522392Y-79833373D01*
X144744115Y-79914635D01*
X145454801Y-79203949D01*
X146137301Y-79203949D01*
X146944670Y-80011318D01*
X147148423Y-79917710D01*
X147249497Y-79614855D01*
X147263071Y-79076809D01*
X147069710Y-78574525D01*
X146847987Y-78493263D01*
X146137301Y-79203949D01*
X145454801Y-79203949D01*
X144647432Y-78396580D01*
X144443679Y-78490188D01*
X144342605Y-78793043D01*
X144329031Y-79331089D01*
X136313554Y-79331089D01*
X136567318Y-78055330D01*
X144988682Y-78055330D01*
X145796051Y-78862699D01*
X146506737Y-78152013D01*
X146425475Y-77930290D01*
X145923191Y-77736929D01*
X145385145Y-77750503D01*
X145082290Y-77851577D01*
X144988682Y-78055330D01*
X136567318Y-78055330D01*
X136720784Y-77283806D01*
X146441710Y-77283806D01*
X146519832Y-77676554D01*
X146742306Y-78009510D01*
X146990490Y-78257694D01*
X147323446Y-78480168D01*
X147716194Y-78558290D01*
X148108942Y-78480168D01*
X148441898Y-78257694D01*
X148664372Y-77924738D01*
X148742494Y-77531990D01*
X148664372Y-77139242D01*
X148441898Y-76806286D01*
X148193714Y-76558102D01*
X147860758Y-76335628D01*
X147468010Y-76257506D01*
X147075262Y-76335628D01*
X146742306Y-76558102D01*
X146519832Y-76891058D01*
X146441710Y-77283806D01*
X136720784Y-77283806D01*
X136993266Y-75913952D01*
X137268663Y-75501791D01*
X147893205Y-75501791D01*
X147905382Y-75566505D01*
X147941776Y-75621383D01*
X149378617Y-77058224D01*
X149429273Y-77092835D01*
X149493625Y-77106795D01*
X149558339Y-77094618D01*
X149613217Y-77058224D01*
X150834532Y-75836909D01*
X150869143Y-75786253D01*
X150883103Y-75721901D01*
X150870926Y-75657187D01*
X150834532Y-75602309D01*
X149397691Y-74165468D01*
X149347035Y-74130857D01*
X149282683Y-74116897D01*
X149217969Y-74129074D01*
X149163091Y-74165468D01*
X147941776Y-75386783D01*
X147907165Y-75437439D01*
X147893205Y-75501791D01*
X137268663Y-75501791D01*
X144972373Y-63972373D01*
X156913952Y-55993266D01*
X157762355Y-55824508D01*
X165813700Y-55824508D01*
X165813700Y-56175492D01*
X165891822Y-56568240D01*
X166114296Y-56901196D01*
X166447252Y-57123670D01*
X166840000Y-57201792D01*
X167232748Y-57123670D01*
X167565704Y-56901196D01*
X167788178Y-56568240D01*
X167866300Y-56175492D01*
X167866300Y-55824508D01*
X168353700Y-55824508D01*
X168353700Y-56175492D01*
X168431822Y-56568240D01*
X168654296Y-56901196D01*
X168987252Y-57123670D01*
X169380000Y-57201792D01*
X169772748Y-57123670D01*
X170105704Y-56901196D01*
X170328178Y-56568240D01*
X170350594Y-56455543D01*
X170574317Y-56455543D01*
X170792759Y-56947438D01*
X171182813Y-57318296D01*
X171468434Y-57460977D01*
X171678700Y-57383092D01*
X171678700Y-56241300D01*
X172161300Y-56241300D01*
X172161300Y-57383092D01*
X172371566Y-57460977D01*
X172657187Y-57318296D01*
X173047241Y-56947438D01*
X173265683Y-56455543D01*
X173166362Y-56241300D01*
X172161300Y-56241300D01*
X171678700Y-56241300D01*
X170673638Y-56241300D01*
X170574317Y-56455543D01*
X170350594Y-56455543D01*
X170406300Y-56175492D01*
X170406300Y-55824508D01*
X173433700Y-55824508D01*
X173433700Y-56175492D01*
X173511822Y-56568240D01*
X173734296Y-56901196D01*
X174067252Y-57123670D01*
X174460000Y-57201792D01*
X174852748Y-57123670D01*
X175185704Y-56901196D01*
X175408178Y-56568240D01*
X175486300Y-56175492D01*
X175486300Y-55824508D01*
X175408178Y-55431760D01*
X175185704Y-55098804D01*
X175013888Y-54984000D01*
X175970513Y-54984000D01*
X175970513Y-57016000D01*
X175981858Y-57076293D01*
X176017491Y-57131668D01*
X176071861Y-57168817D01*
X176136400Y-57181887D01*
X177863600Y-57181887D01*
X177923893Y-57170542D01*
X177979268Y-57134909D01*
X178016417Y-57080539D01*
X178029487Y-57016000D01*
X178029487Y-54984000D01*
X178018142Y-54923707D01*
X177982509Y-54868332D01*
X177928139Y-54831183D01*
X177863600Y-54818113D01*
X176136400Y-54818113D01*
X176076107Y-54829458D01*
X176020732Y-54865091D01*
X175983583Y-54919461D01*
X175970513Y-54984000D01*
X175013888Y-54984000D01*
X174852748Y-54876330D01*
X174460000Y-54798208D01*
X174067252Y-54876330D01*
X173734296Y-55098804D01*
X173511822Y-55431760D01*
X173433700Y-55824508D01*
X170406300Y-55824508D01*
X170350595Y-55544457D01*
X170574317Y-55544457D01*
X170673638Y-55758700D01*
X171678700Y-55758700D01*
X171678700Y-54616908D01*
X172161300Y-54616908D01*
X172161300Y-55758700D01*
X173166362Y-55758700D01*
X173265683Y-55544457D01*
X173047241Y-55052562D01*
X172657187Y-54681704D01*
X172371566Y-54539023D01*
X172161300Y-54616908D01*
X171678700Y-54616908D01*
X171468434Y-54539023D01*
X171182813Y-54681704D01*
X170792759Y-55052562D01*
X170574317Y-55544457D01*
X170350595Y-55544457D01*
X170328178Y-55431760D01*
X170105704Y-55098804D01*
X169772748Y-54876330D01*
X169380000Y-54798208D01*
X168987252Y-54876330D01*
X168654296Y-55098804D01*
X168431822Y-55431760D01*
X168353700Y-55824508D01*
X167866300Y-55824508D01*
X167788178Y-55431760D01*
X167565704Y-55098804D01*
X167232748Y-54876330D01*
X166840000Y-54798208D01*
X166447252Y-54876330D01*
X166114296Y-55098804D01*
X165891822Y-55431760D01*
X165813700Y-55824508D01*
X157762355Y-55824508D01*
X171018485Y-53187700D01*
X179812300Y-53187700D01*
X179812300Y-62000000D01*
X179812300Y-62000000D01*
G37*
X179812300Y-62000000D02*
X179826588Y-62071830D01*
X179867276Y-62132724D01*
X179928170Y-62173412D01*
X180000000Y-62187700D01*
X196987300Y-62187700D01*
X196987300Y-77987300D01*
X189000000Y-77987300D01*
X188995059Y-77988301D01*
X188990897Y-77991145D01*
X188988169Y-77995384D01*
X188987300Y-78000000D01*
X188987300Y-81237300D01*
X185000000Y-81237300D01*
X184994320Y-81238641D01*
X182997002Y-82237300D01*
X176005260Y-82237300D01*
X172508980Y-78741020D01*
X172504779Y-78738233D01*
X172500000Y-78737300D01*
X171562700Y-78737300D01*
X171562700Y-78091633D01*
X178287220Y-78091633D01*
X178357513Y-78261756D01*
X178447300Y-78351700D01*
X178447300Y-78750000D01*
X178470342Y-78865838D01*
X178535959Y-78964041D01*
X180337330Y-80765412D01*
X180337220Y-80891633D01*
X180407513Y-81061756D01*
X180537559Y-81192029D01*
X180707559Y-81262620D01*
X180891633Y-81262780D01*
X181061756Y-81192487D01*
X181192029Y-81062441D01*
X181262620Y-80892441D01*
X181262780Y-80708367D01*
X181192487Y-80538244D01*
X181062441Y-80407971D01*
X180892441Y-80337380D01*
X180765352Y-80337270D01*
X179052700Y-78624618D01*
X179052700Y-78351614D01*
X179142029Y-78262441D01*
X179212620Y-78092441D01*
X179212780Y-77908367D01*
X179142487Y-77738244D01*
X179012441Y-77607971D01*
X178842441Y-77537380D01*
X178658367Y-77537220D01*
X178488244Y-77607513D01*
X178357971Y-77737559D01*
X178287380Y-77907559D01*
X178287220Y-78091633D01*
X171562700Y-78091633D01*
X171562700Y-78000000D01*
X171519867Y-77784664D01*
X171397889Y-77602111D01*
X169546547Y-75750769D01*
X169562516Y-75712312D01*
X169562885Y-75289543D01*
X169505227Y-75150000D01*
X188187300Y-75150000D01*
X188325284Y-75843690D01*
X188718228Y-76431772D01*
X189306310Y-76824716D01*
X190000000Y-76962700D01*
X190693690Y-76824716D01*
X191281772Y-76431772D01*
X191674716Y-75843690D01*
X191812700Y-75150000D01*
X191674716Y-74456310D01*
X191281772Y-73868228D01*
X190693690Y-73475284D01*
X190000000Y-73337300D01*
X189306310Y-73475284D01*
X188718228Y-73868228D01*
X188325284Y-74456310D01*
X188187300Y-75150000D01*
X169505227Y-75150000D01*
X169401439Y-74898815D01*
X169102757Y-74599612D01*
X168712312Y-74437484D01*
X168289543Y-74437115D01*
X167898815Y-74598561D01*
X167599612Y-74897243D01*
X167437484Y-75287688D01*
X167437115Y-75710457D01*
X167598561Y-76101185D01*
X167897243Y-76400388D01*
X168287688Y-76562516D01*
X168710457Y-76562885D01*
X168750544Y-76546322D01*
X170437300Y-78233078D01*
X170437300Y-78737300D01*
X165750000Y-78737300D01*
X165745059Y-78738301D01*
X165740897Y-78741145D01*
X165738169Y-78745384D01*
X165737300Y-78750000D01*
X165737300Y-83809218D01*
X164802700Y-82874618D01*
X164802700Y-69855261D01*
X186027098Y-69855261D01*
X186203736Y-70282756D01*
X186530523Y-70610115D01*
X186887300Y-70758261D01*
X186887300Y-73288368D01*
X186807971Y-73367559D01*
X186737380Y-73537559D01*
X186737220Y-73721633D01*
X186807513Y-73891756D01*
X186937559Y-74022029D01*
X187107559Y-74092620D01*
X187291633Y-74092780D01*
X187461756Y-74022487D01*
X187592029Y-73892441D01*
X187627293Y-73807517D01*
X187627220Y-73891633D01*
X187697513Y-74061756D01*
X187827559Y-74192029D01*
X187997559Y-74262620D01*
X188181633Y-74262780D01*
X188351756Y-74192487D01*
X188482029Y-74062441D01*
X188552620Y-73892441D01*
X188552730Y-73765352D01*
X189944041Y-72374041D01*
X190009658Y-72275838D01*
X190032700Y-72160000D01*
X190032700Y-70757971D01*
X190387756Y-70611264D01*
X190715115Y-70284477D01*
X190892498Y-69857290D01*
X190892902Y-69394739D01*
X190716264Y-68967244D01*
X190389477Y-68639885D01*
X189962290Y-68462502D01*
X189499739Y-68462098D01*
X189072244Y-68638736D01*
X188744885Y-68965523D01*
X188567502Y-69392710D01*
X188567098Y-69855261D01*
X188743736Y-70282756D01*
X189070523Y-70610115D01*
X189427300Y-70758261D01*
X189427300Y-72034618D01*
X188124588Y-73337330D01*
X187998367Y-73337220D01*
X187828244Y-73407513D01*
X187697971Y-73537559D01*
X187662707Y-73622483D01*
X187662780Y-73538367D01*
X187592487Y-73368244D01*
X187492700Y-73268283D01*
X187492700Y-70757971D01*
X187847756Y-70611264D01*
X188175115Y-70284477D01*
X188352498Y-69857290D01*
X188352902Y-69394739D01*
X188176264Y-68967244D01*
X187849477Y-68639885D01*
X187422290Y-68462502D01*
X186959739Y-68462098D01*
X186532244Y-68638736D01*
X186204885Y-68965523D01*
X186027502Y-69392710D01*
X186027098Y-69855261D01*
X164802700Y-69855261D01*
X164802700Y-62625382D01*
X166375382Y-61052700D01*
X172398386Y-61052700D01*
X172487559Y-61142029D01*
X172657559Y-61212620D01*
X172841633Y-61212780D01*
X173011756Y-61142487D01*
X173142029Y-61012441D01*
X173212620Y-60842441D01*
X173212780Y-60658367D01*
X173142487Y-60488244D01*
X173012441Y-60357971D01*
X172842441Y-60287380D01*
X172658367Y-60287220D01*
X172488244Y-60357513D01*
X172398300Y-60447300D01*
X168379098Y-60447300D01*
X168511756Y-60392487D01*
X168642029Y-60262441D01*
X168712620Y-60092441D01*
X168712780Y-59908367D01*
X168642487Y-59738244D01*
X168512441Y-59607971D01*
X168342441Y-59537380D01*
X168158367Y-59537220D01*
X167988244Y-59607513D01*
X167898300Y-59697300D01*
X166250000Y-59697300D01*
X166134162Y-59720342D01*
X166035959Y-59785958D01*
X163785959Y-62035959D01*
X163720342Y-62134162D01*
X163697300Y-62250000D01*
X163697300Y-83250000D01*
X163720342Y-83365838D01*
X163785959Y-83464041D01*
X165737300Y-85415382D01*
X165737300Y-90728455D01*
X165607971Y-90857559D01*
X165537380Y-91027559D01*
X165537220Y-91211633D01*
X165607513Y-91381756D01*
X165697300Y-91471700D01*
X165697300Y-93590000D01*
X165720342Y-93705838D01*
X165737300Y-93731217D01*
X165737300Y-95881522D01*
X164906547Y-95050769D01*
X164922516Y-95012312D01*
X164922885Y-94589543D01*
X164761439Y-94198815D01*
X164472700Y-93909572D01*
X164472700Y-87510000D01*
X164429867Y-87294664D01*
X164307889Y-87112111D01*
X163397889Y-86202111D01*
X163215336Y-86080133D01*
X163000000Y-86037300D01*
X161233078Y-86037300D01*
X155162700Y-79966922D01*
X155162700Y-73400000D01*
X155119867Y-73184664D01*
X154997889Y-73002111D01*
X152762700Y-70766922D01*
X152762700Y-64833078D01*
X154845778Y-62750000D01*
X155947300Y-62750000D01*
X155947300Y-80000000D01*
X155970342Y-80115838D01*
X156035959Y-80214041D01*
X161037330Y-85215412D01*
X161037220Y-85341633D01*
X161107513Y-85511756D01*
X161237559Y-85642029D01*
X161407559Y-85712620D01*
X161591633Y-85712780D01*
X161761756Y-85642487D01*
X161892029Y-85512441D01*
X161962620Y-85342441D01*
X161962780Y-85158367D01*
X161892487Y-84988244D01*
X161762441Y-84857971D01*
X161592441Y-84787380D01*
X161465352Y-84787270D01*
X156552700Y-79874618D01*
X156552700Y-76295545D01*
X157493267Y-76295545D01*
X157502002Y-76695892D01*
X157663279Y-77062422D01*
X157952544Y-77339334D01*
X158325759Y-77484469D01*
X158671411Y-77545417D01*
X159071758Y-77536682D01*
X159438288Y-77375405D01*
X159715199Y-77086140D01*
X159860335Y-76712925D01*
X159851600Y-76312578D01*
X159690323Y-75946048D01*
X159401058Y-75669136D01*
X159027842Y-75524001D01*
X158682191Y-75463053D01*
X158281844Y-75471788D01*
X157915314Y-75633065D01*
X157638402Y-75922330D01*
X157493267Y-76295545D01*
X156552700Y-76295545D01*
X156552700Y-73794133D01*
X157934333Y-73794133D01*
X157943068Y-74194480D01*
X158104345Y-74561010D01*
X158393610Y-74837922D01*
X158766825Y-74983057D01*
X159112477Y-75044005D01*
X159512824Y-75035270D01*
X159879354Y-74873993D01*
X160156265Y-74584728D01*
X160301401Y-74211513D01*
X160292666Y-73811166D01*
X160131389Y-73444636D01*
X159842124Y-73167724D01*
X159468908Y-73022589D01*
X159123257Y-72961641D01*
X158722910Y-72970376D01*
X158356380Y-73131653D01*
X158079468Y-73420918D01*
X157934333Y-73794133D01*
X156552700Y-73794133D01*
X156552700Y-71292722D01*
X158375400Y-71292722D01*
X158384135Y-71693069D01*
X158545412Y-72059599D01*
X158834677Y-72336511D01*
X159207892Y-72481646D01*
X159553544Y-72542594D01*
X159953891Y-72533859D01*
X160320421Y-72372582D01*
X160597332Y-72083317D01*
X160742468Y-71710102D01*
X160733733Y-71309755D01*
X160572456Y-70943225D01*
X160283191Y-70666313D01*
X159909975Y-70521178D01*
X159564324Y-70460230D01*
X159163977Y-70468965D01*
X158797447Y-70630242D01*
X158520535Y-70919507D01*
X158375400Y-71292722D01*
X156552700Y-71292722D01*
X156552700Y-68791310D01*
X158816466Y-68791310D01*
X158825201Y-69191657D01*
X158986478Y-69558187D01*
X159275743Y-69835099D01*
X159648958Y-69980234D01*
X159994610Y-70041182D01*
X160394957Y-70032447D01*
X160761487Y-69871170D01*
X161038398Y-69581905D01*
X161183534Y-69208690D01*
X161174799Y-68808343D01*
X161013522Y-68441813D01*
X160724257Y-68164901D01*
X160351041Y-68019766D01*
X160005390Y-67958818D01*
X159605043Y-67967553D01*
X159238513Y-68128830D01*
X158961601Y-68418095D01*
X158816466Y-68791310D01*
X156552700Y-68791310D01*
X156552700Y-67767916D01*
X160462272Y-67767916D01*
X160656013Y-67902931D01*
X161178367Y-67773225D01*
X161611323Y-67453495D01*
X161801434Y-67196990D01*
X161761244Y-66976394D01*
X160636799Y-66778123D01*
X160462272Y-67767916D01*
X156552700Y-67767916D01*
X156552700Y-66689598D01*
X158923871Y-66689598D01*
X159014787Y-66995656D01*
X159312278Y-67444183D01*
X159758768Y-67744723D01*
X159987003Y-67684114D01*
X160161531Y-66694321D01*
X159037085Y-66496051D01*
X158923871Y-66689598D01*
X156552700Y-66689598D01*
X156552700Y-66302855D01*
X160720601Y-66302855D01*
X161845047Y-66501125D01*
X161958261Y-66307578D01*
X161867345Y-66001520D01*
X161569854Y-65552993D01*
X161123364Y-65252453D01*
X160895129Y-65313062D01*
X160720601Y-66302855D01*
X156552700Y-66302855D01*
X156552700Y-65800186D01*
X159080698Y-65800186D01*
X159120888Y-66020782D01*
X160245333Y-66219053D01*
X160419860Y-65229260D01*
X160226119Y-65094245D01*
X159703765Y-65223951D01*
X159270809Y-65543681D01*
X159080698Y-65800186D01*
X156552700Y-65800186D01*
X156552700Y-63788487D01*
X159698599Y-63788487D01*
X159707334Y-64188834D01*
X159868611Y-64555364D01*
X160157876Y-64832276D01*
X160531091Y-64977411D01*
X160876743Y-65038359D01*
X161277090Y-65029624D01*
X161643620Y-64868347D01*
X161920531Y-64579082D01*
X162065667Y-64205867D01*
X162056932Y-63805520D01*
X161895655Y-63438990D01*
X161606390Y-63162078D01*
X161233174Y-63016943D01*
X160887523Y-62955995D01*
X160487176Y-62964730D01*
X160120646Y-63126007D01*
X159843734Y-63415272D01*
X159698599Y-63788487D01*
X156552700Y-63788487D01*
X156552700Y-62875382D01*
X157287070Y-62141012D01*
X160009305Y-62141012D01*
X160010008Y-62202359D01*
X160035484Y-62263080D01*
X160082577Y-62309107D01*
X160143866Y-62333185D01*
X162144995Y-62686039D01*
X162206342Y-62685336D01*
X162267064Y-62659860D01*
X162313090Y-62612767D01*
X162337168Y-62551478D01*
X162637093Y-60850518D01*
X162636390Y-60789171D01*
X162610914Y-60728450D01*
X162563821Y-60682423D01*
X162502532Y-60658345D01*
X160501403Y-60305491D01*
X160440056Y-60306194D01*
X160379334Y-60331670D01*
X160333308Y-60378763D01*
X160309230Y-60440052D01*
X160009305Y-62141012D01*
X157287070Y-62141012D01*
X157965412Y-61462670D01*
X158091633Y-61462780D01*
X158261756Y-61392487D01*
X158392029Y-61262441D01*
X158462620Y-61092441D01*
X158462780Y-60908367D01*
X158392487Y-60738244D01*
X158262441Y-60607971D01*
X158092441Y-60537380D01*
X157908367Y-60537220D01*
X157738244Y-60607513D01*
X157607971Y-60737559D01*
X157537380Y-60907559D01*
X157537270Y-61034648D01*
X156035959Y-62535959D01*
X155970342Y-62634162D01*
X155947300Y-62750000D01*
X154845778Y-62750000D01*
X158233078Y-59362700D01*
X174566922Y-59362700D01*
X179237300Y-64033078D01*
X179237300Y-66282659D01*
X179198815Y-66298561D01*
X178899612Y-66597243D01*
X178737484Y-66987688D01*
X178737115Y-67410457D01*
X178898561Y-67801185D01*
X179197243Y-68100388D01*
X179587688Y-68262516D01*
X180010457Y-68262885D01*
X180401185Y-68101439D01*
X180700388Y-67802757D01*
X180862516Y-67412312D01*
X180862885Y-66989543D01*
X180701439Y-66598815D01*
X180402757Y-66299612D01*
X180362700Y-66282979D01*
X180362700Y-63800000D01*
X180319867Y-63584664D01*
X180197889Y-63402111D01*
X175197889Y-58402111D01*
X175015336Y-58280133D01*
X174800000Y-58237300D01*
X158000000Y-58237300D01*
X157784664Y-58280133D01*
X157602111Y-58402111D01*
X151802111Y-64202111D01*
X151680133Y-64384664D01*
X151637300Y-64600000D01*
X151637300Y-71000000D01*
X151680133Y-71215336D01*
X151802111Y-71397889D01*
X154037300Y-73633078D01*
X154037300Y-80200000D01*
X154080133Y-80415336D01*
X154202111Y-80597889D01*
X160602111Y-86997889D01*
X160784664Y-87119867D01*
X161000000Y-87162700D01*
X162766922Y-87162700D01*
X163347300Y-87743078D01*
X163347300Y-93862000D01*
X163258815Y-93898561D01*
X162959612Y-94197243D01*
X162832519Y-94503315D01*
X162769715Y-94098844D01*
X162729058Y-94000689D01*
X162538228Y-93923022D01*
X161931250Y-94530000D01*
X162538228Y-95136978D01*
X162729058Y-95059311D01*
X162797317Y-94778745D01*
X162797115Y-95010457D01*
X162958561Y-95401185D01*
X163257243Y-95700388D01*
X163647688Y-95862516D01*
X164070457Y-95862885D01*
X164110544Y-95846322D01*
X165732111Y-97467889D01*
X165737300Y-97471356D01*
X165737300Y-103250000D01*
X165738301Y-103254941D01*
X165741020Y-103258980D01*
X167491020Y-105008980D01*
X167495221Y-105011767D01*
X167499828Y-105012699D01*
X171142300Y-105061922D01*
X171016922Y-105187300D01*
X165750000Y-105187300D01*
X165534664Y-105230133D01*
X165352111Y-105352111D01*
X162852111Y-107852111D01*
X162730133Y-108034664D01*
X162687300Y-108250000D01*
X162687300Y-108500000D01*
X162730133Y-108715336D01*
X162852111Y-108897889D01*
X163034664Y-109019867D01*
X163250000Y-109062700D01*
X163465336Y-109019867D01*
X163647889Y-108897889D01*
X163769867Y-108715336D01*
X163812700Y-108500000D01*
X163812700Y-108483078D01*
X165983078Y-106312700D01*
X171250000Y-106312700D01*
X171465336Y-106269867D01*
X171647889Y-106147889D01*
X172712636Y-105083142D01*
X174962300Y-105113543D01*
X174962300Y-105130831D01*
X173630830Y-106462300D01*
X167000005Y-106462300D01*
X167000000Y-106462299D01*
X166889902Y-106484200D01*
X166796565Y-106546565D01*
X166796563Y-106546568D01*
X164546565Y-108796565D01*
X164484200Y-108889902D01*
X164462299Y-109000000D01*
X164462300Y-109000005D01*
X164462300Y-110499995D01*
X164462299Y-110500000D01*
X164484200Y-110610098D01*
X164546565Y-110703435D01*
X164787348Y-110944218D01*
X164787220Y-111091633D01*
X164857513Y-111261756D01*
X164987559Y-111392029D01*
X165157559Y-111462620D01*
X165341633Y-111462780D01*
X165511756Y-111392487D01*
X165642029Y-111262441D01*
X165712620Y-111092441D01*
X165712780Y-110908367D01*
X165642487Y-110738244D01*
X165512441Y-110607971D01*
X165342441Y-110537380D01*
X165194121Y-110537251D01*
X165037700Y-110380830D01*
X165037700Y-109119170D01*
X167119169Y-107037700D01*
X173749995Y-107037700D01*
X173750000Y-107037701D01*
X173860098Y-107015800D01*
X173953435Y-106953435D01*
X175453432Y-105453437D01*
X175453435Y-105453435D01*
X175515800Y-105360098D01*
X175537700Y-105250000D01*
X175537700Y-105121319D01*
X177199357Y-105143774D01*
X175130830Y-107212300D01*
X167500000Y-107212300D01*
X167389902Y-107234200D01*
X167296565Y-107296565D01*
X167296563Y-107296568D01*
X166055782Y-108537348D01*
X165908367Y-108537220D01*
X165738244Y-108607513D01*
X165607971Y-108737559D01*
X165537380Y-108907559D01*
X165537220Y-109091633D01*
X165607513Y-109261756D01*
X165737559Y-109392029D01*
X165907559Y-109462620D01*
X166091633Y-109462780D01*
X166261756Y-109392487D01*
X166392029Y-109262441D01*
X166462620Y-109092441D01*
X166462749Y-108944121D01*
X167619169Y-107787700D01*
X175249995Y-107787700D01*
X175250000Y-107787701D01*
X175360098Y-107765800D01*
X175453435Y-107703435D01*
X178002246Y-105154624D01*
X180962300Y-105194624D01*
X180962300Y-108630830D01*
X172305782Y-117287348D01*
X172158367Y-117287220D01*
X171988244Y-117357513D01*
X171857971Y-117487559D01*
X171787380Y-117657559D01*
X171787220Y-117841633D01*
X171857513Y-118011756D01*
X171987559Y-118142029D01*
X172157559Y-118212620D01*
X172199262Y-118212656D01*
X167414287Y-122997631D01*
X167232748Y-122876330D01*
X166840000Y-122798208D01*
X166447252Y-122876330D01*
X166114296Y-123098804D01*
X165891822Y-123431760D01*
X165813700Y-123824508D01*
X165813700Y-124175492D01*
X165891822Y-124568240D01*
X166114296Y-124901196D01*
X166447252Y-125123670D01*
X166840000Y-125201792D01*
X167232748Y-125123670D01*
X167565704Y-124901196D01*
X167788178Y-124568240D01*
X167866300Y-124175492D01*
X167866300Y-123824508D01*
X167796166Y-123471916D01*
X183054041Y-108214041D01*
X183119658Y-108115838D01*
X183142700Y-108000000D01*
X183142700Y-105224089D01*
X183227300Y-105225232D01*
X183227300Y-109724618D01*
X169954287Y-122997631D01*
X169772748Y-122876330D01*
X169380000Y-122798208D01*
X168987252Y-122876330D01*
X168654296Y-123098804D01*
X168431822Y-123431760D01*
X168353700Y-123824508D01*
X168353700Y-124175492D01*
X168431822Y-124568240D01*
X168654296Y-124901196D01*
X168987252Y-125123670D01*
X169380000Y-125201792D01*
X169772748Y-125123670D01*
X170105704Y-124901196D01*
X170328178Y-124568240D01*
X170406300Y-124175492D01*
X170406300Y-123824508D01*
X170893700Y-123824508D01*
X170893700Y-124175492D01*
X170971822Y-124568240D01*
X171194296Y-124901196D01*
X171527252Y-125123670D01*
X171920000Y-125201792D01*
X172312748Y-125123670D01*
X172645704Y-124901196D01*
X172868178Y-124568240D01*
X172946300Y-124175492D01*
X172946300Y-123824508D01*
X173433700Y-123824508D01*
X173433700Y-124175492D01*
X173511822Y-124568240D01*
X173734296Y-124901196D01*
X174067252Y-125123670D01*
X174460000Y-125201792D01*
X174852748Y-125123670D01*
X175185704Y-124901196D01*
X175408178Y-124568240D01*
X175447316Y-124371475D01*
X175615700Y-124371475D01*
X175615700Y-125119574D01*
X175694972Y-125310953D01*
X175841447Y-125457428D01*
X176032827Y-125536700D01*
X176628525Y-125536700D01*
X176758700Y-125406525D01*
X176758700Y-124241300D01*
X177241300Y-124241300D01*
X177241300Y-125406525D01*
X177371475Y-125536700D01*
X177967173Y-125536700D01*
X178158553Y-125457428D01*
X178305028Y-125310953D01*
X178384300Y-125119574D01*
X178384300Y-124371475D01*
X178254125Y-124241300D01*
X177241300Y-124241300D01*
X176758700Y-124241300D01*
X175745875Y-124241300D01*
X175615700Y-124371475D01*
X175447316Y-124371475D01*
X175486300Y-124175492D01*
X175486300Y-123824508D01*
X175408178Y-123431760D01*
X175185704Y-123098804D01*
X174858879Y-122880426D01*
X175615700Y-122880426D01*
X175615700Y-123628525D01*
X175745875Y-123758700D01*
X176758700Y-123758700D01*
X176758700Y-122593475D01*
X177241300Y-122593475D01*
X177241300Y-123758700D01*
X178254125Y-123758700D01*
X178384300Y-123628525D01*
X178384300Y-122880426D01*
X178305028Y-122689047D01*
X178158553Y-122542572D01*
X177967173Y-122463300D01*
X177371475Y-122463300D01*
X177241300Y-122593475D01*
X176758700Y-122593475D01*
X176628525Y-122463300D01*
X176032827Y-122463300D01*
X175841447Y-122542572D01*
X175694972Y-122689047D01*
X175615700Y-122880426D01*
X174858879Y-122880426D01*
X174852748Y-122876330D01*
X174460000Y-122798208D01*
X174067252Y-122876330D01*
X173734296Y-123098804D01*
X173511822Y-123431760D01*
X173433700Y-123824508D01*
X172946300Y-123824508D01*
X172868178Y-123431760D01*
X172645704Y-123098804D01*
X172312748Y-122876330D01*
X171920000Y-122798208D01*
X171527252Y-122876330D01*
X171194296Y-123098804D01*
X170971822Y-123431760D01*
X170893700Y-123824508D01*
X170406300Y-123824508D01*
X170336166Y-123471916D01*
X183202821Y-110605261D01*
X186027098Y-110605261D01*
X186203736Y-111032756D01*
X186530523Y-111360115D01*
X186957710Y-111537498D01*
X187420261Y-111537902D01*
X187426461Y-111535340D01*
X188910909Y-111535340D01*
X189024964Y-111755923D01*
X189607088Y-111920612D01*
X190207924Y-111849996D01*
X190435036Y-111755923D01*
X190549091Y-111535340D01*
X189730000Y-110716250D01*
X188910909Y-111535340D01*
X187426461Y-111535340D01*
X187847756Y-111361264D01*
X188175115Y-111034477D01*
X188254011Y-110844474D01*
X188255004Y-110852924D01*
X188349077Y-111080036D01*
X188569660Y-111194091D01*
X189388750Y-110375000D01*
X190071250Y-110375000D01*
X190890340Y-111194091D01*
X191110923Y-111080036D01*
X191275612Y-110497912D01*
X191204996Y-109897076D01*
X191110923Y-109669964D01*
X190890340Y-109555909D01*
X190071250Y-110375000D01*
X189388750Y-110375000D01*
X188569660Y-109555909D01*
X188349077Y-109669964D01*
X188270903Y-109946286D01*
X188176264Y-109717244D01*
X187849477Y-109389885D01*
X187427488Y-109214660D01*
X188910909Y-109214660D01*
X189730000Y-110033750D01*
X190549091Y-109214660D01*
X190435036Y-108994077D01*
X189852912Y-108829388D01*
X189252076Y-108900004D01*
X189024964Y-108994077D01*
X188910909Y-109214660D01*
X187427488Y-109214660D01*
X187422290Y-109212502D01*
X186959739Y-109212098D01*
X186532244Y-109388736D01*
X186204885Y-109715523D01*
X186027502Y-110142710D01*
X186027098Y-110605261D01*
X183202821Y-110605261D01*
X183744041Y-110064041D01*
X183809658Y-109965838D01*
X183832700Y-109850000D01*
X183832700Y-105233413D01*
X185999828Y-105262699D01*
X186004782Y-105261765D01*
X186008582Y-105259362D01*
X186455158Y-104850000D01*
X188187300Y-104850000D01*
X188325284Y-105543690D01*
X188718228Y-106131772D01*
X189306310Y-106524716D01*
X190000000Y-106662700D01*
X190693690Y-106524716D01*
X191281772Y-106131772D01*
X191674716Y-105543690D01*
X191812700Y-104850000D01*
X191674716Y-104156310D01*
X191281772Y-103568228D01*
X190693690Y-103175284D01*
X190000000Y-103037300D01*
X189306310Y-103175284D01*
X188718228Y-103568228D01*
X188325284Y-104156310D01*
X188187300Y-104850000D01*
X186455158Y-104850000D01*
X189003452Y-102514064D01*
X191297811Y-103125893D01*
X192785959Y-104614041D01*
X192884162Y-104679658D01*
X193000000Y-104702700D01*
X193048386Y-104702700D01*
X193137559Y-104792029D01*
X193307559Y-104862620D01*
X193491633Y-104862780D01*
X193661756Y-104792487D01*
X193792029Y-104662441D01*
X193862620Y-104492441D01*
X193862780Y-104308367D01*
X193792487Y-104138244D01*
X193662441Y-104007971D01*
X193492441Y-103937380D01*
X193308367Y-103937220D01*
X193138244Y-104007513D01*
X193086875Y-104058793D01*
X192913595Y-103885513D01*
X193000000Y-103902700D01*
X193648386Y-103902700D01*
X193737559Y-103992029D01*
X193907559Y-104062620D01*
X194091633Y-104062780D01*
X194261756Y-103992487D01*
X194322003Y-103932345D01*
X196487300Y-104509757D01*
X196487300Y-117812300D01*
X180000000Y-117812300D01*
X179928170Y-117826588D01*
X179867276Y-117867276D01*
X179826588Y-117928170D01*
X179812300Y-118000000D01*
X179812300Y-126812300D01*
X171018485Y-126812300D01*
X156913952Y-124006734D01*
X148991207Y-118712925D01*
X159139665Y-118712925D01*
X159284800Y-119086140D01*
X159561712Y-119375405D01*
X159928242Y-119536682D01*
X160328589Y-119545417D01*
X160674240Y-119484469D01*
X161047456Y-119339334D01*
X161336721Y-119062422D01*
X161497998Y-118695892D01*
X161506733Y-118295545D01*
X161361597Y-117922330D01*
X161084686Y-117633065D01*
X160718156Y-117471788D01*
X160317809Y-117463053D01*
X159972157Y-117524001D01*
X159598942Y-117669136D01*
X159309677Y-117946048D01*
X159148400Y-118312578D01*
X159139665Y-118712925D01*
X148991207Y-118712925D01*
X145247578Y-116211513D01*
X158698599Y-116211513D01*
X158843734Y-116584728D01*
X159120646Y-116873993D01*
X159487176Y-117035270D01*
X159887523Y-117044005D01*
X160233174Y-116983057D01*
X160606390Y-116837922D01*
X160895655Y-116561010D01*
X161056932Y-116194480D01*
X161065667Y-115794133D01*
X160920531Y-115420918D01*
X160643620Y-115131653D01*
X160277090Y-114970376D01*
X159876743Y-114961641D01*
X159531091Y-115022589D01*
X159157876Y-115167724D01*
X158868611Y-115444636D01*
X158707334Y-115811166D01*
X158698599Y-116211513D01*
X145247578Y-116211513D01*
X144972373Y-116027627D01*
X143423853Y-113710102D01*
X158257532Y-113710102D01*
X158402667Y-114083317D01*
X158679579Y-114372582D01*
X159046109Y-114533859D01*
X159446456Y-114542594D01*
X159792107Y-114481646D01*
X160165323Y-114336511D01*
X160454588Y-114059599D01*
X160615865Y-113693069D01*
X160624600Y-113292722D01*
X160479464Y-112919507D01*
X160202553Y-112630242D01*
X159836023Y-112468965D01*
X159435676Y-112460230D01*
X159090024Y-112521178D01*
X158716809Y-112666313D01*
X158427544Y-112943225D01*
X158266267Y-113309755D01*
X158257532Y-113710102D01*
X143423853Y-113710102D01*
X140454823Y-109266633D01*
X152862220Y-109266633D01*
X152932513Y-109436756D01*
X153062559Y-109567029D01*
X153232559Y-109637620D01*
X153416633Y-109637780D01*
X153586756Y-109567487D01*
X153641639Y-109512700D01*
X153885120Y-109512700D01*
X155611210Y-111238790D01*
X155720768Y-111311994D01*
X155850000Y-111337700D01*
X157866635Y-111337700D01*
X157961601Y-111581905D01*
X158238513Y-111871170D01*
X158605043Y-112032447D01*
X159005390Y-112041182D01*
X159351041Y-111980234D01*
X159724257Y-111835099D01*
X159813152Y-111750000D01*
X164737300Y-111750000D01*
X164737300Y-117750000D01*
X164738301Y-117754941D01*
X164741145Y-117759103D01*
X164745384Y-117761831D01*
X164750000Y-117762700D01*
X171500000Y-117762700D01*
X171504941Y-117761699D01*
X171509103Y-117758855D01*
X171511831Y-117754616D01*
X171512700Y-117750000D01*
X171512700Y-111750000D01*
X171511699Y-111745059D01*
X171508855Y-111740897D01*
X171504616Y-111738169D01*
X171500000Y-111737300D01*
X164750000Y-111737300D01*
X164745059Y-111738301D01*
X164740897Y-111741145D01*
X164738169Y-111745384D01*
X164737300Y-111750000D01*
X159813152Y-111750000D01*
X160013522Y-111558187D01*
X160174799Y-111191657D01*
X160183534Y-110791310D01*
X160038398Y-110418095D01*
X159761487Y-110128830D01*
X159394957Y-109967553D01*
X158994610Y-109958818D01*
X158648958Y-110019766D01*
X158275743Y-110164901D01*
X157986478Y-110441813D01*
X157889461Y-110662300D01*
X155989880Y-110662300D01*
X154524570Y-109196990D01*
X157198566Y-109196990D01*
X157388677Y-109453495D01*
X157821633Y-109773225D01*
X158343987Y-109902931D01*
X158537728Y-109767916D01*
X158363201Y-108778123D01*
X157238756Y-108976394D01*
X157198566Y-109196990D01*
X154524570Y-109196990D01*
X154263790Y-108936210D01*
X154154232Y-108863006D01*
X154025000Y-108837300D01*
X153641675Y-108837300D01*
X153587441Y-108782971D01*
X153417441Y-108712380D01*
X153233367Y-108712220D01*
X153063244Y-108782513D01*
X152932971Y-108912559D01*
X152862380Y-109082559D01*
X152862220Y-109266633D01*
X140454823Y-109266633D01*
X140072417Y-108694321D01*
X158838469Y-108694321D01*
X159012997Y-109684114D01*
X159241232Y-109744723D01*
X159687722Y-109444183D01*
X159985213Y-108995656D01*
X160076129Y-108689598D01*
X159962915Y-108496051D01*
X158838469Y-108694321D01*
X140072417Y-108694321D01*
X139814004Y-108307578D01*
X157041739Y-108307578D01*
X157154953Y-108501125D01*
X158279399Y-108302855D01*
X158104871Y-107313062D01*
X157876636Y-107252453D01*
X157430146Y-107552993D01*
X157132655Y-108001520D01*
X157041739Y-108307578D01*
X139814004Y-108307578D01*
X139093495Y-107229260D01*
X158580140Y-107229260D01*
X158754667Y-108219053D01*
X159879112Y-108020782D01*
X159919302Y-107800186D01*
X159729191Y-107543681D01*
X159296235Y-107223951D01*
X158773881Y-107094245D01*
X158580140Y-107229260D01*
X139093495Y-107229260D01*
X138409685Y-106205867D01*
X156934333Y-106205867D01*
X157079468Y-106579082D01*
X157356380Y-106868347D01*
X157722910Y-107029624D01*
X158123257Y-107038359D01*
X158468908Y-106977411D01*
X158842124Y-106832276D01*
X159131389Y-106555364D01*
X159292666Y-106188834D01*
X159301401Y-105788487D01*
X159156265Y-105415272D01*
X158879354Y-105126007D01*
X158512824Y-104964730D01*
X158112477Y-104955995D01*
X157766825Y-105016943D01*
X157393610Y-105162078D01*
X157104345Y-105438990D01*
X156943068Y-105805520D01*
X156934333Y-106205867D01*
X138409685Y-106205867D01*
X137278043Y-104512246D01*
X148237762Y-104512246D01*
X148315884Y-104904994D01*
X148538358Y-105237950D01*
X148871314Y-105460424D01*
X149264062Y-105538546D01*
X149656810Y-105460424D01*
X149989766Y-105237950D01*
X150237950Y-104989766D01*
X150460424Y-104656810D01*
X150538546Y-104264062D01*
X150460424Y-103871314D01*
X150237950Y-103538358D01*
X149904994Y-103315884D01*
X149512246Y-103237762D01*
X149119498Y-103315884D01*
X148786542Y-103538358D01*
X148538358Y-103786542D01*
X148315884Y-104119498D01*
X148237762Y-104512246D01*
X137278043Y-104512246D01*
X136993266Y-104086048D01*
X136720786Y-102716194D01*
X146441710Y-102716194D01*
X146519832Y-103108942D01*
X146742306Y-103441898D01*
X147075262Y-103664372D01*
X147468010Y-103742494D01*
X147860758Y-103664372D01*
X148193714Y-103441898D01*
X148441898Y-103193714D01*
X148664372Y-102860758D01*
X148666408Y-102850518D01*
X156362907Y-102850518D01*
X156662832Y-104551478D01*
X156684474Y-104608885D01*
X156729182Y-104657231D01*
X156789177Y-104684375D01*
X156855005Y-104686039D01*
X158856134Y-104333185D01*
X158913541Y-104311543D01*
X158961887Y-104266835D01*
X158989031Y-104206840D01*
X158990695Y-104141012D01*
X158830140Y-103230457D01*
X163187115Y-103230457D01*
X163348561Y-103621185D01*
X163647243Y-103920388D01*
X164037688Y-104082516D01*
X164460457Y-104082885D01*
X164851185Y-103921439D01*
X165150388Y-103622757D01*
X165312516Y-103232312D01*
X165312885Y-102809543D01*
X165151439Y-102418815D01*
X164852757Y-102119612D01*
X164462312Y-101957484D01*
X164039543Y-101957115D01*
X163648815Y-102118561D01*
X163349612Y-102417243D01*
X163187484Y-102807688D01*
X163187115Y-103230457D01*
X158830140Y-103230457D01*
X158690770Y-102440052D01*
X158669128Y-102382645D01*
X158624420Y-102334299D01*
X158599595Y-102323067D01*
X160715948Y-102323067D01*
X160848711Y-102644378D01*
X161094329Y-102890425D01*
X161415408Y-103023748D01*
X161763067Y-103024052D01*
X162084378Y-102891289D01*
X162330425Y-102645671D01*
X162463748Y-102324592D01*
X162464052Y-101976933D01*
X162331289Y-101655622D01*
X162085671Y-101409575D01*
X161764592Y-101276252D01*
X161416933Y-101275948D01*
X161095622Y-101408711D01*
X160849575Y-101654329D01*
X160716252Y-101975408D01*
X160715948Y-102323067D01*
X158599595Y-102323067D01*
X158564425Y-102307155D01*
X158498597Y-102305491D01*
X156497468Y-102658345D01*
X156440061Y-102679987D01*
X156391715Y-102724695D01*
X156364571Y-102784690D01*
X156362907Y-102850518D01*
X148666408Y-102850518D01*
X148742494Y-102468010D01*
X148664372Y-102075262D01*
X148441898Y-101742306D01*
X148108942Y-101519832D01*
X147716194Y-101441710D01*
X147323446Y-101519832D01*
X146990490Y-101742306D01*
X146742306Y-101990490D01*
X146519832Y-102323446D01*
X146441710Y-102716194D01*
X136720786Y-102716194D01*
X136363530Y-100920143D01*
X144645659Y-100920143D01*
X144723781Y-101312891D01*
X144946255Y-101645847D01*
X145279211Y-101868321D01*
X145671959Y-101946443D01*
X146064707Y-101868321D01*
X146397663Y-101645847D01*
X146645847Y-101397663D01*
X146868321Y-101064707D01*
X146946443Y-100671959D01*
X146868321Y-100279211D01*
X146645847Y-99946255D01*
X146401619Y-99783067D01*
X160715948Y-99783067D01*
X160848711Y-100104378D01*
X161094329Y-100350425D01*
X161415408Y-100483748D01*
X161763067Y-100484052D01*
X162084378Y-100351289D01*
X162330425Y-100105671D01*
X162463748Y-99784592D01*
X162464052Y-99436933D01*
X162331289Y-99115622D01*
X162085671Y-98869575D01*
X161764592Y-98736252D01*
X161416933Y-98735948D01*
X161095622Y-98868711D01*
X160849575Y-99114329D01*
X160716252Y-99435408D01*
X160715948Y-99783067D01*
X146401619Y-99783067D01*
X146312891Y-99723781D01*
X145920143Y-99645659D01*
X145527395Y-99723781D01*
X145194439Y-99946255D01*
X144946255Y-100194439D01*
X144723781Y-100527395D01*
X144645659Y-100920143D01*
X136363530Y-100920143D01*
X136006274Y-99124092D01*
X142849608Y-99124092D01*
X142927730Y-99516840D01*
X143150204Y-99849796D01*
X143483160Y-100072270D01*
X143875908Y-100150392D01*
X144268656Y-100072270D01*
X144601612Y-99849796D01*
X144849796Y-99601612D01*
X145072270Y-99268656D01*
X145150392Y-98875908D01*
X145072270Y-98483160D01*
X144849796Y-98150204D01*
X144516840Y-97927730D01*
X144124092Y-97849608D01*
X143731344Y-97927730D01*
X143398388Y-98150204D01*
X143150204Y-98398388D01*
X142927730Y-98731344D01*
X142849608Y-99124092D01*
X136006274Y-99124092D01*
X135852808Y-98352568D01*
X141396580Y-98352568D01*
X141490188Y-98556321D01*
X141793043Y-98657395D01*
X142331089Y-98670969D01*
X142833373Y-98477608D01*
X142914635Y-98255885D01*
X142203949Y-97545199D01*
X141396580Y-98352568D01*
X135852808Y-98352568D01*
X135599043Y-97076809D01*
X140736929Y-97076809D01*
X140750503Y-97614855D01*
X140851577Y-97917710D01*
X141055330Y-98011318D01*
X141862699Y-97203949D01*
X142545199Y-97203949D01*
X143255885Y-97914635D01*
X143477608Y-97833373D01*
X143670969Y-97331089D01*
X143668749Y-97243067D01*
X160715948Y-97243067D01*
X160848711Y-97564378D01*
X161094329Y-97810425D01*
X161415408Y-97943748D01*
X161763067Y-97944052D01*
X162084378Y-97811289D01*
X162330425Y-97565671D01*
X162463748Y-97244592D01*
X162464052Y-96896933D01*
X162331289Y-96575622D01*
X162085671Y-96329575D01*
X161764592Y-96196252D01*
X161416933Y-96195948D01*
X161095622Y-96328711D01*
X160849575Y-96574329D01*
X160716252Y-96895408D01*
X160715948Y-97243067D01*
X143668749Y-97243067D01*
X143657395Y-96793043D01*
X143556321Y-96490188D01*
X143352568Y-96396580D01*
X142545199Y-97203949D01*
X141862699Y-97203949D01*
X141152013Y-96493263D01*
X140930290Y-96574525D01*
X140736929Y-97076809D01*
X135599043Y-97076809D01*
X135291759Y-95531990D01*
X139257506Y-95531990D01*
X139335628Y-95924738D01*
X139558102Y-96257694D01*
X139891058Y-96480168D01*
X140283806Y-96558290D01*
X140676554Y-96480168D01*
X141009510Y-96257694D01*
X141115191Y-96152013D01*
X141493263Y-96152013D01*
X142203949Y-96862699D01*
X143011318Y-96055330D01*
X142917710Y-95851577D01*
X142614855Y-95750503D01*
X142076809Y-95736929D01*
X141574525Y-95930290D01*
X141493263Y-96152013D01*
X141115191Y-96152013D01*
X141257694Y-96009510D01*
X141480168Y-95676554D01*
X141546787Y-95341633D01*
X145617220Y-95341633D01*
X145687513Y-95511756D01*
X145817559Y-95642029D01*
X145987559Y-95712620D01*
X146171633Y-95712780D01*
X146341756Y-95642487D01*
X146371595Y-95612700D01*
X151418281Y-95612700D01*
X151447559Y-95642029D01*
X151617559Y-95712620D01*
X151801633Y-95712780D01*
X151971756Y-95642487D01*
X152102029Y-95512441D01*
X152116235Y-95478228D01*
X160983022Y-95478228D01*
X161060689Y-95669058D01*
X161536879Y-95784911D01*
X162021156Y-95709715D01*
X162119311Y-95669058D01*
X162196978Y-95478228D01*
X161590000Y-94871250D01*
X160983022Y-95478228D01*
X152116235Y-95478228D01*
X152172620Y-95342441D01*
X152172780Y-95158367D01*
X152102487Y-94988244D01*
X151972441Y-94857971D01*
X151802441Y-94787380D01*
X151618367Y-94787220D01*
X151448244Y-94857513D01*
X151418405Y-94887300D01*
X146371719Y-94887300D01*
X146342441Y-94857971D01*
X146172441Y-94787380D01*
X145988367Y-94787220D01*
X145818244Y-94857513D01*
X145687971Y-94987559D01*
X145617380Y-95157559D01*
X145617220Y-95341633D01*
X141546787Y-95341633D01*
X141558290Y-95283806D01*
X141480168Y-94891058D01*
X141257694Y-94558102D01*
X141136136Y-94476879D01*
X160335089Y-94476879D01*
X160410285Y-94961156D01*
X160450942Y-95059311D01*
X160641772Y-95136978D01*
X161248750Y-94530000D01*
X160641772Y-93923022D01*
X160450942Y-94000689D01*
X160335089Y-94476879D01*
X141136136Y-94476879D01*
X140924738Y-94335628D01*
X140531990Y-94257506D01*
X140139242Y-94335628D01*
X139806286Y-94558102D01*
X139558102Y-94806286D01*
X139335628Y-95139242D01*
X139257506Y-95531990D01*
X135291759Y-95531990D01*
X134930798Y-93717317D01*
X137116897Y-93717317D01*
X137129074Y-93782031D01*
X137165468Y-93836909D01*
X138386783Y-95058224D01*
X138437439Y-95092835D01*
X138501791Y-95106795D01*
X138566505Y-95094618D01*
X138621383Y-95058224D01*
X140058224Y-93621383D01*
X140085288Y-93581772D01*
X160983022Y-93581772D01*
X161590000Y-94188750D01*
X162196978Y-93581772D01*
X162119311Y-93390942D01*
X161643121Y-93275089D01*
X161158844Y-93350285D01*
X161060689Y-93390942D01*
X160983022Y-93581772D01*
X140085288Y-93581772D01*
X140092835Y-93570727D01*
X140106795Y-93506375D01*
X140094618Y-93441661D01*
X140058224Y-93386783D01*
X139609669Y-92938228D01*
X160983022Y-92938228D01*
X161060689Y-93129058D01*
X161536879Y-93244911D01*
X162021156Y-93169715D01*
X162119311Y-93129058D01*
X162196978Y-92938228D01*
X161590000Y-92331250D01*
X160983022Y-92938228D01*
X139609669Y-92938228D01*
X138836909Y-92165468D01*
X138786253Y-92130857D01*
X138721901Y-92116897D01*
X138657187Y-92129074D01*
X138602309Y-92165468D01*
X137165468Y-93602309D01*
X137130857Y-93652965D01*
X137116897Y-93717317D01*
X134930798Y-93717317D01*
X134557701Y-91841633D01*
X153287220Y-91841633D01*
X153357513Y-92011756D01*
X153487559Y-92142029D01*
X153657559Y-92212620D01*
X153841633Y-92212780D01*
X154011756Y-92142487D01*
X154101700Y-92052700D01*
X155250000Y-92052700D01*
X155365838Y-92029658D01*
X155464041Y-91964041D01*
X155491203Y-91936879D01*
X160335089Y-91936879D01*
X160410285Y-92421156D01*
X160450942Y-92519311D01*
X160641772Y-92596978D01*
X161248750Y-91990000D01*
X161931250Y-91990000D01*
X162538228Y-92596978D01*
X162729058Y-92519311D01*
X162844911Y-92043121D01*
X162769715Y-91558844D01*
X162729058Y-91460689D01*
X162538228Y-91383022D01*
X161931250Y-91990000D01*
X161248750Y-91990000D01*
X160641772Y-91383022D01*
X160450942Y-91460689D01*
X160335089Y-91936879D01*
X155491203Y-91936879D01*
X156386310Y-91041772D01*
X160983022Y-91041772D01*
X161590000Y-91648750D01*
X162196978Y-91041772D01*
X162119311Y-90850942D01*
X161643121Y-90735089D01*
X161158844Y-90810285D01*
X161060689Y-90850942D01*
X160983022Y-91041772D01*
X156386310Y-91041772D01*
X156965412Y-90462670D01*
X157091633Y-90462780D01*
X157261756Y-90392487D01*
X157392029Y-90262441D01*
X157462620Y-90092441D01*
X157462780Y-89908367D01*
X157392487Y-89738244D01*
X157277511Y-89623067D01*
X160715948Y-89623067D01*
X160848711Y-89944378D01*
X161094329Y-90190425D01*
X161415408Y-90323748D01*
X161763067Y-90324052D01*
X162084378Y-90191289D01*
X162330425Y-89945671D01*
X162463748Y-89624592D01*
X162464052Y-89276933D01*
X162331289Y-88955622D01*
X162085671Y-88709575D01*
X161764592Y-88576252D01*
X161416933Y-88575948D01*
X161095622Y-88708711D01*
X160849575Y-88954329D01*
X160716252Y-89275408D01*
X160715948Y-89623067D01*
X157277511Y-89623067D01*
X157262441Y-89607971D01*
X157092441Y-89537380D01*
X156908367Y-89537220D01*
X156738244Y-89607513D01*
X156607971Y-89737559D01*
X156537380Y-89907559D01*
X156537270Y-90034648D01*
X155124618Y-91447300D01*
X154101614Y-91447300D01*
X154012441Y-91357971D01*
X153842441Y-91287380D01*
X153658367Y-91287220D01*
X153488244Y-91357513D01*
X153357971Y-91487559D01*
X153287380Y-91657559D01*
X153287220Y-91841633D01*
X134557701Y-91841633D01*
X134209604Y-90091633D01*
X153287220Y-90091633D01*
X153357513Y-90261756D01*
X153487559Y-90392029D01*
X153657559Y-90462620D01*
X153841633Y-90462780D01*
X154011756Y-90392487D01*
X154101700Y-90302700D01*
X155500000Y-90302700D01*
X155615838Y-90279658D01*
X155714041Y-90214041D01*
X156464041Y-89464041D01*
X156529658Y-89365838D01*
X156552700Y-89250000D01*
X156552700Y-86351614D01*
X156642029Y-86262441D01*
X156712620Y-86092441D01*
X156712780Y-85908367D01*
X156642487Y-85738244D01*
X156512441Y-85607971D01*
X156342441Y-85537380D01*
X156158367Y-85537220D01*
X155988244Y-85607513D01*
X155857971Y-85737559D01*
X155787380Y-85907559D01*
X155787220Y-86091633D01*
X155857513Y-86261756D01*
X155947300Y-86351700D01*
X155947300Y-89124618D01*
X155374618Y-89697300D01*
X154101614Y-89697300D01*
X154012441Y-89607971D01*
X153842441Y-89537380D01*
X153658367Y-89537220D01*
X153488244Y-89607513D01*
X153357971Y-89737559D01*
X153287380Y-89907559D01*
X153287220Y-90091633D01*
X134209604Y-90091633D01*
X134191377Y-90000000D01*
X134934501Y-86264062D01*
X137461454Y-86264062D01*
X137539576Y-86656810D01*
X137762050Y-86989766D01*
X138010234Y-87237950D01*
X138343190Y-87460424D01*
X138735938Y-87538546D01*
X139128686Y-87460424D01*
X139461642Y-87237950D01*
X139684116Y-86904994D01*
X139762238Y-86512246D01*
X139684116Y-86119498D01*
X139461642Y-85786542D01*
X139213458Y-85538358D01*
X138880502Y-85315884D01*
X138487754Y-85237762D01*
X138095006Y-85315884D01*
X137762050Y-85538358D01*
X137539576Y-85871314D01*
X137461454Y-86264062D01*
X134934501Y-86264062D01*
X135291757Y-84468010D01*
X139257506Y-84468010D01*
X139335628Y-84860758D01*
X139558102Y-85193714D01*
X139806286Y-85441898D01*
X140139242Y-85664372D01*
X140531990Y-85742494D01*
X140924738Y-85664372D01*
X141048565Y-85581633D01*
X146357220Y-85581633D01*
X146427513Y-85751756D01*
X146557559Y-85882029D01*
X146727559Y-85952620D01*
X146911633Y-85952780D01*
X147081756Y-85882487D01*
X147111595Y-85852700D01*
X150878281Y-85852700D01*
X150907559Y-85882029D01*
X151077559Y-85952620D01*
X151261633Y-85952780D01*
X151431756Y-85882487D01*
X151562029Y-85752441D01*
X151632620Y-85582441D01*
X151632780Y-85398367D01*
X151562487Y-85228244D01*
X151432441Y-85097971D01*
X151417178Y-85091633D01*
X153287220Y-85091633D01*
X153357513Y-85261756D01*
X153487559Y-85392029D01*
X153657559Y-85462620D01*
X153841633Y-85462780D01*
X154011756Y-85392487D01*
X154101700Y-85302700D01*
X157398386Y-85302700D01*
X157487559Y-85392029D01*
X157657559Y-85462620D01*
X157841633Y-85462780D01*
X158011756Y-85392487D01*
X158142029Y-85262441D01*
X158212620Y-85092441D01*
X158212780Y-84908367D01*
X158142487Y-84738244D01*
X158012441Y-84607971D01*
X157842441Y-84537380D01*
X157658367Y-84537220D01*
X157488244Y-84607513D01*
X157398300Y-84697300D01*
X154101614Y-84697300D01*
X154012441Y-84607971D01*
X153842441Y-84537380D01*
X153658367Y-84537220D01*
X153488244Y-84607513D01*
X153357971Y-84737559D01*
X153287380Y-84907559D01*
X153287220Y-85091633D01*
X151417178Y-85091633D01*
X151262441Y-85027380D01*
X151078367Y-85027220D01*
X150908244Y-85097513D01*
X150878405Y-85127300D01*
X147111719Y-85127300D01*
X147082441Y-85097971D01*
X146912441Y-85027380D01*
X146728367Y-85027220D01*
X146558244Y-85097513D01*
X146427971Y-85227559D01*
X146357380Y-85397559D01*
X146357220Y-85581633D01*
X141048565Y-85581633D01*
X141257694Y-85441898D01*
X141480168Y-85108942D01*
X141558290Y-84716194D01*
X141480168Y-84323446D01*
X141257694Y-83990490D01*
X141009510Y-83742306D01*
X140676554Y-83519832D01*
X140283806Y-83441710D01*
X139891058Y-83519832D01*
X139558102Y-83742306D01*
X139335628Y-84075262D01*
X139257506Y-84468010D01*
X135291757Y-84468010D01*
X135649013Y-82671959D01*
X141053557Y-82671959D01*
X141131679Y-83064707D01*
X141354153Y-83397663D01*
X141602337Y-83645847D01*
X141935293Y-83868321D01*
X142328041Y-83946443D01*
X142435005Y-83925167D01*
X142444108Y-83938790D01*
X142457525Y-83947755D01*
X142467715Y-83960264D01*
X142511913Y-83984095D01*
X142553666Y-84011994D01*
X142569491Y-84015142D01*
X142583694Y-84022800D01*
X142633649Y-84027904D01*
X142682898Y-84037700D01*
X147858325Y-84037700D01*
X147912559Y-84092029D01*
X148082559Y-84162620D01*
X148266633Y-84162780D01*
X148436756Y-84092487D01*
X148567029Y-83962441D01*
X148637620Y-83792441D01*
X148637780Y-83608367D01*
X148567487Y-83438244D01*
X148467118Y-83337700D01*
X148583325Y-83337700D01*
X148637559Y-83392029D01*
X148807559Y-83462620D01*
X148991633Y-83462780D01*
X149161756Y-83392487D01*
X149292029Y-83262441D01*
X149362620Y-83092441D01*
X149362780Y-82908367D01*
X149292487Y-82738244D01*
X149162441Y-82607971D01*
X148992441Y-82537380D01*
X148808367Y-82537220D01*
X148638244Y-82607513D01*
X148583361Y-82662300D01*
X146139880Y-82662300D01*
X145041088Y-81563508D01*
X145072270Y-81516840D01*
X145150392Y-81124092D01*
X145072270Y-80731344D01*
X144849796Y-80398388D01*
X144707293Y-80255885D01*
X145085365Y-80255885D01*
X145166627Y-80477608D01*
X145668911Y-80670969D01*
X146206957Y-80657395D01*
X146509812Y-80556321D01*
X146596958Y-80366633D01*
X148937220Y-80366633D01*
X149007513Y-80536756D01*
X149137559Y-80667029D01*
X149307559Y-80737620D01*
X149491633Y-80737780D01*
X149661756Y-80667487D01*
X149792029Y-80537441D01*
X149862620Y-80367441D01*
X149862687Y-80289893D01*
X150489880Y-79662700D01*
X151208325Y-79662700D01*
X151262559Y-79717029D01*
X151432559Y-79787620D01*
X151616633Y-79787780D01*
X151786756Y-79717487D01*
X151917029Y-79587441D01*
X151987620Y-79417441D01*
X151987780Y-79233367D01*
X151917487Y-79063244D01*
X151787441Y-78932971D01*
X151617441Y-78862380D01*
X151433367Y-78862220D01*
X151263244Y-78932513D01*
X151208361Y-78987300D01*
X150350000Y-78987300D01*
X150220768Y-79013006D01*
X150111210Y-79086210D01*
X149385133Y-79812287D01*
X149308367Y-79812220D01*
X149138244Y-79882513D01*
X149007971Y-80012559D01*
X148937380Y-80182559D01*
X148937220Y-80366633D01*
X146596958Y-80366633D01*
X146603420Y-80352568D01*
X145796051Y-79545199D01*
X145085365Y-80255885D01*
X144707293Y-80255885D01*
X144601612Y-80150204D01*
X144268656Y-79927730D01*
X143875908Y-79849608D01*
X143483160Y-79927730D01*
X143150204Y-80150204D01*
X142927730Y-80483160D01*
X142849608Y-80875908D01*
X142927730Y-81268656D01*
X143150204Y-81601612D01*
X143398388Y-81849796D01*
X143731344Y-82072270D01*
X144124092Y-82150392D01*
X144516840Y-82072270D01*
X144563508Y-82041088D01*
X145761210Y-83238790D01*
X145870768Y-83311994D01*
X146000000Y-83337700D01*
X147883004Y-83337700D01*
X147858361Y-83362300D01*
X143243205Y-83362300D01*
X143276219Y-83312891D01*
X143354341Y-82920143D01*
X143276219Y-82527395D01*
X143053745Y-82194439D01*
X142805561Y-81946255D01*
X142472605Y-81723781D01*
X142079857Y-81645659D01*
X141687109Y-81723781D01*
X141354153Y-81946255D01*
X141131679Y-82279211D01*
X141053557Y-82671959D01*
X135649013Y-82671959D01*
X136313554Y-79331089D01*
X144329031Y-79331089D01*
X144522392Y-79833373D01*
X144744115Y-79914635D01*
X145454801Y-79203949D01*
X146137301Y-79203949D01*
X146944670Y-80011318D01*
X147148423Y-79917710D01*
X147249497Y-79614855D01*
X147263071Y-79076809D01*
X147069710Y-78574525D01*
X146847987Y-78493263D01*
X146137301Y-79203949D01*
X145454801Y-79203949D01*
X144647432Y-78396580D01*
X144443679Y-78490188D01*
X144342605Y-78793043D01*
X144329031Y-79331089D01*
X136313554Y-79331089D01*
X136567318Y-78055330D01*
X144988682Y-78055330D01*
X145796051Y-78862699D01*
X146506737Y-78152013D01*
X146425475Y-77930290D01*
X145923191Y-77736929D01*
X145385145Y-77750503D01*
X145082290Y-77851577D01*
X144988682Y-78055330D01*
X136567318Y-78055330D01*
X136720784Y-77283806D01*
X146441710Y-77283806D01*
X146519832Y-77676554D01*
X146742306Y-78009510D01*
X146990490Y-78257694D01*
X147323446Y-78480168D01*
X147716194Y-78558290D01*
X148108942Y-78480168D01*
X148441898Y-78257694D01*
X148664372Y-77924738D01*
X148742494Y-77531990D01*
X148664372Y-77139242D01*
X148441898Y-76806286D01*
X148193714Y-76558102D01*
X147860758Y-76335628D01*
X147468010Y-76257506D01*
X147075262Y-76335628D01*
X146742306Y-76558102D01*
X146519832Y-76891058D01*
X146441710Y-77283806D01*
X136720784Y-77283806D01*
X136993266Y-75913952D01*
X137268663Y-75501791D01*
X147893205Y-75501791D01*
X147905382Y-75566505D01*
X147941776Y-75621383D01*
X149378617Y-77058224D01*
X149429273Y-77092835D01*
X149493625Y-77106795D01*
X149558339Y-77094618D01*
X149613217Y-77058224D01*
X150834532Y-75836909D01*
X150869143Y-75786253D01*
X150883103Y-75721901D01*
X150870926Y-75657187D01*
X150834532Y-75602309D01*
X149397691Y-74165468D01*
X149347035Y-74130857D01*
X149282683Y-74116897D01*
X149217969Y-74129074D01*
X149163091Y-74165468D01*
X147941776Y-75386783D01*
X147907165Y-75437439D01*
X147893205Y-75501791D01*
X137268663Y-75501791D01*
X144972373Y-63972373D01*
X156913952Y-55993266D01*
X157762355Y-55824508D01*
X165813700Y-55824508D01*
X165813700Y-56175492D01*
X165891822Y-56568240D01*
X166114296Y-56901196D01*
X166447252Y-57123670D01*
X166840000Y-57201792D01*
X167232748Y-57123670D01*
X167565704Y-56901196D01*
X167788178Y-56568240D01*
X167866300Y-56175492D01*
X167866300Y-55824508D01*
X168353700Y-55824508D01*
X168353700Y-56175492D01*
X168431822Y-56568240D01*
X168654296Y-56901196D01*
X168987252Y-57123670D01*
X169380000Y-57201792D01*
X169772748Y-57123670D01*
X170105704Y-56901196D01*
X170328178Y-56568240D01*
X170350594Y-56455543D01*
X170574317Y-56455543D01*
X170792759Y-56947438D01*
X171182813Y-57318296D01*
X171468434Y-57460977D01*
X171678700Y-57383092D01*
X171678700Y-56241300D01*
X172161300Y-56241300D01*
X172161300Y-57383092D01*
X172371566Y-57460977D01*
X172657187Y-57318296D01*
X173047241Y-56947438D01*
X173265683Y-56455543D01*
X173166362Y-56241300D01*
X172161300Y-56241300D01*
X171678700Y-56241300D01*
X170673638Y-56241300D01*
X170574317Y-56455543D01*
X170350594Y-56455543D01*
X170406300Y-56175492D01*
X170406300Y-55824508D01*
X173433700Y-55824508D01*
X173433700Y-56175492D01*
X173511822Y-56568240D01*
X173734296Y-56901196D01*
X174067252Y-57123670D01*
X174460000Y-57201792D01*
X174852748Y-57123670D01*
X175185704Y-56901196D01*
X175408178Y-56568240D01*
X175486300Y-56175492D01*
X175486300Y-55824508D01*
X175408178Y-55431760D01*
X175185704Y-55098804D01*
X175013888Y-54984000D01*
X175970513Y-54984000D01*
X175970513Y-57016000D01*
X175981858Y-57076293D01*
X176017491Y-57131668D01*
X176071861Y-57168817D01*
X176136400Y-57181887D01*
X177863600Y-57181887D01*
X177923893Y-57170542D01*
X177979268Y-57134909D01*
X178016417Y-57080539D01*
X178029487Y-57016000D01*
X178029487Y-54984000D01*
X178018142Y-54923707D01*
X177982509Y-54868332D01*
X177928139Y-54831183D01*
X177863600Y-54818113D01*
X176136400Y-54818113D01*
X176076107Y-54829458D01*
X176020732Y-54865091D01*
X175983583Y-54919461D01*
X175970513Y-54984000D01*
X175013888Y-54984000D01*
X174852748Y-54876330D01*
X174460000Y-54798208D01*
X174067252Y-54876330D01*
X173734296Y-55098804D01*
X173511822Y-55431760D01*
X173433700Y-55824508D01*
X170406300Y-55824508D01*
X170350595Y-55544457D01*
X170574317Y-55544457D01*
X170673638Y-55758700D01*
X171678700Y-55758700D01*
X171678700Y-54616908D01*
X172161300Y-54616908D01*
X172161300Y-55758700D01*
X173166362Y-55758700D01*
X173265683Y-55544457D01*
X173047241Y-55052562D01*
X172657187Y-54681704D01*
X172371566Y-54539023D01*
X172161300Y-54616908D01*
X171678700Y-54616908D01*
X171468434Y-54539023D01*
X171182813Y-54681704D01*
X170792759Y-55052562D01*
X170574317Y-55544457D01*
X170350595Y-55544457D01*
X170328178Y-55431760D01*
X170105704Y-55098804D01*
X169772748Y-54876330D01*
X169380000Y-54798208D01*
X168987252Y-54876330D01*
X168654296Y-55098804D01*
X168431822Y-55431760D01*
X168353700Y-55824508D01*
X167866300Y-55824508D01*
X167788178Y-55431760D01*
X167565704Y-55098804D01*
X167232748Y-54876330D01*
X166840000Y-54798208D01*
X166447252Y-54876330D01*
X166114296Y-55098804D01*
X165891822Y-55431760D01*
X165813700Y-55824508D01*
X157762355Y-55824508D01*
X171018485Y-53187700D01*
X179812300Y-53187700D01*
X179812300Y-62000000D01*
G36*
X170437300Y-81082659D02*
X170398815Y-81098561D01*
X170099612Y-81397243D01*
X169937484Y-81787688D01*
X169937115Y-82210457D01*
X170098561Y-82601185D01*
X170397243Y-82900388D01*
X170787688Y-83062516D01*
X171210457Y-83062885D01*
X171601185Y-82901439D01*
X171900388Y-82602757D01*
X172062516Y-82212312D01*
X172062885Y-81789543D01*
X171901439Y-81398815D01*
X171602757Y-81099612D01*
X171562700Y-81082979D01*
X171562700Y-80348705D01*
X173490083Y-82757934D01*
X173493951Y-82761167D01*
X173500000Y-82762700D01*
X187494740Y-82762700D01*
X190232040Y-85500000D01*
X186741020Y-88991020D01*
X186738233Y-88995221D01*
X186737300Y-89000000D01*
X186737300Y-94500000D01*
X186738301Y-94504941D01*
X186741735Y-94509643D01*
X190237300Y-97505842D01*
X190237300Y-98609217D01*
X182614044Y-90985962D01*
X182614042Y-90985959D01*
X181792670Y-90164588D01*
X181792780Y-90038367D01*
X181722487Y-89868244D01*
X181592441Y-89737971D01*
X181422441Y-89667380D01*
X181238367Y-89667220D01*
X181068244Y-89737513D01*
X180937971Y-89867559D01*
X180867380Y-90037559D01*
X180867220Y-90221633D01*
X180879546Y-90251464D01*
X180712670Y-90084588D01*
X180712780Y-89958367D01*
X180642487Y-89788244D01*
X180512441Y-89657971D01*
X180342441Y-89587380D01*
X180158367Y-89587220D01*
X179988244Y-89657513D01*
X179857971Y-89787559D01*
X179787380Y-89957559D01*
X179787220Y-90141633D01*
X179857513Y-90311756D01*
X179987559Y-90442029D01*
X180157559Y-90512620D01*
X180284648Y-90512730D01*
X182486405Y-92714487D01*
X182400000Y-92697300D01*
X181400000Y-92697300D01*
X181284162Y-92720342D01*
X181185959Y-92785959D01*
X180834588Y-93137330D01*
X180708367Y-93137220D01*
X180538244Y-93207513D01*
X180407971Y-93337559D01*
X180337380Y-93507559D01*
X180337220Y-93691633D01*
X180407513Y-93861756D01*
X180537559Y-93992029D01*
X180707559Y-94062620D01*
X180891633Y-94062780D01*
X181061756Y-93992487D01*
X181137372Y-93917003D01*
X181137220Y-94091633D01*
X181207513Y-94261756D01*
X181337559Y-94392029D01*
X181507559Y-94462620D01*
X181691633Y-94462780D01*
X181861756Y-94392487D01*
X181951700Y-94302700D01*
X182474618Y-94302700D01*
X188616463Y-100444545D01*
X185495148Y-103237300D01*
X183832700Y-103237300D01*
X183832700Y-100400000D01*
X183809658Y-100284162D01*
X183744041Y-100185959D01*
X177562670Y-94004588D01*
X177562780Y-93878367D01*
X177492487Y-93708244D01*
X177362441Y-93577971D01*
X177192441Y-93507380D01*
X177008367Y-93507220D01*
X176838244Y-93577513D01*
X176707971Y-93707559D01*
X176637380Y-93877559D01*
X176637220Y-94061633D01*
X176649546Y-94091464D01*
X176442670Y-93884588D01*
X176442780Y-93758367D01*
X176372487Y-93588244D01*
X176242441Y-93457971D01*
X176072441Y-93387380D01*
X175888367Y-93387220D01*
X175722206Y-93455876D01*
X177995412Y-91182670D01*
X178121633Y-91182780D01*
X178291756Y-91112487D01*
X178422029Y-90982441D01*
X178492620Y-90812441D01*
X178492780Y-90628367D01*
X178422487Y-90458244D01*
X178292441Y-90327971D01*
X178122441Y-90257380D01*
X177938367Y-90257220D01*
X177768244Y-90327513D01*
X177637971Y-90457559D01*
X177567380Y-90627559D01*
X177567270Y-90754648D01*
X175035959Y-93285959D01*
X174970342Y-93384162D01*
X174947300Y-93500000D01*
X174962300Y-93575409D01*
X174962300Y-103237300D01*
X174755260Y-103237300D01*
X174258980Y-102741020D01*
X174258582Y-102740638D01*
X173312700Y-101873580D01*
X173312700Y-98750000D01*
X173269867Y-98534664D01*
X173147889Y-98352111D01*
X172965336Y-98230133D01*
X172750000Y-98187300D01*
X172534664Y-98230133D01*
X172352111Y-98352111D01*
X172230133Y-98534664D01*
X172187300Y-98750000D01*
X172187300Y-100841963D01*
X172152700Y-100810246D01*
X172152700Y-96931632D01*
X172232029Y-96852441D01*
X172302620Y-96682441D01*
X172302780Y-96498367D01*
X172232487Y-96328244D01*
X172102441Y-96197971D01*
X171932441Y-96127380D01*
X171748367Y-96127220D01*
X171578244Y-96197513D01*
X171447971Y-96327559D01*
X171377380Y-96497559D01*
X171377220Y-96681633D01*
X171447513Y-96851756D01*
X171547300Y-96951717D01*
X171547300Y-100255296D01*
X171262700Y-99994413D01*
X171262700Y-97924493D01*
X171291756Y-97912487D01*
X171422029Y-97782441D01*
X171492620Y-97612441D01*
X171492780Y-97428367D01*
X171422487Y-97258244D01*
X171292441Y-97127971D01*
X171262700Y-97115621D01*
X171262700Y-95251938D01*
X172512122Y-91253788D01*
X172512700Y-91250000D01*
X172512700Y-86500000D01*
X172511699Y-86495059D01*
X172508855Y-86490897D01*
X172504616Y-86488169D01*
X172500000Y-86487300D01*
X171712711Y-86487300D01*
X171712780Y-86408367D01*
X171642487Y-86238244D01*
X171512441Y-86107971D01*
X171379335Y-86052700D01*
X179624618Y-86052700D01*
X182547330Y-88975412D01*
X182547220Y-89101633D01*
X182617513Y-89271756D01*
X182747559Y-89402029D01*
X182917559Y-89472620D01*
X183101633Y-89472780D01*
X183271756Y-89402487D01*
X183402029Y-89272441D01*
X183472620Y-89102441D01*
X183472780Y-88918367D01*
X183402487Y-88748244D01*
X183272441Y-88617971D01*
X183102441Y-88547380D01*
X182975352Y-88547270D01*
X179980782Y-85552700D01*
X181070000Y-85552700D01*
X181085000Y-85549716D01*
X181100000Y-85552700D01*
X181524618Y-85552700D01*
X182717330Y-86745412D01*
X182717220Y-86871633D01*
X182787513Y-87041756D01*
X182917559Y-87172029D01*
X183087559Y-87242620D01*
X183271633Y-87242780D01*
X183441756Y-87172487D01*
X183572029Y-87042441D01*
X183642620Y-86872441D01*
X183642780Y-86688367D01*
X183572487Y-86518244D01*
X183442441Y-86387971D01*
X183272441Y-86317380D01*
X183145352Y-86317270D01*
X181864041Y-85035959D01*
X181765838Y-84970342D01*
X181650000Y-84947300D01*
X181196251Y-84947300D01*
X181185838Y-84940342D01*
X181070000Y-84917300D01*
X180954162Y-84940342D01*
X180943749Y-84947300D01*
X166875383Y-84947300D01*
X166762700Y-84834617D01*
X166762700Y-82005260D01*
X168505260Y-80262700D01*
X170437300Y-80262700D01*
X170437300Y-81082659D01*
X170437300Y-81082659D01*
G37*
X170437300Y-81082659D02*
X170398815Y-81098561D01*
X170099612Y-81397243D01*
X169937484Y-81787688D01*
X169937115Y-82210457D01*
X170098561Y-82601185D01*
X170397243Y-82900388D01*
X170787688Y-83062516D01*
X171210457Y-83062885D01*
X171601185Y-82901439D01*
X171900388Y-82602757D01*
X172062516Y-82212312D01*
X172062885Y-81789543D01*
X171901439Y-81398815D01*
X171602757Y-81099612D01*
X171562700Y-81082979D01*
X171562700Y-80348705D01*
X173490083Y-82757934D01*
X173493951Y-82761167D01*
X173500000Y-82762700D01*
X187494740Y-82762700D01*
X190232040Y-85500000D01*
X186741020Y-88991020D01*
X186738233Y-88995221D01*
X186737300Y-89000000D01*
X186737300Y-94500000D01*
X186738301Y-94504941D01*
X186741735Y-94509643D01*
X190237300Y-97505842D01*
X190237300Y-98609217D01*
X182614044Y-90985962D01*
X182614042Y-90985959D01*
X181792670Y-90164588D01*
X181792780Y-90038367D01*
X181722487Y-89868244D01*
X181592441Y-89737971D01*
X181422441Y-89667380D01*
X181238367Y-89667220D01*
X181068244Y-89737513D01*
X180937971Y-89867559D01*
X180867380Y-90037559D01*
X180867220Y-90221633D01*
X180879546Y-90251464D01*
X180712670Y-90084588D01*
X180712780Y-89958367D01*
X180642487Y-89788244D01*
X180512441Y-89657971D01*
X180342441Y-89587380D01*
X180158367Y-89587220D01*
X179988244Y-89657513D01*
X179857971Y-89787559D01*
X179787380Y-89957559D01*
X179787220Y-90141633D01*
X179857513Y-90311756D01*
X179987559Y-90442029D01*
X180157559Y-90512620D01*
X180284648Y-90512730D01*
X182486405Y-92714487D01*
X182400000Y-92697300D01*
X181400000Y-92697300D01*
X181284162Y-92720342D01*
X181185959Y-92785959D01*
X180834588Y-93137330D01*
X180708367Y-93137220D01*
X180538244Y-93207513D01*
X180407971Y-93337559D01*
X180337380Y-93507559D01*
X180337220Y-93691633D01*
X180407513Y-93861756D01*
X180537559Y-93992029D01*
X180707559Y-94062620D01*
X180891633Y-94062780D01*
X181061756Y-93992487D01*
X181137372Y-93917003D01*
X181137220Y-94091633D01*
X181207513Y-94261756D01*
X181337559Y-94392029D01*
X181507559Y-94462620D01*
X181691633Y-94462780D01*
X181861756Y-94392487D01*
X181951700Y-94302700D01*
X182474618Y-94302700D01*
X188616463Y-100444545D01*
X185495148Y-103237300D01*
X183832700Y-103237300D01*
X183832700Y-100400000D01*
X183809658Y-100284162D01*
X183744041Y-100185959D01*
X177562670Y-94004588D01*
X177562780Y-93878367D01*
X177492487Y-93708244D01*
X177362441Y-93577971D01*
X177192441Y-93507380D01*
X177008367Y-93507220D01*
X176838244Y-93577513D01*
X176707971Y-93707559D01*
X176637380Y-93877559D01*
X176637220Y-94061633D01*
X176649546Y-94091464D01*
X176442670Y-93884588D01*
X176442780Y-93758367D01*
X176372487Y-93588244D01*
X176242441Y-93457971D01*
X176072441Y-93387380D01*
X175888367Y-93387220D01*
X175722206Y-93455876D01*
X177995412Y-91182670D01*
X178121633Y-91182780D01*
X178291756Y-91112487D01*
X178422029Y-90982441D01*
X178492620Y-90812441D01*
X178492780Y-90628367D01*
X178422487Y-90458244D01*
X178292441Y-90327971D01*
X178122441Y-90257380D01*
X177938367Y-90257220D01*
X177768244Y-90327513D01*
X177637971Y-90457559D01*
X177567380Y-90627559D01*
X177567270Y-90754648D01*
X175035959Y-93285959D01*
X174970342Y-93384162D01*
X174947300Y-93500000D01*
X174962300Y-93575409D01*
X174962300Y-103237300D01*
X174755260Y-103237300D01*
X174258980Y-102741020D01*
X174258582Y-102740638D01*
X173312700Y-101873580D01*
X173312700Y-98750000D01*
X173269867Y-98534664D01*
X173147889Y-98352111D01*
X172965336Y-98230133D01*
X172750000Y-98187300D01*
X172534664Y-98230133D01*
X172352111Y-98352111D01*
X172230133Y-98534664D01*
X172187300Y-98750000D01*
X172187300Y-100841963D01*
X172152700Y-100810246D01*
X172152700Y-96931632D01*
X172232029Y-96852441D01*
X172302620Y-96682441D01*
X172302780Y-96498367D01*
X172232487Y-96328244D01*
X172102441Y-96197971D01*
X171932441Y-96127380D01*
X171748367Y-96127220D01*
X171578244Y-96197513D01*
X171447971Y-96327559D01*
X171377380Y-96497559D01*
X171377220Y-96681633D01*
X171447513Y-96851756D01*
X171547300Y-96951717D01*
X171547300Y-100255296D01*
X171262700Y-99994413D01*
X171262700Y-97924493D01*
X171291756Y-97912487D01*
X171422029Y-97782441D01*
X171492620Y-97612441D01*
X171492780Y-97428367D01*
X171422487Y-97258244D01*
X171292441Y-97127971D01*
X171262700Y-97115621D01*
X171262700Y-95251938D01*
X172512122Y-91253788D01*
X172512700Y-91250000D01*
X172512700Y-86500000D01*
X172511699Y-86495059D01*
X172508855Y-86490897D01*
X172504616Y-86488169D01*
X172500000Y-86487300D01*
X171712711Y-86487300D01*
X171712780Y-86408367D01*
X171642487Y-86238244D01*
X171512441Y-86107971D01*
X171379335Y-86052700D01*
X179624618Y-86052700D01*
X182547330Y-88975412D01*
X182547220Y-89101633D01*
X182617513Y-89271756D01*
X182747559Y-89402029D01*
X182917559Y-89472620D01*
X183101633Y-89472780D01*
X183271756Y-89402487D01*
X183402029Y-89272441D01*
X183472620Y-89102441D01*
X183472780Y-88918367D01*
X183402487Y-88748244D01*
X183272441Y-88617971D01*
X183102441Y-88547380D01*
X182975352Y-88547270D01*
X179980782Y-85552700D01*
X181070000Y-85552700D01*
X181085000Y-85549716D01*
X181100000Y-85552700D01*
X181524618Y-85552700D01*
X182717330Y-86745412D01*
X182717220Y-86871633D01*
X182787513Y-87041756D01*
X182917559Y-87172029D01*
X183087559Y-87242620D01*
X183271633Y-87242780D01*
X183441756Y-87172487D01*
X183572029Y-87042441D01*
X183642620Y-86872441D01*
X183642780Y-86688367D01*
X183572487Y-86518244D01*
X183442441Y-86387971D01*
X183272441Y-86317380D01*
X183145352Y-86317270D01*
X181864041Y-85035959D01*
X181765838Y-84970342D01*
X181650000Y-84947300D01*
X181196251Y-84947300D01*
X181185838Y-84940342D01*
X181070000Y-84917300D01*
X180954162Y-84940342D01*
X180943749Y-84947300D01*
X166875383Y-84947300D01*
X166762700Y-84834617D01*
X166762700Y-82005260D01*
X168505260Y-80262700D01*
X170437300Y-80262700D01*
X170437300Y-81082659D01*
M02*
