G04 #@! TF.FileFunction,Soldermask,Bot*
%FSLAX46Y46*%
G04 Gerber Fmt 4.6, Leading zero omitted, Abs format (unit mm)*
G04 Created by KiCad (PCBNEW 4.0.2-stable) date 4/4/2016 10:35:23 AM*
%MOMM*%
G01*
G04 APERTURE LIST*
%ADD10C,0.100000*%
%ADD11C,2.400000*%
%ADD12C,2.127200*%
%ADD13C,1.708000*%
%ADD14O,1.708000X3.016000*%
%ADD15C,1.822400*%
%ADD16R,2.127200X2.432000*%
%ADD17O,2.127200X2.432000*%
G04 APERTURE END LIST*
D10*
D11*
X208270000Y-110375000D03*
X210810000Y-110375000D03*
X189730000Y-110375000D03*
X197730000Y-92000000D03*
X200270000Y-92000000D03*
X187190000Y-110375000D03*
X189730000Y-69625000D03*
X187190000Y-69625000D03*
X208270000Y-69625000D03*
X200270000Y-88000000D03*
X197730000Y-88000000D03*
X210810000Y-69625000D03*
D10*
G36*
X159940981Y-62332050D02*
X160310365Y-60237167D01*
X162705417Y-60659480D01*
X162336033Y-62754363D01*
X159940981Y-62332050D01*
X159940981Y-62332050D01*
G37*
D12*
X160732048Y-63970713D02*
X161032218Y-64023641D01*
X160290981Y-66472124D02*
X160591151Y-66525052D01*
X159849915Y-68973536D02*
X160150085Y-69026464D01*
X159408849Y-71474948D02*
X159709019Y-71527876D01*
X158967782Y-73976359D02*
X159267952Y-74029287D01*
X158526716Y-76477771D02*
X158826886Y-76530699D01*
D10*
G36*
X138504083Y-95223767D02*
X136999925Y-93719609D01*
X138719609Y-91999925D01*
X140223767Y-93504083D01*
X138504083Y-95223767D01*
X138504083Y-95223767D01*
G37*
D12*
X140300135Y-95515661D02*
X140515661Y-95300135D01*
X142096186Y-97311712D02*
X142311712Y-97096186D01*
X143892237Y-99107763D02*
X144107763Y-98892237D01*
X145688288Y-100903814D02*
X145903814Y-100688288D01*
X147484339Y-102699865D02*
X147699865Y-102484339D01*
X149280391Y-104495917D02*
X149495917Y-104280391D01*
D10*
G36*
X147776233Y-75504083D02*
X149280391Y-73999925D01*
X151000075Y-75719609D01*
X149495917Y-77223767D01*
X147776233Y-75504083D01*
X147776233Y-75504083D01*
G37*
D12*
X147484339Y-77300135D02*
X147699865Y-77515661D01*
X145688288Y-79096186D02*
X145903814Y-79311712D01*
X143892237Y-80892237D02*
X144107763Y-81107763D01*
X142096186Y-82688288D02*
X142311712Y-82903814D01*
X140300135Y-84484339D02*
X140515661Y-84699865D01*
X138504083Y-86280391D02*
X138719609Y-86495917D01*
D10*
G36*
X156663967Y-104754363D02*
X156294583Y-102659480D01*
X158689635Y-102237167D01*
X159059019Y-104332050D01*
X156663967Y-104754363D01*
X156663967Y-104754363D01*
G37*
D12*
X157967782Y-106023641D02*
X158267952Y-105970713D01*
X158408849Y-108525052D02*
X158709019Y-108472124D01*
X158849915Y-111026464D02*
X159150085Y-110973536D01*
X159290981Y-113527876D02*
X159591151Y-113474948D01*
X159732048Y-116029287D02*
X160032218Y-115976359D01*
X160173114Y-118530699D02*
X160473284Y-118477771D01*
D13*
X227540000Y-122000000D03*
X225000000Y-122000000D03*
X222460000Y-122000000D03*
D14*
X227027500Y-110952500D03*
X229027500Y-110952500D03*
X231027500Y-110952500D03*
X227027500Y-116952500D03*
X229027500Y-116952500D03*
X231027500Y-116952500D03*
D15*
X161590000Y-91990000D03*
X161590000Y-89450000D03*
X169210000Y-89450000D03*
X169210000Y-94530000D03*
X169210000Y-102150000D03*
X161590000Y-94530000D03*
X169210000Y-99610000D03*
X161590000Y-102150000D03*
X169210000Y-91990000D03*
X161590000Y-97070000D03*
X169210000Y-97070000D03*
X161590000Y-99610000D03*
D16*
X177000000Y-124000000D03*
D17*
X174460000Y-124000000D03*
X171920000Y-124000000D03*
X169380000Y-124000000D03*
X166840000Y-124000000D03*
D16*
X177000000Y-56000000D03*
D17*
X174460000Y-56000000D03*
X171920000Y-56000000D03*
X169380000Y-56000000D03*
X166840000Y-56000000D03*
M02*
