G04 #@! TF.FileFunction,Copper,L1,Top,Signal*
%FSLAX46Y46*%
G04 Gerber Fmt 4.6, Leading zero omitted, Abs format (unit mm)*
G04 Created by KiCad (PCBNEW 4.0.6) date 03/30/17 05:01:34*
%MOMM*%
%LPD*%
G01*
G04 APERTURE LIST*
%ADD10C,0.100000*%
%ADD11R,1.300000X1.550000*%
%ADD12R,1.700000X0.900000*%
%ADD13R,1.600000X1.000000*%
%ADD14R,1.000000X1.600000*%
%ADD15R,0.500000X0.900000*%
%ADD16R,0.900000X0.500000*%
%ADD17R,0.797560X0.797560*%
%ADD18R,0.230000X0.600000*%
%ADD19R,0.600000X0.230000*%
%ADD20R,0.300000X1.200000*%
%ADD21R,1.200000X0.300000*%
%ADD22C,1.308000*%
%ADD23O,1.308000X2.616000*%
%ADD24R,2.370000X2.430000*%
%ADD25R,0.800000X0.750000*%
%ADD26R,0.750000X0.800000*%
%ADD27R,1.473200X0.355600*%
%ADD28R,2.946400X3.581400*%
%ADD29C,1.422400*%
%ADD30R,1.250000X1.000000*%
%ADD31R,1.000000X2.500000*%
%ADD32R,2.500000X1.000000*%
%ADD33R,0.550000X1.000000*%
%ADD34R,1.500000X0.550000*%
%ADD35C,1.700000*%
%ADD36R,0.450000X0.700000*%
%ADD37R,1.700000X1.700000*%
%ADD38O,1.700000X1.700000*%
%ADD39R,1.350000X1.350000*%
%ADD40O,1.350000X1.350000*%
%ADD41C,2.000000*%
%ADD42C,1.200000*%
%ADD43C,1.800000*%
%ADD44C,0.600000*%
%ADD45C,0.800000*%
%ADD46C,0.400000*%
%ADD47C,1.500000*%
%ADD48C,0.600000*%
%ADD49C,0.280000*%
%ADD50C,1.800000*%
%ADD51C,2.600000*%
%ADD52C,0.200000*%
%ADD53C,0.025400*%
%ADD54C,0.254000*%
G04 APERTURE END LIST*
D10*
D11*
X225250000Y-123975000D03*
X220750000Y-123975000D03*
X220750000Y-116025000D03*
X225250000Y-116025000D03*
D12*
X220500000Y-85950000D03*
X220500000Y-83050000D03*
X220500000Y-94050000D03*
X220500000Y-96950000D03*
D13*
X187750000Y-82000000D03*
X187750000Y-85000000D03*
D14*
X188100000Y-98000000D03*
X185100000Y-98000000D03*
X165700000Y-113700000D03*
X162700000Y-113700000D03*
X170300000Y-65800000D03*
X173300000Y-65800000D03*
D15*
X183399000Y-101085000D03*
X181899000Y-101085000D03*
X183399000Y-102885000D03*
X181899000Y-102885000D03*
X183399000Y-104685000D03*
X181899000Y-104685000D03*
D16*
X176200000Y-77750000D03*
X176200000Y-76250000D03*
X178000000Y-76250000D03*
X178000000Y-77750000D03*
X177200000Y-66350000D03*
X177200000Y-64850000D03*
D15*
X230750000Y-114000000D03*
X232250000Y-114000000D03*
X223250000Y-114000000D03*
X224750000Y-114000000D03*
D16*
X204800000Y-90150000D03*
X204800000Y-88650000D03*
X197500000Y-93150000D03*
X197500000Y-91650000D03*
X152000000Y-87250000D03*
X152000000Y-88750000D03*
X153750000Y-88000000D03*
X153750000Y-89500000D03*
X178400000Y-81150000D03*
X178400000Y-82650000D03*
D15*
X183399000Y-106485000D03*
X181899000Y-106485000D03*
X154750000Y-56500000D03*
X153250000Y-56500000D03*
D17*
X180598300Y-106485000D03*
X179099700Y-106485000D03*
X180598300Y-102885000D03*
X179099700Y-102885000D03*
X180598300Y-104685000D03*
X179099700Y-104685000D03*
X175400000Y-64850700D03*
X175400000Y-66349300D03*
X180598300Y-101085000D03*
X179099700Y-101085000D03*
D18*
X150000000Y-88500000D03*
X149600000Y-88500000D03*
X149200000Y-88500000D03*
X148800000Y-88500000D03*
X148400000Y-88500000D03*
X148000000Y-88500000D03*
D19*
X147500000Y-89000000D03*
X147500000Y-89400000D03*
X147500000Y-89800000D03*
X147500000Y-90200000D03*
X147500000Y-90600000D03*
X147500000Y-91000000D03*
D18*
X148000000Y-91500000D03*
X148400000Y-91500000D03*
X148800000Y-91500000D03*
X149200000Y-91500000D03*
X149600000Y-91500000D03*
X150000000Y-91500000D03*
D19*
X150500000Y-91000000D03*
X150500000Y-90600000D03*
X150500000Y-90200000D03*
X150500000Y-89800000D03*
X150500000Y-89400000D03*
X150500000Y-89000000D03*
D20*
X178249937Y-84249937D03*
D21*
X174249937Y-89249937D03*
X174249937Y-92749938D03*
X174249937Y-93249938D03*
X174249937Y-93749938D03*
D20*
X176249937Y-95749938D03*
X177749937Y-95749938D03*
X178249937Y-95749938D03*
X178749937Y-95749938D03*
X179249937Y-95749938D03*
D21*
X185749938Y-89749937D03*
X185749938Y-89249937D03*
X185749938Y-88749937D03*
X185749938Y-88249937D03*
X185749938Y-87749937D03*
X185749938Y-87249937D03*
D20*
X183749938Y-84249937D03*
X183249938Y-84249937D03*
X180749938Y-95749938D03*
X181249938Y-95749938D03*
X181749938Y-95749938D03*
X180749938Y-84249937D03*
X180249938Y-84249937D03*
X179749937Y-84249937D03*
X179249937Y-84249937D03*
X178749937Y-84249937D03*
X177749937Y-84249937D03*
X177249937Y-84249937D03*
X182249938Y-95749938D03*
X182749938Y-95749938D03*
D21*
X185749938Y-93749938D03*
X185749938Y-93249938D03*
X185749938Y-92749938D03*
X185749938Y-92249938D03*
X174249937Y-89749937D03*
X174249937Y-90249938D03*
X174249937Y-90749938D03*
X174249937Y-91249938D03*
D20*
X179749937Y-95749938D03*
X180249938Y-95749938D03*
D21*
X185749938Y-91749938D03*
X185749938Y-91249938D03*
X185749938Y-90749938D03*
X185749938Y-90249938D03*
D20*
X182749938Y-84249937D03*
X182249938Y-84249937D03*
X181749938Y-84249937D03*
D21*
X174249937Y-86749937D03*
X174249937Y-87249937D03*
X174249937Y-87749937D03*
D20*
X181249938Y-84249937D03*
D21*
X174249937Y-88249937D03*
X174249937Y-88749937D03*
X174249937Y-86249937D03*
D20*
X183249938Y-95749938D03*
D21*
X185749938Y-86749937D03*
X174249937Y-92249938D03*
D20*
X177249937Y-95749938D03*
X183749938Y-95749938D03*
D21*
X185749938Y-86249937D03*
D20*
X176249937Y-84249937D03*
D21*
X174249937Y-91749938D03*
D20*
X176749937Y-95749938D03*
X176749937Y-84249937D03*
D22*
X227330000Y-57150000D03*
X224790000Y-57150000D03*
X222250000Y-57150000D03*
D23*
X231972500Y-67047500D03*
X229972500Y-67047500D03*
X227972500Y-67047500D03*
X231972500Y-62047500D03*
X229972500Y-62047500D03*
X227972500Y-62047500D03*
D11*
X164650000Y-73975000D03*
X160150000Y-73975000D03*
X160150000Y-66025000D03*
X164650000Y-66025000D03*
X232750000Y-123975000D03*
X228250000Y-123975000D03*
X228250000Y-116025000D03*
X232750000Y-116025000D03*
D24*
X226880000Y-90000000D03*
X233120000Y-90000000D03*
D25*
X172650000Y-68000000D03*
X174150000Y-68000000D03*
X171150000Y-68000000D03*
X169650000Y-68000000D03*
X177150000Y-68000000D03*
X175650000Y-68000000D03*
X165650000Y-111800000D03*
X164150000Y-111800000D03*
D26*
X146100000Y-90850000D03*
X146100000Y-89350000D03*
X142400000Y-90750000D03*
X142400000Y-89250000D03*
X226500000Y-100250000D03*
X226500000Y-101750000D03*
X227250000Y-80500000D03*
X227250000Y-79000000D03*
D25*
X162850000Y-75900000D03*
X164350000Y-75900000D03*
X171750000Y-92000000D03*
X170250000Y-92000000D03*
D26*
X174500000Y-82750000D03*
X174500000Y-84250000D03*
X172750000Y-84250000D03*
X172750000Y-82750000D03*
D25*
X175050000Y-97700000D03*
X176550000Y-97700000D03*
X186551000Y-96012000D03*
X185051000Y-96012000D03*
D26*
X185674000Y-84316000D03*
X185674000Y-82816000D03*
D25*
X178150000Y-74800000D03*
X176650000Y-74800000D03*
D27*
X223319400Y-81575840D03*
X223319400Y-80925600D03*
X223319400Y-80275359D03*
X223319400Y-79625119D03*
X223319400Y-78974881D03*
X223319400Y-78324641D03*
X223319400Y-77674400D03*
X223319400Y-77024160D03*
X217680600Y-77024160D03*
X217680600Y-77674400D03*
X217680600Y-78324641D03*
X217680600Y-78974881D03*
X217680600Y-79625119D03*
X217680600Y-80275359D03*
X217680600Y-80925600D03*
X217680600Y-81575840D03*
D28*
X220500000Y-79300000D03*
D27*
X217680600Y-98424160D03*
X217680600Y-99074400D03*
X217680600Y-99724641D03*
X217680600Y-100374881D03*
X217680600Y-101025119D03*
X217680600Y-101675359D03*
X217680600Y-102325600D03*
X217680600Y-102975840D03*
X223319400Y-102975840D03*
X223319400Y-102325600D03*
X223319400Y-101675359D03*
X223319400Y-101025119D03*
X223319400Y-100374881D03*
X223319400Y-99724641D03*
X223319400Y-99074400D03*
X223319400Y-98424160D03*
D28*
X220500000Y-100700000D03*
D29*
X168090000Y-108690000D03*
X168090000Y-106150000D03*
X175710000Y-106150000D03*
X175710000Y-111230000D03*
X175710000Y-118850000D03*
X168090000Y-111230000D03*
X175710000Y-116310000D03*
X168090000Y-118850000D03*
X175710000Y-108690000D03*
X168090000Y-113770000D03*
X175710000Y-113770000D03*
X168090000Y-116310000D03*
D30*
X144300000Y-91000000D03*
X144300000Y-89000000D03*
D31*
X179700000Y-75600000D03*
X182700000Y-75600000D03*
D32*
X174800000Y-69900000D03*
X174800000Y-72900000D03*
D33*
X172349938Y-72550063D03*
X171399937Y-72550063D03*
X170449937Y-72550063D03*
X172349938Y-69850062D03*
X170449937Y-69850062D03*
D34*
X182900063Y-71835063D03*
X177500062Y-71835063D03*
X182900063Y-73105063D03*
X182900063Y-70565062D03*
X182900063Y-69295062D03*
X177500062Y-70565062D03*
X177500062Y-69295062D03*
X177500062Y-73105063D03*
D10*
G36*
X154810514Y-114484688D02*
X154515312Y-112810514D01*
X156189486Y-112515312D01*
X156484688Y-114189486D01*
X154810514Y-114484688D01*
X154810514Y-114484688D01*
G37*
D35*
X155941066Y-116001412D02*
X155941066Y-116001412D01*
D10*
G36*
X148250000Y-95547918D02*
X149452082Y-96750000D01*
X148250000Y-97952082D01*
X147047918Y-96750000D01*
X148250000Y-95547918D01*
X148250000Y-95547918D01*
G37*
D35*
X146453949Y-94953949D02*
X146453949Y-94953949D01*
D10*
G36*
X147452082Y-84250000D02*
X146250000Y-85452082D01*
X145047918Y-84250000D01*
X146250000Y-83047918D01*
X147452082Y-84250000D01*
X147452082Y-84250000D01*
G37*
D35*
X148046051Y-82453949D02*
X148046051Y-82453949D01*
D10*
G36*
X155015312Y-64689486D02*
X155310514Y-63015312D01*
X156984688Y-63310514D01*
X156689486Y-64984688D01*
X155015312Y-64689486D01*
X155015312Y-64689486D01*
G37*
D35*
X155558934Y-66501412D02*
X155558934Y-66501412D01*
D36*
X161150000Y-119250000D03*
X159850000Y-119250000D03*
X160500000Y-121250000D03*
X156150000Y-99000000D03*
X154850000Y-99000000D03*
X155500000Y-101000000D03*
X152600000Y-82250000D03*
X153900000Y-82250000D03*
X153250000Y-80250000D03*
X158150000Y-60100000D03*
X159450000Y-60100000D03*
X158800000Y-58100000D03*
D10*
G36*
X151810514Y-114984688D02*
X151515312Y-113310514D01*
X153189486Y-113015312D01*
X153484688Y-114689486D01*
X151810514Y-114984688D01*
X151810514Y-114984688D01*
G37*
D35*
X152941066Y-116501412D02*
X152941066Y-116501412D01*
D10*
G36*
X144500000Y-98202082D02*
X143297918Y-97000000D01*
X144500000Y-95797918D01*
X145702082Y-97000000D01*
X144500000Y-98202082D01*
X144500000Y-98202082D01*
G37*
D35*
X146296051Y-98796051D02*
X146296051Y-98796051D01*
D10*
G36*
X145452082Y-82250000D02*
X144250000Y-83452082D01*
X143047918Y-82250000D01*
X144250000Y-81047918D01*
X145452082Y-82250000D01*
X145452082Y-82250000D01*
G37*
D35*
X146046051Y-80453949D02*
X146046051Y-80453949D01*
D10*
G36*
X152015312Y-64189486D02*
X152310514Y-62515312D01*
X153984688Y-62810514D01*
X153689486Y-64484688D01*
X152015312Y-64189486D01*
X152015312Y-64189486D01*
G37*
D35*
X152558934Y-66001412D02*
X152558934Y-66001412D01*
D37*
X177000000Y-56000000D03*
D38*
X174460000Y-56000000D03*
X171920000Y-56000000D03*
X169380000Y-56000000D03*
X166840000Y-56000000D03*
X164300000Y-56000000D03*
D39*
X219500000Y-91500000D03*
D40*
X221500000Y-91500000D03*
D39*
X221500000Y-88500000D03*
D40*
X219500000Y-88500000D03*
D41*
X208270000Y-110375000D03*
X210810000Y-110375000D03*
X189730000Y-110375000D03*
X187190000Y-110375000D03*
X189730000Y-69625000D03*
X187190000Y-69625000D03*
X208270000Y-69625000D03*
X210810000Y-69625000D03*
D16*
X153000000Y-59650000D03*
X153000000Y-58150000D03*
X145750000Y-75250000D03*
X145750000Y-73750000D03*
D15*
X146250000Y-103250000D03*
X147750000Y-103250000D03*
D16*
X152500000Y-120250000D03*
X152500000Y-121750000D03*
X159200000Y-63050000D03*
X159200000Y-61550000D03*
X161100000Y-59850000D03*
X161100000Y-58350000D03*
X151750000Y-85250000D03*
X151750000Y-83750000D03*
X155500000Y-82250000D03*
X155500000Y-80750000D03*
D15*
X153250000Y-96000000D03*
X154750000Y-96000000D03*
D16*
X153250000Y-99250000D03*
X153250000Y-100750000D03*
D15*
X159750000Y-117500000D03*
X161250000Y-117500000D03*
D16*
X158250000Y-119250000D03*
X158250000Y-120750000D03*
D25*
X229250000Y-114000000D03*
X227750000Y-114000000D03*
X221750000Y-114000000D03*
X220250000Y-114000000D03*
X155750000Y-70900000D03*
X157250000Y-70900000D03*
X155750000Y-69250000D03*
X157250000Y-69250000D03*
D26*
X151000000Y-81250000D03*
X151000000Y-79750000D03*
X149250000Y-78750000D03*
X149250000Y-77250000D03*
X151500000Y-99500000D03*
X151500000Y-101000000D03*
X149750000Y-99500000D03*
X149750000Y-101000000D03*
X156600000Y-119400000D03*
X156600000Y-120900000D03*
X155000000Y-120000000D03*
X155000000Y-121500000D03*
D37*
X177000000Y-124000000D03*
D38*
X174460000Y-124000000D03*
X171920000Y-124000000D03*
X169380000Y-124000000D03*
X166840000Y-124000000D03*
X164300000Y-124000000D03*
X161760000Y-124000000D03*
D17*
X180581300Y-108204000D03*
X179082700Y-108204000D03*
X180581300Y-109982000D03*
X179082700Y-109982000D03*
D15*
X183376000Y-108204000D03*
X181876000Y-108204000D03*
X183376000Y-109982000D03*
X181876000Y-109982000D03*
D42*
X181000000Y-79800000D03*
X181100000Y-88700000D03*
D43*
X211500000Y-75700000D03*
X211500000Y-83000000D03*
X211300000Y-104900000D03*
X211300000Y-95700000D03*
D44*
X226750000Y-78000000D03*
D43*
X187000000Y-100750000D03*
D42*
X151600000Y-58900000D03*
X193300000Y-69600000D03*
D44*
X215000000Y-79000000D03*
X225000000Y-101500000D03*
X225500000Y-101000000D03*
D42*
X220500000Y-81400000D03*
X220500000Y-84250000D03*
X220500000Y-98700000D03*
X220500000Y-96000000D03*
D43*
X229500000Y-90000000D03*
D44*
X222000000Y-83000000D03*
X219000000Y-83000000D03*
X222000000Y-97000000D03*
X219000000Y-97000000D03*
D43*
X220500000Y-79300000D03*
X220500000Y-100700000D03*
D42*
X179500000Y-112000000D03*
D43*
X188900000Y-83500000D03*
D44*
X177100000Y-81600000D03*
D43*
X168750000Y-81750000D03*
D42*
X173700000Y-98000000D03*
D44*
X145400000Y-88600000D03*
X148800000Y-89700000D03*
X152000000Y-90700000D03*
D42*
X158000000Y-67400000D03*
D44*
X156600000Y-82000000D03*
D42*
X185250000Y-80250000D03*
D44*
X163500000Y-67750000D03*
D42*
X160750000Y-56750000D03*
D44*
X162750000Y-74250000D03*
D42*
X143500000Y-75250000D03*
D44*
X175500000Y-91750000D03*
D42*
X147500000Y-105250000D03*
X152500000Y-123250000D03*
X168750000Y-91750000D03*
D43*
X167900000Y-78100000D03*
X167600000Y-67600000D03*
X172000000Y-63800000D03*
X187750000Y-80000000D03*
X194000000Y-74500000D03*
X172800000Y-77600000D03*
X185400000Y-75400000D03*
X173400000Y-75400000D03*
D44*
X155500000Y-91000000D03*
X199600000Y-93100000D03*
D42*
X201400000Y-91700000D03*
D44*
X203500000Y-89700000D03*
D42*
X222200000Y-75800000D03*
D43*
X201000000Y-63750000D03*
X212750000Y-64750000D03*
X170180000Y-76200000D03*
X171000000Y-82000000D03*
D42*
X155500000Y-87000000D03*
X173500000Y-95000000D03*
X164900000Y-96300000D03*
D44*
X175750000Y-61250000D03*
X183500000Y-82250000D03*
X174750000Y-61250000D03*
X184000000Y-87250000D03*
X160750000Y-64500000D03*
D42*
X151500000Y-98250000D03*
D43*
X168500000Y-71250000D03*
D44*
X205000000Y-65400000D03*
D43*
X162750000Y-84750000D03*
X150500000Y-70500000D03*
D44*
X185750000Y-78250000D03*
X214500000Y-100000000D03*
X219250000Y-93250000D03*
X221750000Y-86750000D03*
X225750000Y-79250000D03*
X177000000Y-87250000D03*
X160800000Y-89000000D03*
X176500000Y-86500000D03*
X160100000Y-88100000D03*
X186750000Y-78250000D03*
X177000000Y-88250000D03*
X151000000Y-93250000D03*
X147000000Y-91500000D03*
X161900000Y-89600000D03*
X177400000Y-109800000D03*
X166700000Y-92000000D03*
X163800000Y-94400000D03*
X166100000Y-91300000D03*
X163000000Y-93100000D03*
X152000000Y-78500000D03*
X157400000Y-72900000D03*
X179600000Y-89800000D03*
X179400000Y-77600000D03*
X194310000Y-105918000D03*
X187579000Y-107315000D03*
X194945000Y-106553000D03*
X188214000Y-107950000D03*
D45*
X180900000Y-79700000D02*
X181000000Y-79800000D01*
D46*
X227250000Y-79000000D02*
X227250000Y-78500000D01*
X227250000Y-78500000D02*
X226750000Y-78000000D01*
D47*
X188100000Y-98000000D02*
X188100000Y-99650000D01*
X188100000Y-99650000D02*
X187000000Y-100750000D01*
D48*
X153000000Y-58150000D02*
X152350000Y-58150000D01*
X152350000Y-58150000D02*
X151600000Y-58900000D01*
D45*
X208270000Y-69625000D02*
X193325000Y-69625000D01*
X193325000Y-69625000D02*
X193300000Y-69600000D01*
D49*
X215500000Y-78500000D02*
X216000000Y-79000000D01*
X216000000Y-79000000D02*
X217655481Y-79000000D01*
X217655481Y-79000000D02*
X217680600Y-78974881D01*
X217680600Y-78324641D02*
X215675359Y-78324641D01*
X215675359Y-78324641D02*
X215500000Y-78500000D01*
X215500000Y-78500000D02*
X215000000Y-79000000D01*
X226500000Y-101750000D02*
X225250000Y-101750000D01*
X224824641Y-101675359D02*
X225000000Y-101500000D01*
X224824641Y-101675359D02*
X223319400Y-101675359D01*
X225250000Y-101750000D02*
X225000000Y-101500000D01*
X226500000Y-101750000D02*
X226250000Y-101750000D01*
X226250000Y-101750000D02*
X225500000Y-101000000D01*
X223319400Y-101025119D02*
X225474881Y-101025119D01*
X225474881Y-101025119D02*
X225500000Y-101000000D01*
D45*
X220500000Y-81400000D02*
X220500000Y-84250000D01*
X220500000Y-79300000D02*
X220500000Y-81400000D01*
X220500000Y-98700000D02*
X220500000Y-96000000D01*
X220500000Y-100700000D02*
X220500000Y-98700000D01*
D50*
X229500000Y-90000000D02*
X226880000Y-90000000D01*
D45*
X220500000Y-82000000D02*
X221000000Y-82000000D01*
X221000000Y-82000000D02*
X222000000Y-83000000D01*
X220500000Y-82000000D02*
X220000000Y-82000000D01*
D50*
X220500000Y-79300000D02*
X220500000Y-82000000D01*
D45*
X220000000Y-82000000D02*
X219000000Y-83000000D01*
X220500000Y-98000000D02*
X221000000Y-98000000D01*
X221000000Y-98000000D02*
X222000000Y-97000000D01*
X220500000Y-98000000D02*
X220000000Y-98000000D01*
D50*
X220500000Y-100700000D02*
X220500000Y-98000000D01*
D45*
X220000000Y-98000000D02*
X219000000Y-97000000D01*
D50*
X221500000Y-84250000D02*
X219250000Y-84250000D01*
X220450000Y-83050000D02*
X219250000Y-84250000D01*
X221500000Y-84250000D02*
X220500000Y-83250000D01*
X220500000Y-83050000D02*
X220500000Y-83250000D01*
X220500000Y-83050000D02*
X220450000Y-83050000D01*
X221750000Y-96000000D02*
X219500000Y-96000000D01*
X220450000Y-96950000D02*
X219500000Y-96000000D01*
X221750000Y-96000000D02*
X220800000Y-96950000D01*
X220500000Y-96950000D02*
X220800000Y-96950000D01*
X220500000Y-96950000D02*
X220450000Y-96950000D01*
D45*
X217680600Y-78600000D02*
X219800000Y-78600000D01*
X219800000Y-78600000D02*
X220500000Y-79300000D01*
X223319400Y-101300000D02*
X221100000Y-101300000D01*
X221100000Y-101300000D02*
X220500000Y-100700000D01*
D46*
X223319400Y-101025119D02*
X223319400Y-101300000D01*
X223319400Y-101300000D02*
X223319400Y-101675359D01*
X217680600Y-78974881D02*
X217680600Y-78600000D01*
X217680600Y-78600000D02*
X217680600Y-78324641D01*
D51*
X220500000Y-96950000D02*
X220500000Y-100700000D01*
X220500000Y-83050000D02*
X220500000Y-79300000D01*
D50*
X227972500Y-62047500D02*
X227972500Y-67047500D01*
X212500000Y-72200000D02*
X213000000Y-72200000D01*
X223152500Y-62047500D02*
X227972500Y-62047500D01*
X213000000Y-72200000D02*
X223152500Y-62047500D01*
D45*
X232250000Y-114000000D02*
X232250000Y-115525000D01*
X232250000Y-115525000D02*
X232750000Y-116025000D01*
X224750000Y-114000000D02*
X224750000Y-115525000D01*
X224750000Y-115525000D02*
X225250000Y-116025000D01*
X232750000Y-116025000D02*
X232750000Y-123975000D01*
X225250000Y-116025000D02*
X225250000Y-123975000D01*
X222500000Y-126000000D02*
X230725000Y-126000000D01*
X230725000Y-126000000D02*
X232750000Y-123975000D01*
X217805000Y-116840000D02*
X217840000Y-116840000D01*
X197231000Y-116840000D02*
X217805000Y-116840000D01*
X190766000Y-110375000D02*
X197231000Y-116840000D01*
X189730000Y-110375000D02*
X190766000Y-110375000D01*
X223225000Y-126000000D02*
X225250000Y-123975000D01*
X219500000Y-126000000D02*
X222500000Y-126000000D01*
X222500000Y-126000000D02*
X223225000Y-126000000D01*
X219000000Y-125500000D02*
X219500000Y-126000000D01*
X219000000Y-118000000D02*
X219000000Y-125500000D01*
X217840000Y-116840000D02*
X219000000Y-118000000D01*
X179082700Y-109982000D02*
X179082700Y-111582700D01*
X179082700Y-111582700D02*
X179500000Y-112000000D01*
X179082700Y-108204000D02*
X179082700Y-109982000D01*
X179099700Y-106485000D02*
X179099700Y-108187000D01*
X179099700Y-108187000D02*
X179082700Y-108204000D01*
X179099700Y-106485000D02*
X179099700Y-111599700D01*
X179099700Y-111599700D02*
X179500000Y-112000000D01*
X187750000Y-82000000D02*
X186490000Y-82000000D01*
X186490000Y-82000000D02*
X185674000Y-82816000D01*
D47*
X187750000Y-82000000D02*
X187750000Y-82350000D01*
X187750000Y-82350000D02*
X188900000Y-83500000D01*
D49*
X178400000Y-81150000D02*
X177550000Y-81150000D01*
X177550000Y-81150000D02*
X177100000Y-81600000D01*
D47*
X188100000Y-98000000D02*
X188100000Y-98600000D01*
X188100000Y-98600000D02*
X193000000Y-103500000D01*
X193000000Y-103500000D02*
X193000000Y-107105000D01*
X193000000Y-107105000D02*
X189730000Y-110375000D01*
D45*
X179099700Y-101085000D02*
X179099700Y-102885000D01*
X179099700Y-102885000D02*
X179099700Y-104685000D01*
X179099700Y-104685000D02*
X179099700Y-106485000D01*
D49*
X184800000Y-96800000D02*
X186202000Y-96800000D01*
X186202000Y-96800000D02*
X186551000Y-96451000D01*
X183249938Y-95749938D02*
X183249938Y-96541824D01*
X183249938Y-96541824D02*
X183508114Y-96800000D01*
X183508114Y-96800000D02*
X184800000Y-96800000D01*
D45*
X186551000Y-96451000D02*
X188100000Y-98000000D01*
X186551000Y-96012000D02*
X186551000Y-96451000D01*
X175050000Y-97700000D02*
X174000000Y-97700000D01*
X174000000Y-97700000D02*
X173700000Y-98000000D01*
D49*
X176749937Y-95749938D02*
X176749937Y-96450063D01*
X176749937Y-96450063D02*
X176400000Y-96800000D01*
X176400000Y-96800000D02*
X175500000Y-96800000D01*
X175500000Y-96800000D02*
X175050000Y-97250000D01*
X175050000Y-97250000D02*
X175050000Y-97700000D01*
D45*
X168090000Y-111230000D02*
X167430000Y-111230000D01*
X167430000Y-111230000D02*
X166300000Y-110100000D01*
X166300000Y-110100000D02*
X164900000Y-110100000D01*
X164900000Y-110100000D02*
X164150000Y-110850000D01*
X164150000Y-110850000D02*
X164150000Y-111800000D01*
D52*
X144300000Y-89000000D02*
X145000000Y-89000000D01*
X145000000Y-89000000D02*
X145400000Y-88600000D01*
X147500000Y-89800000D02*
X148700000Y-89800000D01*
X148700000Y-89800000D02*
X148800000Y-89700000D01*
X151200000Y-90600000D02*
X151900000Y-90600000D01*
X151900000Y-90600000D02*
X152000000Y-90700000D01*
X150500000Y-89800000D02*
X150100000Y-89800000D01*
X150100000Y-89800000D02*
X149300000Y-90600000D01*
X151300000Y-90600000D02*
X151200000Y-90600000D01*
X151200000Y-90600000D02*
X150500000Y-90600000D01*
X150000000Y-91500000D02*
X151000000Y-91500000D01*
X151000000Y-91500000D02*
X151300000Y-91200000D01*
X151300000Y-91200000D02*
X151300000Y-90600000D01*
X147500000Y-90600000D02*
X148700000Y-90600000D01*
X147500000Y-89800000D02*
X147900000Y-89800000D01*
X147900000Y-89800000D02*
X148700000Y-90600000D01*
X148700000Y-90600000D02*
X149300000Y-90600000D01*
X149300000Y-90600000D02*
X150500000Y-90600000D01*
X147500000Y-89800000D02*
X146550000Y-89800000D01*
X146550000Y-89800000D02*
X146100000Y-89350000D01*
D45*
X142400000Y-89250000D02*
X144050000Y-89250000D01*
X144050000Y-89250000D02*
X144150000Y-89350000D01*
X144150000Y-89350000D02*
X146100000Y-89350000D01*
D48*
X155000000Y-121500000D02*
X152750000Y-121500000D01*
X152750000Y-121500000D02*
X152500000Y-121750000D01*
X157250000Y-69250000D02*
X157250000Y-68150000D01*
X157250000Y-68150000D02*
X158000000Y-67400000D01*
D49*
X155500000Y-80750000D02*
X155500000Y-80900000D01*
X155500000Y-80900000D02*
X156600000Y-82000000D01*
D45*
X145750000Y-73750000D02*
X147500000Y-73750000D01*
X147500000Y-73750000D02*
X149250000Y-75500000D01*
X149250000Y-75500000D02*
X149250000Y-77250000D01*
X147750000Y-103250000D02*
X147750000Y-103000000D01*
X147750000Y-103000000D02*
X149750000Y-101000000D01*
X162700000Y-113700000D02*
X162700000Y-113250000D01*
X162700000Y-113250000D02*
X164150000Y-111800000D01*
X158250000Y-120750000D02*
X160000000Y-120750000D01*
X160000000Y-120750000D02*
X160500000Y-121250000D01*
X156600000Y-120900000D02*
X158100000Y-120900000D01*
X158100000Y-120900000D02*
X158250000Y-120750000D01*
X155000000Y-121500000D02*
X156000000Y-121500000D01*
X156000000Y-121500000D02*
X156600000Y-120900000D01*
X157250000Y-70900000D02*
X157250000Y-69250000D01*
D48*
X153250000Y-80250000D02*
X155000000Y-80250000D01*
X155000000Y-80250000D02*
X155500000Y-80750000D01*
X151000000Y-79750000D02*
X152750000Y-79750000D01*
X152750000Y-79750000D02*
X153250000Y-80250000D01*
X149750000Y-101000000D02*
X151000000Y-101000000D01*
X151000000Y-101000000D02*
X151500000Y-101000000D01*
X151500000Y-101000000D02*
X153000000Y-101000000D01*
X153000000Y-101000000D02*
X153250000Y-100750000D01*
X153250000Y-100750000D02*
X155250000Y-100750000D01*
X155250000Y-100750000D02*
X155500000Y-101000000D01*
D45*
X185674000Y-82816000D02*
X185674000Y-80674000D01*
X185674000Y-80674000D02*
X185250000Y-80250000D01*
X187750000Y-82000000D02*
X187750000Y-85000000D01*
D49*
X164650000Y-66025000D02*
X164650000Y-66600000D01*
X164650000Y-66600000D02*
X163500000Y-67750000D01*
X164650000Y-66025000D02*
X164275000Y-66025000D01*
D48*
X158750000Y-58050000D02*
X158800000Y-58100000D01*
X158800000Y-58100000D02*
X160850000Y-58100000D01*
X160850000Y-58100000D02*
X161100000Y-58350000D01*
X161100000Y-58350000D02*
X160600000Y-56900000D01*
X160600000Y-56900000D02*
X160750000Y-56750000D01*
D49*
X164650000Y-73975000D02*
X163025000Y-73975000D01*
X163025000Y-73975000D02*
X162750000Y-74250000D01*
X164350000Y-75900000D02*
X164350000Y-74275000D01*
X164350000Y-74275000D02*
X164650000Y-73975000D01*
D45*
X145750000Y-73750000D02*
X145000000Y-73750000D01*
X145000000Y-73750000D02*
X143500000Y-75250000D01*
D49*
X174249937Y-91749938D02*
X175499938Y-91749938D01*
X175499938Y-91749938D02*
X175500000Y-91750000D01*
D45*
X153300000Y-58150000D02*
X152900000Y-58150000D01*
X147750000Y-103250000D02*
X147750000Y-105000000D01*
X147750000Y-105000000D02*
X147500000Y-105250000D01*
X152500000Y-121750000D02*
X152500000Y-123250000D01*
D48*
X170250000Y-92000000D02*
X169000000Y-92000000D01*
X169000000Y-92000000D02*
X168750000Y-91750000D01*
D45*
X170000000Y-80500000D02*
X168400000Y-78600000D01*
X168400000Y-78600000D02*
X167900000Y-78100000D01*
X172750000Y-82750000D02*
X172750000Y-81250000D01*
X170000000Y-80500000D02*
X168750000Y-81750000D01*
X172000000Y-80500000D02*
X170000000Y-80500000D01*
X172750000Y-81250000D02*
X172000000Y-80500000D01*
D50*
X194000000Y-72200000D02*
X211200000Y-72200000D01*
D45*
X169250000Y-67600000D02*
X167600000Y-67600000D01*
X169650000Y-68000000D02*
X169250000Y-67600000D01*
X172800000Y-64600000D02*
X172000000Y-63800000D01*
X172800000Y-64600000D02*
X173400000Y-64600000D01*
X174500000Y-82750000D02*
X172750000Y-82750000D01*
D49*
X176749937Y-84249937D02*
X176749937Y-83249937D01*
X176250000Y-82750000D02*
X174500000Y-82750000D01*
X176749937Y-83249937D02*
X176250000Y-82750000D01*
D45*
X187750000Y-82000000D02*
X187750000Y-80000000D01*
D49*
X185749938Y-86749937D02*
X186749937Y-86749937D01*
X187750000Y-85749874D02*
X187750000Y-85000000D01*
X186749937Y-86749937D02*
X187750000Y-85749874D01*
D50*
X194000000Y-72200000D02*
X194000000Y-74500000D01*
D45*
X173400000Y-65700000D02*
X173400000Y-64600000D01*
X174400000Y-79200000D02*
X172800000Y-77600000D01*
D50*
X182700000Y-75600000D02*
X182900000Y-75400000D01*
X182900000Y-75400000D02*
X185400000Y-75400000D01*
D45*
X174800000Y-72900000D02*
X173400000Y-74300000D01*
X173400000Y-74300000D02*
X173400000Y-75400000D01*
X173300000Y-65800000D02*
X173400000Y-65700000D01*
X175400000Y-66349300D02*
X175650000Y-66599300D01*
X175650000Y-66599300D02*
X175650000Y-68000000D01*
X175650000Y-68000000D02*
X175600000Y-67950000D01*
X174150000Y-68000000D02*
X175650000Y-68000000D01*
X173300000Y-65800000D02*
X174150000Y-66650000D01*
X174150000Y-66650000D02*
X174150000Y-68000000D01*
X169650000Y-68150000D02*
X169650000Y-68000000D01*
D46*
X171399937Y-72550063D02*
X171400000Y-72550126D01*
X171400000Y-72550126D02*
X171400000Y-73800000D01*
D45*
X174800000Y-72900000D02*
X173900000Y-73800000D01*
X173900000Y-73800000D02*
X171400000Y-73800000D01*
D47*
X176650000Y-75200000D02*
X174800000Y-73350000D01*
X174800000Y-73350000D02*
X174800000Y-72900000D01*
D45*
X176200000Y-76250000D02*
X176650000Y-75800000D01*
X176650000Y-75800000D02*
X176650000Y-75200000D01*
X176650000Y-75200000D02*
X176650000Y-74800000D01*
X175000000Y-76400000D02*
X175150000Y-76250000D01*
X174400000Y-77000000D02*
X175000000Y-76400000D01*
X182700000Y-75600000D02*
X179100000Y-79200000D01*
X179100000Y-79200000D02*
X174400000Y-79200000D01*
X174400000Y-79200000D02*
X174400000Y-77000000D01*
X175150000Y-76250000D02*
X176200000Y-76250000D01*
D47*
X182900063Y-73105063D02*
X182700000Y-73305126D01*
X182700000Y-73305126D02*
X182700000Y-75600000D01*
D45*
X182900063Y-73105063D02*
X183000000Y-73005126D01*
X183000000Y-73005126D02*
X183000000Y-72400000D01*
X183000000Y-72400000D02*
X182800000Y-72400000D01*
X182900063Y-71835063D02*
X182800000Y-71935126D01*
X182800000Y-71935126D02*
X182800000Y-72400000D01*
X182800000Y-72400000D02*
X182800000Y-72400000D01*
D47*
X186800000Y-72200000D02*
X186600000Y-72400000D01*
D50*
X186800000Y-72200000D02*
X194000000Y-72200000D01*
D47*
X186600000Y-72400000D02*
X182800000Y-72400000D01*
D50*
X211200000Y-72200000D02*
X212500000Y-72200000D01*
D49*
X168000000Y-107400000D02*
X165600000Y-107400000D01*
X164400000Y-103100000D02*
X166400000Y-101100000D01*
X164400000Y-106200000D02*
X164400000Y-103100000D01*
X165600000Y-107400000D02*
X164400000Y-106200000D01*
X169000000Y-98500000D02*
X171500000Y-98500000D01*
X169000000Y-98500000D02*
X166400000Y-101100000D01*
X175750062Y-95749938D02*
X176249937Y-95749938D01*
X175000000Y-96500000D02*
X175750062Y-95749938D01*
X173500000Y-96500000D02*
X175000000Y-96500000D01*
X171500000Y-98500000D02*
X173500000Y-96500000D01*
X168000000Y-107400000D02*
X169500000Y-107400000D01*
X169500000Y-107400000D02*
X170100000Y-108000000D01*
X170100000Y-108000000D02*
X170100000Y-123280000D01*
X170100000Y-123280000D02*
X169380000Y-124000000D01*
X165800000Y-108400000D02*
X163900000Y-106500000D01*
X163900000Y-102700000D02*
X165900000Y-100700000D01*
X163900000Y-106500000D02*
X163900000Y-102700000D01*
X166800000Y-99800000D02*
X165900000Y-100700000D01*
X172850062Y-93749938D02*
X166800000Y-99800000D01*
X174249937Y-93749938D02*
X172850062Y-93749938D01*
X165800000Y-108400000D02*
X167300000Y-109900000D01*
X167300000Y-109900000D02*
X167400000Y-110000000D01*
X167400000Y-110000000D02*
X168900000Y-110000000D01*
X168900000Y-110000000D02*
X169400000Y-110500000D01*
X169400000Y-112500000D02*
X169400000Y-121440000D01*
X169400000Y-121440000D02*
X166840000Y-124000000D01*
X169400000Y-110500000D02*
X169400000Y-112500000D01*
D46*
X152000000Y-92500000D02*
X153000000Y-92500000D01*
D52*
X148000000Y-92250000D02*
X148250000Y-92500000D01*
X148250000Y-92500000D02*
X152000000Y-92500000D01*
X148000000Y-91500000D02*
X148000000Y-92250000D01*
D46*
X154500000Y-91000000D02*
X155500000Y-91000000D01*
X153000000Y-92500000D02*
X154500000Y-91000000D01*
X197500000Y-93150000D02*
X199550000Y-93150000D01*
X199550000Y-93150000D02*
X199600000Y-93100000D01*
D45*
X202100000Y-92100000D02*
X213250000Y-103250000D01*
X201400000Y-91700000D02*
X201800000Y-92100000D01*
X201800000Y-92100000D02*
X202100000Y-92100000D01*
D49*
X203950000Y-90150000D02*
X204800000Y-90150000D01*
X203500000Y-89700000D02*
X203950000Y-90150000D01*
D45*
X222719400Y-76319400D02*
X223680600Y-76319400D01*
X222200000Y-75800000D02*
X222719400Y-76319400D01*
X223680600Y-76319400D02*
X223319400Y-76319400D01*
D46*
X223319400Y-77024160D02*
X223319400Y-76319400D01*
D45*
X199750000Y-63750000D02*
X201000000Y-63750000D01*
X213250000Y-103250000D02*
X217680600Y-103250000D01*
D46*
X217680600Y-102975840D02*
X217680600Y-103250000D01*
D45*
X211750000Y-63750000D02*
X212750000Y-64750000D01*
X176500000Y-62400000D02*
X178150000Y-62400000D01*
X179500000Y-63750000D02*
X199750000Y-63750000D01*
X199750000Y-63750000D02*
X210500000Y-63750000D01*
X178150000Y-62400000D02*
X179500000Y-63750000D01*
X210500000Y-63750000D02*
X211750000Y-63750000D01*
X172250000Y-84250000D02*
X171250000Y-83250000D01*
X172750000Y-84250000D02*
X172250000Y-84250000D01*
X171250000Y-83250000D02*
X171250000Y-82250000D01*
X171250000Y-82250000D02*
X171000000Y-82000000D01*
D48*
X153750000Y-88000000D02*
X154500000Y-88000000D01*
X154500000Y-88000000D02*
X155500000Y-87000000D01*
D45*
X161760000Y-124000000D02*
X161760000Y-121940000D01*
X161760000Y-121940000D02*
X162500000Y-121200000D01*
X162500000Y-121200000D02*
X162500000Y-116800000D01*
X162500000Y-116800000D02*
X161000000Y-115300000D01*
X161000000Y-115300000D02*
X161000000Y-100200000D01*
X161000000Y-100200000D02*
X164900000Y-96300000D01*
D49*
X177249937Y-95749938D02*
X177249937Y-96750063D01*
X177249937Y-96750063D02*
X176550000Y-97450000D01*
X176550000Y-97450000D02*
X176550000Y-97700000D01*
D52*
X148000000Y-91500000D02*
X148000000Y-91700000D01*
X148000000Y-91700000D02*
X147600000Y-92100000D01*
X147600000Y-92100000D02*
X145400000Y-92100000D01*
X145400000Y-92100000D02*
X144300000Y-91000000D01*
D48*
X152000000Y-87250000D02*
X153000000Y-87250000D01*
X153000000Y-87250000D02*
X153750000Y-88000000D01*
D52*
X152000000Y-87250000D02*
X151250000Y-87250000D01*
X151250000Y-87250000D02*
X150000000Y-88500000D01*
X147500000Y-89400000D02*
X146900000Y-89400000D01*
X146900000Y-89400000D02*
X146900000Y-88400000D01*
X146900000Y-88400000D02*
X147600000Y-87700000D01*
X147600000Y-87700000D02*
X149900000Y-87700000D01*
X149900000Y-87700000D02*
X150000000Y-87800000D01*
X150000000Y-87800000D02*
X150000000Y-88500000D01*
X144300000Y-91000000D02*
X144700000Y-91000000D01*
D45*
X142400000Y-90750000D02*
X144050000Y-90750000D01*
X144050000Y-90750000D02*
X144300000Y-91000000D01*
X160750000Y-54250000D02*
X160750000Y-54500000D01*
X162500000Y-57750000D02*
X168000000Y-63250000D01*
X162500000Y-56250000D02*
X162500000Y-57750000D01*
X160750000Y-54500000D02*
X162500000Y-56250000D01*
X177000000Y-56000000D02*
X177000000Y-55000000D01*
D47*
X158500000Y-56500000D02*
X154750000Y-56500000D01*
X158500000Y-56500000D02*
X160750000Y-54250000D01*
D45*
X176250000Y-54250000D02*
X160750000Y-54250000D01*
X177000000Y-55000000D02*
X176250000Y-54250000D01*
D49*
X185500000Y-84250000D02*
X185500000Y-85999999D01*
D45*
X170300000Y-65800000D02*
X170300000Y-62100000D01*
X172000000Y-61600000D02*
X172800000Y-62400000D01*
X170800000Y-61600000D02*
X172000000Y-61600000D01*
X170300000Y-62100000D02*
X170800000Y-61600000D01*
X174500000Y-84250000D02*
X172750000Y-84250000D01*
D49*
X176249937Y-84249937D02*
X174500063Y-84249937D01*
X174500063Y-84249937D02*
X174500000Y-84250000D01*
X185500000Y-85999999D02*
X185749938Y-86249937D01*
X185250000Y-96000000D02*
X184000000Y-96000000D01*
X184000000Y-96000000D02*
X183749938Y-95749938D01*
D45*
X178400000Y-62400000D02*
X177000000Y-61000000D01*
X177000000Y-61000000D02*
X177000000Y-56000000D01*
X172800000Y-62400000D02*
X176500000Y-62400000D01*
X176500000Y-62400000D02*
X178400000Y-62400000D01*
D47*
X170300000Y-65800000D02*
X171150000Y-66650000D01*
X171150000Y-66650000D02*
X171150000Y-68000000D01*
D45*
X170449937Y-69850062D02*
X171150000Y-69149999D01*
X171150000Y-69149999D02*
X171150000Y-68000000D01*
D49*
X174460000Y-56000000D02*
X174460000Y-59960000D01*
X174460000Y-59960000D02*
X175750000Y-61250000D01*
X183500000Y-82250000D02*
X183749938Y-82499938D01*
X183749938Y-82499938D02*
X183749938Y-84249937D01*
X169380000Y-56000000D02*
X169500000Y-56000000D01*
X169500000Y-56000000D02*
X174750000Y-61250000D01*
X184000000Y-87250000D02*
X184000063Y-87249937D01*
X184000063Y-87249937D02*
X185749938Y-87249937D01*
X160750000Y-64500000D02*
X160150000Y-65100000D01*
X160150000Y-65100000D02*
X160150000Y-66025000D01*
X160150000Y-66025000D02*
X160150000Y-73975000D01*
X162850000Y-75900000D02*
X162075000Y-75900000D01*
X162075000Y-75900000D02*
X160150000Y-73975000D01*
X174249937Y-89249937D02*
X172999937Y-89249937D01*
X162850000Y-79100000D02*
X162850000Y-75900000D01*
X172999937Y-89249937D02*
X162850000Y-79100000D01*
D45*
X172349938Y-69850062D02*
X172650000Y-69550000D01*
X172650000Y-69550000D02*
X172650000Y-68000000D01*
D47*
X175710000Y-113770000D02*
X186230000Y-113770000D01*
X186230000Y-113770000D02*
X187190000Y-112810000D01*
X187190000Y-112810000D02*
X187190000Y-110375000D01*
D45*
X155750000Y-70900000D02*
X154500000Y-70900000D01*
X154500000Y-70900000D02*
X154600000Y-71000000D01*
X154600000Y-71000000D02*
X154600000Y-71300000D01*
X154600000Y-71300000D02*
X154500000Y-71300000D01*
X155558934Y-66501412D02*
X155558934Y-69058934D01*
X155558934Y-69058934D02*
X155750000Y-69250000D01*
X155750000Y-69250000D02*
X155750000Y-70900000D01*
X151500000Y-99500000D02*
X151500000Y-98250000D01*
X149750000Y-99500000D02*
X150250000Y-99500000D01*
X150250000Y-99500000D02*
X151500000Y-98250000D01*
X169149874Y-71250000D02*
X170449937Y-72550063D01*
X168500000Y-71250000D02*
X169149874Y-71250000D01*
X170449937Y-72550063D02*
X169800063Y-72550063D01*
X169800063Y-72550063D02*
X168500000Y-71250000D01*
X170500000Y-71200000D02*
X168550000Y-71200000D01*
X168550000Y-71200000D02*
X168500000Y-71250000D01*
D47*
X165700000Y-113700000D02*
X165700000Y-111850000D01*
X165700000Y-111850000D02*
X165650000Y-111800000D01*
X168090000Y-113770000D02*
X165770000Y-113770000D01*
X165770000Y-113770000D02*
X165700000Y-113700000D01*
D45*
X155000000Y-120000000D02*
X155000000Y-119250000D01*
X155000000Y-119250000D02*
X155941066Y-118308934D01*
X155941066Y-116001412D02*
X155941066Y-118308934D01*
X155941066Y-118308934D02*
X155941066Y-118741066D01*
X155941066Y-118741066D02*
X156600000Y-119400000D01*
X148046051Y-82453949D02*
X149796051Y-82453949D01*
X149796051Y-82453949D02*
X151000000Y-81250000D01*
X149250000Y-78750000D02*
X149250000Y-80500000D01*
X149250000Y-80500000D02*
X150000000Y-81250000D01*
X150000000Y-81250000D02*
X151000000Y-81250000D01*
X149250000Y-78750000D02*
X150000000Y-78750000D01*
X150000000Y-78750000D02*
X154500000Y-74250000D01*
X154500000Y-74250000D02*
X154500000Y-71300000D01*
X154500000Y-71300000D02*
X154500000Y-67560346D01*
X154500000Y-67560346D02*
X155558934Y-66501412D01*
X177500062Y-70565062D02*
X177500062Y-69295062D01*
X182600000Y-66200000D02*
X183400000Y-65400000D01*
X177350000Y-66200000D02*
X178800000Y-66200000D01*
X178800000Y-66200000D02*
X182600000Y-66200000D01*
X183400000Y-65400000D02*
X205000000Y-65400000D01*
X177200000Y-66350000D02*
X177350000Y-66200000D01*
X177200000Y-66350000D02*
X177150000Y-66400000D01*
X177150000Y-66400000D02*
X177150000Y-68000000D01*
X170400000Y-71200000D02*
X170500000Y-71200000D01*
X170500000Y-71200000D02*
X173500000Y-71200000D01*
X170400000Y-72500126D02*
X170400000Y-71200000D01*
X173000000Y-71200000D02*
X173000000Y-71700000D01*
X173500000Y-71200000D02*
X173000000Y-71200000D01*
X170449937Y-72550063D02*
X170400000Y-72500126D01*
X174800000Y-69900000D02*
X173000000Y-71700000D01*
X173000000Y-71700000D02*
X172349938Y-72350062D01*
X172349938Y-72350062D02*
X172349938Y-72550063D01*
X177500062Y-69295062D02*
X177150000Y-68945000D01*
X177150000Y-68945000D02*
X177150000Y-68000000D01*
D47*
X177500062Y-69295062D02*
X176895124Y-69900000D01*
X176895124Y-69900000D02*
X174800000Y-69900000D01*
D52*
X147500000Y-90200000D02*
X146750000Y-90200000D01*
X146750000Y-90200000D02*
X146100000Y-90850000D01*
D49*
X223319400Y-100374881D02*
X225125119Y-100374881D01*
X230000000Y-93120000D02*
X233120000Y-90000000D01*
X230000000Y-95500000D02*
X230000000Y-93120000D01*
X225125119Y-100374881D02*
X226500000Y-99000000D01*
X226500000Y-99000000D02*
X230000000Y-95500000D01*
X223319400Y-79625119D02*
X224875119Y-79625119D01*
X230000000Y-86880000D02*
X233120000Y-90000000D01*
X230000000Y-84750000D02*
X230000000Y-86880000D01*
X224875119Y-79625119D02*
X226750000Y-81500000D01*
X226750000Y-81500000D02*
X230000000Y-84750000D01*
D51*
X233120000Y-90000000D02*
X233120000Y-70630000D01*
X233120000Y-70630000D02*
X235000000Y-68750000D01*
D50*
X222250000Y-55880000D02*
X223520000Y-54610000D01*
X227750000Y-54610000D02*
X230610000Y-54610000D01*
X230610000Y-54610000D02*
X235000000Y-59000000D01*
X235000000Y-59000000D02*
X235000000Y-68750000D01*
X222250000Y-57150000D02*
X222250000Y-55880000D01*
X223520000Y-54610000D02*
X227750000Y-54610000D01*
X214940000Y-67000000D02*
X222250000Y-59690000D01*
X222250000Y-59690000D02*
X222250000Y-57150000D01*
X211600000Y-67000000D02*
X214940000Y-67000000D01*
X211600000Y-67000000D02*
X184000000Y-67000000D01*
X184000000Y-67000000D02*
X182900063Y-68099937D01*
X182900063Y-68099937D02*
X182900063Y-69750000D01*
D45*
X182900063Y-70565062D02*
X182900063Y-69295062D01*
X182900063Y-69295062D02*
X183000000Y-69394999D01*
X183000000Y-69394999D02*
X183000000Y-69750000D01*
X183000000Y-69750000D02*
X182900063Y-69750000D01*
D50*
X182900063Y-69750000D02*
X182900063Y-69295062D01*
D45*
X179700000Y-75600000D02*
X179050000Y-76250000D01*
X179050000Y-76250000D02*
X178000000Y-76250000D01*
X179700000Y-75600000D02*
X178900000Y-74800000D01*
X178900000Y-74800000D02*
X178150000Y-74800000D01*
D47*
X182900063Y-69295062D02*
X179700000Y-72495125D01*
X179700000Y-72495125D02*
X179700000Y-75600000D01*
X164125000Y-88500000D02*
X164125000Y-91125000D01*
X164125000Y-91125000D02*
X164250000Y-91250000D01*
X162750000Y-84750000D02*
X164125000Y-86125000D01*
X164125000Y-86125000D02*
X164125000Y-88500000D01*
D45*
X171750000Y-92000000D02*
X171750000Y-92250000D01*
X171750000Y-92250000D02*
X171000000Y-93000000D01*
X171000000Y-93000000D02*
X166000000Y-93000000D01*
X166000000Y-93000000D02*
X164250000Y-91250000D01*
D49*
X174249937Y-92249938D02*
X171999938Y-92249938D01*
X171999938Y-92249938D02*
X171750000Y-92000000D01*
D45*
X177200000Y-64850000D02*
X177199300Y-64850700D01*
X177199300Y-64850700D02*
X175400000Y-64850700D01*
X181899000Y-101085000D02*
X180598300Y-101085000D01*
D49*
X202000000Y-103160000D02*
X202760000Y-103160000D01*
X202760000Y-103160000D02*
X206800000Y-107200000D01*
X206800000Y-107200000D02*
X207635000Y-107200000D01*
X207635000Y-107200000D02*
X210810000Y-110375000D01*
X185749938Y-91249938D02*
X189519938Y-91249938D01*
X201430000Y-103160000D02*
X202000000Y-103160000D01*
X189519938Y-91249938D02*
X201430000Y-103160000D01*
X179749937Y-84249937D02*
X179749937Y-83000063D01*
X179749937Y-83000063D02*
X184500000Y-78250000D01*
X184500000Y-78250000D02*
X185750000Y-78250000D01*
X181749938Y-95749938D02*
X181749938Y-97849938D01*
X181749938Y-97849938D02*
X184200000Y-100300000D01*
X184200000Y-100300000D02*
X184200000Y-103884000D01*
X184200000Y-103884000D02*
X183399000Y-104685000D01*
X182249938Y-95749938D02*
X182249938Y-97549938D01*
X182249938Y-97549938D02*
X184800000Y-100100000D01*
X184800000Y-100100000D02*
X184800000Y-105084000D01*
X184800000Y-105084000D02*
X183399000Y-106485000D01*
X214500000Y-100000000D02*
X215525119Y-101025119D01*
X215900000Y-101025119D02*
X215525119Y-101025119D01*
X217680600Y-101025119D02*
X215900000Y-101025119D01*
X219250000Y-93250000D02*
X220050000Y-94050000D01*
X220050000Y-94050000D02*
X220500000Y-94050000D01*
D48*
X223319400Y-98424160D02*
X223319400Y-94569400D01*
X222800000Y-94050000D02*
X220500000Y-94050000D01*
X223319400Y-94569400D02*
X222800000Y-94050000D01*
X217680600Y-98424160D02*
X217680600Y-94569400D01*
X218200000Y-94050000D02*
X220500000Y-94050000D01*
X217680600Y-94569400D02*
X218200000Y-94050000D01*
D49*
X223319400Y-78974881D02*
X225474881Y-78974881D01*
X221750000Y-86750000D02*
X220950000Y-85950000D01*
X225474881Y-78974881D02*
X225750000Y-79250000D01*
X220950000Y-85950000D02*
X220500000Y-85950000D01*
D48*
X223319400Y-81575840D02*
X223319400Y-84930600D01*
X222300000Y-85950000D02*
X220500000Y-85950000D01*
X223319400Y-84930600D02*
X222300000Y-85950000D01*
X217680600Y-81575840D02*
X217680600Y-85180600D01*
X218450000Y-85950000D02*
X220500000Y-85950000D01*
X217680600Y-85180600D02*
X218450000Y-85950000D01*
D49*
X178249937Y-84249937D02*
X178249937Y-82800063D01*
X178249937Y-82800063D02*
X178400000Y-82650000D01*
X177749937Y-86500063D02*
X177749937Y-84249937D01*
X177000000Y-87250000D02*
X177749937Y-86500063D01*
D52*
X153750000Y-89500000D02*
X160300000Y-89500000D01*
X160300000Y-89500000D02*
X160800000Y-89000000D01*
X150500000Y-89400000D02*
X152600000Y-89400000D01*
X152700000Y-89500000D02*
X153750000Y-89500000D01*
X152600000Y-89400000D02*
X152700000Y-89500000D01*
X153650000Y-89400000D02*
X153750000Y-89500000D01*
D49*
X177249937Y-85750063D02*
X177249937Y-84249937D01*
X176500000Y-86500000D02*
X177249937Y-85750063D01*
X159450000Y-88750000D02*
X160100000Y-88100000D01*
X158600000Y-88750000D02*
X159450000Y-88750000D01*
X157500000Y-88750000D02*
X158600000Y-88750000D01*
X152000000Y-88750000D02*
X157500000Y-88750000D01*
D52*
X150500000Y-89000000D02*
X151750000Y-89000000D01*
X151750000Y-89000000D02*
X152000000Y-88750000D01*
D49*
X196700000Y-90749938D02*
X197149938Y-90749938D01*
X197500000Y-91100000D02*
X197500000Y-91650000D01*
X197149938Y-90749938D02*
X197500000Y-91100000D01*
X198700000Y-90749938D02*
X198949938Y-90749938D01*
X224525600Y-102325600D02*
X223319400Y-102325600D01*
X224900000Y-102700000D02*
X224525600Y-102325600D01*
X224900000Y-103900000D02*
X224900000Y-102700000D01*
X224400000Y-104400000D02*
X224900000Y-103900000D01*
X213100000Y-104400000D02*
X224400000Y-104400000D01*
X201800000Y-93100000D02*
X213100000Y-104400000D01*
X201300000Y-93100000D02*
X201800000Y-93100000D01*
X198949938Y-90749938D02*
X201300000Y-93100000D01*
X185749938Y-90749938D02*
X196700000Y-90749938D01*
X196700000Y-90749938D02*
X197500000Y-90749938D01*
X197500000Y-90749938D02*
X198700000Y-90749938D01*
X204200000Y-87600000D02*
X204200000Y-88050000D01*
X204200000Y-88050000D02*
X204800000Y-88650000D01*
X214800000Y-77674400D02*
X214125600Y-77674400D01*
X202550063Y-89249937D02*
X199499937Y-89249937D01*
X214125600Y-77674400D02*
X204200000Y-87600000D01*
X204200000Y-87600000D02*
X202550063Y-89249937D01*
X215400000Y-77674400D02*
X214800000Y-77674400D01*
X217680600Y-77674400D02*
X215400000Y-77674400D01*
X185749938Y-89249937D02*
X199499937Y-89249937D01*
X199499937Y-89249937D02*
X199500000Y-89250000D01*
X185749938Y-92249938D02*
X188149938Y-92249938D01*
X226550000Y-112800000D02*
X227750000Y-114000000D01*
X219600000Y-112800000D02*
X226550000Y-112800000D01*
X219000000Y-113400000D02*
X219600000Y-112800000D01*
X207000000Y-113400000D02*
X219000000Y-113400000D01*
X192300000Y-98700000D02*
X207000000Y-113400000D01*
X192300000Y-96400000D02*
X192300000Y-98700000D01*
X188149938Y-92249938D02*
X192300000Y-96400000D01*
D45*
X227750000Y-114000000D02*
X227750000Y-115525000D01*
X227750000Y-115525000D02*
X228250000Y-116025000D01*
X228250000Y-123975000D02*
X228250000Y-116025000D01*
D49*
X185749938Y-92749938D02*
X187849938Y-92749938D01*
X206900000Y-114000000D02*
X220250000Y-114000000D01*
X191800000Y-98900000D02*
X206900000Y-114000000D01*
X191800000Y-96700000D02*
X191800000Y-98900000D01*
X187849938Y-92749938D02*
X191800000Y-96700000D01*
D45*
X220250000Y-114000000D02*
X220250000Y-115525000D01*
X220250000Y-115525000D02*
X220750000Y-116025000D01*
X220750000Y-123975000D02*
X220750000Y-116025000D01*
D49*
X180249938Y-84249937D02*
X180249938Y-83250062D01*
X180249938Y-83250062D02*
X184500000Y-79000000D01*
X184500000Y-79000000D02*
X186000000Y-79000000D01*
X186000000Y-79000000D02*
X186750000Y-78250000D01*
X217680600Y-101675359D02*
X213925359Y-101675359D01*
X201999937Y-89749937D02*
X199499937Y-89749937D01*
X213925359Y-101675359D02*
X201999937Y-89749937D01*
X185749938Y-89749937D02*
X199499937Y-89749937D01*
X199499937Y-89749937D02*
X199500000Y-89750000D01*
X216100000Y-75400000D02*
X214500000Y-75400000D01*
X201650063Y-88249937D02*
X199499937Y-88249937D01*
X214500000Y-75400000D02*
X201650063Y-88249937D01*
X216100000Y-75400000D02*
X219000000Y-75400000D01*
X219000000Y-75400000D02*
X220100000Y-74300000D01*
X223319400Y-78324641D02*
X224875359Y-78324641D01*
X224875359Y-78324641D02*
X225500000Y-77700000D01*
X225500000Y-77700000D02*
X225500000Y-75700000D01*
X225500000Y-75700000D02*
X224100000Y-74300000D01*
X224100000Y-74300000D02*
X220100000Y-74300000D01*
X185749938Y-88249937D02*
X198200000Y-88249937D01*
X198200000Y-88249937D02*
X199499937Y-88249937D01*
X199499937Y-88249937D02*
X199500000Y-88250000D01*
X217680600Y-102325600D02*
X213575600Y-102325600D01*
X199250000Y-90250000D02*
X199250000Y-90249938D01*
X201500000Y-90250000D02*
X199250000Y-90250000D01*
X213575600Y-102325600D02*
X201500000Y-90250000D01*
X185749938Y-90249938D02*
X199250000Y-90249938D01*
X199250000Y-90249938D02*
X199499938Y-90249938D01*
X199499938Y-90249938D02*
X199500000Y-90250000D01*
X216700000Y-76050000D02*
X214850000Y-76050000D01*
X202150063Y-88749937D02*
X199499937Y-88749937D01*
X214850000Y-76050000D02*
X202150063Y-88749937D01*
X216700000Y-76050000D02*
X219350000Y-76050000D01*
X219350000Y-76050000D02*
X220500000Y-74900000D01*
X224500000Y-77674400D02*
X224525600Y-77674400D01*
X223319400Y-77674400D02*
X224500000Y-77674400D01*
X224525600Y-77674400D02*
X224900000Y-77300000D01*
X224900000Y-77300000D02*
X224900000Y-76000000D01*
X224900000Y-76000000D02*
X223800000Y-74900000D01*
X223800000Y-74900000D02*
X220500000Y-74900000D01*
X185749938Y-88749937D02*
X199499937Y-88749937D01*
X199499937Y-88749937D02*
X199500000Y-88750000D01*
X201400000Y-103730000D02*
X202530000Y-103730000D01*
X202530000Y-103730000D02*
X206600000Y-107800000D01*
X206600000Y-107800000D02*
X207400000Y-107800000D01*
X207400000Y-107800000D02*
X208270000Y-108670000D01*
X208270000Y-108670000D02*
X208270000Y-110375000D01*
X201240000Y-103730000D02*
X201400000Y-103730000D01*
X189259938Y-91749938D02*
X201240000Y-103730000D01*
X185749938Y-91749938D02*
X189259938Y-91749938D01*
X178749937Y-86500063D02*
X178749937Y-84249937D01*
X177000000Y-88250000D02*
X178749937Y-86500063D01*
X151000000Y-93250000D02*
X154500000Y-93250000D01*
X154500000Y-93250000D02*
X157650000Y-90100000D01*
X157650000Y-90100000D02*
X161400000Y-90100000D01*
D52*
X147500000Y-91000000D02*
X147000000Y-91500000D01*
D49*
X161400000Y-90100000D02*
X161900000Y-89600000D01*
D52*
X147500000Y-91000000D02*
X147500000Y-91100000D01*
D49*
X175710000Y-111230000D02*
X175710000Y-110810000D01*
X175710000Y-110810000D02*
X174400000Y-109500000D01*
X174400000Y-109500000D02*
X174400000Y-107900000D01*
X174400000Y-107900000D02*
X174900000Y-107400000D01*
X174900000Y-107400000D02*
X176400000Y-107400000D01*
X176400000Y-107400000D02*
X177000000Y-106800000D01*
X177000000Y-106800000D02*
X177000000Y-105600000D01*
X177000000Y-105600000D02*
X173300000Y-101900000D01*
X173300000Y-101900000D02*
X173300000Y-101100000D01*
X173300000Y-101100000D02*
X174500000Y-99900000D01*
X174500000Y-99900000D02*
X175400000Y-99900000D01*
X179249937Y-95749938D02*
X179249937Y-97950063D01*
X179249937Y-97950063D02*
X177300000Y-99900000D01*
X177300000Y-99900000D02*
X175400000Y-99900000D01*
X177400000Y-109800000D02*
X178000000Y-109200000D01*
X178000000Y-109200000D02*
X178000000Y-104900000D01*
X178000000Y-104900000D02*
X175700000Y-102600000D01*
X175700000Y-102600000D02*
X175000000Y-101900000D01*
X175000000Y-101900000D02*
X175000000Y-101400000D01*
X175000000Y-101400000D02*
X175400000Y-101000000D01*
X175400000Y-101000000D02*
X177000000Y-101000000D01*
X180249938Y-95749938D02*
X180249938Y-98450062D01*
X180249938Y-98450062D02*
X177700000Y-101000000D01*
X177700000Y-101000000D02*
X177000000Y-101000000D01*
X175710000Y-106150000D02*
X174950000Y-106150000D01*
X174950000Y-106150000D02*
X172600000Y-103800000D01*
X172600000Y-103800000D02*
X172600000Y-100800000D01*
X172600000Y-100800000D02*
X174000000Y-99400000D01*
X174000000Y-99400000D02*
X174800000Y-99400000D01*
X178249937Y-95749938D02*
X178249937Y-98250063D01*
X178249937Y-98250063D02*
X177100000Y-99400000D01*
X177100000Y-99400000D02*
X174800000Y-99400000D01*
X175710000Y-108690000D02*
X176010000Y-108690000D01*
X176010000Y-108690000D02*
X177500000Y-107200000D01*
X177500000Y-107200000D02*
X177500000Y-105200000D01*
X177500000Y-105200000D02*
X174300000Y-102000000D01*
X174300000Y-102000000D02*
X174300000Y-101000000D01*
X174300000Y-101000000D02*
X174900000Y-100400000D01*
X174900000Y-100400000D02*
X176300000Y-100400000D01*
X179749937Y-95749938D02*
X179749937Y-98150063D01*
X179749937Y-98150063D02*
X177500000Y-100400000D01*
X177500000Y-100400000D02*
X176300000Y-100400000D01*
X168090000Y-106150000D02*
X168090000Y-104310000D01*
X168090000Y-104310000D02*
X173500000Y-98900000D01*
X173500000Y-98900000D02*
X174400000Y-98900000D01*
X177749937Y-95749938D02*
X177749937Y-98050063D01*
X177749937Y-98050063D02*
X176900000Y-98900000D01*
X176900000Y-98900000D02*
X174400000Y-98900000D01*
D45*
X181899000Y-104685000D02*
X180598300Y-104685000D01*
X180598300Y-102885000D02*
X181899000Y-102885000D01*
X180598300Y-106485000D02*
X181899000Y-106485000D01*
D49*
X181249938Y-95749938D02*
X181249938Y-98049938D01*
X181249938Y-98049938D02*
X183399000Y-100199000D01*
X183399000Y-100199000D02*
X183399000Y-101085000D01*
X180749938Y-95749938D02*
X180749938Y-98349938D01*
X180749938Y-98349938D02*
X182700000Y-100300000D01*
X182700000Y-100300000D02*
X182700000Y-102186000D01*
X182700000Y-102186000D02*
X183399000Y-102885000D01*
D50*
X231972500Y-62047500D02*
X231972500Y-67047500D01*
D47*
X224790000Y-57150000D02*
X224790000Y-57590000D01*
X224790000Y-57590000D02*
X226400000Y-59200000D01*
X226400000Y-59200000D02*
X231400000Y-59200000D01*
X231400000Y-59200000D02*
X231972500Y-59772500D01*
X231972500Y-59772500D02*
X231972500Y-62047500D01*
D49*
X184100000Y-98000000D02*
X185100000Y-98000000D01*
X182749938Y-96649938D02*
X184100000Y-98000000D01*
X182749938Y-95749938D02*
X182749938Y-96649938D01*
D48*
X155500000Y-113500000D02*
X155900000Y-113500000D01*
X155900000Y-113500000D02*
X159750000Y-117350000D01*
X159750000Y-117350000D02*
X159750000Y-117500000D01*
D49*
X148250000Y-96750000D02*
X152500000Y-96750000D01*
X152500000Y-96750000D02*
X153250000Y-96000000D01*
X148250000Y-96750000D02*
X148750000Y-96750000D01*
D48*
X151750000Y-85250000D02*
X147250000Y-85250000D01*
X147250000Y-85250000D02*
X146250000Y-84250000D01*
X159200000Y-63050000D02*
X156950000Y-63050000D01*
X156950000Y-63050000D02*
X156000000Y-64000000D01*
X161250000Y-117500000D02*
X161250000Y-119150000D01*
X161250000Y-119150000D02*
X161150000Y-119250000D01*
D45*
X158250000Y-119250000D02*
X159850000Y-119250000D01*
D49*
X160750000Y-98950000D02*
X158200000Y-101500000D01*
X158200000Y-101500000D02*
X158200000Y-114400000D01*
X158200000Y-114400000D02*
X160500000Y-116700000D01*
X160500000Y-116700000D02*
X160500000Y-116600000D01*
X165600000Y-94250000D02*
X165450000Y-94250000D01*
X165450000Y-94250000D02*
X160750000Y-98950000D01*
X159850000Y-119250000D02*
X160500000Y-118600000D01*
X160500000Y-118600000D02*
X160500000Y-116600000D01*
X165600000Y-94250000D02*
X171600000Y-94250000D01*
X171600000Y-94250000D02*
X172600062Y-93249938D01*
X172600062Y-93249938D02*
X174249937Y-93249938D01*
X154750000Y-96000000D02*
X154750000Y-97600000D01*
X154750000Y-97600000D02*
X156150000Y-99000000D01*
X162750000Y-91750000D02*
X162750000Y-87750000D01*
X162750000Y-87750000D02*
X158750000Y-83750000D01*
X158750000Y-83750000D02*
X157000000Y-83750000D01*
X157000000Y-83750000D02*
X155500000Y-82250000D01*
X162750000Y-91750000D02*
X164750000Y-93750000D01*
D48*
X153900000Y-82250000D02*
X155500000Y-82250000D01*
D49*
X174249937Y-92749938D02*
X172350062Y-92749938D01*
X172350062Y-92749938D02*
X171350000Y-93750000D01*
X171350000Y-93750000D02*
X164750000Y-93750000D01*
X164750000Y-93750000D02*
X163200000Y-93750000D01*
X163200000Y-93750000D02*
X157000000Y-99950000D01*
X157000000Y-99950000D02*
X155250000Y-99950000D01*
X155250000Y-99950000D02*
X154850000Y-99550000D01*
X154850000Y-99550000D02*
X154850000Y-99000000D01*
D48*
X153250000Y-99250000D02*
X154600000Y-99250000D01*
X154600000Y-99250000D02*
X154850000Y-99000000D01*
X151750000Y-83750000D02*
X151750000Y-83100000D01*
X151750000Y-83100000D02*
X152600000Y-82250000D01*
X158150000Y-60100000D02*
X158150000Y-60500000D01*
X158150000Y-60500000D02*
X159200000Y-61550000D01*
D49*
X161100000Y-59850000D02*
X161100000Y-63100000D01*
X161100000Y-63100000D02*
X162200000Y-64200000D01*
X162200000Y-64200000D02*
X162200000Y-69000000D01*
X162200000Y-69000000D02*
X166300000Y-73100000D01*
X166300000Y-73100000D02*
X166300000Y-81300000D01*
X166300000Y-81300000D02*
X171749937Y-86749937D01*
X171749937Y-86749937D02*
X174249937Y-86749937D01*
D48*
X159450000Y-60100000D02*
X160850000Y-60100000D01*
X160850000Y-60100000D02*
X161100000Y-59850000D01*
D49*
X174249937Y-91249938D02*
X169749938Y-91249938D01*
X169749938Y-91249938D02*
X169000000Y-90500000D01*
X169000000Y-90500000D02*
X168200000Y-90500000D01*
X168200000Y-90500000D02*
X166700000Y-92000000D01*
X163800000Y-94400000D02*
X157400000Y-100800000D01*
X157400000Y-100800000D02*
X157400000Y-108800000D01*
X157400000Y-108800000D02*
X154000000Y-112200000D01*
X154000000Y-112200000D02*
X154000000Y-115442478D01*
X154000000Y-115442478D02*
X152941066Y-116501412D01*
X152941066Y-116501412D02*
X152941066Y-116458934D01*
D48*
X152500000Y-120250000D02*
X152500000Y-116942478D01*
X152500000Y-116942478D02*
X152941066Y-116501412D01*
D49*
X174249937Y-90749938D02*
X170049938Y-90749938D01*
X170049938Y-90749938D02*
X169200000Y-89900000D01*
X169200000Y-89900000D02*
X167500000Y-89900000D01*
X167500000Y-89900000D02*
X166100000Y-91300000D01*
X163000000Y-93100000D02*
X161500000Y-94600000D01*
X161500000Y-94600000D02*
X148600000Y-94600000D01*
X148600000Y-94600000D02*
X146296051Y-96903949D01*
X146296051Y-96903949D02*
X146296051Y-98796051D01*
D48*
X146250000Y-103250000D02*
X146250000Y-98842102D01*
X146250000Y-98842102D02*
X146296051Y-98796051D01*
D49*
X152050000Y-78450000D02*
X158550000Y-78450000D01*
X152000000Y-78500000D02*
X152050000Y-78450000D01*
X174249937Y-90249938D02*
X170349938Y-90249938D01*
X170349938Y-90249938D02*
X158550000Y-78450000D01*
D45*
X146046051Y-80453949D02*
X146046051Y-75546051D01*
X146046051Y-75546051D02*
X145750000Y-75250000D01*
D46*
X153000000Y-59650000D02*
X153300000Y-59650000D01*
X153300000Y-59650000D02*
X154400000Y-60750000D01*
X152558934Y-66001412D02*
X152998588Y-66001412D01*
X152998588Y-66001412D02*
X154400000Y-64600000D01*
X154400000Y-60750000D02*
X153300000Y-59650000D01*
X154400000Y-64600000D02*
X154400000Y-60750000D01*
D49*
X157400000Y-72900000D02*
X158150000Y-73650000D01*
X158150000Y-73650000D02*
X158150000Y-77150000D01*
X158150000Y-77150000D02*
X170749937Y-89749937D01*
X170749937Y-89749937D02*
X174249937Y-89749937D01*
X178749937Y-95749938D02*
X178749937Y-90650063D01*
X178749937Y-90650063D02*
X179600000Y-89800000D01*
X179400000Y-77600000D02*
X179250000Y-77750000D01*
X179250000Y-77750000D02*
X178000000Y-77750000D01*
D45*
X178000000Y-77750000D02*
X176200000Y-77750000D01*
X221750000Y-114000000D02*
X223250000Y-114000000D01*
X229250000Y-114000000D02*
X230750000Y-114000000D01*
X215700000Y-98100000D02*
X215700000Y-98900000D01*
X215700000Y-98900000D02*
X216200000Y-99400000D01*
D47*
X215700000Y-98100000D02*
X215700000Y-93100000D01*
D45*
X217680600Y-99400000D02*
X216200000Y-99400000D01*
D47*
X217300000Y-91500000D02*
X219500000Y-91500000D01*
X215700000Y-93100000D02*
X217300000Y-91500000D01*
D46*
X217680600Y-99724641D02*
X217680600Y-99400000D01*
X217680600Y-99400000D02*
X217680600Y-99074400D01*
D45*
X225300000Y-98100000D02*
X225300000Y-98900000D01*
X225300000Y-98900000D02*
X224800000Y-99400000D01*
D47*
X225300000Y-98100000D02*
X225300000Y-92600000D01*
D45*
X223319400Y-99400000D02*
X224800000Y-99400000D01*
D47*
X224200000Y-91500000D02*
X221500000Y-91500000D01*
X225300000Y-92600000D02*
X224200000Y-91500000D01*
D46*
X223319400Y-99074400D02*
X223319400Y-99400000D01*
X223319400Y-99400000D02*
X223319400Y-99724641D01*
D45*
X225300000Y-82100000D02*
X225300000Y-81100000D01*
X225300000Y-81100000D02*
X224800000Y-80600000D01*
D47*
X225300000Y-82100000D02*
X225300000Y-87100000D01*
D45*
X223319400Y-80600000D02*
X224800000Y-80600000D01*
D47*
X223900000Y-88500000D02*
X221500000Y-88500000D01*
X225300000Y-87100000D02*
X223900000Y-88500000D01*
D46*
X223319400Y-80925600D02*
X223319400Y-80600000D01*
X223319400Y-80600000D02*
X223319400Y-80275359D01*
D45*
X215700000Y-81800000D02*
X215700000Y-81100000D01*
X215700000Y-81100000D02*
X216200000Y-80600000D01*
D47*
X217700000Y-88500000D02*
X219500000Y-88500000D01*
X215700000Y-86500000D02*
X217700000Y-88500000D01*
X215700000Y-81800000D02*
X215700000Y-86500000D01*
D45*
X217680600Y-80600000D02*
X216200000Y-80600000D01*
D46*
X217680600Y-80925600D02*
X217680600Y-80600000D01*
X217680600Y-80600000D02*
X217680600Y-80275359D01*
D49*
X187579000Y-107315000D02*
X184265000Y-107315000D01*
X184265000Y-107315000D02*
X183376000Y-108204000D01*
X185749938Y-93749938D02*
X187348938Y-93749938D01*
X187348938Y-93749938D02*
X190754000Y-97155000D01*
X190754000Y-97155000D02*
X190754000Y-99441000D01*
X190754000Y-99441000D02*
X194310000Y-102997000D01*
X194310000Y-102997000D02*
X194310000Y-105918000D01*
X188214000Y-107950000D02*
X185408000Y-107950000D01*
X185408000Y-107950000D02*
X183376000Y-109982000D01*
X185749938Y-93249938D02*
X187610938Y-93249938D01*
X187610938Y-93249938D02*
X191262000Y-96901000D01*
X191262000Y-96901000D02*
X191262000Y-99187000D01*
X191262000Y-99187000D02*
X194945000Y-102870000D01*
X194945000Y-102870000D02*
X194945000Y-106553000D01*
D45*
X181876000Y-109982000D02*
X180581300Y-109982000D01*
X180581300Y-108204000D02*
X181876000Y-108204000D01*
D53*
G36*
X185054074Y-64837300D02*
X183400000Y-64837300D01*
X183184664Y-64880133D01*
X183002111Y-65002111D01*
X182366922Y-65637300D01*
X177350000Y-65637300D01*
X177134664Y-65680133D01*
X176952111Y-65802111D01*
X176820109Y-65934113D01*
X176750000Y-65934113D01*
X176689707Y-65945458D01*
X176634332Y-65981091D01*
X176597183Y-66035461D01*
X176584113Y-66100000D01*
X176584113Y-66600000D01*
X176587300Y-66616937D01*
X176587300Y-67609263D01*
X176584113Y-67625000D01*
X176584113Y-68375000D01*
X176587300Y-68391937D01*
X176587300Y-68917071D01*
X176517072Y-68987300D01*
X174800000Y-68987300D01*
X174450725Y-69056775D01*
X174185321Y-69234113D01*
X173550000Y-69234113D01*
X173489707Y-69245458D01*
X173434332Y-69281091D01*
X173397183Y-69335461D01*
X173384113Y-69400000D01*
X173384113Y-70400000D01*
X173395458Y-70460293D01*
X173414436Y-70489786D01*
X173266922Y-70637300D01*
X171169561Y-70637300D01*
X171245637Y-70453636D01*
X171245637Y-70221537D01*
X171115462Y-70091362D01*
X170587437Y-70091362D01*
X170587437Y-70111362D01*
X170312437Y-70111362D01*
X170312437Y-70091362D01*
X169784412Y-70091362D01*
X169654237Y-70221537D01*
X169654237Y-70453636D01*
X169730313Y-70637300D01*
X169389944Y-70637300D01*
X169102757Y-70349612D01*
X168712312Y-70187484D01*
X168289543Y-70187115D01*
X167898815Y-70348561D01*
X167599612Y-70647243D01*
X167437484Y-71037688D01*
X167437115Y-71460457D01*
X167598561Y-71851185D01*
X167897243Y-72150388D01*
X168287688Y-72312516D01*
X168710457Y-72312885D01*
X168750544Y-72296322D01*
X169402174Y-72947952D01*
X169584727Y-73069930D01*
X169800063Y-73112763D01*
X170021944Y-73112763D01*
X170056028Y-73165731D01*
X170110398Y-73202880D01*
X170174937Y-73215950D01*
X170724937Y-73215950D01*
X170785230Y-73204605D01*
X170840605Y-73168972D01*
X170877754Y-73114602D01*
X170890824Y-73050063D01*
X170890824Y-72883601D01*
X170959050Y-72781494D01*
X170959050Y-73050063D01*
X170970395Y-73110356D01*
X171006028Y-73165731D01*
X171037300Y-73187098D01*
X171037300Y-73378598D01*
X171002111Y-73402111D01*
X170880133Y-73584664D01*
X170837300Y-73800000D01*
X170880133Y-74015336D01*
X171002111Y-74197889D01*
X171184664Y-74319867D01*
X171400000Y-74362700D01*
X172837300Y-74362700D01*
X172837300Y-74482659D01*
X172798815Y-74498561D01*
X172499612Y-74797243D01*
X172337484Y-75187688D01*
X172337115Y-75610457D01*
X172498561Y-76001185D01*
X172797243Y-76300388D01*
X173187688Y-76462516D01*
X173610457Y-76462885D01*
X174001185Y-76301439D01*
X174300388Y-76002757D01*
X174462516Y-75612312D01*
X174462885Y-75189543D01*
X174301439Y-74798815D01*
X174002757Y-74499612D01*
X173998100Y-74497678D01*
X174327513Y-74168265D01*
X175846548Y-75687300D01*
X175150000Y-75687300D01*
X174934664Y-75730133D01*
X174752111Y-75852111D01*
X174002111Y-76602111D01*
X173880133Y-76784664D01*
X173837300Y-77000000D01*
X173837300Y-77327623D01*
X173701439Y-76998815D01*
X173402757Y-76699612D01*
X173012312Y-76537484D01*
X172589543Y-76537115D01*
X172198815Y-76698561D01*
X171899612Y-76997243D01*
X171737484Y-77387688D01*
X171737115Y-77810457D01*
X171898561Y-78201185D01*
X172197243Y-78500388D01*
X172587688Y-78662516D01*
X173010457Y-78662885D01*
X173050544Y-78646322D01*
X174002111Y-79597889D01*
X174184664Y-79719867D01*
X174400000Y-79762700D01*
X179100000Y-79762700D01*
X179315336Y-79719867D01*
X179497889Y-79597889D01*
X182110212Y-76985566D01*
X182135461Y-77002817D01*
X182200000Y-77015887D01*
X183200000Y-77015887D01*
X183260293Y-77004542D01*
X183315668Y-76968909D01*
X183352817Y-76914539D01*
X183365887Y-76850000D01*
X183365887Y-76462700D01*
X185386229Y-76462700D01*
X185427804Y-77917847D01*
X185398300Y-77947300D01*
X184500000Y-77947300D01*
X184384162Y-77970342D01*
X184285959Y-78035958D01*
X180234618Y-82087300D01*
X176104489Y-82087300D01*
X175614616Y-81691633D01*
X176637220Y-81691633D01*
X176707513Y-81861756D01*
X176837559Y-81992029D01*
X177007559Y-82062620D01*
X177191633Y-82062780D01*
X177361756Y-81992487D01*
X177492029Y-81862441D01*
X177562620Y-81692441D01*
X177562730Y-81565352D01*
X177675382Y-81452700D01*
X177794029Y-81452700D01*
X177795458Y-81460293D01*
X177831091Y-81515668D01*
X177885461Y-81552817D01*
X177950000Y-81565887D01*
X178850000Y-81565887D01*
X178910293Y-81554542D01*
X178965668Y-81518909D01*
X179002817Y-81464539D01*
X179015887Y-81400000D01*
X179015887Y-80900000D01*
X179004542Y-80839707D01*
X178968909Y-80784332D01*
X178914539Y-80747183D01*
X178850000Y-80734113D01*
X177950000Y-80734113D01*
X177889707Y-80745458D01*
X177834332Y-80781091D01*
X177797183Y-80835461D01*
X177794785Y-80847300D01*
X177550000Y-80847300D01*
X177434162Y-80870342D01*
X177335959Y-80935959D01*
X177134588Y-81137330D01*
X177008367Y-81137220D01*
X176838244Y-81207513D01*
X176707971Y-81337559D01*
X176637380Y-81507559D01*
X176637220Y-81691633D01*
X175614616Y-81691633D01*
X173507980Y-79990120D01*
X173503507Y-79987794D01*
X173500000Y-79987300D01*
X172226062Y-79987300D01*
X172215336Y-79980133D01*
X172069101Y-79951045D01*
X180237168Y-79951045D01*
X180353038Y-80231470D01*
X180567401Y-80446208D01*
X180847624Y-80562567D01*
X181151045Y-80562832D01*
X181431470Y-80446962D01*
X181646208Y-80232599D01*
X181762567Y-79952376D01*
X181762832Y-79648955D01*
X181646962Y-79368530D01*
X181432599Y-79153792D01*
X181152376Y-79037433D01*
X180848955Y-79037168D01*
X180568530Y-79153038D01*
X180353792Y-79367401D01*
X180237433Y-79647624D01*
X180237168Y-79951045D01*
X172069101Y-79951045D01*
X172000000Y-79937300D01*
X170261788Y-79937300D01*
X168939683Y-78367300D01*
X168962516Y-78312312D01*
X168962885Y-77889543D01*
X168801439Y-77498815D01*
X168502757Y-77199612D01*
X168112312Y-77037484D01*
X167689543Y-77037115D01*
X167298815Y-77198561D01*
X166999612Y-77497243D01*
X166837484Y-77887688D01*
X166837115Y-78310457D01*
X166998561Y-78701185D01*
X167297243Y-79000388D01*
X167687688Y-79162516D01*
X168110457Y-79162885D01*
X168131163Y-79154330D01*
X168832612Y-79987300D01*
X166602700Y-79987300D01*
X166602700Y-73100000D01*
X166579658Y-72984162D01*
X166565318Y-72962700D01*
X166514042Y-72885959D01*
X164762700Y-71134617D01*
X164762700Y-69850062D01*
X171787238Y-69850062D01*
X171830071Y-70065398D01*
X171909051Y-70183600D01*
X171909051Y-70350062D01*
X171920396Y-70410355D01*
X171956029Y-70465730D01*
X172010399Y-70502879D01*
X172074938Y-70515949D01*
X172624938Y-70515949D01*
X172685231Y-70504604D01*
X172740606Y-70468971D01*
X172777755Y-70414601D01*
X172790825Y-70350062D01*
X172790825Y-70204953D01*
X173047889Y-69947889D01*
X173169867Y-69765336D01*
X173212700Y-69550000D01*
X173212700Y-68390737D01*
X173215887Y-68375000D01*
X173215887Y-67625000D01*
X173204542Y-67564707D01*
X173168909Y-67509332D01*
X173114539Y-67472183D01*
X173050000Y-67459113D01*
X172759661Y-67459113D01*
X172650000Y-67437300D01*
X172540339Y-67459113D01*
X172250000Y-67459113D01*
X172189707Y-67470458D01*
X172134332Y-67506091D01*
X172097183Y-67560461D01*
X172084113Y-67625000D01*
X172084113Y-68375000D01*
X172087300Y-68391937D01*
X172087300Y-69184175D01*
X172074938Y-69184175D01*
X172014645Y-69195520D01*
X171959270Y-69231153D01*
X171922121Y-69285523D01*
X171909051Y-69350062D01*
X171909051Y-69516524D01*
X171830071Y-69634726D01*
X171787238Y-69850062D01*
X164762700Y-69850062D01*
X164762700Y-69246488D01*
X169654237Y-69246488D01*
X169654237Y-69478587D01*
X169784412Y-69608762D01*
X170312437Y-69608762D01*
X170312437Y-68959537D01*
X170182262Y-68829362D01*
X170071364Y-68829362D01*
X169879984Y-68908634D01*
X169733509Y-69055109D01*
X169654237Y-69246488D01*
X164762700Y-69246488D01*
X164762700Y-67810457D01*
X166537115Y-67810457D01*
X166698561Y-68201185D01*
X166997243Y-68500388D01*
X167387688Y-68662516D01*
X167810457Y-68662885D01*
X168201185Y-68501439D01*
X168500388Y-68202757D01*
X168517021Y-68162700D01*
X169016922Y-68162700D01*
X169084113Y-68229891D01*
X169084113Y-68375000D01*
X169095458Y-68435293D01*
X169131091Y-68490668D01*
X169185461Y-68527817D01*
X169247031Y-68540286D01*
X169252111Y-68547889D01*
X169434664Y-68669867D01*
X169650000Y-68712700D01*
X169865336Y-68669867D01*
X170047889Y-68547889D01*
X170052937Y-68540334D01*
X170110293Y-68529542D01*
X170165668Y-68493909D01*
X170202817Y-68439539D01*
X170215887Y-68375000D01*
X170215887Y-68317675D01*
X170229300Y-68317675D01*
X170229300Y-68478573D01*
X170308572Y-68669953D01*
X170455047Y-68816428D01*
X170646426Y-68895700D01*
X170651274Y-68895700D01*
X170587437Y-68959537D01*
X170587437Y-69608762D01*
X171115462Y-69608762D01*
X171245637Y-69478587D01*
X171245637Y-69246488D01*
X171166365Y-69055109D01*
X171019890Y-68908634D01*
X170869277Y-68846248D01*
X170950000Y-68765525D01*
X170950000Y-68187500D01*
X171350000Y-68187500D01*
X171350000Y-68765525D01*
X171480175Y-68895700D01*
X171653574Y-68895700D01*
X171844953Y-68816428D01*
X171991428Y-68669953D01*
X172070700Y-68478573D01*
X172070700Y-68317675D01*
X171940525Y-68187500D01*
X171350000Y-68187500D01*
X170950000Y-68187500D01*
X170359475Y-68187500D01*
X170229300Y-68317675D01*
X170215887Y-68317675D01*
X170215887Y-67625000D01*
X170204542Y-67564707D01*
X170176692Y-67521427D01*
X170229300Y-67521427D01*
X170229300Y-67682325D01*
X170359475Y-67812500D01*
X170950000Y-67812500D01*
X170950000Y-67234475D01*
X171350000Y-67234475D01*
X171350000Y-67812500D01*
X171940525Y-67812500D01*
X172070700Y-67682325D01*
X172070700Y-67521427D01*
X171991428Y-67330047D01*
X171844953Y-67183572D01*
X171653574Y-67104300D01*
X171480175Y-67104300D01*
X171350000Y-67234475D01*
X170950000Y-67234475D01*
X170836225Y-67120700D01*
X170903574Y-67120700D01*
X171094953Y-67041428D01*
X171241428Y-66894953D01*
X171320700Y-66703573D01*
X171320700Y-66171475D01*
X171190525Y-66041300D01*
X170541300Y-66041300D01*
X170541300Y-66990525D01*
X170655075Y-67104300D01*
X170646426Y-67104300D01*
X170455047Y-67183572D01*
X170308572Y-67330047D01*
X170229300Y-67521427D01*
X170176692Y-67521427D01*
X170168909Y-67509332D01*
X170114539Y-67472183D01*
X170050000Y-67459113D01*
X169904891Y-67459113D01*
X169647889Y-67202111D01*
X169465336Y-67080133D01*
X169250000Y-67037300D01*
X168517341Y-67037300D01*
X168501439Y-66998815D01*
X168202757Y-66699612D01*
X167812312Y-66537484D01*
X167389543Y-66537115D01*
X166998815Y-66698561D01*
X166699612Y-66997243D01*
X166537484Y-67387688D01*
X166537115Y-67810457D01*
X164762700Y-67810457D01*
X164762700Y-66965887D01*
X165300000Y-66965887D01*
X165360293Y-66954542D01*
X165415668Y-66918909D01*
X165452817Y-66864539D01*
X165465887Y-66800000D01*
X165465887Y-66171475D01*
X169279300Y-66171475D01*
X169279300Y-66703573D01*
X169358572Y-66894953D01*
X169505047Y-67041428D01*
X169696426Y-67120700D01*
X169928525Y-67120700D01*
X170058700Y-66990525D01*
X170058700Y-66041300D01*
X169409475Y-66041300D01*
X169279300Y-66171475D01*
X165465887Y-66171475D01*
X165465887Y-65250000D01*
X165454542Y-65189707D01*
X165418909Y-65134332D01*
X165364539Y-65097183D01*
X165300000Y-65084113D01*
X164762700Y-65084113D01*
X164762700Y-64896427D01*
X169279300Y-64896427D01*
X169279300Y-65428525D01*
X169409475Y-65558700D01*
X170058700Y-65558700D01*
X170058700Y-64609475D01*
X170541300Y-64609475D01*
X170541300Y-65558700D01*
X171190525Y-65558700D01*
X171320700Y-65428525D01*
X171320700Y-64896427D01*
X171241428Y-64705047D01*
X171094953Y-64558572D01*
X170903574Y-64479300D01*
X170671475Y-64479300D01*
X170541300Y-64609475D01*
X170058700Y-64609475D01*
X169928525Y-64479300D01*
X169696426Y-64479300D01*
X169505047Y-64558572D01*
X169358572Y-64705047D01*
X169279300Y-64896427D01*
X164762700Y-64896427D01*
X164762700Y-64010457D01*
X170937115Y-64010457D01*
X171098561Y-64401185D01*
X171397243Y-64700388D01*
X171787688Y-64862516D01*
X172210457Y-64862885D01*
X172250544Y-64846322D01*
X172402111Y-64997889D01*
X172584664Y-65119867D01*
X172634113Y-65129703D01*
X172634113Y-66600000D01*
X172645458Y-66660293D01*
X172681091Y-66715668D01*
X172735461Y-66752817D01*
X172800000Y-66765887D01*
X173470109Y-66765887D01*
X173587300Y-66883078D01*
X173587300Y-67609263D01*
X173584113Y-67625000D01*
X173584113Y-68375000D01*
X173595458Y-68435293D01*
X173631091Y-68490668D01*
X173685461Y-68527817D01*
X173750000Y-68540887D01*
X174040339Y-68540887D01*
X174150000Y-68562700D01*
X175650000Y-68562700D01*
X175759661Y-68540887D01*
X176050000Y-68540887D01*
X176110293Y-68529542D01*
X176165668Y-68493909D01*
X176202817Y-68439539D01*
X176215887Y-68375000D01*
X176215887Y-67625000D01*
X176212700Y-67608063D01*
X176212700Y-66599300D01*
X176169867Y-66383964D01*
X176047889Y-66201411D01*
X175964667Y-66118189D01*
X175964667Y-65950520D01*
X175953322Y-65890227D01*
X175917689Y-65834852D01*
X175863319Y-65797703D01*
X175798780Y-65784633D01*
X175001220Y-65784633D01*
X174940927Y-65795978D01*
X174885552Y-65831611D01*
X174848403Y-65885981D01*
X174835333Y-65950520D01*
X174835333Y-66748080D01*
X174846678Y-66808373D01*
X174882311Y-66863748D01*
X174936681Y-66900897D01*
X175001220Y-66913967D01*
X175087300Y-66913967D01*
X175087300Y-67437300D01*
X174712700Y-67437300D01*
X174712700Y-66650000D01*
X174669867Y-66434664D01*
X174547889Y-66252111D01*
X173965887Y-65670109D01*
X173965887Y-65000000D01*
X173962700Y-64983063D01*
X173962700Y-64600000D01*
X173933246Y-64451920D01*
X174835333Y-64451920D01*
X174835333Y-65249480D01*
X174846678Y-65309773D01*
X174882311Y-65365148D01*
X174936681Y-65402297D01*
X175001220Y-65415367D01*
X175798780Y-65415367D01*
X175809234Y-65413400D01*
X177199300Y-65413400D01*
X177414636Y-65370567D01*
X177571301Y-65265887D01*
X177650000Y-65265887D01*
X177710293Y-65254542D01*
X177765668Y-65218909D01*
X177802817Y-65164539D01*
X177815887Y-65100000D01*
X177815887Y-64600000D01*
X177804542Y-64539707D01*
X177768909Y-64484332D01*
X177714539Y-64447183D01*
X177650000Y-64434113D01*
X177570953Y-64434113D01*
X177415336Y-64330133D01*
X177200000Y-64287300D01*
X177196481Y-64288000D01*
X175808493Y-64288000D01*
X175798780Y-64286033D01*
X175001220Y-64286033D01*
X174940927Y-64297378D01*
X174885552Y-64333011D01*
X174848403Y-64387381D01*
X174835333Y-64451920D01*
X173933246Y-64451920D01*
X173919867Y-64384664D01*
X173797889Y-64202111D01*
X173615336Y-64080133D01*
X173400000Y-64037300D01*
X173052140Y-64037300D01*
X173062516Y-64012312D01*
X173062885Y-63589543D01*
X172901439Y-63198815D01*
X172602757Y-62899612D01*
X172212312Y-62737484D01*
X171789543Y-62737115D01*
X171398815Y-62898561D01*
X171099612Y-63197243D01*
X170937484Y-63587688D01*
X170937115Y-64010457D01*
X164762700Y-64010457D01*
X164762700Y-62512700D01*
X184987657Y-62512700D01*
X185054074Y-64837300D01*
X185054074Y-64837300D01*
G37*
X185054074Y-64837300D02*
X183400000Y-64837300D01*
X183184664Y-64880133D01*
X183002111Y-65002111D01*
X182366922Y-65637300D01*
X177350000Y-65637300D01*
X177134664Y-65680133D01*
X176952111Y-65802111D01*
X176820109Y-65934113D01*
X176750000Y-65934113D01*
X176689707Y-65945458D01*
X176634332Y-65981091D01*
X176597183Y-66035461D01*
X176584113Y-66100000D01*
X176584113Y-66600000D01*
X176587300Y-66616937D01*
X176587300Y-67609263D01*
X176584113Y-67625000D01*
X176584113Y-68375000D01*
X176587300Y-68391937D01*
X176587300Y-68917071D01*
X176517072Y-68987300D01*
X174800000Y-68987300D01*
X174450725Y-69056775D01*
X174185321Y-69234113D01*
X173550000Y-69234113D01*
X173489707Y-69245458D01*
X173434332Y-69281091D01*
X173397183Y-69335461D01*
X173384113Y-69400000D01*
X173384113Y-70400000D01*
X173395458Y-70460293D01*
X173414436Y-70489786D01*
X173266922Y-70637300D01*
X171169561Y-70637300D01*
X171245637Y-70453636D01*
X171245637Y-70221537D01*
X171115462Y-70091362D01*
X170587437Y-70091362D01*
X170587437Y-70111362D01*
X170312437Y-70111362D01*
X170312437Y-70091362D01*
X169784412Y-70091362D01*
X169654237Y-70221537D01*
X169654237Y-70453636D01*
X169730313Y-70637300D01*
X169389944Y-70637300D01*
X169102757Y-70349612D01*
X168712312Y-70187484D01*
X168289543Y-70187115D01*
X167898815Y-70348561D01*
X167599612Y-70647243D01*
X167437484Y-71037688D01*
X167437115Y-71460457D01*
X167598561Y-71851185D01*
X167897243Y-72150388D01*
X168287688Y-72312516D01*
X168710457Y-72312885D01*
X168750544Y-72296322D01*
X169402174Y-72947952D01*
X169584727Y-73069930D01*
X169800063Y-73112763D01*
X170021944Y-73112763D01*
X170056028Y-73165731D01*
X170110398Y-73202880D01*
X170174937Y-73215950D01*
X170724937Y-73215950D01*
X170785230Y-73204605D01*
X170840605Y-73168972D01*
X170877754Y-73114602D01*
X170890824Y-73050063D01*
X170890824Y-72883601D01*
X170959050Y-72781494D01*
X170959050Y-73050063D01*
X170970395Y-73110356D01*
X171006028Y-73165731D01*
X171037300Y-73187098D01*
X171037300Y-73378598D01*
X171002111Y-73402111D01*
X170880133Y-73584664D01*
X170837300Y-73800000D01*
X170880133Y-74015336D01*
X171002111Y-74197889D01*
X171184664Y-74319867D01*
X171400000Y-74362700D01*
X172837300Y-74362700D01*
X172837300Y-74482659D01*
X172798815Y-74498561D01*
X172499612Y-74797243D01*
X172337484Y-75187688D01*
X172337115Y-75610457D01*
X172498561Y-76001185D01*
X172797243Y-76300388D01*
X173187688Y-76462516D01*
X173610457Y-76462885D01*
X174001185Y-76301439D01*
X174300388Y-76002757D01*
X174462516Y-75612312D01*
X174462885Y-75189543D01*
X174301439Y-74798815D01*
X174002757Y-74499612D01*
X173998100Y-74497678D01*
X174327513Y-74168265D01*
X175846548Y-75687300D01*
X175150000Y-75687300D01*
X174934664Y-75730133D01*
X174752111Y-75852111D01*
X174002111Y-76602111D01*
X173880133Y-76784664D01*
X173837300Y-77000000D01*
X173837300Y-77327623D01*
X173701439Y-76998815D01*
X173402757Y-76699612D01*
X173012312Y-76537484D01*
X172589543Y-76537115D01*
X172198815Y-76698561D01*
X171899612Y-76997243D01*
X171737484Y-77387688D01*
X171737115Y-77810457D01*
X171898561Y-78201185D01*
X172197243Y-78500388D01*
X172587688Y-78662516D01*
X173010457Y-78662885D01*
X173050544Y-78646322D01*
X174002111Y-79597889D01*
X174184664Y-79719867D01*
X174400000Y-79762700D01*
X179100000Y-79762700D01*
X179315336Y-79719867D01*
X179497889Y-79597889D01*
X182110212Y-76985566D01*
X182135461Y-77002817D01*
X182200000Y-77015887D01*
X183200000Y-77015887D01*
X183260293Y-77004542D01*
X183315668Y-76968909D01*
X183352817Y-76914539D01*
X183365887Y-76850000D01*
X183365887Y-76462700D01*
X185386229Y-76462700D01*
X185427804Y-77917847D01*
X185398300Y-77947300D01*
X184500000Y-77947300D01*
X184384162Y-77970342D01*
X184285959Y-78035958D01*
X180234618Y-82087300D01*
X176104489Y-82087300D01*
X175614616Y-81691633D01*
X176637220Y-81691633D01*
X176707513Y-81861756D01*
X176837559Y-81992029D01*
X177007559Y-82062620D01*
X177191633Y-82062780D01*
X177361756Y-81992487D01*
X177492029Y-81862441D01*
X177562620Y-81692441D01*
X177562730Y-81565352D01*
X177675382Y-81452700D01*
X177794029Y-81452700D01*
X177795458Y-81460293D01*
X177831091Y-81515668D01*
X177885461Y-81552817D01*
X177950000Y-81565887D01*
X178850000Y-81565887D01*
X178910293Y-81554542D01*
X178965668Y-81518909D01*
X179002817Y-81464539D01*
X179015887Y-81400000D01*
X179015887Y-80900000D01*
X179004542Y-80839707D01*
X178968909Y-80784332D01*
X178914539Y-80747183D01*
X178850000Y-80734113D01*
X177950000Y-80734113D01*
X177889707Y-80745458D01*
X177834332Y-80781091D01*
X177797183Y-80835461D01*
X177794785Y-80847300D01*
X177550000Y-80847300D01*
X177434162Y-80870342D01*
X177335959Y-80935959D01*
X177134588Y-81137330D01*
X177008367Y-81137220D01*
X176838244Y-81207513D01*
X176707971Y-81337559D01*
X176637380Y-81507559D01*
X176637220Y-81691633D01*
X175614616Y-81691633D01*
X173507980Y-79990120D01*
X173503507Y-79987794D01*
X173500000Y-79987300D01*
X172226062Y-79987300D01*
X172215336Y-79980133D01*
X172069101Y-79951045D01*
X180237168Y-79951045D01*
X180353038Y-80231470D01*
X180567401Y-80446208D01*
X180847624Y-80562567D01*
X181151045Y-80562832D01*
X181431470Y-80446962D01*
X181646208Y-80232599D01*
X181762567Y-79952376D01*
X181762832Y-79648955D01*
X181646962Y-79368530D01*
X181432599Y-79153792D01*
X181152376Y-79037433D01*
X180848955Y-79037168D01*
X180568530Y-79153038D01*
X180353792Y-79367401D01*
X180237433Y-79647624D01*
X180237168Y-79951045D01*
X172069101Y-79951045D01*
X172000000Y-79937300D01*
X170261788Y-79937300D01*
X168939683Y-78367300D01*
X168962516Y-78312312D01*
X168962885Y-77889543D01*
X168801439Y-77498815D01*
X168502757Y-77199612D01*
X168112312Y-77037484D01*
X167689543Y-77037115D01*
X167298815Y-77198561D01*
X166999612Y-77497243D01*
X166837484Y-77887688D01*
X166837115Y-78310457D01*
X166998561Y-78701185D01*
X167297243Y-79000388D01*
X167687688Y-79162516D01*
X168110457Y-79162885D01*
X168131163Y-79154330D01*
X168832612Y-79987300D01*
X166602700Y-79987300D01*
X166602700Y-73100000D01*
X166579658Y-72984162D01*
X166565318Y-72962700D01*
X166514042Y-72885959D01*
X164762700Y-71134617D01*
X164762700Y-69850062D01*
X171787238Y-69850062D01*
X171830071Y-70065398D01*
X171909051Y-70183600D01*
X171909051Y-70350062D01*
X171920396Y-70410355D01*
X171956029Y-70465730D01*
X172010399Y-70502879D01*
X172074938Y-70515949D01*
X172624938Y-70515949D01*
X172685231Y-70504604D01*
X172740606Y-70468971D01*
X172777755Y-70414601D01*
X172790825Y-70350062D01*
X172790825Y-70204953D01*
X173047889Y-69947889D01*
X173169867Y-69765336D01*
X173212700Y-69550000D01*
X173212700Y-68390737D01*
X173215887Y-68375000D01*
X173215887Y-67625000D01*
X173204542Y-67564707D01*
X173168909Y-67509332D01*
X173114539Y-67472183D01*
X173050000Y-67459113D01*
X172759661Y-67459113D01*
X172650000Y-67437300D01*
X172540339Y-67459113D01*
X172250000Y-67459113D01*
X172189707Y-67470458D01*
X172134332Y-67506091D01*
X172097183Y-67560461D01*
X172084113Y-67625000D01*
X172084113Y-68375000D01*
X172087300Y-68391937D01*
X172087300Y-69184175D01*
X172074938Y-69184175D01*
X172014645Y-69195520D01*
X171959270Y-69231153D01*
X171922121Y-69285523D01*
X171909051Y-69350062D01*
X171909051Y-69516524D01*
X171830071Y-69634726D01*
X171787238Y-69850062D01*
X164762700Y-69850062D01*
X164762700Y-69246488D01*
X169654237Y-69246488D01*
X169654237Y-69478587D01*
X169784412Y-69608762D01*
X170312437Y-69608762D01*
X170312437Y-68959537D01*
X170182262Y-68829362D01*
X170071364Y-68829362D01*
X169879984Y-68908634D01*
X169733509Y-69055109D01*
X169654237Y-69246488D01*
X164762700Y-69246488D01*
X164762700Y-67810457D01*
X166537115Y-67810457D01*
X166698561Y-68201185D01*
X166997243Y-68500388D01*
X167387688Y-68662516D01*
X167810457Y-68662885D01*
X168201185Y-68501439D01*
X168500388Y-68202757D01*
X168517021Y-68162700D01*
X169016922Y-68162700D01*
X169084113Y-68229891D01*
X169084113Y-68375000D01*
X169095458Y-68435293D01*
X169131091Y-68490668D01*
X169185461Y-68527817D01*
X169247031Y-68540286D01*
X169252111Y-68547889D01*
X169434664Y-68669867D01*
X169650000Y-68712700D01*
X169865336Y-68669867D01*
X170047889Y-68547889D01*
X170052937Y-68540334D01*
X170110293Y-68529542D01*
X170165668Y-68493909D01*
X170202817Y-68439539D01*
X170215887Y-68375000D01*
X170215887Y-68317675D01*
X170229300Y-68317675D01*
X170229300Y-68478573D01*
X170308572Y-68669953D01*
X170455047Y-68816428D01*
X170646426Y-68895700D01*
X170651274Y-68895700D01*
X170587437Y-68959537D01*
X170587437Y-69608762D01*
X171115462Y-69608762D01*
X171245637Y-69478587D01*
X171245637Y-69246488D01*
X171166365Y-69055109D01*
X171019890Y-68908634D01*
X170869277Y-68846248D01*
X170950000Y-68765525D01*
X170950000Y-68187500D01*
X171350000Y-68187500D01*
X171350000Y-68765525D01*
X171480175Y-68895700D01*
X171653574Y-68895700D01*
X171844953Y-68816428D01*
X171991428Y-68669953D01*
X172070700Y-68478573D01*
X172070700Y-68317675D01*
X171940525Y-68187500D01*
X171350000Y-68187500D01*
X170950000Y-68187500D01*
X170359475Y-68187500D01*
X170229300Y-68317675D01*
X170215887Y-68317675D01*
X170215887Y-67625000D01*
X170204542Y-67564707D01*
X170176692Y-67521427D01*
X170229300Y-67521427D01*
X170229300Y-67682325D01*
X170359475Y-67812500D01*
X170950000Y-67812500D01*
X170950000Y-67234475D01*
X171350000Y-67234475D01*
X171350000Y-67812500D01*
X171940525Y-67812500D01*
X172070700Y-67682325D01*
X172070700Y-67521427D01*
X171991428Y-67330047D01*
X171844953Y-67183572D01*
X171653574Y-67104300D01*
X171480175Y-67104300D01*
X171350000Y-67234475D01*
X170950000Y-67234475D01*
X170836225Y-67120700D01*
X170903574Y-67120700D01*
X171094953Y-67041428D01*
X171241428Y-66894953D01*
X171320700Y-66703573D01*
X171320700Y-66171475D01*
X171190525Y-66041300D01*
X170541300Y-66041300D01*
X170541300Y-66990525D01*
X170655075Y-67104300D01*
X170646426Y-67104300D01*
X170455047Y-67183572D01*
X170308572Y-67330047D01*
X170229300Y-67521427D01*
X170176692Y-67521427D01*
X170168909Y-67509332D01*
X170114539Y-67472183D01*
X170050000Y-67459113D01*
X169904891Y-67459113D01*
X169647889Y-67202111D01*
X169465336Y-67080133D01*
X169250000Y-67037300D01*
X168517341Y-67037300D01*
X168501439Y-66998815D01*
X168202757Y-66699612D01*
X167812312Y-66537484D01*
X167389543Y-66537115D01*
X166998815Y-66698561D01*
X166699612Y-66997243D01*
X166537484Y-67387688D01*
X166537115Y-67810457D01*
X164762700Y-67810457D01*
X164762700Y-66965887D01*
X165300000Y-66965887D01*
X165360293Y-66954542D01*
X165415668Y-66918909D01*
X165452817Y-66864539D01*
X165465887Y-66800000D01*
X165465887Y-66171475D01*
X169279300Y-66171475D01*
X169279300Y-66703573D01*
X169358572Y-66894953D01*
X169505047Y-67041428D01*
X169696426Y-67120700D01*
X169928525Y-67120700D01*
X170058700Y-66990525D01*
X170058700Y-66041300D01*
X169409475Y-66041300D01*
X169279300Y-66171475D01*
X165465887Y-66171475D01*
X165465887Y-65250000D01*
X165454542Y-65189707D01*
X165418909Y-65134332D01*
X165364539Y-65097183D01*
X165300000Y-65084113D01*
X164762700Y-65084113D01*
X164762700Y-64896427D01*
X169279300Y-64896427D01*
X169279300Y-65428525D01*
X169409475Y-65558700D01*
X170058700Y-65558700D01*
X170058700Y-64609475D01*
X170541300Y-64609475D01*
X170541300Y-65558700D01*
X171190525Y-65558700D01*
X171320700Y-65428525D01*
X171320700Y-64896427D01*
X171241428Y-64705047D01*
X171094953Y-64558572D01*
X170903574Y-64479300D01*
X170671475Y-64479300D01*
X170541300Y-64609475D01*
X170058700Y-64609475D01*
X169928525Y-64479300D01*
X169696426Y-64479300D01*
X169505047Y-64558572D01*
X169358572Y-64705047D01*
X169279300Y-64896427D01*
X164762700Y-64896427D01*
X164762700Y-64010457D01*
X170937115Y-64010457D01*
X171098561Y-64401185D01*
X171397243Y-64700388D01*
X171787688Y-64862516D01*
X172210457Y-64862885D01*
X172250544Y-64846322D01*
X172402111Y-64997889D01*
X172584664Y-65119867D01*
X172634113Y-65129703D01*
X172634113Y-66600000D01*
X172645458Y-66660293D01*
X172681091Y-66715668D01*
X172735461Y-66752817D01*
X172800000Y-66765887D01*
X173470109Y-66765887D01*
X173587300Y-66883078D01*
X173587300Y-67609263D01*
X173584113Y-67625000D01*
X173584113Y-68375000D01*
X173595458Y-68435293D01*
X173631091Y-68490668D01*
X173685461Y-68527817D01*
X173750000Y-68540887D01*
X174040339Y-68540887D01*
X174150000Y-68562700D01*
X175650000Y-68562700D01*
X175759661Y-68540887D01*
X176050000Y-68540887D01*
X176110293Y-68529542D01*
X176165668Y-68493909D01*
X176202817Y-68439539D01*
X176215887Y-68375000D01*
X176215887Y-67625000D01*
X176212700Y-67608063D01*
X176212700Y-66599300D01*
X176169867Y-66383964D01*
X176047889Y-66201411D01*
X175964667Y-66118189D01*
X175964667Y-65950520D01*
X175953322Y-65890227D01*
X175917689Y-65834852D01*
X175863319Y-65797703D01*
X175798780Y-65784633D01*
X175001220Y-65784633D01*
X174940927Y-65795978D01*
X174885552Y-65831611D01*
X174848403Y-65885981D01*
X174835333Y-65950520D01*
X174835333Y-66748080D01*
X174846678Y-66808373D01*
X174882311Y-66863748D01*
X174936681Y-66900897D01*
X175001220Y-66913967D01*
X175087300Y-66913967D01*
X175087300Y-67437300D01*
X174712700Y-67437300D01*
X174712700Y-66650000D01*
X174669867Y-66434664D01*
X174547889Y-66252111D01*
X173965887Y-65670109D01*
X173965887Y-65000000D01*
X173962700Y-64983063D01*
X173962700Y-64600000D01*
X173933246Y-64451920D01*
X174835333Y-64451920D01*
X174835333Y-65249480D01*
X174846678Y-65309773D01*
X174882311Y-65365148D01*
X174936681Y-65402297D01*
X175001220Y-65415367D01*
X175798780Y-65415367D01*
X175809234Y-65413400D01*
X177199300Y-65413400D01*
X177414636Y-65370567D01*
X177571301Y-65265887D01*
X177650000Y-65265887D01*
X177710293Y-65254542D01*
X177765668Y-65218909D01*
X177802817Y-65164539D01*
X177815887Y-65100000D01*
X177815887Y-64600000D01*
X177804542Y-64539707D01*
X177768909Y-64484332D01*
X177714539Y-64447183D01*
X177650000Y-64434113D01*
X177570953Y-64434113D01*
X177415336Y-64330133D01*
X177200000Y-64287300D01*
X177196481Y-64288000D01*
X175808493Y-64288000D01*
X175798780Y-64286033D01*
X175001220Y-64286033D01*
X174940927Y-64297378D01*
X174885552Y-64333011D01*
X174848403Y-64387381D01*
X174835333Y-64451920D01*
X173933246Y-64451920D01*
X173919867Y-64384664D01*
X173797889Y-64202111D01*
X173615336Y-64080133D01*
X173400000Y-64037300D01*
X173052140Y-64037300D01*
X173062516Y-64012312D01*
X173062885Y-63589543D01*
X172901439Y-63198815D01*
X172602757Y-62899612D01*
X172212312Y-62737484D01*
X171789543Y-62737115D01*
X171398815Y-62898561D01*
X171099612Y-63197243D01*
X170937484Y-63587688D01*
X170937115Y-64010457D01*
X164762700Y-64010457D01*
X164762700Y-62512700D01*
X184987657Y-62512700D01*
X185054074Y-64837300D01*
G36*
X169236868Y-80467354D02*
X169000769Y-80703453D01*
X168962312Y-80687484D01*
X168539543Y-80687115D01*
X168148815Y-80848561D01*
X167849612Y-81147243D01*
X167687484Y-81537688D01*
X167687115Y-81960457D01*
X167848561Y-82351185D01*
X168147243Y-82650388D01*
X168537688Y-82812516D01*
X168960457Y-82812885D01*
X169351185Y-82651439D01*
X169650388Y-82352757D01*
X169812516Y-81962312D01*
X169812885Y-81539543D01*
X169796322Y-81499456D01*
X170233078Y-81062700D01*
X171766922Y-81062700D01*
X172187300Y-81483078D01*
X172187300Y-82750000D01*
X172209113Y-82859661D01*
X172209113Y-83150000D01*
X172220458Y-83210293D01*
X172256091Y-83265668D01*
X172310461Y-83302817D01*
X172375000Y-83315887D01*
X173125000Y-83315887D01*
X173141937Y-83312700D01*
X174109263Y-83312700D01*
X174125000Y-83315887D01*
X174875000Y-83315887D01*
X174935293Y-83304542D01*
X174990668Y-83268909D01*
X175027817Y-83214539D01*
X175040887Y-83150000D01*
X175040887Y-83052700D01*
X176124618Y-83052700D01*
X176201155Y-83129237D01*
X175996364Y-83129237D01*
X175804984Y-83208509D01*
X175658509Y-83354984D01*
X175579237Y-83546363D01*
X175579237Y-83878462D01*
X175709412Y-84008637D01*
X176174937Y-84008637D01*
X176174937Y-83988637D01*
X176324937Y-83988637D01*
X176324937Y-84008637D01*
X176399937Y-84008637D01*
X176399937Y-84491237D01*
X176324937Y-84491237D01*
X176324937Y-85240462D01*
X176455112Y-85370637D01*
X176503510Y-85370637D01*
X176694890Y-85291365D01*
X176841365Y-85144890D01*
X176894826Y-85015824D01*
X176899937Y-85015824D01*
X176947237Y-85006924D01*
X176947237Y-85624681D01*
X176534588Y-86037330D01*
X176408367Y-86037220D01*
X176238244Y-86107513D01*
X176107971Y-86237559D01*
X176037380Y-86407559D01*
X176037220Y-86591633D01*
X176107513Y-86761756D01*
X176237559Y-86892029D01*
X176407559Y-86962620D01*
X176591633Y-86962780D01*
X176661862Y-86933762D01*
X176607971Y-86987559D01*
X176537380Y-87157559D01*
X176537220Y-87341633D01*
X176607513Y-87511756D01*
X176737559Y-87642029D01*
X176907559Y-87712620D01*
X177091633Y-87712780D01*
X177121464Y-87700454D01*
X177034588Y-87787330D01*
X176908367Y-87787220D01*
X176738244Y-87857513D01*
X176607971Y-87987559D01*
X176537380Y-88157559D01*
X176537220Y-88341633D01*
X176607513Y-88511756D01*
X176737559Y-88642029D01*
X176907559Y-88712620D01*
X177091633Y-88712780D01*
X177261756Y-88642487D01*
X177392029Y-88512441D01*
X177462620Y-88342441D01*
X177462730Y-88215352D01*
X178963978Y-86714104D01*
X179029595Y-86615901D01*
X179052637Y-86500063D01*
X179052637Y-85996364D01*
X184629238Y-85996364D01*
X184629238Y-86044762D01*
X184759413Y-86174937D01*
X185508638Y-86174937D01*
X185508638Y-85709412D01*
X185378463Y-85579237D01*
X185046364Y-85579237D01*
X184854985Y-85658509D01*
X184708510Y-85804984D01*
X184629238Y-85996364D01*
X179052637Y-85996364D01*
X179052637Y-85006245D01*
X179099937Y-85015824D01*
X179399937Y-85015824D01*
X179460230Y-85004479D01*
X179500241Y-84978733D01*
X179535398Y-85002754D01*
X179599937Y-85015824D01*
X179899937Y-85015824D01*
X179960230Y-85004479D01*
X180000241Y-84978732D01*
X180035399Y-85002754D01*
X180099938Y-85015824D01*
X180399938Y-85015824D01*
X180460231Y-85004479D01*
X180500242Y-84978733D01*
X180535399Y-85002754D01*
X180599938Y-85015824D01*
X180899938Y-85015824D01*
X180960231Y-85004479D01*
X181000242Y-84978733D01*
X181035399Y-85002754D01*
X181099938Y-85015824D01*
X181399938Y-85015824D01*
X181460231Y-85004479D01*
X181500242Y-84978733D01*
X181535399Y-85002754D01*
X181599938Y-85015824D01*
X181899938Y-85015824D01*
X181960231Y-85004479D01*
X182000242Y-84978733D01*
X182035399Y-85002754D01*
X182099938Y-85015824D01*
X182399938Y-85015824D01*
X182460231Y-85004479D01*
X182500242Y-84978733D01*
X182535399Y-85002754D01*
X182599938Y-85015824D01*
X182899938Y-85015824D01*
X182960231Y-85004479D01*
X183000242Y-84978733D01*
X183035399Y-85002754D01*
X183099938Y-85015824D01*
X183399938Y-85015824D01*
X183460231Y-85004479D01*
X183500242Y-84978733D01*
X183535399Y-85002754D01*
X183599938Y-85015824D01*
X183899938Y-85015824D01*
X183960231Y-85004479D01*
X184015606Y-84968846D01*
X184052755Y-84914476D01*
X184065825Y-84849937D01*
X184065825Y-84646175D01*
X184778300Y-84646175D01*
X184778300Y-84819574D01*
X184857572Y-85010953D01*
X185004047Y-85157428D01*
X185195427Y-85236700D01*
X185356325Y-85236700D01*
X185486500Y-85106525D01*
X185486500Y-84516000D01*
X185861500Y-84516000D01*
X185861500Y-85106525D01*
X185991675Y-85236700D01*
X186152573Y-85236700D01*
X186343953Y-85157428D01*
X186490428Y-85010953D01*
X186569700Y-84819574D01*
X186569700Y-84646175D01*
X186439525Y-84516000D01*
X185861500Y-84516000D01*
X185486500Y-84516000D01*
X184908475Y-84516000D01*
X184778300Y-84646175D01*
X184065825Y-84646175D01*
X184065825Y-83812426D01*
X184778300Y-83812426D01*
X184778300Y-83985825D01*
X184908475Y-84116000D01*
X185486500Y-84116000D01*
X185486500Y-83525475D01*
X185861500Y-83525475D01*
X185861500Y-84116000D01*
X186439525Y-84116000D01*
X186569700Y-83985825D01*
X186569700Y-83812426D01*
X186490428Y-83621047D01*
X186343953Y-83474572D01*
X186152573Y-83395300D01*
X185991675Y-83395300D01*
X185861500Y-83525475D01*
X185486500Y-83525475D01*
X185356325Y-83395300D01*
X185195427Y-83395300D01*
X185004047Y-83474572D01*
X184857572Y-83621047D01*
X184778300Y-83812426D01*
X184065825Y-83812426D01*
X184065825Y-83649937D01*
X184054480Y-83589644D01*
X184052638Y-83586781D01*
X184052638Y-82762700D01*
X185111300Y-82762700D01*
X185111300Y-82816000D01*
X185133113Y-82925661D01*
X185133113Y-83216000D01*
X185144458Y-83276293D01*
X185180091Y-83331668D01*
X185234461Y-83368817D01*
X185299000Y-83381887D01*
X186049000Y-83381887D01*
X186109293Y-83370542D01*
X186164668Y-83334909D01*
X186201817Y-83280539D01*
X186214887Y-83216000D01*
X186214887Y-83070891D01*
X186523078Y-82762700D01*
X186949154Y-82762700D01*
X187104624Y-82995376D01*
X187187300Y-83078052D01*
X187187300Y-84334113D01*
X186950000Y-84334113D01*
X186889707Y-84345458D01*
X186834332Y-84381091D01*
X186797183Y-84435461D01*
X186784113Y-84500000D01*
X186784113Y-85500000D01*
X186795458Y-85560293D01*
X186831091Y-85615668D01*
X186885461Y-85652817D01*
X186950000Y-85665887D01*
X187405905Y-85665887D01*
X186870638Y-86201154D01*
X186870638Y-85996364D01*
X186791366Y-85804984D01*
X186644891Y-85658509D01*
X186453512Y-85579237D01*
X186121413Y-85579237D01*
X185991238Y-85709412D01*
X185991238Y-86174937D01*
X186011238Y-86174937D01*
X186011238Y-86324937D01*
X185991238Y-86324937D01*
X185991238Y-86399937D01*
X185508638Y-86399937D01*
X185508638Y-86324937D01*
X184759413Y-86324937D01*
X184629238Y-86455112D01*
X184629238Y-86503510D01*
X184708510Y-86694890D01*
X184854985Y-86841365D01*
X184984051Y-86894826D01*
X184984051Y-86899937D01*
X184992951Y-86947237D01*
X184351551Y-86947237D01*
X184262441Y-86857971D01*
X184092441Y-86787380D01*
X183908367Y-86787220D01*
X183738244Y-86857513D01*
X183607971Y-86987559D01*
X183537380Y-87157559D01*
X183537220Y-87341633D01*
X183607513Y-87511756D01*
X183737559Y-87642029D01*
X183907559Y-87712620D01*
X184091633Y-87712780D01*
X184261756Y-87642487D01*
X184351763Y-87552637D01*
X184993630Y-87552637D01*
X184984051Y-87599937D01*
X184984051Y-87899937D01*
X184995396Y-87960230D01*
X185021142Y-88000241D01*
X184997121Y-88035398D01*
X184984051Y-88099937D01*
X184984051Y-88399937D01*
X184995396Y-88460230D01*
X185021142Y-88500241D01*
X184997121Y-88535398D01*
X184984051Y-88599937D01*
X184984051Y-88899937D01*
X184995396Y-88960230D01*
X185021142Y-89000241D01*
X184997121Y-89035398D01*
X184984051Y-89099937D01*
X184984051Y-89399937D01*
X184995396Y-89460230D01*
X185021142Y-89500241D01*
X184997121Y-89535398D01*
X184984051Y-89599937D01*
X184984051Y-89899937D01*
X184995396Y-89960230D01*
X185021143Y-90000241D01*
X184997121Y-90035399D01*
X184984051Y-90099938D01*
X184984051Y-90399938D01*
X184995396Y-90460231D01*
X185021142Y-90500242D01*
X184997121Y-90535399D01*
X184984051Y-90599938D01*
X184984051Y-90899938D01*
X184995396Y-90960231D01*
X185021142Y-91000242D01*
X184997121Y-91035399D01*
X184984051Y-91099938D01*
X184984051Y-91399938D01*
X184995396Y-91460231D01*
X185021142Y-91500242D01*
X184997121Y-91535399D01*
X184984051Y-91599938D01*
X184984051Y-91899938D01*
X184995396Y-91960231D01*
X185021142Y-92000242D01*
X184997121Y-92035399D01*
X184984051Y-92099938D01*
X184984051Y-92399938D01*
X184995396Y-92460231D01*
X185021142Y-92500242D01*
X184997121Y-92535399D01*
X184984051Y-92599938D01*
X184984051Y-92899938D01*
X184995396Y-92960231D01*
X185021142Y-93000242D01*
X184997121Y-93035399D01*
X184984051Y-93099938D01*
X184984051Y-93399938D01*
X184995396Y-93460231D01*
X185021142Y-93500242D01*
X184997121Y-93535399D01*
X184984051Y-93599938D01*
X184984051Y-93899938D01*
X184995396Y-93960231D01*
X185031029Y-94015606D01*
X185085399Y-94052755D01*
X185149938Y-94065825D01*
X186349938Y-94065825D01*
X186410231Y-94054480D01*
X186413094Y-94052638D01*
X187223556Y-94052638D01*
X190237300Y-97066382D01*
X190237300Y-99446548D01*
X189012700Y-98221948D01*
X189012700Y-98000000D01*
X188943225Y-97650725D01*
X188765887Y-97385321D01*
X188765887Y-97200000D01*
X188754542Y-97139707D01*
X188718909Y-97084332D01*
X188664539Y-97047183D01*
X188600000Y-97034113D01*
X187929891Y-97034113D01*
X187116887Y-96221109D01*
X187116887Y-95637000D01*
X187105542Y-95576707D01*
X187069909Y-95521332D01*
X187015539Y-95484183D01*
X186951000Y-95471113D01*
X186660661Y-95471113D01*
X186551000Y-95449300D01*
X186441339Y-95471113D01*
X186151000Y-95471113D01*
X186090707Y-95482458D01*
X186035332Y-95518091D01*
X185998183Y-95572461D01*
X185985113Y-95637000D01*
X185985113Y-96387000D01*
X185988300Y-96403937D01*
X185988300Y-96451000D01*
X185997510Y-96497300D01*
X185968914Y-96497300D01*
X185971700Y-96490573D01*
X185971700Y-96329675D01*
X185841525Y-96199500D01*
X185251000Y-96199500D01*
X185251000Y-96273300D01*
X184851000Y-96273300D01*
X184851000Y-96199500D01*
X184789700Y-96199500D01*
X184789700Y-95824500D01*
X184851000Y-95824500D01*
X184851000Y-95246475D01*
X185251000Y-95246475D01*
X185251000Y-95824500D01*
X185841525Y-95824500D01*
X185971700Y-95694325D01*
X185971700Y-95533427D01*
X185892428Y-95342047D01*
X185745953Y-95195572D01*
X185554574Y-95116300D01*
X185381175Y-95116300D01*
X185251000Y-95246475D01*
X184851000Y-95246475D01*
X184720825Y-95116300D01*
X184547426Y-95116300D01*
X184420638Y-95168817D01*
X184420638Y-95046364D01*
X184341366Y-94854985D01*
X184194891Y-94708510D01*
X184003511Y-94629238D01*
X183955113Y-94629238D01*
X183824938Y-94759413D01*
X183824938Y-95508638D01*
X183899938Y-95508638D01*
X183899938Y-95991238D01*
X183824938Y-95991238D01*
X183824938Y-96011238D01*
X183674938Y-96011238D01*
X183674938Y-95991238D01*
X183599938Y-95991238D01*
X183599938Y-95508638D01*
X183674938Y-95508638D01*
X183674938Y-94759413D01*
X183544763Y-94629238D01*
X183496365Y-94629238D01*
X183304985Y-94708510D01*
X183158510Y-94854985D01*
X183105049Y-94984051D01*
X183099938Y-94984051D01*
X183039645Y-94995396D01*
X182999634Y-95021142D01*
X182964477Y-94997121D01*
X182899938Y-94984051D01*
X182599938Y-94984051D01*
X182539645Y-94995396D01*
X182499634Y-95021142D01*
X182464477Y-94997121D01*
X182399938Y-94984051D01*
X182099938Y-94984051D01*
X182039645Y-94995396D01*
X181999634Y-95021142D01*
X181964477Y-94997121D01*
X181899938Y-94984051D01*
X181599938Y-94984051D01*
X181539645Y-94995396D01*
X181499634Y-95021142D01*
X181464477Y-94997121D01*
X181399938Y-94984051D01*
X181099938Y-94984051D01*
X181039645Y-94995396D01*
X180999634Y-95021142D01*
X180964477Y-94997121D01*
X180899938Y-94984051D01*
X180599938Y-94984051D01*
X180539645Y-94995396D01*
X180499634Y-95021142D01*
X180464477Y-94997121D01*
X180399938Y-94984051D01*
X180099938Y-94984051D01*
X180039645Y-94995396D01*
X179999634Y-95021143D01*
X179964476Y-94997121D01*
X179899937Y-94984051D01*
X179599937Y-94984051D01*
X179539644Y-94995396D01*
X179499633Y-95021142D01*
X179464476Y-94997121D01*
X179399937Y-94984051D01*
X179099937Y-94984051D01*
X179052637Y-94992951D01*
X179052637Y-90775445D01*
X179565412Y-90262670D01*
X179691633Y-90262780D01*
X179861756Y-90192487D01*
X179992029Y-90062441D01*
X180062620Y-89892441D01*
X180062780Y-89708367D01*
X179992487Y-89538244D01*
X179862441Y-89407971D01*
X179692441Y-89337380D01*
X179508367Y-89337220D01*
X179338244Y-89407513D01*
X179207971Y-89537559D01*
X179137380Y-89707559D01*
X179137270Y-89834648D01*
X178535896Y-90436022D01*
X178470279Y-90534225D01*
X178447237Y-90650063D01*
X178447237Y-94993630D01*
X178399937Y-94984051D01*
X178099937Y-94984051D01*
X178039644Y-94995396D01*
X177999633Y-95021142D01*
X177964476Y-94997121D01*
X177899937Y-94984051D01*
X177894826Y-94984051D01*
X177841365Y-94854985D01*
X177694890Y-94708510D01*
X177503510Y-94629238D01*
X177455112Y-94629238D01*
X177324937Y-94759413D01*
X177324937Y-95508638D01*
X177399937Y-95508638D01*
X177399937Y-95991238D01*
X177324937Y-95991238D01*
X177324937Y-96740463D01*
X177447237Y-96862763D01*
X177447237Y-97164782D01*
X177391428Y-97030047D01*
X177244953Y-96883572D01*
X177094251Y-96821149D01*
X177174937Y-96740463D01*
X177174937Y-95991238D01*
X177099937Y-95991238D01*
X177099937Y-95508638D01*
X177174937Y-95508638D01*
X177174937Y-94759413D01*
X177044762Y-94629238D01*
X176996364Y-94629238D01*
X176804984Y-94708510D01*
X176658509Y-94854985D01*
X176605048Y-94984051D01*
X176599937Y-94984051D01*
X176539644Y-94995396D01*
X176499633Y-95021142D01*
X176464476Y-94997121D01*
X176399937Y-94984051D01*
X176099937Y-94984051D01*
X176039644Y-94995396D01*
X175984269Y-95031029D01*
X175947120Y-95085399D01*
X175934050Y-95149938D01*
X175934050Y-95447238D01*
X175750062Y-95447238D01*
X175634224Y-95470280D01*
X175536021Y-95535897D01*
X174874618Y-96197300D01*
X173500000Y-96197300D01*
X173384162Y-96220342D01*
X173285959Y-96285959D01*
X171374618Y-98197300D01*
X169262700Y-98197300D01*
X169262700Y-97765382D01*
X172975444Y-94052638D01*
X173585227Y-94052638D01*
X173585398Y-94052755D01*
X173649937Y-94065825D01*
X174849937Y-94065825D01*
X174910230Y-94054480D01*
X174965605Y-94018847D01*
X175002754Y-93964477D01*
X175015824Y-93899938D01*
X175015824Y-93599938D01*
X175004479Y-93539645D01*
X174978733Y-93499634D01*
X175002754Y-93464477D01*
X175015824Y-93399938D01*
X175015824Y-93099938D01*
X175004479Y-93039645D01*
X174978733Y-92999634D01*
X175002754Y-92964477D01*
X175015824Y-92899938D01*
X175015824Y-92762700D01*
X176500000Y-92762700D01*
X176504941Y-92761699D01*
X176509103Y-92758855D01*
X176511831Y-92754616D01*
X176512700Y-92750000D01*
X176512700Y-89250000D01*
X176511699Y-89245059D01*
X176508855Y-89240897D01*
X176504616Y-89238169D01*
X176500000Y-89237300D01*
X175015824Y-89237300D01*
X175015824Y-89099937D01*
X175004479Y-89039644D01*
X174978733Y-88999633D01*
X175002754Y-88964476D01*
X175015824Y-88899937D01*
X175015824Y-88851045D01*
X180337168Y-88851045D01*
X180453038Y-89131470D01*
X180667401Y-89346208D01*
X180947624Y-89462567D01*
X181251045Y-89462832D01*
X181531470Y-89346962D01*
X181746208Y-89132599D01*
X181862567Y-88852376D01*
X181862832Y-88548955D01*
X181746962Y-88268530D01*
X181532599Y-88053792D01*
X181252376Y-87937433D01*
X180948955Y-87937168D01*
X180668530Y-88053038D01*
X180453792Y-88267401D01*
X180337433Y-88547624D01*
X180337168Y-88851045D01*
X175015824Y-88851045D01*
X175015824Y-88599937D01*
X175004479Y-88539644D01*
X174978733Y-88499633D01*
X175002754Y-88464476D01*
X175015824Y-88399937D01*
X175015824Y-88099937D01*
X175004479Y-88039644D01*
X174978733Y-87999633D01*
X175002754Y-87964476D01*
X175015824Y-87899937D01*
X175015824Y-87599937D01*
X175004479Y-87539644D01*
X174978733Y-87499633D01*
X175002754Y-87464476D01*
X175015824Y-87399937D01*
X175015824Y-87099937D01*
X175004479Y-87039644D01*
X174978733Y-86999633D01*
X175002754Y-86964476D01*
X175015824Y-86899937D01*
X175015824Y-86894826D01*
X175144890Y-86841365D01*
X175291365Y-86694890D01*
X175370637Y-86503510D01*
X175370637Y-86455112D01*
X175240462Y-86324937D01*
X174491237Y-86324937D01*
X174491237Y-86399937D01*
X174008637Y-86399937D01*
X174008637Y-86324937D01*
X173259412Y-86324937D01*
X173137112Y-86447237D01*
X171875319Y-86447237D01*
X171424446Y-85996364D01*
X173129237Y-85996364D01*
X173129237Y-86044762D01*
X173259412Y-86174937D01*
X174008637Y-86174937D01*
X174008637Y-85709412D01*
X174491237Y-85709412D01*
X174491237Y-86174937D01*
X175240462Y-86174937D01*
X175370637Y-86044762D01*
X175370637Y-85996364D01*
X175291365Y-85804984D01*
X175144890Y-85658509D01*
X174953511Y-85579237D01*
X174621412Y-85579237D01*
X174491237Y-85709412D01*
X174008637Y-85709412D01*
X173878462Y-85579237D01*
X173546363Y-85579237D01*
X173354984Y-85658509D01*
X173208509Y-85804984D01*
X173129237Y-85996364D01*
X171424446Y-85996364D01*
X170008257Y-84580175D01*
X171854300Y-84580175D01*
X171854300Y-84753574D01*
X171933572Y-84944953D01*
X172080047Y-85091428D01*
X172271427Y-85170700D01*
X172432325Y-85170700D01*
X172562500Y-85040525D01*
X172562500Y-84450000D01*
X172937500Y-84450000D01*
X172937500Y-85040525D01*
X173067675Y-85170700D01*
X173228573Y-85170700D01*
X173419953Y-85091428D01*
X173566428Y-84944953D01*
X173625000Y-84803548D01*
X173683572Y-84944953D01*
X173830047Y-85091428D01*
X174021427Y-85170700D01*
X174182325Y-85170700D01*
X174312500Y-85040525D01*
X174312500Y-84450000D01*
X174687500Y-84450000D01*
X174687500Y-85040525D01*
X174817675Y-85170700D01*
X174978573Y-85170700D01*
X175169953Y-85091428D01*
X175316428Y-84944953D01*
X175395700Y-84753574D01*
X175395700Y-84621412D01*
X175579237Y-84621412D01*
X175579237Y-84953511D01*
X175658509Y-85144890D01*
X175804984Y-85291365D01*
X175996364Y-85370637D01*
X176044762Y-85370637D01*
X176174937Y-85240462D01*
X176174937Y-84491237D01*
X175709412Y-84491237D01*
X175579237Y-84621412D01*
X175395700Y-84621412D01*
X175395700Y-84580175D01*
X175265525Y-84450000D01*
X174687500Y-84450000D01*
X174312500Y-84450000D01*
X173734475Y-84450000D01*
X173625000Y-84559475D01*
X173515525Y-84450000D01*
X172937500Y-84450000D01*
X172562500Y-84450000D01*
X171984475Y-84450000D01*
X171854300Y-84580175D01*
X170008257Y-84580175D01*
X169174508Y-83746426D01*
X171854300Y-83746426D01*
X171854300Y-83919825D01*
X171984475Y-84050000D01*
X172562500Y-84050000D01*
X172562500Y-83459475D01*
X172937500Y-83459475D01*
X172937500Y-84050000D01*
X173515525Y-84050000D01*
X173625000Y-83940525D01*
X173734475Y-84050000D01*
X174312500Y-84050000D01*
X174312500Y-83459475D01*
X174687500Y-83459475D01*
X174687500Y-84050000D01*
X175265525Y-84050000D01*
X175395700Y-83919825D01*
X175395700Y-83746426D01*
X175316428Y-83555047D01*
X175169953Y-83408572D01*
X174978573Y-83329300D01*
X174817675Y-83329300D01*
X174687500Y-83459475D01*
X174312500Y-83459475D01*
X174182325Y-83329300D01*
X174021427Y-83329300D01*
X173830047Y-83408572D01*
X173683572Y-83555047D01*
X173625000Y-83696452D01*
X173566428Y-83555047D01*
X173419953Y-83408572D01*
X173228573Y-83329300D01*
X173067675Y-83329300D01*
X172937500Y-83459475D01*
X172562500Y-83459475D01*
X172432325Y-83329300D01*
X172271427Y-83329300D01*
X172080047Y-83408572D01*
X171933572Y-83555047D01*
X171854300Y-83746426D01*
X169174508Y-83746426D01*
X167098021Y-81669939D01*
X168505260Y-80262700D01*
X169064528Y-80262700D01*
X169236868Y-80467354D01*
X169236868Y-80467354D01*
G37*
X169236868Y-80467354D02*
X169000769Y-80703453D01*
X168962312Y-80687484D01*
X168539543Y-80687115D01*
X168148815Y-80848561D01*
X167849612Y-81147243D01*
X167687484Y-81537688D01*
X167687115Y-81960457D01*
X167848561Y-82351185D01*
X168147243Y-82650388D01*
X168537688Y-82812516D01*
X168960457Y-82812885D01*
X169351185Y-82651439D01*
X169650388Y-82352757D01*
X169812516Y-81962312D01*
X169812885Y-81539543D01*
X169796322Y-81499456D01*
X170233078Y-81062700D01*
X171766922Y-81062700D01*
X172187300Y-81483078D01*
X172187300Y-82750000D01*
X172209113Y-82859661D01*
X172209113Y-83150000D01*
X172220458Y-83210293D01*
X172256091Y-83265668D01*
X172310461Y-83302817D01*
X172375000Y-83315887D01*
X173125000Y-83315887D01*
X173141937Y-83312700D01*
X174109263Y-83312700D01*
X174125000Y-83315887D01*
X174875000Y-83315887D01*
X174935293Y-83304542D01*
X174990668Y-83268909D01*
X175027817Y-83214539D01*
X175040887Y-83150000D01*
X175040887Y-83052700D01*
X176124618Y-83052700D01*
X176201155Y-83129237D01*
X175996364Y-83129237D01*
X175804984Y-83208509D01*
X175658509Y-83354984D01*
X175579237Y-83546363D01*
X175579237Y-83878462D01*
X175709412Y-84008637D01*
X176174937Y-84008637D01*
X176174937Y-83988637D01*
X176324937Y-83988637D01*
X176324937Y-84008637D01*
X176399937Y-84008637D01*
X176399937Y-84491237D01*
X176324937Y-84491237D01*
X176324937Y-85240462D01*
X176455112Y-85370637D01*
X176503510Y-85370637D01*
X176694890Y-85291365D01*
X176841365Y-85144890D01*
X176894826Y-85015824D01*
X176899937Y-85015824D01*
X176947237Y-85006924D01*
X176947237Y-85624681D01*
X176534588Y-86037330D01*
X176408367Y-86037220D01*
X176238244Y-86107513D01*
X176107971Y-86237559D01*
X176037380Y-86407559D01*
X176037220Y-86591633D01*
X176107513Y-86761756D01*
X176237559Y-86892029D01*
X176407559Y-86962620D01*
X176591633Y-86962780D01*
X176661862Y-86933762D01*
X176607971Y-86987559D01*
X176537380Y-87157559D01*
X176537220Y-87341633D01*
X176607513Y-87511756D01*
X176737559Y-87642029D01*
X176907559Y-87712620D01*
X177091633Y-87712780D01*
X177121464Y-87700454D01*
X177034588Y-87787330D01*
X176908367Y-87787220D01*
X176738244Y-87857513D01*
X176607971Y-87987559D01*
X176537380Y-88157559D01*
X176537220Y-88341633D01*
X176607513Y-88511756D01*
X176737559Y-88642029D01*
X176907559Y-88712620D01*
X177091633Y-88712780D01*
X177261756Y-88642487D01*
X177392029Y-88512441D01*
X177462620Y-88342441D01*
X177462730Y-88215352D01*
X178963978Y-86714104D01*
X179029595Y-86615901D01*
X179052637Y-86500063D01*
X179052637Y-85996364D01*
X184629238Y-85996364D01*
X184629238Y-86044762D01*
X184759413Y-86174937D01*
X185508638Y-86174937D01*
X185508638Y-85709412D01*
X185378463Y-85579237D01*
X185046364Y-85579237D01*
X184854985Y-85658509D01*
X184708510Y-85804984D01*
X184629238Y-85996364D01*
X179052637Y-85996364D01*
X179052637Y-85006245D01*
X179099937Y-85015824D01*
X179399937Y-85015824D01*
X179460230Y-85004479D01*
X179500241Y-84978733D01*
X179535398Y-85002754D01*
X179599937Y-85015824D01*
X179899937Y-85015824D01*
X179960230Y-85004479D01*
X180000241Y-84978732D01*
X180035399Y-85002754D01*
X180099938Y-85015824D01*
X180399938Y-85015824D01*
X180460231Y-85004479D01*
X180500242Y-84978733D01*
X180535399Y-85002754D01*
X180599938Y-85015824D01*
X180899938Y-85015824D01*
X180960231Y-85004479D01*
X181000242Y-84978733D01*
X181035399Y-85002754D01*
X181099938Y-85015824D01*
X181399938Y-85015824D01*
X181460231Y-85004479D01*
X181500242Y-84978733D01*
X181535399Y-85002754D01*
X181599938Y-85015824D01*
X181899938Y-85015824D01*
X181960231Y-85004479D01*
X182000242Y-84978733D01*
X182035399Y-85002754D01*
X182099938Y-85015824D01*
X182399938Y-85015824D01*
X182460231Y-85004479D01*
X182500242Y-84978733D01*
X182535399Y-85002754D01*
X182599938Y-85015824D01*
X182899938Y-85015824D01*
X182960231Y-85004479D01*
X183000242Y-84978733D01*
X183035399Y-85002754D01*
X183099938Y-85015824D01*
X183399938Y-85015824D01*
X183460231Y-85004479D01*
X183500242Y-84978733D01*
X183535399Y-85002754D01*
X183599938Y-85015824D01*
X183899938Y-85015824D01*
X183960231Y-85004479D01*
X184015606Y-84968846D01*
X184052755Y-84914476D01*
X184065825Y-84849937D01*
X184065825Y-84646175D01*
X184778300Y-84646175D01*
X184778300Y-84819574D01*
X184857572Y-85010953D01*
X185004047Y-85157428D01*
X185195427Y-85236700D01*
X185356325Y-85236700D01*
X185486500Y-85106525D01*
X185486500Y-84516000D01*
X185861500Y-84516000D01*
X185861500Y-85106525D01*
X185991675Y-85236700D01*
X186152573Y-85236700D01*
X186343953Y-85157428D01*
X186490428Y-85010953D01*
X186569700Y-84819574D01*
X186569700Y-84646175D01*
X186439525Y-84516000D01*
X185861500Y-84516000D01*
X185486500Y-84516000D01*
X184908475Y-84516000D01*
X184778300Y-84646175D01*
X184065825Y-84646175D01*
X184065825Y-83812426D01*
X184778300Y-83812426D01*
X184778300Y-83985825D01*
X184908475Y-84116000D01*
X185486500Y-84116000D01*
X185486500Y-83525475D01*
X185861500Y-83525475D01*
X185861500Y-84116000D01*
X186439525Y-84116000D01*
X186569700Y-83985825D01*
X186569700Y-83812426D01*
X186490428Y-83621047D01*
X186343953Y-83474572D01*
X186152573Y-83395300D01*
X185991675Y-83395300D01*
X185861500Y-83525475D01*
X185486500Y-83525475D01*
X185356325Y-83395300D01*
X185195427Y-83395300D01*
X185004047Y-83474572D01*
X184857572Y-83621047D01*
X184778300Y-83812426D01*
X184065825Y-83812426D01*
X184065825Y-83649937D01*
X184054480Y-83589644D01*
X184052638Y-83586781D01*
X184052638Y-82762700D01*
X185111300Y-82762700D01*
X185111300Y-82816000D01*
X185133113Y-82925661D01*
X185133113Y-83216000D01*
X185144458Y-83276293D01*
X185180091Y-83331668D01*
X185234461Y-83368817D01*
X185299000Y-83381887D01*
X186049000Y-83381887D01*
X186109293Y-83370542D01*
X186164668Y-83334909D01*
X186201817Y-83280539D01*
X186214887Y-83216000D01*
X186214887Y-83070891D01*
X186523078Y-82762700D01*
X186949154Y-82762700D01*
X187104624Y-82995376D01*
X187187300Y-83078052D01*
X187187300Y-84334113D01*
X186950000Y-84334113D01*
X186889707Y-84345458D01*
X186834332Y-84381091D01*
X186797183Y-84435461D01*
X186784113Y-84500000D01*
X186784113Y-85500000D01*
X186795458Y-85560293D01*
X186831091Y-85615668D01*
X186885461Y-85652817D01*
X186950000Y-85665887D01*
X187405905Y-85665887D01*
X186870638Y-86201154D01*
X186870638Y-85996364D01*
X186791366Y-85804984D01*
X186644891Y-85658509D01*
X186453512Y-85579237D01*
X186121413Y-85579237D01*
X185991238Y-85709412D01*
X185991238Y-86174937D01*
X186011238Y-86174937D01*
X186011238Y-86324937D01*
X185991238Y-86324937D01*
X185991238Y-86399937D01*
X185508638Y-86399937D01*
X185508638Y-86324937D01*
X184759413Y-86324937D01*
X184629238Y-86455112D01*
X184629238Y-86503510D01*
X184708510Y-86694890D01*
X184854985Y-86841365D01*
X184984051Y-86894826D01*
X184984051Y-86899937D01*
X184992951Y-86947237D01*
X184351551Y-86947237D01*
X184262441Y-86857971D01*
X184092441Y-86787380D01*
X183908367Y-86787220D01*
X183738244Y-86857513D01*
X183607971Y-86987559D01*
X183537380Y-87157559D01*
X183537220Y-87341633D01*
X183607513Y-87511756D01*
X183737559Y-87642029D01*
X183907559Y-87712620D01*
X184091633Y-87712780D01*
X184261756Y-87642487D01*
X184351763Y-87552637D01*
X184993630Y-87552637D01*
X184984051Y-87599937D01*
X184984051Y-87899937D01*
X184995396Y-87960230D01*
X185021142Y-88000241D01*
X184997121Y-88035398D01*
X184984051Y-88099937D01*
X184984051Y-88399937D01*
X184995396Y-88460230D01*
X185021142Y-88500241D01*
X184997121Y-88535398D01*
X184984051Y-88599937D01*
X184984051Y-88899937D01*
X184995396Y-88960230D01*
X185021142Y-89000241D01*
X184997121Y-89035398D01*
X184984051Y-89099937D01*
X184984051Y-89399937D01*
X184995396Y-89460230D01*
X185021142Y-89500241D01*
X184997121Y-89535398D01*
X184984051Y-89599937D01*
X184984051Y-89899937D01*
X184995396Y-89960230D01*
X185021143Y-90000241D01*
X184997121Y-90035399D01*
X184984051Y-90099938D01*
X184984051Y-90399938D01*
X184995396Y-90460231D01*
X185021142Y-90500242D01*
X184997121Y-90535399D01*
X184984051Y-90599938D01*
X184984051Y-90899938D01*
X184995396Y-90960231D01*
X185021142Y-91000242D01*
X184997121Y-91035399D01*
X184984051Y-91099938D01*
X184984051Y-91399938D01*
X184995396Y-91460231D01*
X185021142Y-91500242D01*
X184997121Y-91535399D01*
X184984051Y-91599938D01*
X184984051Y-91899938D01*
X184995396Y-91960231D01*
X185021142Y-92000242D01*
X184997121Y-92035399D01*
X184984051Y-92099938D01*
X184984051Y-92399938D01*
X184995396Y-92460231D01*
X185021142Y-92500242D01*
X184997121Y-92535399D01*
X184984051Y-92599938D01*
X184984051Y-92899938D01*
X184995396Y-92960231D01*
X185021142Y-93000242D01*
X184997121Y-93035399D01*
X184984051Y-93099938D01*
X184984051Y-93399938D01*
X184995396Y-93460231D01*
X185021142Y-93500242D01*
X184997121Y-93535399D01*
X184984051Y-93599938D01*
X184984051Y-93899938D01*
X184995396Y-93960231D01*
X185031029Y-94015606D01*
X185085399Y-94052755D01*
X185149938Y-94065825D01*
X186349938Y-94065825D01*
X186410231Y-94054480D01*
X186413094Y-94052638D01*
X187223556Y-94052638D01*
X190237300Y-97066382D01*
X190237300Y-99446548D01*
X189012700Y-98221948D01*
X189012700Y-98000000D01*
X188943225Y-97650725D01*
X188765887Y-97385321D01*
X188765887Y-97200000D01*
X188754542Y-97139707D01*
X188718909Y-97084332D01*
X188664539Y-97047183D01*
X188600000Y-97034113D01*
X187929891Y-97034113D01*
X187116887Y-96221109D01*
X187116887Y-95637000D01*
X187105542Y-95576707D01*
X187069909Y-95521332D01*
X187015539Y-95484183D01*
X186951000Y-95471113D01*
X186660661Y-95471113D01*
X186551000Y-95449300D01*
X186441339Y-95471113D01*
X186151000Y-95471113D01*
X186090707Y-95482458D01*
X186035332Y-95518091D01*
X185998183Y-95572461D01*
X185985113Y-95637000D01*
X185985113Y-96387000D01*
X185988300Y-96403937D01*
X185988300Y-96451000D01*
X185997510Y-96497300D01*
X185968914Y-96497300D01*
X185971700Y-96490573D01*
X185971700Y-96329675D01*
X185841525Y-96199500D01*
X185251000Y-96199500D01*
X185251000Y-96273300D01*
X184851000Y-96273300D01*
X184851000Y-96199500D01*
X184789700Y-96199500D01*
X184789700Y-95824500D01*
X184851000Y-95824500D01*
X184851000Y-95246475D01*
X185251000Y-95246475D01*
X185251000Y-95824500D01*
X185841525Y-95824500D01*
X185971700Y-95694325D01*
X185971700Y-95533427D01*
X185892428Y-95342047D01*
X185745953Y-95195572D01*
X185554574Y-95116300D01*
X185381175Y-95116300D01*
X185251000Y-95246475D01*
X184851000Y-95246475D01*
X184720825Y-95116300D01*
X184547426Y-95116300D01*
X184420638Y-95168817D01*
X184420638Y-95046364D01*
X184341366Y-94854985D01*
X184194891Y-94708510D01*
X184003511Y-94629238D01*
X183955113Y-94629238D01*
X183824938Y-94759413D01*
X183824938Y-95508638D01*
X183899938Y-95508638D01*
X183899938Y-95991238D01*
X183824938Y-95991238D01*
X183824938Y-96011238D01*
X183674938Y-96011238D01*
X183674938Y-95991238D01*
X183599938Y-95991238D01*
X183599938Y-95508638D01*
X183674938Y-95508638D01*
X183674938Y-94759413D01*
X183544763Y-94629238D01*
X183496365Y-94629238D01*
X183304985Y-94708510D01*
X183158510Y-94854985D01*
X183105049Y-94984051D01*
X183099938Y-94984051D01*
X183039645Y-94995396D01*
X182999634Y-95021142D01*
X182964477Y-94997121D01*
X182899938Y-94984051D01*
X182599938Y-94984051D01*
X182539645Y-94995396D01*
X182499634Y-95021142D01*
X182464477Y-94997121D01*
X182399938Y-94984051D01*
X182099938Y-94984051D01*
X182039645Y-94995396D01*
X181999634Y-95021142D01*
X181964477Y-94997121D01*
X181899938Y-94984051D01*
X181599938Y-94984051D01*
X181539645Y-94995396D01*
X181499634Y-95021142D01*
X181464477Y-94997121D01*
X181399938Y-94984051D01*
X181099938Y-94984051D01*
X181039645Y-94995396D01*
X180999634Y-95021142D01*
X180964477Y-94997121D01*
X180899938Y-94984051D01*
X180599938Y-94984051D01*
X180539645Y-94995396D01*
X180499634Y-95021142D01*
X180464477Y-94997121D01*
X180399938Y-94984051D01*
X180099938Y-94984051D01*
X180039645Y-94995396D01*
X179999634Y-95021143D01*
X179964476Y-94997121D01*
X179899937Y-94984051D01*
X179599937Y-94984051D01*
X179539644Y-94995396D01*
X179499633Y-95021142D01*
X179464476Y-94997121D01*
X179399937Y-94984051D01*
X179099937Y-94984051D01*
X179052637Y-94992951D01*
X179052637Y-90775445D01*
X179565412Y-90262670D01*
X179691633Y-90262780D01*
X179861756Y-90192487D01*
X179992029Y-90062441D01*
X180062620Y-89892441D01*
X180062780Y-89708367D01*
X179992487Y-89538244D01*
X179862441Y-89407971D01*
X179692441Y-89337380D01*
X179508367Y-89337220D01*
X179338244Y-89407513D01*
X179207971Y-89537559D01*
X179137380Y-89707559D01*
X179137270Y-89834648D01*
X178535896Y-90436022D01*
X178470279Y-90534225D01*
X178447237Y-90650063D01*
X178447237Y-94993630D01*
X178399937Y-94984051D01*
X178099937Y-94984051D01*
X178039644Y-94995396D01*
X177999633Y-95021142D01*
X177964476Y-94997121D01*
X177899937Y-94984051D01*
X177894826Y-94984051D01*
X177841365Y-94854985D01*
X177694890Y-94708510D01*
X177503510Y-94629238D01*
X177455112Y-94629238D01*
X177324937Y-94759413D01*
X177324937Y-95508638D01*
X177399937Y-95508638D01*
X177399937Y-95991238D01*
X177324937Y-95991238D01*
X177324937Y-96740463D01*
X177447237Y-96862763D01*
X177447237Y-97164782D01*
X177391428Y-97030047D01*
X177244953Y-96883572D01*
X177094251Y-96821149D01*
X177174937Y-96740463D01*
X177174937Y-95991238D01*
X177099937Y-95991238D01*
X177099937Y-95508638D01*
X177174937Y-95508638D01*
X177174937Y-94759413D01*
X177044762Y-94629238D01*
X176996364Y-94629238D01*
X176804984Y-94708510D01*
X176658509Y-94854985D01*
X176605048Y-94984051D01*
X176599937Y-94984051D01*
X176539644Y-94995396D01*
X176499633Y-95021142D01*
X176464476Y-94997121D01*
X176399937Y-94984051D01*
X176099937Y-94984051D01*
X176039644Y-94995396D01*
X175984269Y-95031029D01*
X175947120Y-95085399D01*
X175934050Y-95149938D01*
X175934050Y-95447238D01*
X175750062Y-95447238D01*
X175634224Y-95470280D01*
X175536021Y-95535897D01*
X174874618Y-96197300D01*
X173500000Y-96197300D01*
X173384162Y-96220342D01*
X173285959Y-96285959D01*
X171374618Y-98197300D01*
X169262700Y-98197300D01*
X169262700Y-97765382D01*
X172975444Y-94052638D01*
X173585227Y-94052638D01*
X173585398Y-94052755D01*
X173649937Y-94065825D01*
X174849937Y-94065825D01*
X174910230Y-94054480D01*
X174965605Y-94018847D01*
X175002754Y-93964477D01*
X175015824Y-93899938D01*
X175015824Y-93599938D01*
X175004479Y-93539645D01*
X174978733Y-93499634D01*
X175002754Y-93464477D01*
X175015824Y-93399938D01*
X175015824Y-93099938D01*
X175004479Y-93039645D01*
X174978733Y-92999634D01*
X175002754Y-92964477D01*
X175015824Y-92899938D01*
X175015824Y-92762700D01*
X176500000Y-92762700D01*
X176504941Y-92761699D01*
X176509103Y-92758855D01*
X176511831Y-92754616D01*
X176512700Y-92750000D01*
X176512700Y-89250000D01*
X176511699Y-89245059D01*
X176508855Y-89240897D01*
X176504616Y-89238169D01*
X176500000Y-89237300D01*
X175015824Y-89237300D01*
X175015824Y-89099937D01*
X175004479Y-89039644D01*
X174978733Y-88999633D01*
X175002754Y-88964476D01*
X175015824Y-88899937D01*
X175015824Y-88851045D01*
X180337168Y-88851045D01*
X180453038Y-89131470D01*
X180667401Y-89346208D01*
X180947624Y-89462567D01*
X181251045Y-89462832D01*
X181531470Y-89346962D01*
X181746208Y-89132599D01*
X181862567Y-88852376D01*
X181862832Y-88548955D01*
X181746962Y-88268530D01*
X181532599Y-88053792D01*
X181252376Y-87937433D01*
X180948955Y-87937168D01*
X180668530Y-88053038D01*
X180453792Y-88267401D01*
X180337433Y-88547624D01*
X180337168Y-88851045D01*
X175015824Y-88851045D01*
X175015824Y-88599937D01*
X175004479Y-88539644D01*
X174978733Y-88499633D01*
X175002754Y-88464476D01*
X175015824Y-88399937D01*
X175015824Y-88099937D01*
X175004479Y-88039644D01*
X174978733Y-87999633D01*
X175002754Y-87964476D01*
X175015824Y-87899937D01*
X175015824Y-87599937D01*
X175004479Y-87539644D01*
X174978733Y-87499633D01*
X175002754Y-87464476D01*
X175015824Y-87399937D01*
X175015824Y-87099937D01*
X175004479Y-87039644D01*
X174978733Y-86999633D01*
X175002754Y-86964476D01*
X175015824Y-86899937D01*
X175015824Y-86894826D01*
X175144890Y-86841365D01*
X175291365Y-86694890D01*
X175370637Y-86503510D01*
X175370637Y-86455112D01*
X175240462Y-86324937D01*
X174491237Y-86324937D01*
X174491237Y-86399937D01*
X174008637Y-86399937D01*
X174008637Y-86324937D01*
X173259412Y-86324937D01*
X173137112Y-86447237D01*
X171875319Y-86447237D01*
X171424446Y-85996364D01*
X173129237Y-85996364D01*
X173129237Y-86044762D01*
X173259412Y-86174937D01*
X174008637Y-86174937D01*
X174008637Y-85709412D01*
X174491237Y-85709412D01*
X174491237Y-86174937D01*
X175240462Y-86174937D01*
X175370637Y-86044762D01*
X175370637Y-85996364D01*
X175291365Y-85804984D01*
X175144890Y-85658509D01*
X174953511Y-85579237D01*
X174621412Y-85579237D01*
X174491237Y-85709412D01*
X174008637Y-85709412D01*
X173878462Y-85579237D01*
X173546363Y-85579237D01*
X173354984Y-85658509D01*
X173208509Y-85804984D01*
X173129237Y-85996364D01*
X171424446Y-85996364D01*
X170008257Y-84580175D01*
X171854300Y-84580175D01*
X171854300Y-84753574D01*
X171933572Y-84944953D01*
X172080047Y-85091428D01*
X172271427Y-85170700D01*
X172432325Y-85170700D01*
X172562500Y-85040525D01*
X172562500Y-84450000D01*
X172937500Y-84450000D01*
X172937500Y-85040525D01*
X173067675Y-85170700D01*
X173228573Y-85170700D01*
X173419953Y-85091428D01*
X173566428Y-84944953D01*
X173625000Y-84803548D01*
X173683572Y-84944953D01*
X173830047Y-85091428D01*
X174021427Y-85170700D01*
X174182325Y-85170700D01*
X174312500Y-85040525D01*
X174312500Y-84450000D01*
X174687500Y-84450000D01*
X174687500Y-85040525D01*
X174817675Y-85170700D01*
X174978573Y-85170700D01*
X175169953Y-85091428D01*
X175316428Y-84944953D01*
X175395700Y-84753574D01*
X175395700Y-84621412D01*
X175579237Y-84621412D01*
X175579237Y-84953511D01*
X175658509Y-85144890D01*
X175804984Y-85291365D01*
X175996364Y-85370637D01*
X176044762Y-85370637D01*
X176174937Y-85240462D01*
X176174937Y-84491237D01*
X175709412Y-84491237D01*
X175579237Y-84621412D01*
X175395700Y-84621412D01*
X175395700Y-84580175D01*
X175265525Y-84450000D01*
X174687500Y-84450000D01*
X174312500Y-84450000D01*
X173734475Y-84450000D01*
X173625000Y-84559475D01*
X173515525Y-84450000D01*
X172937500Y-84450000D01*
X172562500Y-84450000D01*
X171984475Y-84450000D01*
X171854300Y-84580175D01*
X170008257Y-84580175D01*
X169174508Y-83746426D01*
X171854300Y-83746426D01*
X171854300Y-83919825D01*
X171984475Y-84050000D01*
X172562500Y-84050000D01*
X172562500Y-83459475D01*
X172937500Y-83459475D01*
X172937500Y-84050000D01*
X173515525Y-84050000D01*
X173625000Y-83940525D01*
X173734475Y-84050000D01*
X174312500Y-84050000D01*
X174312500Y-83459475D01*
X174687500Y-83459475D01*
X174687500Y-84050000D01*
X175265525Y-84050000D01*
X175395700Y-83919825D01*
X175395700Y-83746426D01*
X175316428Y-83555047D01*
X175169953Y-83408572D01*
X174978573Y-83329300D01*
X174817675Y-83329300D01*
X174687500Y-83459475D01*
X174312500Y-83459475D01*
X174182325Y-83329300D01*
X174021427Y-83329300D01*
X173830047Y-83408572D01*
X173683572Y-83555047D01*
X173625000Y-83696452D01*
X173566428Y-83555047D01*
X173419953Y-83408572D01*
X173228573Y-83329300D01*
X173067675Y-83329300D01*
X172937500Y-83459475D01*
X172562500Y-83459475D01*
X172432325Y-83329300D01*
X172271427Y-83329300D01*
X172080047Y-83408572D01*
X171933572Y-83555047D01*
X171854300Y-83746426D01*
X169174508Y-83746426D01*
X167098021Y-81669939D01*
X168505260Y-80262700D01*
X169064528Y-80262700D01*
X169236868Y-80467354D01*
G36*
X175629300Y-97221427D02*
X175629300Y-97382325D01*
X175759475Y-97512500D01*
X176350000Y-97512500D01*
X176350000Y-97438700D01*
X176750000Y-97438700D01*
X176750000Y-97512500D01*
X176811300Y-97512500D01*
X176811300Y-97887500D01*
X176750000Y-97887500D01*
X176750000Y-98465525D01*
X176828196Y-98543721D01*
X176774618Y-98597300D01*
X174181219Y-98597300D01*
X174346208Y-98432599D01*
X174416756Y-98262700D01*
X175050000Y-98262700D01*
X175159661Y-98240887D01*
X175450000Y-98240887D01*
X175510293Y-98229542D01*
X175565668Y-98193909D01*
X175602817Y-98139539D01*
X175615887Y-98075000D01*
X175615887Y-98017675D01*
X175629300Y-98017675D01*
X175629300Y-98178573D01*
X175708572Y-98369953D01*
X175855047Y-98516428D01*
X176046426Y-98595700D01*
X176219825Y-98595700D01*
X176350000Y-98465525D01*
X176350000Y-97887500D01*
X175759475Y-97887500D01*
X175629300Y-98017675D01*
X175615887Y-98017675D01*
X175615887Y-97325000D01*
X175604542Y-97264707D01*
X175568909Y-97209332D01*
X175539110Y-97188972D01*
X175625382Y-97102700D01*
X175678478Y-97102700D01*
X175629300Y-97221427D01*
X175629300Y-97221427D01*
G37*
X175629300Y-97221427D02*
X175629300Y-97382325D01*
X175759475Y-97512500D01*
X176350000Y-97512500D01*
X176350000Y-97438700D01*
X176750000Y-97438700D01*
X176750000Y-97512500D01*
X176811300Y-97512500D01*
X176811300Y-97887500D01*
X176750000Y-97887500D01*
X176750000Y-98465525D01*
X176828196Y-98543721D01*
X176774618Y-98597300D01*
X174181219Y-98597300D01*
X174346208Y-98432599D01*
X174416756Y-98262700D01*
X175050000Y-98262700D01*
X175159661Y-98240887D01*
X175450000Y-98240887D01*
X175510293Y-98229542D01*
X175565668Y-98193909D01*
X175602817Y-98139539D01*
X175615887Y-98075000D01*
X175615887Y-98017675D01*
X175629300Y-98017675D01*
X175629300Y-98178573D01*
X175708572Y-98369953D01*
X175855047Y-98516428D01*
X176046426Y-98595700D01*
X176219825Y-98595700D01*
X176350000Y-98465525D01*
X176350000Y-97887500D01*
X175759475Y-97887500D01*
X175629300Y-98017675D01*
X175615887Y-98017675D01*
X175615887Y-97325000D01*
X175604542Y-97264707D01*
X175568909Y-97209332D01*
X175539110Y-97188972D01*
X175625382Y-97102700D01*
X175678478Y-97102700D01*
X175629300Y-97221427D01*
D54*
G36*
X153338745Y-56647000D02*
X153125000Y-56647000D01*
X153125000Y-56627000D01*
X152523750Y-56627000D01*
X152365000Y-56785750D01*
X152365000Y-57076310D01*
X152422447Y-57215000D01*
X152350000Y-57215000D01*
X151992191Y-57286173D01*
X151688855Y-57488855D01*
X151512787Y-57664923D01*
X151355421Y-57664786D01*
X150901343Y-57852408D01*
X150553629Y-58199515D01*
X150365215Y-58653266D01*
X150364786Y-59144579D01*
X150552408Y-59598657D01*
X150899515Y-59946371D01*
X151353266Y-60134785D01*
X151844579Y-60135214D01*
X151939443Y-60096017D01*
X151946838Y-60135317D01*
X152085910Y-60351441D01*
X152298110Y-60496431D01*
X152550000Y-60547440D01*
X153016572Y-60547440D01*
X153279271Y-60810139D01*
X153250708Y-62809527D01*
X153147124Y-63396983D01*
X153166820Y-63400456D01*
X153122713Y-63650597D01*
X153103017Y-63647124D01*
X153099544Y-63666820D01*
X152849403Y-63622713D01*
X152852876Y-63603017D01*
X151671845Y-63394770D01*
X151487941Y-63523541D01*
X151411893Y-63954829D01*
X151368026Y-64203610D01*
X151422703Y-64450241D01*
X151567600Y-64657173D01*
X151726875Y-64758642D01*
X151678524Y-64779917D01*
X151277848Y-65198468D01*
X151067844Y-65738490D01*
X151080483Y-66317770D01*
X151313840Y-66848119D01*
X151732391Y-67248795D01*
X152272413Y-67458799D01*
X152329715Y-67468903D01*
X152908995Y-67456264D01*
X153186068Y-67334350D01*
X153124801Y-71623000D01*
X148627000Y-71623000D01*
X148627000Y-69000000D01*
X148616994Y-68950590D01*
X148588553Y-68908965D01*
X148546159Y-68881685D01*
X148500000Y-68873000D01*
X146000000Y-68873000D01*
X145950590Y-68883006D01*
X145902436Y-68918697D01*
X143402436Y-71918697D01*
X143378491Y-71963060D01*
X143373000Y-72000000D01*
X143373000Y-72500000D01*
X143383006Y-72549410D01*
X143411447Y-72591035D01*
X143453841Y-72618315D01*
X143500000Y-72627000D01*
X148127162Y-72627000D01*
X148138112Y-72955507D01*
X147896077Y-72793785D01*
X147500000Y-72714999D01*
X147499995Y-72715000D01*
X145000000Y-72715000D01*
X144603922Y-72793785D01*
X144515959Y-72852560D01*
X144268144Y-73018144D01*
X144268142Y-73018147D01*
X143271488Y-74014800D01*
X143255421Y-74014786D01*
X142801343Y-74202408D01*
X142453629Y-74549515D01*
X142265215Y-75003266D01*
X142264786Y-75494579D01*
X142452408Y-75948657D01*
X142799515Y-76296371D01*
X143253266Y-76484785D01*
X143744579Y-76485214D01*
X144198657Y-76297592D01*
X144546371Y-75950485D01*
X144677778Y-75634022D01*
X144696838Y-75735317D01*
X144835910Y-75951441D01*
X145011051Y-76071110D01*
X145011051Y-79359519D01*
X144975425Y-79383323D01*
X144653518Y-79865092D01*
X144540478Y-80433377D01*
X144550784Y-80485189D01*
X144376310Y-80412919D01*
X144123691Y-80412918D01*
X143890302Y-80509591D01*
X143402002Y-80997891D01*
X143402002Y-81222397D01*
X144250000Y-82070395D01*
X144264143Y-82056253D01*
X144443748Y-82235858D01*
X144429605Y-82250000D01*
X144443748Y-82264143D01*
X144264143Y-82443748D01*
X144250000Y-82429605D01*
X143402002Y-83277603D01*
X143402002Y-83502109D01*
X143890301Y-83990408D01*
X144123690Y-84087081D01*
X144233313Y-84087081D01*
X143447394Y-84873000D01*
X140500000Y-84873000D01*
X140450590Y-84883006D01*
X140408965Y-84911447D01*
X140381685Y-84953841D01*
X140373000Y-85000000D01*
X140373000Y-95250000D01*
X140383006Y-95299410D01*
X140429553Y-95355670D01*
X141078591Y-95788362D01*
X141125253Y-95807445D01*
X141175663Y-95806870D01*
X141234467Y-95776664D01*
X142999814Y-94171804D01*
X144175316Y-95245088D01*
X144140301Y-95259592D01*
X143652002Y-95747891D01*
X143652002Y-95972397D01*
X144500000Y-96820395D01*
X144514143Y-96806253D01*
X144693748Y-96985858D01*
X144679605Y-97000000D01*
X144693748Y-97014143D01*
X144514143Y-97193748D01*
X144500000Y-97179605D01*
X143652002Y-98027603D01*
X143652002Y-98252109D01*
X144140302Y-98740409D01*
X144373691Y-98837082D01*
X144626310Y-98837081D01*
X144800784Y-98764811D01*
X144790478Y-98816623D01*
X144903518Y-99384908D01*
X145225425Y-99866677D01*
X145315000Y-99926529D01*
X145315000Y-103250000D01*
X145352560Y-103438826D01*
X145352560Y-103700000D01*
X145396838Y-103935317D01*
X145535910Y-104151441D01*
X145748110Y-104296431D01*
X146000000Y-104347440D01*
X146500000Y-104347440D01*
X146692305Y-104311255D01*
X146630452Y-104373000D01*
X145000000Y-104373000D01*
X144950590Y-104383006D01*
X144908965Y-104411447D01*
X144881685Y-104453841D01*
X144873000Y-104500000D01*
X144873000Y-111500000D01*
X144883006Y-111549410D01*
X144903574Y-111582651D01*
X147903574Y-115082651D01*
X147943327Y-115113654D01*
X147992010Y-115126748D01*
X148041952Y-115119871D01*
X148085283Y-115094105D01*
X148115176Y-115053511D01*
X148127000Y-115000000D01*
X148127000Y-113296390D01*
X150868026Y-113296390D01*
X150911893Y-113545171D01*
X150987941Y-113976459D01*
X151171845Y-114105230D01*
X152352876Y-113896983D01*
X152144629Y-112715952D01*
X151960724Y-112587180D01*
X151280656Y-112707095D01*
X151067600Y-112842827D01*
X150922703Y-113049759D01*
X150868026Y-113296390D01*
X148127000Y-113296390D01*
X148127000Y-111377000D01*
X153373000Y-111377000D01*
X153373000Y-111770212D01*
X153283993Y-111903420D01*
X153225000Y-112200000D01*
X153225000Y-112372768D01*
X153203609Y-112368026D01*
X152523541Y-112487941D01*
X152394770Y-112671845D01*
X152603017Y-113852876D01*
X152622713Y-113849403D01*
X152666820Y-114099544D01*
X152647124Y-114103017D01*
X152650597Y-114122713D01*
X152400456Y-114166820D01*
X152396983Y-114147124D01*
X151215952Y-114355371D01*
X151087180Y-114539276D01*
X151163228Y-114970564D01*
X151207095Y-115219345D01*
X151342827Y-115432401D01*
X151549760Y-115577297D01*
X151734135Y-115618172D01*
X151695972Y-115654705D01*
X151462615Y-116185054D01*
X151449976Y-116764334D01*
X151565000Y-117060116D01*
X151565000Y-119585025D01*
X151453569Y-119748110D01*
X151402560Y-120000000D01*
X151402560Y-120500000D01*
X151446838Y-120735317D01*
X151585910Y-120951441D01*
X151655711Y-120999134D01*
X151598559Y-121035910D01*
X151453569Y-121248110D01*
X151402560Y-121500000D01*
X151402560Y-122000000D01*
X151446838Y-122235317D01*
X151465000Y-122263542D01*
X151465000Y-122373000D01*
X148902904Y-122373000D01*
X148127000Y-121854558D01*
X148127000Y-116500000D01*
X148116994Y-116450590D01*
X148096766Y-116417749D01*
X143877000Y-111453318D01*
X143877000Y-104500000D01*
X143866352Y-104449096D01*
X140662633Y-97126309D01*
X142662918Y-97126309D01*
X142759591Y-97359698D01*
X143247891Y-97847998D01*
X143472397Y-97847998D01*
X144320395Y-97000000D01*
X143472397Y-96152002D01*
X143247891Y-96152002D01*
X142759592Y-96640301D01*
X142662919Y-96873690D01*
X142662918Y-97126309D01*
X140662633Y-97126309D01*
X140475727Y-96699096D01*
X140446756Y-96657839D01*
X140404015Y-96631104D01*
X140359375Y-96623000D01*
X139627000Y-96623000D01*
X139627000Y-85005078D01*
X139857510Y-82123691D01*
X142412918Y-82123691D01*
X142412919Y-82376310D01*
X142509592Y-82609699D01*
X142997891Y-83097998D01*
X143222397Y-83097998D01*
X144070395Y-82250000D01*
X143222397Y-81402002D01*
X142997891Y-81402002D01*
X142509591Y-81890302D01*
X142412918Y-82123691D01*
X139857510Y-82123691D01*
X140617246Y-72627000D01*
X142500000Y-72627000D01*
X142549410Y-72616994D01*
X142591035Y-72588553D01*
X142618315Y-72546159D01*
X142627000Y-72500000D01*
X142627000Y-72047376D01*
X145807992Y-68377000D01*
X148500000Y-68377000D01*
X148549410Y-68366994D01*
X148591035Y-68338553D01*
X148618315Y-68296159D01*
X148627000Y-68250000D01*
X148627000Y-62960724D01*
X151587180Y-62960724D01*
X151715952Y-63144629D01*
X152896983Y-63352876D01*
X153105230Y-62171845D01*
X152976459Y-61987941D01*
X152296391Y-61868026D01*
X152049760Y-61922703D01*
X151842827Y-62067599D01*
X151707095Y-62280655D01*
X151663228Y-62529436D01*
X151587180Y-62960724D01*
X148627000Y-62960724D01*
X148627000Y-57811353D01*
X151452088Y-55923690D01*
X152365000Y-55923690D01*
X152365000Y-56214250D01*
X152523750Y-56373000D01*
X153125000Y-56373000D01*
X153125000Y-55573750D01*
X152966250Y-55415000D01*
X152873691Y-55415000D01*
X152640302Y-55511673D01*
X152461673Y-55690301D01*
X152365000Y-55923690D01*
X151452088Y-55923690D01*
X152092625Y-55495697D01*
X153358790Y-55243841D01*
X153338745Y-56647000D01*
X153338745Y-56647000D01*
G37*
X153338745Y-56647000D02*
X153125000Y-56647000D01*
X153125000Y-56627000D01*
X152523750Y-56627000D01*
X152365000Y-56785750D01*
X152365000Y-57076310D01*
X152422447Y-57215000D01*
X152350000Y-57215000D01*
X151992191Y-57286173D01*
X151688855Y-57488855D01*
X151512787Y-57664923D01*
X151355421Y-57664786D01*
X150901343Y-57852408D01*
X150553629Y-58199515D01*
X150365215Y-58653266D01*
X150364786Y-59144579D01*
X150552408Y-59598657D01*
X150899515Y-59946371D01*
X151353266Y-60134785D01*
X151844579Y-60135214D01*
X151939443Y-60096017D01*
X151946838Y-60135317D01*
X152085910Y-60351441D01*
X152298110Y-60496431D01*
X152550000Y-60547440D01*
X153016572Y-60547440D01*
X153279271Y-60810139D01*
X153250708Y-62809527D01*
X153147124Y-63396983D01*
X153166820Y-63400456D01*
X153122713Y-63650597D01*
X153103017Y-63647124D01*
X153099544Y-63666820D01*
X152849403Y-63622713D01*
X152852876Y-63603017D01*
X151671845Y-63394770D01*
X151487941Y-63523541D01*
X151411893Y-63954829D01*
X151368026Y-64203610D01*
X151422703Y-64450241D01*
X151567600Y-64657173D01*
X151726875Y-64758642D01*
X151678524Y-64779917D01*
X151277848Y-65198468D01*
X151067844Y-65738490D01*
X151080483Y-66317770D01*
X151313840Y-66848119D01*
X151732391Y-67248795D01*
X152272413Y-67458799D01*
X152329715Y-67468903D01*
X152908995Y-67456264D01*
X153186068Y-67334350D01*
X153124801Y-71623000D01*
X148627000Y-71623000D01*
X148627000Y-69000000D01*
X148616994Y-68950590D01*
X148588553Y-68908965D01*
X148546159Y-68881685D01*
X148500000Y-68873000D01*
X146000000Y-68873000D01*
X145950590Y-68883006D01*
X145902436Y-68918697D01*
X143402436Y-71918697D01*
X143378491Y-71963060D01*
X143373000Y-72000000D01*
X143373000Y-72500000D01*
X143383006Y-72549410D01*
X143411447Y-72591035D01*
X143453841Y-72618315D01*
X143500000Y-72627000D01*
X148127162Y-72627000D01*
X148138112Y-72955507D01*
X147896077Y-72793785D01*
X147500000Y-72714999D01*
X147499995Y-72715000D01*
X145000000Y-72715000D01*
X144603922Y-72793785D01*
X144515959Y-72852560D01*
X144268144Y-73018144D01*
X144268142Y-73018147D01*
X143271488Y-74014800D01*
X143255421Y-74014786D01*
X142801343Y-74202408D01*
X142453629Y-74549515D01*
X142265215Y-75003266D01*
X142264786Y-75494579D01*
X142452408Y-75948657D01*
X142799515Y-76296371D01*
X143253266Y-76484785D01*
X143744579Y-76485214D01*
X144198657Y-76297592D01*
X144546371Y-75950485D01*
X144677778Y-75634022D01*
X144696838Y-75735317D01*
X144835910Y-75951441D01*
X145011051Y-76071110D01*
X145011051Y-79359519D01*
X144975425Y-79383323D01*
X144653518Y-79865092D01*
X144540478Y-80433377D01*
X144550784Y-80485189D01*
X144376310Y-80412919D01*
X144123691Y-80412918D01*
X143890302Y-80509591D01*
X143402002Y-80997891D01*
X143402002Y-81222397D01*
X144250000Y-82070395D01*
X144264143Y-82056253D01*
X144443748Y-82235858D01*
X144429605Y-82250000D01*
X144443748Y-82264143D01*
X144264143Y-82443748D01*
X144250000Y-82429605D01*
X143402002Y-83277603D01*
X143402002Y-83502109D01*
X143890301Y-83990408D01*
X144123690Y-84087081D01*
X144233313Y-84087081D01*
X143447394Y-84873000D01*
X140500000Y-84873000D01*
X140450590Y-84883006D01*
X140408965Y-84911447D01*
X140381685Y-84953841D01*
X140373000Y-85000000D01*
X140373000Y-95250000D01*
X140383006Y-95299410D01*
X140429553Y-95355670D01*
X141078591Y-95788362D01*
X141125253Y-95807445D01*
X141175663Y-95806870D01*
X141234467Y-95776664D01*
X142999814Y-94171804D01*
X144175316Y-95245088D01*
X144140301Y-95259592D01*
X143652002Y-95747891D01*
X143652002Y-95972397D01*
X144500000Y-96820395D01*
X144514143Y-96806253D01*
X144693748Y-96985858D01*
X144679605Y-97000000D01*
X144693748Y-97014143D01*
X144514143Y-97193748D01*
X144500000Y-97179605D01*
X143652002Y-98027603D01*
X143652002Y-98252109D01*
X144140302Y-98740409D01*
X144373691Y-98837082D01*
X144626310Y-98837081D01*
X144800784Y-98764811D01*
X144790478Y-98816623D01*
X144903518Y-99384908D01*
X145225425Y-99866677D01*
X145315000Y-99926529D01*
X145315000Y-103250000D01*
X145352560Y-103438826D01*
X145352560Y-103700000D01*
X145396838Y-103935317D01*
X145535910Y-104151441D01*
X145748110Y-104296431D01*
X146000000Y-104347440D01*
X146500000Y-104347440D01*
X146692305Y-104311255D01*
X146630452Y-104373000D01*
X145000000Y-104373000D01*
X144950590Y-104383006D01*
X144908965Y-104411447D01*
X144881685Y-104453841D01*
X144873000Y-104500000D01*
X144873000Y-111500000D01*
X144883006Y-111549410D01*
X144903574Y-111582651D01*
X147903574Y-115082651D01*
X147943327Y-115113654D01*
X147992010Y-115126748D01*
X148041952Y-115119871D01*
X148085283Y-115094105D01*
X148115176Y-115053511D01*
X148127000Y-115000000D01*
X148127000Y-113296390D01*
X150868026Y-113296390D01*
X150911893Y-113545171D01*
X150987941Y-113976459D01*
X151171845Y-114105230D01*
X152352876Y-113896983D01*
X152144629Y-112715952D01*
X151960724Y-112587180D01*
X151280656Y-112707095D01*
X151067600Y-112842827D01*
X150922703Y-113049759D01*
X150868026Y-113296390D01*
X148127000Y-113296390D01*
X148127000Y-111377000D01*
X153373000Y-111377000D01*
X153373000Y-111770212D01*
X153283993Y-111903420D01*
X153225000Y-112200000D01*
X153225000Y-112372768D01*
X153203609Y-112368026D01*
X152523541Y-112487941D01*
X152394770Y-112671845D01*
X152603017Y-113852876D01*
X152622713Y-113849403D01*
X152666820Y-114099544D01*
X152647124Y-114103017D01*
X152650597Y-114122713D01*
X152400456Y-114166820D01*
X152396983Y-114147124D01*
X151215952Y-114355371D01*
X151087180Y-114539276D01*
X151163228Y-114970564D01*
X151207095Y-115219345D01*
X151342827Y-115432401D01*
X151549760Y-115577297D01*
X151734135Y-115618172D01*
X151695972Y-115654705D01*
X151462615Y-116185054D01*
X151449976Y-116764334D01*
X151565000Y-117060116D01*
X151565000Y-119585025D01*
X151453569Y-119748110D01*
X151402560Y-120000000D01*
X151402560Y-120500000D01*
X151446838Y-120735317D01*
X151585910Y-120951441D01*
X151655711Y-120999134D01*
X151598559Y-121035910D01*
X151453569Y-121248110D01*
X151402560Y-121500000D01*
X151402560Y-122000000D01*
X151446838Y-122235317D01*
X151465000Y-122263542D01*
X151465000Y-122373000D01*
X148902904Y-122373000D01*
X148127000Y-121854558D01*
X148127000Y-116500000D01*
X148116994Y-116450590D01*
X148096766Y-116417749D01*
X143877000Y-111453318D01*
X143877000Y-104500000D01*
X143866352Y-104449096D01*
X140662633Y-97126309D01*
X142662918Y-97126309D01*
X142759591Y-97359698D01*
X143247891Y-97847998D01*
X143472397Y-97847998D01*
X144320395Y-97000000D01*
X143472397Y-96152002D01*
X143247891Y-96152002D01*
X142759592Y-96640301D01*
X142662919Y-96873690D01*
X142662918Y-97126309D01*
X140662633Y-97126309D01*
X140475727Y-96699096D01*
X140446756Y-96657839D01*
X140404015Y-96631104D01*
X140359375Y-96623000D01*
X139627000Y-96623000D01*
X139627000Y-85005078D01*
X139857510Y-82123691D01*
X142412918Y-82123691D01*
X142412919Y-82376310D01*
X142509592Y-82609699D01*
X142997891Y-83097998D01*
X143222397Y-83097998D01*
X144070395Y-82250000D01*
X143222397Y-81402002D01*
X142997891Y-81402002D01*
X142509591Y-81890302D01*
X142412918Y-82123691D01*
X139857510Y-82123691D01*
X140617246Y-72627000D01*
X142500000Y-72627000D01*
X142549410Y-72616994D01*
X142591035Y-72588553D01*
X142618315Y-72546159D01*
X142627000Y-72500000D01*
X142627000Y-72047376D01*
X145807992Y-68377000D01*
X148500000Y-68377000D01*
X148549410Y-68366994D01*
X148591035Y-68338553D01*
X148618315Y-68296159D01*
X148627000Y-68250000D01*
X148627000Y-62960724D01*
X151587180Y-62960724D01*
X151715952Y-63144629D01*
X152896983Y-63352876D01*
X153105230Y-62171845D01*
X152976459Y-61987941D01*
X152296391Y-61868026D01*
X152049760Y-61922703D01*
X151842827Y-62067599D01*
X151707095Y-62280655D01*
X151663228Y-62529436D01*
X151587180Y-62960724D01*
X148627000Y-62960724D01*
X148627000Y-57811353D01*
X151452088Y-55923690D01*
X152365000Y-55923690D01*
X152365000Y-56214250D01*
X152523750Y-56373000D01*
X153125000Y-56373000D01*
X153125000Y-55573750D01*
X152966250Y-55415000D01*
X152873691Y-55415000D01*
X152640302Y-55511673D01*
X152461673Y-55690301D01*
X152365000Y-55923690D01*
X151452088Y-55923690D01*
X152092625Y-55495697D01*
X153358790Y-55243841D01*
X153338745Y-56647000D01*
G36*
X165777000Y-111673000D02*
X165797000Y-111673000D01*
X165797000Y-111927000D01*
X165777000Y-111927000D01*
X165777000Y-112651250D01*
X165827000Y-112701250D01*
X165827000Y-113573000D01*
X165847000Y-113573000D01*
X165847000Y-113827000D01*
X165827000Y-113827000D01*
X165827000Y-114976250D01*
X165985750Y-115135000D01*
X166326309Y-115135000D01*
X166559698Y-115038327D01*
X166738327Y-114859699D01*
X166835000Y-114626310D01*
X166835000Y-114290282D01*
X166909679Y-114470573D01*
X167146605Y-114533790D01*
X167910395Y-113770000D01*
X167146605Y-113006210D01*
X166909679Y-113069427D01*
X166835000Y-113281006D01*
X166835000Y-112773690D01*
X166738327Y-112540301D01*
X166630620Y-112432595D01*
X166685000Y-112301310D01*
X166685000Y-112085750D01*
X166526252Y-111927002D01*
X166663291Y-111927002D01*
X166698142Y-111961853D01*
X166698144Y-111961856D01*
X166823908Y-112045888D01*
X167033922Y-112186215D01*
X167169266Y-112213137D01*
X167326443Y-112370588D01*
X167622037Y-112493329D01*
X167389427Y-112589679D01*
X167326210Y-112826605D01*
X168090000Y-113590395D01*
X168104143Y-113576253D01*
X168283748Y-113755858D01*
X168269605Y-113770000D01*
X168283748Y-113784143D01*
X168104143Y-113963748D01*
X168090000Y-113949605D01*
X167326210Y-114713395D01*
X167389427Y-114950321D01*
X167623218Y-115032840D01*
X167389427Y-115129679D01*
X167326210Y-115366605D01*
X168090000Y-116130395D01*
X168104143Y-116116253D01*
X168283748Y-116295858D01*
X168269605Y-116310000D01*
X168283748Y-116324143D01*
X168104143Y-116503748D01*
X168090000Y-116489605D01*
X167326210Y-117253395D01*
X167389427Y-117490321D01*
X167640759Y-117579031D01*
X167328435Y-117708081D01*
X166949412Y-118086443D01*
X166744034Y-118581049D01*
X166743566Y-119116601D01*
X166948081Y-119611565D01*
X167326443Y-119990588D01*
X167821049Y-120195966D01*
X168356601Y-120196434D01*
X168625000Y-120085534D01*
X168625000Y-120373000D01*
X165127000Y-120373000D01*
X165127000Y-116114445D01*
X166731428Y-116114445D01*
X166760007Y-116649233D01*
X166909679Y-117010573D01*
X167146605Y-117073790D01*
X167910395Y-116310000D01*
X167146605Y-115546210D01*
X166909679Y-115609427D01*
X166731428Y-116114445D01*
X165127000Y-116114445D01*
X165127000Y-115135000D01*
X165414250Y-115135000D01*
X165573000Y-114976250D01*
X165573000Y-113827000D01*
X165553000Y-113827000D01*
X165553000Y-113573000D01*
X165573000Y-113573000D01*
X165573000Y-112423750D01*
X165523000Y-112373750D01*
X165523000Y-111927000D01*
X165503000Y-111927000D01*
X165503000Y-111673000D01*
X165523000Y-111673000D01*
X165523000Y-111653000D01*
X165777000Y-111653000D01*
X165777000Y-111673000D01*
X165777000Y-111673000D01*
G37*
X165777000Y-111673000D02*
X165797000Y-111673000D01*
X165797000Y-111927000D01*
X165777000Y-111927000D01*
X165777000Y-112651250D01*
X165827000Y-112701250D01*
X165827000Y-113573000D01*
X165847000Y-113573000D01*
X165847000Y-113827000D01*
X165827000Y-113827000D01*
X165827000Y-114976250D01*
X165985750Y-115135000D01*
X166326309Y-115135000D01*
X166559698Y-115038327D01*
X166738327Y-114859699D01*
X166835000Y-114626310D01*
X166835000Y-114290282D01*
X166909679Y-114470573D01*
X167146605Y-114533790D01*
X167910395Y-113770000D01*
X167146605Y-113006210D01*
X166909679Y-113069427D01*
X166835000Y-113281006D01*
X166835000Y-112773690D01*
X166738327Y-112540301D01*
X166630620Y-112432595D01*
X166685000Y-112301310D01*
X166685000Y-112085750D01*
X166526252Y-111927002D01*
X166663291Y-111927002D01*
X166698142Y-111961853D01*
X166698144Y-111961856D01*
X166823908Y-112045888D01*
X167033922Y-112186215D01*
X167169266Y-112213137D01*
X167326443Y-112370588D01*
X167622037Y-112493329D01*
X167389427Y-112589679D01*
X167326210Y-112826605D01*
X168090000Y-113590395D01*
X168104143Y-113576253D01*
X168283748Y-113755858D01*
X168269605Y-113770000D01*
X168283748Y-113784143D01*
X168104143Y-113963748D01*
X168090000Y-113949605D01*
X167326210Y-114713395D01*
X167389427Y-114950321D01*
X167623218Y-115032840D01*
X167389427Y-115129679D01*
X167326210Y-115366605D01*
X168090000Y-116130395D01*
X168104143Y-116116253D01*
X168283748Y-116295858D01*
X168269605Y-116310000D01*
X168283748Y-116324143D01*
X168104143Y-116503748D01*
X168090000Y-116489605D01*
X167326210Y-117253395D01*
X167389427Y-117490321D01*
X167640759Y-117579031D01*
X167328435Y-117708081D01*
X166949412Y-118086443D01*
X166744034Y-118581049D01*
X166743566Y-119116601D01*
X166948081Y-119611565D01*
X167326443Y-119990588D01*
X167821049Y-120195966D01*
X168356601Y-120196434D01*
X168625000Y-120085534D01*
X168625000Y-120373000D01*
X165127000Y-120373000D01*
X165127000Y-116114445D01*
X166731428Y-116114445D01*
X166760007Y-116649233D01*
X166909679Y-117010573D01*
X167146605Y-117073790D01*
X167910395Y-116310000D01*
X167146605Y-115546210D01*
X166909679Y-115609427D01*
X166731428Y-116114445D01*
X165127000Y-116114445D01*
X165127000Y-115135000D01*
X165414250Y-115135000D01*
X165573000Y-114976250D01*
X165573000Y-113827000D01*
X165553000Y-113827000D01*
X165553000Y-113573000D01*
X165573000Y-113573000D01*
X165573000Y-112423750D01*
X165523000Y-112373750D01*
X165523000Y-111927000D01*
X165503000Y-111927000D01*
X165503000Y-111673000D01*
X165523000Y-111673000D01*
X165523000Y-111653000D01*
X165777000Y-111653000D01*
X165777000Y-111673000D01*
G36*
X172051992Y-104348008D02*
X174401992Y-106698008D01*
X174492219Y-106758296D01*
X174351992Y-106851992D01*
X173851992Y-107351992D01*
X173683993Y-107603420D01*
X173625000Y-107900000D01*
X173625000Y-109500000D01*
X173683993Y-109796580D01*
X173851992Y-110048008D01*
X174481689Y-110677705D01*
X174364034Y-110961049D01*
X174363566Y-111496601D01*
X174568081Y-111991565D01*
X174946443Y-112370588D01*
X175242037Y-112493329D01*
X175009427Y-112589679D01*
X174946210Y-112826605D01*
X175710000Y-113590395D01*
X176473790Y-112826605D01*
X176410573Y-112589679D01*
X176159241Y-112500969D01*
X176471565Y-112371919D01*
X176850588Y-111993557D01*
X177055966Y-111498951D01*
X177056434Y-110963399D01*
X176909968Y-110608924D01*
X177213201Y-110734838D01*
X177585167Y-110735162D01*
X177928943Y-110593117D01*
X178047700Y-110474567D01*
X178047700Y-111582695D01*
X178047699Y-111582700D01*
X178126485Y-111978777D01*
X178264837Y-112185837D01*
X178264786Y-112244579D01*
X178373000Y-112506476D01*
X178373000Y-120373000D01*
X170875000Y-120373000D01*
X170875000Y-116576601D01*
X174363566Y-116576601D01*
X174568081Y-117071565D01*
X174946443Y-117450588D01*
X175258258Y-117580065D01*
X174948435Y-117708081D01*
X174569412Y-118086443D01*
X174364034Y-118581049D01*
X174363566Y-119116601D01*
X174568081Y-119611565D01*
X174946443Y-119990588D01*
X175441049Y-120195966D01*
X175976601Y-120196434D01*
X176471565Y-119991919D01*
X176850588Y-119613557D01*
X177055966Y-119118951D01*
X177056434Y-118583399D01*
X176851919Y-118088435D01*
X176473557Y-117709412D01*
X176161742Y-117579935D01*
X176471565Y-117451919D01*
X176850588Y-117073557D01*
X177055966Y-116578951D01*
X177056434Y-116043399D01*
X176851919Y-115548435D01*
X176473557Y-115169412D01*
X176177963Y-115046671D01*
X176410573Y-114950321D01*
X176473790Y-114713395D01*
X175710000Y-113949605D01*
X174946210Y-114713395D01*
X175009427Y-114950321D01*
X175260759Y-115039031D01*
X174948435Y-115168081D01*
X174569412Y-115546443D01*
X174364034Y-116041049D01*
X174363566Y-116576601D01*
X170875000Y-116576601D01*
X170875000Y-113574445D01*
X174351428Y-113574445D01*
X174380007Y-114109233D01*
X174529679Y-114470573D01*
X174766605Y-114533790D01*
X175530395Y-113770000D01*
X175889605Y-113770000D01*
X176653395Y-114533790D01*
X176890321Y-114470573D01*
X177068572Y-113965555D01*
X177039993Y-113430767D01*
X176890321Y-113069427D01*
X176653395Y-113006210D01*
X175889605Y-113770000D01*
X175530395Y-113770000D01*
X174766605Y-113006210D01*
X174529679Y-113069427D01*
X174351428Y-113574445D01*
X170875000Y-113574445D01*
X170875000Y-108000000D01*
X170816007Y-107703420D01*
X170648008Y-107451992D01*
X170048008Y-106851992D01*
X169796580Y-106683993D01*
X169500000Y-106625000D01*
X169350407Y-106625000D01*
X169435966Y-106418951D01*
X169436434Y-105883399D01*
X169231919Y-105388435D01*
X168865000Y-105020875D01*
X168865000Y-104631016D01*
X169369016Y-104127000D01*
X171904319Y-104127000D01*
X172051992Y-104348008D01*
X172051992Y-104348008D01*
G37*
X172051992Y-104348008D02*
X174401992Y-106698008D01*
X174492219Y-106758296D01*
X174351992Y-106851992D01*
X173851992Y-107351992D01*
X173683993Y-107603420D01*
X173625000Y-107900000D01*
X173625000Y-109500000D01*
X173683993Y-109796580D01*
X173851992Y-110048008D01*
X174481689Y-110677705D01*
X174364034Y-110961049D01*
X174363566Y-111496601D01*
X174568081Y-111991565D01*
X174946443Y-112370588D01*
X175242037Y-112493329D01*
X175009427Y-112589679D01*
X174946210Y-112826605D01*
X175710000Y-113590395D01*
X176473790Y-112826605D01*
X176410573Y-112589679D01*
X176159241Y-112500969D01*
X176471565Y-112371919D01*
X176850588Y-111993557D01*
X177055966Y-111498951D01*
X177056434Y-110963399D01*
X176909968Y-110608924D01*
X177213201Y-110734838D01*
X177585167Y-110735162D01*
X177928943Y-110593117D01*
X178047700Y-110474567D01*
X178047700Y-111582695D01*
X178047699Y-111582700D01*
X178126485Y-111978777D01*
X178264837Y-112185837D01*
X178264786Y-112244579D01*
X178373000Y-112506476D01*
X178373000Y-120373000D01*
X170875000Y-120373000D01*
X170875000Y-116576601D01*
X174363566Y-116576601D01*
X174568081Y-117071565D01*
X174946443Y-117450588D01*
X175258258Y-117580065D01*
X174948435Y-117708081D01*
X174569412Y-118086443D01*
X174364034Y-118581049D01*
X174363566Y-119116601D01*
X174568081Y-119611565D01*
X174946443Y-119990588D01*
X175441049Y-120195966D01*
X175976601Y-120196434D01*
X176471565Y-119991919D01*
X176850588Y-119613557D01*
X177055966Y-119118951D01*
X177056434Y-118583399D01*
X176851919Y-118088435D01*
X176473557Y-117709412D01*
X176161742Y-117579935D01*
X176471565Y-117451919D01*
X176850588Y-117073557D01*
X177055966Y-116578951D01*
X177056434Y-116043399D01*
X176851919Y-115548435D01*
X176473557Y-115169412D01*
X176177963Y-115046671D01*
X176410573Y-114950321D01*
X176473790Y-114713395D01*
X175710000Y-113949605D01*
X174946210Y-114713395D01*
X175009427Y-114950321D01*
X175260759Y-115039031D01*
X174948435Y-115168081D01*
X174569412Y-115546443D01*
X174364034Y-116041049D01*
X174363566Y-116576601D01*
X170875000Y-116576601D01*
X170875000Y-113574445D01*
X174351428Y-113574445D01*
X174380007Y-114109233D01*
X174529679Y-114470573D01*
X174766605Y-114533790D01*
X175530395Y-113770000D01*
X175889605Y-113770000D01*
X176653395Y-114533790D01*
X176890321Y-114470573D01*
X177068572Y-113965555D01*
X177039993Y-113430767D01*
X176890321Y-113069427D01*
X176653395Y-113006210D01*
X175889605Y-113770000D01*
X175530395Y-113770000D01*
X174766605Y-113006210D01*
X174529679Y-113069427D01*
X174351428Y-113574445D01*
X170875000Y-113574445D01*
X170875000Y-108000000D01*
X170816007Y-107703420D01*
X170648008Y-107451992D01*
X170048008Y-106851992D01*
X169796580Y-106683993D01*
X169500000Y-106625000D01*
X169350407Y-106625000D01*
X169435966Y-106418951D01*
X169436434Y-105883399D01*
X169231919Y-105388435D01*
X168865000Y-105020875D01*
X168865000Y-104631016D01*
X169369016Y-104127000D01*
X171904319Y-104127000D01*
X172051992Y-104348008D01*
D53*
G36*
X234987300Y-74003373D02*
X234987300Y-106387300D01*
X210012700Y-106387300D01*
X210012700Y-105110457D01*
X210237115Y-105110457D01*
X210398561Y-105501185D01*
X210697243Y-105800388D01*
X211087688Y-105962516D01*
X211510457Y-105962885D01*
X211901185Y-105801439D01*
X212200388Y-105502757D01*
X212362516Y-105112312D01*
X212362885Y-104689543D01*
X212201439Y-104298815D01*
X211902757Y-103999612D01*
X211512312Y-103837484D01*
X211089543Y-103837115D01*
X210698815Y-103998561D01*
X210399612Y-104297243D01*
X210237484Y-104687688D01*
X210237115Y-105110457D01*
X210012700Y-105110457D01*
X210012700Y-101740782D01*
X212885959Y-104614041D01*
X212984162Y-104679658D01*
X213100000Y-104702700D01*
X224400000Y-104702700D01*
X224515838Y-104679658D01*
X224614041Y-104614041D01*
X225114041Y-104114041D01*
X225179658Y-104015838D01*
X225202700Y-103900000D01*
X225202700Y-102700000D01*
X225179658Y-102584162D01*
X225165981Y-102563693D01*
X225114042Y-102485959D01*
X224739641Y-102111559D01*
X224641438Y-102045942D01*
X224525600Y-102022900D01*
X224161397Y-102022900D01*
X224128065Y-102000126D01*
X224162358Y-101978059D01*
X224824641Y-101978059D01*
X224905842Y-101961907D01*
X224907559Y-101962620D01*
X225034648Y-101962730D01*
X225035959Y-101964041D01*
X225134161Y-102029658D01*
X225146599Y-102032132D01*
X225250000Y-102052700D01*
X225959113Y-102052700D01*
X225959113Y-102150000D01*
X225970458Y-102210293D01*
X226006091Y-102265668D01*
X226060461Y-102302817D01*
X226125000Y-102315887D01*
X226875000Y-102315887D01*
X226935293Y-102304542D01*
X226990668Y-102268909D01*
X227027817Y-102214539D01*
X227040887Y-102150000D01*
X227040887Y-101350000D01*
X227029542Y-101289707D01*
X226993909Y-101234332D01*
X226939539Y-101197183D01*
X226875000Y-101184113D01*
X226125000Y-101184113D01*
X226114223Y-101186141D01*
X226098782Y-101170700D01*
X226182325Y-101170700D01*
X226312500Y-101040525D01*
X226312500Y-100450000D01*
X226687500Y-100450000D01*
X226687500Y-101040525D01*
X226817675Y-101170700D01*
X226978573Y-101170700D01*
X227169953Y-101091428D01*
X227316428Y-100944953D01*
X227395700Y-100753574D01*
X227395700Y-100580175D01*
X227265525Y-100450000D01*
X226687500Y-100450000D01*
X226312500Y-100450000D01*
X225734475Y-100450000D01*
X225631059Y-100553416D01*
X225592441Y-100537380D01*
X225408367Y-100537220D01*
X225238244Y-100607513D01*
X225123137Y-100722419D01*
X224549294Y-100722419D01*
X224576700Y-100656254D01*
X224576700Y-100593956D01*
X224446525Y-100463781D01*
X223560700Y-100463781D01*
X223560700Y-100552681D01*
X223078100Y-100552681D01*
X223078100Y-100463781D01*
X223058100Y-100463781D01*
X223058100Y-100285981D01*
X223078100Y-100285981D01*
X223078100Y-100197081D01*
X223560700Y-100197081D01*
X223560700Y-100285981D01*
X224446525Y-100285981D01*
X224576700Y-100155806D01*
X224576700Y-100093508D01*
X224522518Y-99962700D01*
X224800000Y-99962700D01*
X225015336Y-99919867D01*
X225197889Y-99797889D01*
X225249352Y-99746426D01*
X225604300Y-99746426D01*
X225604300Y-99919825D01*
X225734475Y-100050000D01*
X226312500Y-100050000D01*
X226312500Y-99459475D01*
X226687500Y-99459475D01*
X226687500Y-100050000D01*
X227265525Y-100050000D01*
X227395700Y-99919825D01*
X227395700Y-99746426D01*
X227316428Y-99555047D01*
X227169953Y-99408572D01*
X226978573Y-99329300D01*
X226817675Y-99329300D01*
X226687500Y-99459475D01*
X226312500Y-99459475D01*
X226182325Y-99329300D01*
X226021427Y-99329300D01*
X225830047Y-99408572D01*
X225683572Y-99555047D01*
X225604300Y-99746426D01*
X225249352Y-99746426D01*
X225697889Y-99297889D01*
X225819867Y-99115336D01*
X225862700Y-98900000D01*
X225862700Y-98800619D01*
X225945376Y-98745376D01*
X226143225Y-98449275D01*
X226212700Y-98100000D01*
X226212700Y-92600000D01*
X226143225Y-92250725D01*
X225945376Y-91954624D01*
X224845376Y-90854624D01*
X224549275Y-90656775D01*
X224200000Y-90587300D01*
X221500000Y-90587300D01*
X221150725Y-90656775D01*
X220854624Y-90854624D01*
X220656775Y-91150725D01*
X220587300Y-91500000D01*
X220656775Y-91849275D01*
X220854624Y-92145376D01*
X221150725Y-92343225D01*
X221500000Y-92412700D01*
X223821948Y-92412700D01*
X224387300Y-92978052D01*
X224387300Y-98100000D01*
X224456775Y-98449275D01*
X224654624Y-98745376D01*
X224657155Y-98747067D01*
X224566922Y-98837300D01*
X224210729Y-98837300D01*
X224210542Y-98836307D01*
X224174909Y-98780932D01*
X224128066Y-98748926D01*
X224171668Y-98720869D01*
X224208817Y-98666499D01*
X224221887Y-98601960D01*
X224221887Y-98246360D01*
X224210542Y-98186067D01*
X224174909Y-98130692D01*
X224120539Y-98093543D01*
X224056000Y-98080473D01*
X223782100Y-98080473D01*
X223782100Y-94569400D01*
X223770822Y-94512700D01*
X223746880Y-94392333D01*
X223646579Y-94242222D01*
X223127178Y-93722822D01*
X223111910Y-93712620D01*
X222977068Y-93622521D01*
X222800000Y-93587300D01*
X221513497Y-93587300D01*
X221504542Y-93539707D01*
X221468909Y-93484332D01*
X221414539Y-93447183D01*
X221350000Y-93434113D01*
X219862195Y-93434113D01*
X219712670Y-93284588D01*
X219712780Y-93158367D01*
X219642487Y-92988244D01*
X219512441Y-92857971D01*
X219342441Y-92787380D01*
X219158367Y-92787220D01*
X218988244Y-92857513D01*
X218857971Y-92987559D01*
X218787380Y-93157559D01*
X218787220Y-93341633D01*
X218857513Y-93511756D01*
X218932925Y-93587300D01*
X218200000Y-93587300D01*
X218022933Y-93622520D01*
X217872822Y-93722821D01*
X217353422Y-94242222D01*
X217253121Y-94392332D01*
X217217900Y-94569400D01*
X217217900Y-98080473D01*
X216944000Y-98080473D01*
X216883707Y-98091818D01*
X216828332Y-98127451D01*
X216791183Y-98181821D01*
X216778113Y-98246360D01*
X216778113Y-98601960D01*
X216789458Y-98662253D01*
X216825091Y-98717628D01*
X216871934Y-98749634D01*
X216828332Y-98777691D01*
X216791183Y-98832061D01*
X216790122Y-98837300D01*
X216433078Y-98837300D01*
X216342845Y-98747067D01*
X216345376Y-98745376D01*
X216543225Y-98449275D01*
X216612700Y-98100000D01*
X216612700Y-93478052D01*
X217678053Y-92412700D01*
X219500000Y-92412700D01*
X219849275Y-92343225D01*
X219852774Y-92340887D01*
X220175000Y-92340887D01*
X220235293Y-92329542D01*
X220290668Y-92293909D01*
X220327817Y-92239539D01*
X220340887Y-92175000D01*
X220340887Y-91852774D01*
X220343225Y-91849275D01*
X220412700Y-91500000D01*
X220343225Y-91150725D01*
X220340887Y-91147226D01*
X220340887Y-90825000D01*
X220329542Y-90764707D01*
X220293909Y-90709332D01*
X220239539Y-90672183D01*
X220175000Y-90659113D01*
X219852774Y-90659113D01*
X219849275Y-90656775D01*
X219500000Y-90587300D01*
X217300000Y-90587300D01*
X216950725Y-90656775D01*
X216654624Y-90854623D01*
X215054624Y-92454624D01*
X214856775Y-92750725D01*
X214787300Y-93100000D01*
X214787300Y-98100000D01*
X214856775Y-98449275D01*
X215054624Y-98745376D01*
X215137300Y-98800619D01*
X215137300Y-98900000D01*
X215180133Y-99115336D01*
X215302111Y-99297889D01*
X215802111Y-99797889D01*
X215984664Y-99919867D01*
X216200000Y-99962700D01*
X216477482Y-99962700D01*
X216423300Y-100093508D01*
X216423300Y-100155806D01*
X216553475Y-100285981D01*
X217439300Y-100285981D01*
X217439300Y-100197081D01*
X217921900Y-100197081D01*
X217921900Y-100285981D01*
X217941900Y-100285981D01*
X217941900Y-100463781D01*
X217921900Y-100463781D01*
X217921900Y-100552681D01*
X217439300Y-100552681D01*
X217439300Y-100463781D01*
X216553475Y-100463781D01*
X216423300Y-100593956D01*
X216423300Y-100656254D01*
X216450706Y-100722419D01*
X215650501Y-100722419D01*
X214962670Y-100034588D01*
X214962780Y-99908367D01*
X214892487Y-99738244D01*
X214762441Y-99607971D01*
X214592441Y-99537380D01*
X214408367Y-99537220D01*
X214238244Y-99607513D01*
X214107971Y-99737559D01*
X214037380Y-99907559D01*
X214037220Y-100091633D01*
X214107513Y-100261756D01*
X214237559Y-100392029D01*
X214407559Y-100462620D01*
X214534648Y-100462730D01*
X215311078Y-101239160D01*
X215409281Y-101304777D01*
X215525119Y-101327819D01*
X216838603Y-101327819D01*
X216871934Y-101350593D01*
X216837642Y-101372659D01*
X214050742Y-101372659D01*
X210012700Y-97334617D01*
X210012700Y-95910457D01*
X210237115Y-95910457D01*
X210398561Y-96301185D01*
X210697243Y-96600388D01*
X211087688Y-96762516D01*
X211510457Y-96762885D01*
X211901185Y-96601439D01*
X212200388Y-96302757D01*
X212362516Y-95912312D01*
X212362885Y-95489543D01*
X212201439Y-95098815D01*
X211902757Y-94799612D01*
X211512312Y-94637484D01*
X211089543Y-94637115D01*
X210698815Y-94798561D01*
X210399612Y-95097243D01*
X210237484Y-95487688D01*
X210237115Y-95910457D01*
X210012700Y-95910457D01*
X210012700Y-83210457D01*
X210437115Y-83210457D01*
X210598561Y-83601185D01*
X210897243Y-83900388D01*
X211287688Y-84062516D01*
X211710457Y-84062885D01*
X212101185Y-83901439D01*
X212400388Y-83602757D01*
X212562516Y-83212312D01*
X212562885Y-82789543D01*
X212401439Y-82398815D01*
X212102757Y-82099612D01*
X211712312Y-81937484D01*
X211289543Y-81937115D01*
X210898815Y-82098561D01*
X210599612Y-82397243D01*
X210437484Y-82787688D01*
X210437115Y-83210457D01*
X210012700Y-83210457D01*
X210012700Y-82215382D01*
X214250982Y-77977100D01*
X216838603Y-77977100D01*
X216871935Y-77999874D01*
X216837642Y-78021941D01*
X215675359Y-78021941D01*
X215559521Y-78044983D01*
X215461318Y-78110600D01*
X215034588Y-78537330D01*
X214908367Y-78537220D01*
X214738244Y-78607513D01*
X214607971Y-78737559D01*
X214537380Y-78907559D01*
X214537220Y-79091633D01*
X214607513Y-79261756D01*
X214737559Y-79392029D01*
X214907559Y-79462620D01*
X215091633Y-79462780D01*
X215261756Y-79392487D01*
X215392029Y-79262441D01*
X215462620Y-79092441D01*
X215462730Y-78965352D01*
X215500000Y-78928082D01*
X215785959Y-79214041D01*
X215884162Y-79279658D01*
X216000000Y-79302700D01*
X216440302Y-79302700D01*
X216423300Y-79343746D01*
X216423300Y-79406044D01*
X216553475Y-79536219D01*
X217439300Y-79536219D01*
X217439300Y-79447319D01*
X217921900Y-79447319D01*
X217921900Y-79536219D01*
X217941900Y-79536219D01*
X217941900Y-79714019D01*
X217921900Y-79714019D01*
X217921900Y-79802919D01*
X217439300Y-79802919D01*
X217439300Y-79714019D01*
X216553475Y-79714019D01*
X216423300Y-79844194D01*
X216423300Y-79906492D01*
X216477482Y-80037300D01*
X216200000Y-80037300D01*
X215984664Y-80080133D01*
X215802111Y-80202111D01*
X215302111Y-80702111D01*
X215180133Y-80884664D01*
X215137442Y-81099287D01*
X215054624Y-81154624D01*
X214856775Y-81450725D01*
X214787300Y-81800000D01*
X214787300Y-86500000D01*
X214855255Y-86841633D01*
X214856775Y-86849275D01*
X215054624Y-87145376D01*
X217054624Y-89145376D01*
X217350725Y-89343225D01*
X217700000Y-89412700D01*
X219500000Y-89412700D01*
X219849275Y-89343225D01*
X220145376Y-89145376D01*
X220343225Y-88849275D01*
X220412700Y-88500000D01*
X220343225Y-88150725D01*
X220145376Y-87854624D01*
X219849275Y-87656775D01*
X219500000Y-87587300D01*
X218078052Y-87587300D01*
X216612700Y-86121948D01*
X216612700Y-81800000D01*
X216543225Y-81450725D01*
X216383739Y-81212039D01*
X216433078Y-81162700D01*
X216789271Y-81162700D01*
X216789458Y-81163693D01*
X216825091Y-81219068D01*
X216871934Y-81251074D01*
X216828332Y-81279131D01*
X216791183Y-81333501D01*
X216778113Y-81398040D01*
X216778113Y-81753640D01*
X216789458Y-81813933D01*
X216825091Y-81869308D01*
X216879461Y-81906457D01*
X216944000Y-81919527D01*
X217217900Y-81919527D01*
X217217900Y-85180600D01*
X217253121Y-85357668D01*
X217276930Y-85393300D01*
X217353422Y-85507778D01*
X218122822Y-86277178D01*
X218272932Y-86377479D01*
X218450000Y-86412700D01*
X219486503Y-86412700D01*
X219495458Y-86460293D01*
X219531091Y-86515668D01*
X219585461Y-86552817D01*
X219650000Y-86565887D01*
X221137805Y-86565887D01*
X221287330Y-86715412D01*
X221287220Y-86841633D01*
X221357513Y-87011756D01*
X221487559Y-87142029D01*
X221657559Y-87212620D01*
X221841633Y-87212780D01*
X222011756Y-87142487D01*
X222142029Y-87012441D01*
X222212620Y-86842441D01*
X222212780Y-86658367D01*
X222142487Y-86488244D01*
X222067075Y-86412700D01*
X222300000Y-86412700D01*
X222477068Y-86377479D01*
X222627178Y-86277178D01*
X223646578Y-85257779D01*
X223746879Y-85107668D01*
X223765743Y-85012832D01*
X223782100Y-84930600D01*
X223782100Y-81919527D01*
X224056000Y-81919527D01*
X224116293Y-81908182D01*
X224171668Y-81872549D01*
X224208817Y-81818179D01*
X224221887Y-81753640D01*
X224221887Y-81398040D01*
X224210542Y-81337747D01*
X224174909Y-81282372D01*
X224128066Y-81250366D01*
X224171668Y-81222309D01*
X224208817Y-81167939D01*
X224209878Y-81162700D01*
X224566922Y-81162700D01*
X224737300Y-81333078D01*
X224737300Y-81399381D01*
X224654624Y-81454624D01*
X224456775Y-81750725D01*
X224387300Y-82100000D01*
X224387300Y-86721948D01*
X223521948Y-87587300D01*
X221500000Y-87587300D01*
X221150725Y-87656775D01*
X221147226Y-87659113D01*
X220825000Y-87659113D01*
X220764707Y-87670458D01*
X220709332Y-87706091D01*
X220672183Y-87760461D01*
X220659113Y-87825000D01*
X220659113Y-88147226D01*
X220656775Y-88150725D01*
X220587300Y-88500000D01*
X220656775Y-88849275D01*
X220659113Y-88852774D01*
X220659113Y-89175000D01*
X220670458Y-89235293D01*
X220706091Y-89290668D01*
X220760461Y-89327817D01*
X220825000Y-89340887D01*
X221147226Y-89340887D01*
X221150725Y-89343225D01*
X221500000Y-89412700D01*
X223900000Y-89412700D01*
X224249275Y-89343225D01*
X224545376Y-89145376D01*
X224905752Y-88785000D01*
X225529113Y-88785000D01*
X225529113Y-91215000D01*
X225540458Y-91275293D01*
X225576091Y-91330668D01*
X225630461Y-91367817D01*
X225695000Y-91380887D01*
X228065000Y-91380887D01*
X228125293Y-91369542D01*
X228180668Y-91333909D01*
X228217817Y-91279539D01*
X228230887Y-91215000D01*
X228230887Y-91062700D01*
X229498500Y-91062700D01*
X229710457Y-91062885D01*
X230101185Y-90901439D01*
X230400388Y-90602757D01*
X230496425Y-90371475D01*
X231414300Y-90371475D01*
X231414300Y-91318573D01*
X231493572Y-91509953D01*
X231640047Y-91656428D01*
X231831426Y-91735700D01*
X232748525Y-91735700D01*
X232878700Y-91605525D01*
X232878700Y-90241300D01*
X233361300Y-90241300D01*
X233361300Y-91605525D01*
X233491475Y-91735700D01*
X234408574Y-91735700D01*
X234599953Y-91656428D01*
X234746428Y-91509953D01*
X234825700Y-91318573D01*
X234825700Y-90371475D01*
X234695525Y-90241300D01*
X233361300Y-90241300D01*
X232878700Y-90241300D01*
X231544475Y-90241300D01*
X231414300Y-90371475D01*
X230496425Y-90371475D01*
X230562516Y-90212312D01*
X230562885Y-89789543D01*
X230401439Y-89398815D01*
X230102757Y-89099612D01*
X229712312Y-88937484D01*
X229289543Y-88937115D01*
X229289095Y-88937300D01*
X228230887Y-88937300D01*
X228230887Y-88785000D01*
X228219542Y-88724707D01*
X228191692Y-88681427D01*
X231414300Y-88681427D01*
X231414300Y-89628525D01*
X231544475Y-89758700D01*
X232878700Y-89758700D01*
X232878700Y-88394475D01*
X233361300Y-88394475D01*
X233361300Y-89758700D01*
X234695525Y-89758700D01*
X234825700Y-89628525D01*
X234825700Y-88681427D01*
X234746428Y-88490047D01*
X234599953Y-88343572D01*
X234408574Y-88264300D01*
X233491475Y-88264300D01*
X233361300Y-88394475D01*
X232878700Y-88394475D01*
X232748525Y-88264300D01*
X231831426Y-88264300D01*
X231640047Y-88343572D01*
X231493572Y-88490047D01*
X231414300Y-88681427D01*
X228191692Y-88681427D01*
X228183909Y-88669332D01*
X228129539Y-88632183D01*
X228065000Y-88619113D01*
X225695000Y-88619113D01*
X225634707Y-88630458D01*
X225579332Y-88666091D01*
X225542183Y-88720461D01*
X225529113Y-88785000D01*
X224905752Y-88785000D01*
X225945376Y-87745376D01*
X226143225Y-87449275D01*
X226212700Y-87100000D01*
X226212700Y-82100000D01*
X226143225Y-81750725D01*
X225945376Y-81454624D01*
X225862700Y-81399381D01*
X225862700Y-81100000D01*
X225819867Y-80884664D01*
X225783459Y-80830175D01*
X226354300Y-80830175D01*
X226354300Y-81003574D01*
X226433572Y-81194953D01*
X226580047Y-81341428D01*
X226771427Y-81420700D01*
X226932325Y-81420700D01*
X227062500Y-81290525D01*
X227062500Y-80700000D01*
X227437500Y-80700000D01*
X227437500Y-81290525D01*
X227567675Y-81420700D01*
X227728573Y-81420700D01*
X227919953Y-81341428D01*
X228066428Y-81194953D01*
X228145700Y-81003574D01*
X228145700Y-80830175D01*
X228015525Y-80700000D01*
X227437500Y-80700000D01*
X227062500Y-80700000D01*
X226484475Y-80700000D01*
X226354300Y-80830175D01*
X225783459Y-80830175D01*
X225697889Y-80702111D01*
X225197889Y-80202111D01*
X225015336Y-80080133D01*
X224800000Y-80037300D01*
X224522518Y-80037300D01*
X224539448Y-79996426D01*
X226354300Y-79996426D01*
X226354300Y-80169825D01*
X226484475Y-80300000D01*
X227062500Y-80300000D01*
X227062500Y-79709475D01*
X227437500Y-79709475D01*
X227437500Y-80300000D01*
X228015525Y-80300000D01*
X228145700Y-80169825D01*
X228145700Y-79996426D01*
X228066428Y-79805047D01*
X227919953Y-79658572D01*
X227728573Y-79579300D01*
X227567675Y-79579300D01*
X227437500Y-79709475D01*
X227062500Y-79709475D01*
X226932325Y-79579300D01*
X226771427Y-79579300D01*
X226580047Y-79658572D01*
X226433572Y-79805047D01*
X226354300Y-79996426D01*
X224539448Y-79996426D01*
X224576700Y-79906492D01*
X224576700Y-79844194D01*
X224446525Y-79714019D01*
X223560700Y-79714019D01*
X223560700Y-79802919D01*
X223078100Y-79802919D01*
X223078100Y-79714019D01*
X223058100Y-79714019D01*
X223058100Y-79536219D01*
X223078100Y-79536219D01*
X223078100Y-79447319D01*
X223560700Y-79447319D01*
X223560700Y-79536219D01*
X224446525Y-79536219D01*
X224576700Y-79406044D01*
X224576700Y-79343746D01*
X224549294Y-79277581D01*
X225287276Y-79277581D01*
X225287220Y-79341633D01*
X225357513Y-79511756D01*
X225487559Y-79642029D01*
X225657559Y-79712620D01*
X225841633Y-79712780D01*
X226011756Y-79642487D01*
X226142029Y-79512441D01*
X226212620Y-79342441D01*
X226212780Y-79158367D01*
X226142487Y-78988244D01*
X226012441Y-78857971D01*
X225842441Y-78787380D01*
X225715352Y-78787270D01*
X225688922Y-78760840D01*
X225590719Y-78695223D01*
X225474881Y-78672181D01*
X224161397Y-78672181D01*
X224128066Y-78649407D01*
X224162358Y-78627341D01*
X224875359Y-78627341D01*
X224991197Y-78604299D01*
X225089400Y-78538682D01*
X225536449Y-78091633D01*
X226287220Y-78091633D01*
X226357513Y-78261756D01*
X226487559Y-78392029D01*
X226657559Y-78462620D01*
X226699721Y-78462657D01*
X226742618Y-78505553D01*
X226722183Y-78535461D01*
X226709113Y-78600000D01*
X226709113Y-79400000D01*
X226720458Y-79460293D01*
X226756091Y-79515668D01*
X226810461Y-79552817D01*
X226875000Y-79565887D01*
X227625000Y-79565887D01*
X227685293Y-79554542D01*
X227740668Y-79518909D01*
X227777817Y-79464539D01*
X227790887Y-79400000D01*
X227790887Y-78600000D01*
X227779542Y-78539707D01*
X227743909Y-78484332D01*
X227689539Y-78447183D01*
X227625000Y-78434113D01*
X227599595Y-78434113D01*
X227585091Y-78361201D01*
X227573285Y-78343532D01*
X227506468Y-78243532D01*
X227506465Y-78243530D01*
X227212744Y-77949808D01*
X227212780Y-77908367D01*
X227142487Y-77738244D01*
X227012441Y-77607971D01*
X226842441Y-77537380D01*
X226658367Y-77537220D01*
X226488244Y-77607513D01*
X226357971Y-77737559D01*
X226287380Y-77907559D01*
X226287220Y-78091633D01*
X225536449Y-78091633D01*
X225714041Y-77914041D01*
X225779658Y-77815838D01*
X225802700Y-77700000D01*
X225802700Y-75700000D01*
X225779658Y-75584162D01*
X225714041Y-75485959D01*
X224314041Y-74085959D01*
X224215838Y-74020342D01*
X224100000Y-73997300D01*
X220100000Y-73997300D01*
X219984162Y-74020342D01*
X219885959Y-74085959D01*
X218874618Y-75097300D01*
X214500000Y-75097300D01*
X214384162Y-75120342D01*
X214285959Y-75185959D01*
X210012700Y-79459218D01*
X210012700Y-75910457D01*
X210437115Y-75910457D01*
X210598561Y-76301185D01*
X210897243Y-76600388D01*
X211287688Y-76762516D01*
X211710457Y-76762885D01*
X212101185Y-76601439D01*
X212400388Y-76302757D01*
X212562516Y-75912312D01*
X212562885Y-75489543D01*
X212401439Y-75098815D01*
X212102757Y-74799612D01*
X211712312Y-74637484D01*
X211289543Y-74637115D01*
X210898815Y-74798561D01*
X210599612Y-75097243D01*
X210437484Y-75487688D01*
X210437115Y-75910457D01*
X210012700Y-75910457D01*
X210012700Y-74012700D01*
X218000000Y-74012700D01*
X218004941Y-74011699D01*
X218009103Y-74008855D01*
X218011831Y-74004616D01*
X218012700Y-74000000D01*
X218012700Y-70512700D01*
X232992630Y-70512700D01*
X234987300Y-74003373D01*
X234987300Y-74003373D01*
G37*
X234987300Y-74003373D02*
X234987300Y-106387300D01*
X210012700Y-106387300D01*
X210012700Y-105110457D01*
X210237115Y-105110457D01*
X210398561Y-105501185D01*
X210697243Y-105800388D01*
X211087688Y-105962516D01*
X211510457Y-105962885D01*
X211901185Y-105801439D01*
X212200388Y-105502757D01*
X212362516Y-105112312D01*
X212362885Y-104689543D01*
X212201439Y-104298815D01*
X211902757Y-103999612D01*
X211512312Y-103837484D01*
X211089543Y-103837115D01*
X210698815Y-103998561D01*
X210399612Y-104297243D01*
X210237484Y-104687688D01*
X210237115Y-105110457D01*
X210012700Y-105110457D01*
X210012700Y-101740782D01*
X212885959Y-104614041D01*
X212984162Y-104679658D01*
X213100000Y-104702700D01*
X224400000Y-104702700D01*
X224515838Y-104679658D01*
X224614041Y-104614041D01*
X225114041Y-104114041D01*
X225179658Y-104015838D01*
X225202700Y-103900000D01*
X225202700Y-102700000D01*
X225179658Y-102584162D01*
X225165981Y-102563693D01*
X225114042Y-102485959D01*
X224739641Y-102111559D01*
X224641438Y-102045942D01*
X224525600Y-102022900D01*
X224161397Y-102022900D01*
X224128065Y-102000126D01*
X224162358Y-101978059D01*
X224824641Y-101978059D01*
X224905842Y-101961907D01*
X224907559Y-101962620D01*
X225034648Y-101962730D01*
X225035959Y-101964041D01*
X225134161Y-102029658D01*
X225146599Y-102032132D01*
X225250000Y-102052700D01*
X225959113Y-102052700D01*
X225959113Y-102150000D01*
X225970458Y-102210293D01*
X226006091Y-102265668D01*
X226060461Y-102302817D01*
X226125000Y-102315887D01*
X226875000Y-102315887D01*
X226935293Y-102304542D01*
X226990668Y-102268909D01*
X227027817Y-102214539D01*
X227040887Y-102150000D01*
X227040887Y-101350000D01*
X227029542Y-101289707D01*
X226993909Y-101234332D01*
X226939539Y-101197183D01*
X226875000Y-101184113D01*
X226125000Y-101184113D01*
X226114223Y-101186141D01*
X226098782Y-101170700D01*
X226182325Y-101170700D01*
X226312500Y-101040525D01*
X226312500Y-100450000D01*
X226687500Y-100450000D01*
X226687500Y-101040525D01*
X226817675Y-101170700D01*
X226978573Y-101170700D01*
X227169953Y-101091428D01*
X227316428Y-100944953D01*
X227395700Y-100753574D01*
X227395700Y-100580175D01*
X227265525Y-100450000D01*
X226687500Y-100450000D01*
X226312500Y-100450000D01*
X225734475Y-100450000D01*
X225631059Y-100553416D01*
X225592441Y-100537380D01*
X225408367Y-100537220D01*
X225238244Y-100607513D01*
X225123137Y-100722419D01*
X224549294Y-100722419D01*
X224576700Y-100656254D01*
X224576700Y-100593956D01*
X224446525Y-100463781D01*
X223560700Y-100463781D01*
X223560700Y-100552681D01*
X223078100Y-100552681D01*
X223078100Y-100463781D01*
X223058100Y-100463781D01*
X223058100Y-100285981D01*
X223078100Y-100285981D01*
X223078100Y-100197081D01*
X223560700Y-100197081D01*
X223560700Y-100285981D01*
X224446525Y-100285981D01*
X224576700Y-100155806D01*
X224576700Y-100093508D01*
X224522518Y-99962700D01*
X224800000Y-99962700D01*
X225015336Y-99919867D01*
X225197889Y-99797889D01*
X225249352Y-99746426D01*
X225604300Y-99746426D01*
X225604300Y-99919825D01*
X225734475Y-100050000D01*
X226312500Y-100050000D01*
X226312500Y-99459475D01*
X226687500Y-99459475D01*
X226687500Y-100050000D01*
X227265525Y-100050000D01*
X227395700Y-99919825D01*
X227395700Y-99746426D01*
X227316428Y-99555047D01*
X227169953Y-99408572D01*
X226978573Y-99329300D01*
X226817675Y-99329300D01*
X226687500Y-99459475D01*
X226312500Y-99459475D01*
X226182325Y-99329300D01*
X226021427Y-99329300D01*
X225830047Y-99408572D01*
X225683572Y-99555047D01*
X225604300Y-99746426D01*
X225249352Y-99746426D01*
X225697889Y-99297889D01*
X225819867Y-99115336D01*
X225862700Y-98900000D01*
X225862700Y-98800619D01*
X225945376Y-98745376D01*
X226143225Y-98449275D01*
X226212700Y-98100000D01*
X226212700Y-92600000D01*
X226143225Y-92250725D01*
X225945376Y-91954624D01*
X224845376Y-90854624D01*
X224549275Y-90656775D01*
X224200000Y-90587300D01*
X221500000Y-90587300D01*
X221150725Y-90656775D01*
X220854624Y-90854624D01*
X220656775Y-91150725D01*
X220587300Y-91500000D01*
X220656775Y-91849275D01*
X220854624Y-92145376D01*
X221150725Y-92343225D01*
X221500000Y-92412700D01*
X223821948Y-92412700D01*
X224387300Y-92978052D01*
X224387300Y-98100000D01*
X224456775Y-98449275D01*
X224654624Y-98745376D01*
X224657155Y-98747067D01*
X224566922Y-98837300D01*
X224210729Y-98837300D01*
X224210542Y-98836307D01*
X224174909Y-98780932D01*
X224128066Y-98748926D01*
X224171668Y-98720869D01*
X224208817Y-98666499D01*
X224221887Y-98601960D01*
X224221887Y-98246360D01*
X224210542Y-98186067D01*
X224174909Y-98130692D01*
X224120539Y-98093543D01*
X224056000Y-98080473D01*
X223782100Y-98080473D01*
X223782100Y-94569400D01*
X223770822Y-94512700D01*
X223746880Y-94392333D01*
X223646579Y-94242222D01*
X223127178Y-93722822D01*
X223111910Y-93712620D01*
X222977068Y-93622521D01*
X222800000Y-93587300D01*
X221513497Y-93587300D01*
X221504542Y-93539707D01*
X221468909Y-93484332D01*
X221414539Y-93447183D01*
X221350000Y-93434113D01*
X219862195Y-93434113D01*
X219712670Y-93284588D01*
X219712780Y-93158367D01*
X219642487Y-92988244D01*
X219512441Y-92857971D01*
X219342441Y-92787380D01*
X219158367Y-92787220D01*
X218988244Y-92857513D01*
X218857971Y-92987559D01*
X218787380Y-93157559D01*
X218787220Y-93341633D01*
X218857513Y-93511756D01*
X218932925Y-93587300D01*
X218200000Y-93587300D01*
X218022933Y-93622520D01*
X217872822Y-93722821D01*
X217353422Y-94242222D01*
X217253121Y-94392332D01*
X217217900Y-94569400D01*
X217217900Y-98080473D01*
X216944000Y-98080473D01*
X216883707Y-98091818D01*
X216828332Y-98127451D01*
X216791183Y-98181821D01*
X216778113Y-98246360D01*
X216778113Y-98601960D01*
X216789458Y-98662253D01*
X216825091Y-98717628D01*
X216871934Y-98749634D01*
X216828332Y-98777691D01*
X216791183Y-98832061D01*
X216790122Y-98837300D01*
X216433078Y-98837300D01*
X216342845Y-98747067D01*
X216345376Y-98745376D01*
X216543225Y-98449275D01*
X216612700Y-98100000D01*
X216612700Y-93478052D01*
X217678053Y-92412700D01*
X219500000Y-92412700D01*
X219849275Y-92343225D01*
X219852774Y-92340887D01*
X220175000Y-92340887D01*
X220235293Y-92329542D01*
X220290668Y-92293909D01*
X220327817Y-92239539D01*
X220340887Y-92175000D01*
X220340887Y-91852774D01*
X220343225Y-91849275D01*
X220412700Y-91500000D01*
X220343225Y-91150725D01*
X220340887Y-91147226D01*
X220340887Y-90825000D01*
X220329542Y-90764707D01*
X220293909Y-90709332D01*
X220239539Y-90672183D01*
X220175000Y-90659113D01*
X219852774Y-90659113D01*
X219849275Y-90656775D01*
X219500000Y-90587300D01*
X217300000Y-90587300D01*
X216950725Y-90656775D01*
X216654624Y-90854623D01*
X215054624Y-92454624D01*
X214856775Y-92750725D01*
X214787300Y-93100000D01*
X214787300Y-98100000D01*
X214856775Y-98449275D01*
X215054624Y-98745376D01*
X215137300Y-98800619D01*
X215137300Y-98900000D01*
X215180133Y-99115336D01*
X215302111Y-99297889D01*
X215802111Y-99797889D01*
X215984664Y-99919867D01*
X216200000Y-99962700D01*
X216477482Y-99962700D01*
X216423300Y-100093508D01*
X216423300Y-100155806D01*
X216553475Y-100285981D01*
X217439300Y-100285981D01*
X217439300Y-100197081D01*
X217921900Y-100197081D01*
X217921900Y-100285981D01*
X217941900Y-100285981D01*
X217941900Y-100463781D01*
X217921900Y-100463781D01*
X217921900Y-100552681D01*
X217439300Y-100552681D01*
X217439300Y-100463781D01*
X216553475Y-100463781D01*
X216423300Y-100593956D01*
X216423300Y-100656254D01*
X216450706Y-100722419D01*
X215650501Y-100722419D01*
X214962670Y-100034588D01*
X214962780Y-99908367D01*
X214892487Y-99738244D01*
X214762441Y-99607971D01*
X214592441Y-99537380D01*
X214408367Y-99537220D01*
X214238244Y-99607513D01*
X214107971Y-99737559D01*
X214037380Y-99907559D01*
X214037220Y-100091633D01*
X214107513Y-100261756D01*
X214237559Y-100392029D01*
X214407559Y-100462620D01*
X214534648Y-100462730D01*
X215311078Y-101239160D01*
X215409281Y-101304777D01*
X215525119Y-101327819D01*
X216838603Y-101327819D01*
X216871934Y-101350593D01*
X216837642Y-101372659D01*
X214050742Y-101372659D01*
X210012700Y-97334617D01*
X210012700Y-95910457D01*
X210237115Y-95910457D01*
X210398561Y-96301185D01*
X210697243Y-96600388D01*
X211087688Y-96762516D01*
X211510457Y-96762885D01*
X211901185Y-96601439D01*
X212200388Y-96302757D01*
X212362516Y-95912312D01*
X212362885Y-95489543D01*
X212201439Y-95098815D01*
X211902757Y-94799612D01*
X211512312Y-94637484D01*
X211089543Y-94637115D01*
X210698815Y-94798561D01*
X210399612Y-95097243D01*
X210237484Y-95487688D01*
X210237115Y-95910457D01*
X210012700Y-95910457D01*
X210012700Y-83210457D01*
X210437115Y-83210457D01*
X210598561Y-83601185D01*
X210897243Y-83900388D01*
X211287688Y-84062516D01*
X211710457Y-84062885D01*
X212101185Y-83901439D01*
X212400388Y-83602757D01*
X212562516Y-83212312D01*
X212562885Y-82789543D01*
X212401439Y-82398815D01*
X212102757Y-82099612D01*
X211712312Y-81937484D01*
X211289543Y-81937115D01*
X210898815Y-82098561D01*
X210599612Y-82397243D01*
X210437484Y-82787688D01*
X210437115Y-83210457D01*
X210012700Y-83210457D01*
X210012700Y-82215382D01*
X214250982Y-77977100D01*
X216838603Y-77977100D01*
X216871935Y-77999874D01*
X216837642Y-78021941D01*
X215675359Y-78021941D01*
X215559521Y-78044983D01*
X215461318Y-78110600D01*
X215034588Y-78537330D01*
X214908367Y-78537220D01*
X214738244Y-78607513D01*
X214607971Y-78737559D01*
X214537380Y-78907559D01*
X214537220Y-79091633D01*
X214607513Y-79261756D01*
X214737559Y-79392029D01*
X214907559Y-79462620D01*
X215091633Y-79462780D01*
X215261756Y-79392487D01*
X215392029Y-79262441D01*
X215462620Y-79092441D01*
X215462730Y-78965352D01*
X215500000Y-78928082D01*
X215785959Y-79214041D01*
X215884162Y-79279658D01*
X216000000Y-79302700D01*
X216440302Y-79302700D01*
X216423300Y-79343746D01*
X216423300Y-79406044D01*
X216553475Y-79536219D01*
X217439300Y-79536219D01*
X217439300Y-79447319D01*
X217921900Y-79447319D01*
X217921900Y-79536219D01*
X217941900Y-79536219D01*
X217941900Y-79714019D01*
X217921900Y-79714019D01*
X217921900Y-79802919D01*
X217439300Y-79802919D01*
X217439300Y-79714019D01*
X216553475Y-79714019D01*
X216423300Y-79844194D01*
X216423300Y-79906492D01*
X216477482Y-80037300D01*
X216200000Y-80037300D01*
X215984664Y-80080133D01*
X215802111Y-80202111D01*
X215302111Y-80702111D01*
X215180133Y-80884664D01*
X215137442Y-81099287D01*
X215054624Y-81154624D01*
X214856775Y-81450725D01*
X214787300Y-81800000D01*
X214787300Y-86500000D01*
X214855255Y-86841633D01*
X214856775Y-86849275D01*
X215054624Y-87145376D01*
X217054624Y-89145376D01*
X217350725Y-89343225D01*
X217700000Y-89412700D01*
X219500000Y-89412700D01*
X219849275Y-89343225D01*
X220145376Y-89145376D01*
X220343225Y-88849275D01*
X220412700Y-88500000D01*
X220343225Y-88150725D01*
X220145376Y-87854624D01*
X219849275Y-87656775D01*
X219500000Y-87587300D01*
X218078052Y-87587300D01*
X216612700Y-86121948D01*
X216612700Y-81800000D01*
X216543225Y-81450725D01*
X216383739Y-81212039D01*
X216433078Y-81162700D01*
X216789271Y-81162700D01*
X216789458Y-81163693D01*
X216825091Y-81219068D01*
X216871934Y-81251074D01*
X216828332Y-81279131D01*
X216791183Y-81333501D01*
X216778113Y-81398040D01*
X216778113Y-81753640D01*
X216789458Y-81813933D01*
X216825091Y-81869308D01*
X216879461Y-81906457D01*
X216944000Y-81919527D01*
X217217900Y-81919527D01*
X217217900Y-85180600D01*
X217253121Y-85357668D01*
X217276930Y-85393300D01*
X217353422Y-85507778D01*
X218122822Y-86277178D01*
X218272932Y-86377479D01*
X218450000Y-86412700D01*
X219486503Y-86412700D01*
X219495458Y-86460293D01*
X219531091Y-86515668D01*
X219585461Y-86552817D01*
X219650000Y-86565887D01*
X221137805Y-86565887D01*
X221287330Y-86715412D01*
X221287220Y-86841633D01*
X221357513Y-87011756D01*
X221487559Y-87142029D01*
X221657559Y-87212620D01*
X221841633Y-87212780D01*
X222011756Y-87142487D01*
X222142029Y-87012441D01*
X222212620Y-86842441D01*
X222212780Y-86658367D01*
X222142487Y-86488244D01*
X222067075Y-86412700D01*
X222300000Y-86412700D01*
X222477068Y-86377479D01*
X222627178Y-86277178D01*
X223646578Y-85257779D01*
X223746879Y-85107668D01*
X223765743Y-85012832D01*
X223782100Y-84930600D01*
X223782100Y-81919527D01*
X224056000Y-81919527D01*
X224116293Y-81908182D01*
X224171668Y-81872549D01*
X224208817Y-81818179D01*
X224221887Y-81753640D01*
X224221887Y-81398040D01*
X224210542Y-81337747D01*
X224174909Y-81282372D01*
X224128066Y-81250366D01*
X224171668Y-81222309D01*
X224208817Y-81167939D01*
X224209878Y-81162700D01*
X224566922Y-81162700D01*
X224737300Y-81333078D01*
X224737300Y-81399381D01*
X224654624Y-81454624D01*
X224456775Y-81750725D01*
X224387300Y-82100000D01*
X224387300Y-86721948D01*
X223521948Y-87587300D01*
X221500000Y-87587300D01*
X221150725Y-87656775D01*
X221147226Y-87659113D01*
X220825000Y-87659113D01*
X220764707Y-87670458D01*
X220709332Y-87706091D01*
X220672183Y-87760461D01*
X220659113Y-87825000D01*
X220659113Y-88147226D01*
X220656775Y-88150725D01*
X220587300Y-88500000D01*
X220656775Y-88849275D01*
X220659113Y-88852774D01*
X220659113Y-89175000D01*
X220670458Y-89235293D01*
X220706091Y-89290668D01*
X220760461Y-89327817D01*
X220825000Y-89340887D01*
X221147226Y-89340887D01*
X221150725Y-89343225D01*
X221500000Y-89412700D01*
X223900000Y-89412700D01*
X224249275Y-89343225D01*
X224545376Y-89145376D01*
X224905752Y-88785000D01*
X225529113Y-88785000D01*
X225529113Y-91215000D01*
X225540458Y-91275293D01*
X225576091Y-91330668D01*
X225630461Y-91367817D01*
X225695000Y-91380887D01*
X228065000Y-91380887D01*
X228125293Y-91369542D01*
X228180668Y-91333909D01*
X228217817Y-91279539D01*
X228230887Y-91215000D01*
X228230887Y-91062700D01*
X229498500Y-91062700D01*
X229710457Y-91062885D01*
X230101185Y-90901439D01*
X230400388Y-90602757D01*
X230496425Y-90371475D01*
X231414300Y-90371475D01*
X231414300Y-91318573D01*
X231493572Y-91509953D01*
X231640047Y-91656428D01*
X231831426Y-91735700D01*
X232748525Y-91735700D01*
X232878700Y-91605525D01*
X232878700Y-90241300D01*
X233361300Y-90241300D01*
X233361300Y-91605525D01*
X233491475Y-91735700D01*
X234408574Y-91735700D01*
X234599953Y-91656428D01*
X234746428Y-91509953D01*
X234825700Y-91318573D01*
X234825700Y-90371475D01*
X234695525Y-90241300D01*
X233361300Y-90241300D01*
X232878700Y-90241300D01*
X231544475Y-90241300D01*
X231414300Y-90371475D01*
X230496425Y-90371475D01*
X230562516Y-90212312D01*
X230562885Y-89789543D01*
X230401439Y-89398815D01*
X230102757Y-89099612D01*
X229712312Y-88937484D01*
X229289543Y-88937115D01*
X229289095Y-88937300D01*
X228230887Y-88937300D01*
X228230887Y-88785000D01*
X228219542Y-88724707D01*
X228191692Y-88681427D01*
X231414300Y-88681427D01*
X231414300Y-89628525D01*
X231544475Y-89758700D01*
X232878700Y-89758700D01*
X232878700Y-88394475D01*
X233361300Y-88394475D01*
X233361300Y-89758700D01*
X234695525Y-89758700D01*
X234825700Y-89628525D01*
X234825700Y-88681427D01*
X234746428Y-88490047D01*
X234599953Y-88343572D01*
X234408574Y-88264300D01*
X233491475Y-88264300D01*
X233361300Y-88394475D01*
X232878700Y-88394475D01*
X232748525Y-88264300D01*
X231831426Y-88264300D01*
X231640047Y-88343572D01*
X231493572Y-88490047D01*
X231414300Y-88681427D01*
X228191692Y-88681427D01*
X228183909Y-88669332D01*
X228129539Y-88632183D01*
X228065000Y-88619113D01*
X225695000Y-88619113D01*
X225634707Y-88630458D01*
X225579332Y-88666091D01*
X225542183Y-88720461D01*
X225529113Y-88785000D01*
X224905752Y-88785000D01*
X225945376Y-87745376D01*
X226143225Y-87449275D01*
X226212700Y-87100000D01*
X226212700Y-82100000D01*
X226143225Y-81750725D01*
X225945376Y-81454624D01*
X225862700Y-81399381D01*
X225862700Y-81100000D01*
X225819867Y-80884664D01*
X225783459Y-80830175D01*
X226354300Y-80830175D01*
X226354300Y-81003574D01*
X226433572Y-81194953D01*
X226580047Y-81341428D01*
X226771427Y-81420700D01*
X226932325Y-81420700D01*
X227062500Y-81290525D01*
X227062500Y-80700000D01*
X227437500Y-80700000D01*
X227437500Y-81290525D01*
X227567675Y-81420700D01*
X227728573Y-81420700D01*
X227919953Y-81341428D01*
X228066428Y-81194953D01*
X228145700Y-81003574D01*
X228145700Y-80830175D01*
X228015525Y-80700000D01*
X227437500Y-80700000D01*
X227062500Y-80700000D01*
X226484475Y-80700000D01*
X226354300Y-80830175D01*
X225783459Y-80830175D01*
X225697889Y-80702111D01*
X225197889Y-80202111D01*
X225015336Y-80080133D01*
X224800000Y-80037300D01*
X224522518Y-80037300D01*
X224539448Y-79996426D01*
X226354300Y-79996426D01*
X226354300Y-80169825D01*
X226484475Y-80300000D01*
X227062500Y-80300000D01*
X227062500Y-79709475D01*
X227437500Y-79709475D01*
X227437500Y-80300000D01*
X228015525Y-80300000D01*
X228145700Y-80169825D01*
X228145700Y-79996426D01*
X228066428Y-79805047D01*
X227919953Y-79658572D01*
X227728573Y-79579300D01*
X227567675Y-79579300D01*
X227437500Y-79709475D01*
X227062500Y-79709475D01*
X226932325Y-79579300D01*
X226771427Y-79579300D01*
X226580047Y-79658572D01*
X226433572Y-79805047D01*
X226354300Y-79996426D01*
X224539448Y-79996426D01*
X224576700Y-79906492D01*
X224576700Y-79844194D01*
X224446525Y-79714019D01*
X223560700Y-79714019D01*
X223560700Y-79802919D01*
X223078100Y-79802919D01*
X223078100Y-79714019D01*
X223058100Y-79714019D01*
X223058100Y-79536219D01*
X223078100Y-79536219D01*
X223078100Y-79447319D01*
X223560700Y-79447319D01*
X223560700Y-79536219D01*
X224446525Y-79536219D01*
X224576700Y-79406044D01*
X224576700Y-79343746D01*
X224549294Y-79277581D01*
X225287276Y-79277581D01*
X225287220Y-79341633D01*
X225357513Y-79511756D01*
X225487559Y-79642029D01*
X225657559Y-79712620D01*
X225841633Y-79712780D01*
X226011756Y-79642487D01*
X226142029Y-79512441D01*
X226212620Y-79342441D01*
X226212780Y-79158367D01*
X226142487Y-78988244D01*
X226012441Y-78857971D01*
X225842441Y-78787380D01*
X225715352Y-78787270D01*
X225688922Y-78760840D01*
X225590719Y-78695223D01*
X225474881Y-78672181D01*
X224161397Y-78672181D01*
X224128066Y-78649407D01*
X224162358Y-78627341D01*
X224875359Y-78627341D01*
X224991197Y-78604299D01*
X225089400Y-78538682D01*
X225536449Y-78091633D01*
X226287220Y-78091633D01*
X226357513Y-78261756D01*
X226487559Y-78392029D01*
X226657559Y-78462620D01*
X226699721Y-78462657D01*
X226742618Y-78505553D01*
X226722183Y-78535461D01*
X226709113Y-78600000D01*
X226709113Y-79400000D01*
X226720458Y-79460293D01*
X226756091Y-79515668D01*
X226810461Y-79552817D01*
X226875000Y-79565887D01*
X227625000Y-79565887D01*
X227685293Y-79554542D01*
X227740668Y-79518909D01*
X227777817Y-79464539D01*
X227790887Y-79400000D01*
X227790887Y-78600000D01*
X227779542Y-78539707D01*
X227743909Y-78484332D01*
X227689539Y-78447183D01*
X227625000Y-78434113D01*
X227599595Y-78434113D01*
X227585091Y-78361201D01*
X227573285Y-78343532D01*
X227506468Y-78243532D01*
X227506465Y-78243530D01*
X227212744Y-77949808D01*
X227212780Y-77908367D01*
X227142487Y-77738244D01*
X227012441Y-77607971D01*
X226842441Y-77537380D01*
X226658367Y-77537220D01*
X226488244Y-77607513D01*
X226357971Y-77737559D01*
X226287380Y-77907559D01*
X226287220Y-78091633D01*
X225536449Y-78091633D01*
X225714041Y-77914041D01*
X225779658Y-77815838D01*
X225802700Y-77700000D01*
X225802700Y-75700000D01*
X225779658Y-75584162D01*
X225714041Y-75485959D01*
X224314041Y-74085959D01*
X224215838Y-74020342D01*
X224100000Y-73997300D01*
X220100000Y-73997300D01*
X219984162Y-74020342D01*
X219885959Y-74085959D01*
X218874618Y-75097300D01*
X214500000Y-75097300D01*
X214384162Y-75120342D01*
X214285959Y-75185959D01*
X210012700Y-79459218D01*
X210012700Y-75910457D01*
X210437115Y-75910457D01*
X210598561Y-76301185D01*
X210897243Y-76600388D01*
X211287688Y-76762516D01*
X211710457Y-76762885D01*
X212101185Y-76601439D01*
X212400388Y-76302757D01*
X212562516Y-75912312D01*
X212562885Y-75489543D01*
X212401439Y-75098815D01*
X212102757Y-74799612D01*
X211712312Y-74637484D01*
X211289543Y-74637115D01*
X210898815Y-74798561D01*
X210599612Y-75097243D01*
X210437484Y-75487688D01*
X210437115Y-75910457D01*
X210012700Y-75910457D01*
X210012700Y-74012700D01*
X218000000Y-74012700D01*
X218004941Y-74011699D01*
X218009103Y-74008855D01*
X218011831Y-74004616D01*
X218012700Y-74000000D01*
X218012700Y-70512700D01*
X232992630Y-70512700D01*
X234987300Y-74003373D01*
M02*
