G04 #@! TF.FileFunction,Soldermask,Top*
%FSLAX46Y46*%
G04 Gerber Fmt 4.6, Leading zero omitted, Abs format (unit mm)*
G04 Created by KiCad (PCBNEW 4.0.2-stable) date 4/4/2016 11:45:04 AM*
%MOMM*%
G01*
G04 APERTURE LIST*
%ADD10C,0.100000*%
%ADD11C,2.400000*%
%ADD12C,2.127200*%
%ADD13R,2.100000X1.300000*%
%ADD14R,2.000000X1.400000*%
%ADD15R,1.400000X2.000000*%
%ADD16R,0.900000X1.300000*%
%ADD17R,1.300000X0.900000*%
%ADD18R,1.197560X1.197560*%
%ADD19R,1.000000X0.630000*%
%ADD20R,0.630000X1.000000*%
%ADD21R,0.700000X1.600000*%
%ADD22R,1.600000X0.700000*%
%ADD23R,1.900000X1.200000*%
%ADD24R,2.450000X1.900000*%
%ADD25R,0.850000X1.850000*%
%ADD26C,1.708000*%
%ADD27O,1.708000X3.016000*%
%ADD28R,1.950000X1.700000*%
%ADD29R,1.700000X1.950000*%
%ADD30R,2.770000X2.830000*%
%ADD31R,1.200000X1.150000*%
%ADD32R,1.150000X1.200000*%
%ADD33R,0.755600X1.873200*%
%ADD34R,3.981400X3.346400*%
%ADD35C,1.822400*%
%ADD36R,1.650000X1.400000*%
%ADD37R,1.400000X2.900000*%
%ADD38R,2.900000X1.400000*%
%ADD39R,0.950000X1.400000*%
%ADD40R,1.900000X0.950000*%
%ADD41R,2.127200X2.432000*%
%ADD42O,2.127200X2.432000*%
G04 APERTURE END LIST*
D10*
D11*
X208270000Y-110375000D03*
X210810000Y-110375000D03*
X189730000Y-110375000D03*
X197730000Y-92000000D03*
X200270000Y-92000000D03*
X187190000Y-110375000D03*
X189730000Y-69625000D03*
X187190000Y-69625000D03*
X208270000Y-69625000D03*
X200270000Y-88000000D03*
X197730000Y-88000000D03*
X210810000Y-69625000D03*
D10*
G36*
X156663967Y-104754363D02*
X156294583Y-102659480D01*
X158689635Y-102237167D01*
X159059019Y-104332050D01*
X156663967Y-104754363D01*
X156663967Y-104754363D01*
G37*
D12*
X157967782Y-106023641D02*
X158267952Y-105970713D01*
X158408849Y-108525052D02*
X158709019Y-108472124D01*
X158849915Y-111026464D02*
X159150085Y-110973536D01*
X159290981Y-113527876D02*
X159591151Y-113474948D01*
X159732048Y-116029287D02*
X160032218Y-115976359D01*
X160173114Y-118530699D02*
X160473284Y-118477771D01*
D13*
X207000000Y-83300000D03*
X207000000Y-86200000D03*
X207000000Y-96700000D03*
X207000000Y-93800000D03*
D14*
X187750000Y-82000000D03*
X187750000Y-85000000D03*
D15*
X184500000Y-98500000D03*
X187500000Y-98500000D03*
D14*
X221250000Y-70525000D03*
X221250000Y-67525000D03*
D15*
X159300000Y-99700000D03*
X156300000Y-99700000D03*
X170300000Y-65800000D03*
X173300000Y-65800000D03*
D16*
X180150000Y-111200000D03*
X178650000Y-111200000D03*
X180150000Y-113000000D03*
X178650000Y-113000000D03*
X180150000Y-114800000D03*
X178650000Y-114800000D03*
D17*
X176200000Y-77750000D03*
X176200000Y-76250000D03*
X178000000Y-76250000D03*
X178000000Y-77750000D03*
D16*
X222250000Y-73000000D03*
X220750000Y-73000000D03*
X154750000Y-88250000D03*
X153250000Y-88250000D03*
X154750000Y-86750000D03*
X153250000Y-86750000D03*
X154750000Y-93500000D03*
X153250000Y-93500000D03*
X154750000Y-95250000D03*
X153250000Y-95250000D03*
X154750000Y-85000000D03*
X153250000Y-85000000D03*
X154750000Y-90000000D03*
X153250000Y-90000000D03*
X154750000Y-91750000D03*
X153250000Y-91750000D03*
D17*
X177200000Y-66350000D03*
X177200000Y-64850000D03*
D16*
X225250000Y-65500000D03*
X226750000Y-65500000D03*
X219750000Y-65500000D03*
X221250000Y-65500000D03*
D17*
X218250000Y-86500000D03*
X218250000Y-85000000D03*
X218000000Y-96250000D03*
X218000000Y-94750000D03*
D16*
X163950000Y-111650000D03*
X165450000Y-111650000D03*
X163950000Y-109900000D03*
X165450000Y-109900000D03*
D17*
X178400000Y-80250000D03*
X178400000Y-81750000D03*
D16*
X180150000Y-116600000D03*
X178650000Y-116600000D03*
D17*
X171250000Y-83250000D03*
X171250000Y-84750000D03*
D18*
X177349300Y-116600000D03*
X175850700Y-116600000D03*
X177349300Y-113000000D03*
X175850700Y-113000000D03*
X177349300Y-114800000D03*
X175850700Y-114800000D03*
X222249300Y-75000000D03*
X220750700Y-75000000D03*
X175400000Y-64850700D03*
X175400000Y-66349300D03*
X177349300Y-111200000D03*
X175850700Y-111200000D03*
D10*
G36*
X159940981Y-62332050D02*
X160310365Y-60237167D01*
X162705417Y-60659480D01*
X162336033Y-62754363D01*
X159940981Y-62332050D01*
X159940981Y-62332050D01*
G37*
D12*
X160732048Y-63970713D02*
X161032218Y-64023641D01*
X160290981Y-66472124D02*
X160591151Y-66525052D01*
X159849915Y-68973536D02*
X160150085Y-69026464D01*
X159408849Y-71474948D02*
X159709019Y-71527876D01*
X158967782Y-73976359D02*
X159267952Y-74029287D01*
X158526716Y-76477771D02*
X158826886Y-76530699D01*
D10*
G36*
X138504083Y-95223767D02*
X136999925Y-93719609D01*
X138719609Y-91999925D01*
X140223767Y-93504083D01*
X138504083Y-95223767D01*
X138504083Y-95223767D01*
G37*
D12*
X140300135Y-95515661D02*
X140515661Y-95300135D01*
X142096186Y-97311712D02*
X142311712Y-97096186D01*
X143892237Y-99107763D02*
X144107763Y-98892237D01*
X145688288Y-100903814D02*
X145903814Y-100688288D01*
X147484339Y-102699865D02*
X147699865Y-102484339D01*
X149280391Y-104495917D02*
X149495917Y-104280391D01*
D10*
G36*
X147776233Y-75504083D02*
X149280391Y-73999925D01*
X151000075Y-75719609D01*
X149495917Y-77223767D01*
X147776233Y-75504083D01*
X147776233Y-75504083D01*
G37*
D12*
X147484339Y-77300135D02*
X147699865Y-77515661D01*
X145688288Y-79096186D02*
X145903814Y-79311712D01*
X143892237Y-80892237D02*
X144107763Y-81107763D01*
X142096186Y-82688288D02*
X142311712Y-82903814D01*
X140300135Y-84484339D02*
X140515661Y-84699865D01*
X138504083Y-86280391D02*
X138719609Y-86495917D01*
D19*
X166630000Y-113320000D03*
X166630000Y-113720000D03*
X166630000Y-114120000D03*
X166630000Y-114520000D03*
X166630000Y-114920000D03*
X166630000Y-115320000D03*
D20*
X167130000Y-115820000D03*
X167530000Y-115820000D03*
X167930000Y-115820000D03*
X168330000Y-115820000D03*
X168730000Y-115820000D03*
X169130000Y-115820000D03*
D19*
X169630000Y-115320000D03*
X169630000Y-114920000D03*
X169630000Y-114520000D03*
X169630000Y-114120000D03*
X169630000Y-113720000D03*
X169630000Y-113320000D03*
D20*
X169130000Y-112820000D03*
X168730000Y-112820000D03*
X168330000Y-112820000D03*
X167930000Y-112820000D03*
X167530000Y-112820000D03*
X167130000Y-112820000D03*
D21*
X178249937Y-84249937D03*
D22*
X174249937Y-89249937D03*
X174249937Y-92749938D03*
X174249937Y-93249938D03*
X174249937Y-93749938D03*
D21*
X176249937Y-95749938D03*
X177749937Y-95749938D03*
X178249937Y-95749938D03*
X178749937Y-95749938D03*
X179249937Y-95749938D03*
D22*
X185749938Y-89749937D03*
X185749938Y-89249937D03*
X185749938Y-88749937D03*
X185749938Y-88249937D03*
X185749938Y-87749937D03*
X185749938Y-87249937D03*
D21*
X183749938Y-84249937D03*
X183249938Y-84249937D03*
X180749938Y-95749938D03*
X181249938Y-95749938D03*
X181749938Y-95749938D03*
X180749938Y-84249937D03*
X180249938Y-84249937D03*
X179749937Y-84249937D03*
X179249937Y-84249937D03*
X178749937Y-84249937D03*
X177749937Y-84249937D03*
X177249937Y-84249937D03*
X182249938Y-95749938D03*
X182749938Y-95749938D03*
D22*
X185749938Y-93749938D03*
X185749938Y-93249938D03*
X185749938Y-92749938D03*
X185749938Y-92249938D03*
X174249937Y-89749937D03*
X174249937Y-90249938D03*
X174249937Y-90749938D03*
X174249937Y-91249938D03*
D21*
X179749937Y-95749938D03*
X180249938Y-95749938D03*
D22*
X185749938Y-91749938D03*
X185749938Y-91249938D03*
X185749938Y-90749938D03*
X185749938Y-90249938D03*
D21*
X182749938Y-84249937D03*
X182249938Y-84249937D03*
X181749938Y-84249937D03*
D22*
X174249937Y-86749937D03*
X174249937Y-87249937D03*
X174249937Y-87749937D03*
D21*
X181249938Y-84249937D03*
D22*
X174249937Y-88249937D03*
X174249937Y-88749937D03*
X174249937Y-86249937D03*
D21*
X183249938Y-95749938D03*
D22*
X185749938Y-86749937D03*
X174249937Y-92249938D03*
D21*
X177249937Y-95749938D03*
X183749938Y-95749938D03*
D22*
X185749938Y-86249937D03*
D21*
X176249937Y-84249937D03*
D22*
X174249937Y-91749938D03*
D21*
X176749937Y-95749938D03*
X176749937Y-84249937D03*
D23*
X233175000Y-71250000D03*
X233175000Y-72350000D03*
X233175000Y-73450000D03*
X233175000Y-74550000D03*
X233175000Y-75650000D03*
X233175000Y-76750000D03*
X233175000Y-77850000D03*
X233175000Y-78950000D03*
D24*
X235775000Y-67575000D03*
X227475000Y-67575000D03*
X227475000Y-81325000D03*
X235775000Y-81325000D03*
D25*
X145075000Y-92950000D03*
X145725000Y-92950000D03*
X146375000Y-92950000D03*
X147025000Y-92950000D03*
X147675000Y-92950000D03*
X148325000Y-92950000D03*
X148975000Y-92950000D03*
X149625000Y-92950000D03*
X150275000Y-92950000D03*
X150925000Y-92950000D03*
X150925000Y-87050000D03*
X150275000Y-87050000D03*
X149625000Y-87050000D03*
X148975000Y-87050000D03*
X148325000Y-87050000D03*
X147675000Y-87050000D03*
X147025000Y-87050000D03*
X146375000Y-87050000D03*
X145725000Y-87050000D03*
X145075000Y-87050000D03*
D26*
X227540000Y-122000000D03*
X225000000Y-122000000D03*
X222460000Y-122000000D03*
D27*
X227027500Y-110952500D03*
X229027500Y-110952500D03*
X231027500Y-110952500D03*
X227027500Y-116952500D03*
X229027500Y-116952500D03*
X231027500Y-116952500D03*
D28*
X173025000Y-108500000D03*
X173025000Y-104000000D03*
X180975000Y-104000000D03*
X180975000Y-108500000D03*
X234725000Y-58500000D03*
X234725000Y-63000000D03*
X226775000Y-63000000D03*
X226775000Y-58500000D03*
D29*
X224250000Y-62975000D03*
X219750000Y-62975000D03*
X219750000Y-55025000D03*
X224250000Y-55025000D03*
D30*
X223120000Y-90000000D03*
X216880000Y-90000000D03*
D31*
X172650000Y-68000000D03*
X174150000Y-68000000D03*
X171150000Y-68000000D03*
X169650000Y-68000000D03*
X177150000Y-68000000D03*
X175650000Y-68000000D03*
X159350000Y-97500000D03*
X157850000Y-97500000D03*
X168250000Y-117750000D03*
X169750000Y-117750000D03*
D32*
X173300000Y-115250000D03*
X173300000Y-113750000D03*
X216250000Y-93500000D03*
X216250000Y-95000000D03*
X216500000Y-86500000D03*
X216500000Y-85000000D03*
X143000000Y-90750000D03*
X143000000Y-89250000D03*
X183750000Y-104000000D03*
X183750000Y-105500000D03*
X169500000Y-84750000D03*
X169500000Y-83250000D03*
X174500000Y-82750000D03*
X174500000Y-84250000D03*
X172750000Y-84250000D03*
X172750000Y-82750000D03*
X174000000Y-97250000D03*
X174000000Y-98750000D03*
D31*
X186750000Y-96000000D03*
X185250000Y-96000000D03*
D32*
X185500000Y-82750000D03*
X185500000Y-84250000D03*
D31*
X178150000Y-74800000D03*
X176650000Y-74800000D03*
D33*
X209724160Y-87569400D03*
X210374400Y-87569400D03*
X211024641Y-87569400D03*
X211674881Y-87569400D03*
X212325119Y-87569400D03*
X212975359Y-87569400D03*
X213625600Y-87569400D03*
X214275840Y-87569400D03*
X214275840Y-81930600D03*
X213625600Y-81930600D03*
X212975359Y-81930600D03*
X212325119Y-81930600D03*
X211674881Y-81930600D03*
X211024641Y-81930600D03*
X210374400Y-81930600D03*
X209724160Y-81930600D03*
D34*
X212000000Y-84750000D03*
D33*
X209724160Y-98069400D03*
X210374400Y-98069400D03*
X211024641Y-98069400D03*
X211674881Y-98069400D03*
X212325119Y-98069400D03*
X212975359Y-98069400D03*
X213625600Y-98069400D03*
X214275840Y-98069400D03*
X214275840Y-92430600D03*
X213625600Y-92430600D03*
X212975359Y-92430600D03*
X212325119Y-92430600D03*
X211674881Y-92430600D03*
X211024641Y-92430600D03*
X210374400Y-92430600D03*
X209724160Y-92430600D03*
D34*
X212000000Y-95250000D03*
D35*
X161590000Y-91990000D03*
X161590000Y-89450000D03*
X169210000Y-89450000D03*
X169210000Y-94530000D03*
X169210000Y-102150000D03*
X161590000Y-94530000D03*
X169210000Y-99610000D03*
X161590000Y-102150000D03*
X169210000Y-91990000D03*
X161590000Y-97070000D03*
X169210000Y-97070000D03*
X161590000Y-99610000D03*
D36*
X171300000Y-115500000D03*
X171300000Y-113500000D03*
D37*
X179700000Y-75600000D03*
X182700000Y-75600000D03*
D38*
X174800000Y-69900000D03*
X174800000Y-72900000D03*
D39*
X172349938Y-72550063D03*
X171399937Y-72550063D03*
X170449937Y-72550063D03*
X172349938Y-69850062D03*
X170449937Y-69850062D03*
D40*
X182900063Y-71835063D03*
X177500062Y-71835063D03*
X182900063Y-73105063D03*
X182900063Y-70565062D03*
X182900063Y-69295062D03*
X177500062Y-70565062D03*
X177500062Y-69295062D03*
X177500062Y-73105063D03*
D41*
X177000000Y-124000000D03*
D42*
X174460000Y-124000000D03*
X171920000Y-124000000D03*
X169380000Y-124000000D03*
X166840000Y-124000000D03*
D41*
X177000000Y-56000000D03*
D42*
X174460000Y-56000000D03*
X171920000Y-56000000D03*
X169380000Y-56000000D03*
X166840000Y-56000000D03*
M02*
