G04 #@! TF.FileFunction,Profile,NP*
%FSLAX46Y46*%
G04 Gerber Fmt 4.6, Leading zero omitted, Abs format (unit mm)*
G04 Created by KiCad (PCBNEW 4.0.2-stable) date 4/4/2016 11:45:04 AM*
%MOMM*%
G01*
G04 APERTURE LIST*
%ADD10C,0.100000*%
%ADD11C,0.150000*%
G04 APERTURE END LIST*
D10*
D11*
X171000000Y-127000000D02*
X161000000Y-127000000D01*
X171000000Y-53000000D02*
X161000000Y-53000000D01*
X232500000Y-53000000D02*
X237000000Y-57500000D01*
X237000000Y-123500000D02*
X233500000Y-127000000D01*
X237000000Y-123500000D02*
X237000000Y-57500000D01*
X137000000Y-77000000D02*
X161000000Y-53000000D01*
X137000000Y-103000000D02*
X161000000Y-127000000D01*
X137000000Y-77000000D02*
X137000000Y-103000000D01*
X218000000Y-53000000D02*
X232500000Y-53000000D01*
X218000000Y-127000000D02*
X233500000Y-127000000D01*
X171000000Y-127000000D02*
X173000000Y-127000000D01*
X172000000Y-53000000D02*
X171000000Y-53000000D01*
X180000000Y-127000000D02*
X173000000Y-127000000D01*
X180000000Y-118000000D02*
X180000000Y-127000000D01*
X218000000Y-118000000D02*
X180000000Y-118000000D01*
X218000000Y-127000000D02*
X218000000Y-118000000D01*
X218000000Y-62000000D02*
X218000000Y-53000000D01*
X183000000Y-62000000D02*
X218000000Y-62000000D01*
X180000000Y-53000000D02*
X172000000Y-53000000D01*
X180000000Y-62000000D02*
X180000000Y-53000000D01*
X183000000Y-62000000D02*
X180000000Y-62000000D01*
M02*
